$MeshFormat
4.1 0 8
$EndMeshFormat
$PhysicalNames
8
2 2 "Fault"
2 3 "left"
2 4 "right"
2 5 "bottom"
2 6 "top"
2 7 "front"
2 8 "back"
3 1 "Domain"
$EndPhysicalNames
$Entities
16 28 16 3
1 0 0 10 0 
2 0 0 0 0 
3 0 10 10 0 
4 0 10 0 0 
5 10 0 10 0 
6 10 0 0 0 
7 10 10 10 0 
8 10 10 0 0 
101 0 0 0 0 
102 10 10 0 0 
103 10 10 10 0 
104 0 0 10 0 
105 0 0 0 0 
106 0 0 10 0 
107 10 10 0 0 
108 10 10 10 0 
1 -1e-07 -1e-07 -1.000000002804313e-07 1e-07 1e-07 10.0000001 0 2 2 -1 
2 -1e-07 -1.000000002804313e-07 9.999999900000001 1e-07 10.0000001 10.0000001 0 2 1 -3 
3 -1e-07 9.999999900000001 -1.000000002804313e-07 1e-07 10.0000001 10.0000001 0 2 4 -3 
4 -1e-07 -1.000000002804313e-07 -1e-07 1e-07 10.0000001 1e-07 0 2 2 -4 
5 9.999999900000001 -1e-07 -1.000000002804313e-07 10.0000001 1e-07 10.0000001 0 2 6 -5 
6 9.999999900000001 -1.000000002804313e-07 9.999999900000001 10.0000001 10.0000001 10.0000001 0 2 5 -7 
7 9.999999900000001 9.999999900000001 -1.000000002804313e-07 10.0000001 10.0000001 10.0000001 0 2 8 -7 
8 9.999999900000001 -1.000000002804313e-07 -1e-07 10.0000001 10.0000001 1e-07 0 2 6 -8 
9 -1.000000002804313e-07 -1e-07 -1e-07 10.0000001 1e-07 1e-07 0 2 2 -6 
10 -1.000000002804313e-07 -1e-07 9.999999900000001 10.0000001 1e-07 10.0000001 0 2 1 -5 
11 -1.000000002804313e-07 9.999999900000001 -1e-07 10.0000001 10.0000001 1e-07 0 2 4 -8 
12 -1.000000002804313e-07 9.999999900000001 9.999999900000001 10.0000001 10.0000001 10.0000001 0 2 3 -7 
101 -1.000000002804313e-07 -1.000000002804313e-07 -1e-07 10.0000001 10.0000001 1e-07 0 2 101 -102 
102 9.999999900000001 9.999999900000001 -1.000000002804313e-07 10.0000001 10.0000001 10.0000001 0 2 102 -103 
103 -1.000000002804313e-07 -1.000000002804313e-07 9.999999900000001 10.0000001 10.0000001 10.0000001 0 2 103 -104 
104 -1e-07 -1e-07 -1.000000002804313e-07 1e-07 1e-07 10.0000001 0 2 104 -101 
105 -1.000000006661338e-07 -1.000000006661338e-07 -1.000000002804313e-07 1.000000006661338e-07 1.000000006661338e-07 10.0000001 0 2 105 -106 
106 -1e-07 -1.000000002804313e-07 9.999999900000001 1e-07 10.0000001 10.0000001 0 2 106 -3 
107 -1e-07 -1.000000002804313e-07 -1e-07 1e-07 10.0000001 1e-07 0 2 105 -4 
108 -1.000000002804313e-07 -1.000000002804313e-07 -1e-07 10.0000001 10.0000001 1e-07 0 2 105 -107 
109 9.999999900000001 9.999999900000001 -1.000000002804313e-07 10.0000001 10.0000001 10.0000001 0 2 107 -108 
110 -1.000000002804313e-07 -1.000000002804313e-07 9.999999900000001 10.0000001 10.0000001 10.0000001 0 2 108 -106 
111 -1.000000002804313e-07 9.999999900000001 9.999999900000001 10.0000001 10.0000001 10.0000001 0 2 3 -108 
112 -1.000000002804313e-07 9.999999900000001 -1e-07 10.0000001 10.0000001 1e-07 0 2 4 -107 
113 -1.000000002804313e-07 -1e-07 -1e-07 10.0000001 1e-07 1e-07 0 2 105 -6 
114 -1.000000002804313e-07 -1e-07 9.999999900000001 10.0000001 1e-07 10.0000001 0 2 106 -5 
115 9.999999900000001 -1.000000002804313e-07 -1e-07 10.0000001 10.0000001 1e-07 0 2 6 -107 
116 9.999999900000001 -1.000000002804313e-07 9.999999900000001 10.0000001 10.0000001 10.0000001 0 2 5 -108 
1 -1e-07 -1.000000002804313e-07 -1.000000002804313e-07 1e-07 10.0000001 10.0000001 1 7 4 -1 4 3 -2 
2 9.999999900000001 -1.000000002804313e-07 -1.000000002804313e-07 10.0000001 10.0000001 10.0000001 1 8 4 -5 8 7 -6 
3 -1.000000002804313e-07 -1e-07 -1.000000002804313e-07 10.0000001 1e-07 10.0000001 1 4 4 -9 1 10 -5 
4 -1.000000002804313e-07 9.999999900000001 -1.000000002804313e-07 10.0000001 10.0000001 10.0000001 1 6 4 -11 3 12 -7 
5 -1.000000002804313e-07 -1.000000002804313e-07 -1e-07 10.0000001 10.0000001 1e-07 1 3 4 -4 9 8 -11 
6 -1.000000002804313e-07 -1.000000002804313e-07 9.999999900000001 10.0000001 10.0000001 10.0000001 1 5 4 -2 10 6 -12 
101 -1.000000002804313e-07 -1.000000002804313e-07 -1.000000002804313e-07 10.0000001 10.0000001 10.0000001 1 2 4 101 102 103 104 
102 -1.000000006661338e-07 -1.000000002804313e-07 -1.000000002804313e-07 1.000000006661338e-07 10.0000001 10.0000001 0 4 -105 107 3 -106 
103 -1.000000002804313e-07 -1.000000002804313e-07 -1.000000002804313e-07 10.0000001 10.0000001 10.0000001 0 4 108 109 110 -105 
104 -1.000000002804313e-07 -1.000000002804313e-07 9.999999900000001 10.0000001 10.0000001 10.0000001 0 3 -106 -110 -111 
105 -1.000000002804313e-07 9.999999900000001 -1.000000002804313e-07 10.0000001 10.0000001 10.0000001 0 4 -112 3 111 -109 
106 -1.000000002804313e-07 -1.000000002804313e-07 -1e-07 10.0000001 10.0000001 1e-07 0 3 -107 108 -112 
107 -1.000000002804313e-07 -1.000000006661338e-07 -1.000000002804313e-07 10.0000001 1.000000006661338e-07 10.0000001 0 4 -113 105 114 -5 
108 -1.000000002804313e-07 -1.000000002804313e-07 -1e-07 10.0000001 10.0000001 1e-07 0 3 -108 113 115 
109 9.999999900000001 -1.000000002804313e-07 -1.000000002804313e-07 10.0000001 10.0000001 10.0000001 0 4 -5 115 109 -116 
110 -1.000000002804313e-07 -1.000000002804313e-07 9.999999900000001 10.0000001 10.0000001 10.0000001 0 3 110 114 116 
1 -1.000000002804313e-07 -1.000000002804313e-07 -1.000000002804313e-07 10.0000001 10.0000001 10.0000001 1 1 6 -1 2 -3 4 -5 6 
2 -1.000000002804313e-07 -1.000000002804313e-07 -1.000000002804313e-07 10.0000001 10.0000001 10.0000001 0 5 -102 103 104 105 -106 
3 -1.000000002804313e-07 -1.000000002804313e-07 -1.000000002804313e-07 10.0000001 10.0000001 10.0000001 0 5 -107 -108 109 110 -103 
$EndEntities
$Nodes
36 57 1 57
0 1 0 1
1
0 0 10
0 2 0 1
2
0 0 0
0 3 0 1
3
0 10 10
0 4 0 1
4
0 10 0
0 5 0 1
5
10 0 10
0 6 0 1
6
10 0 0
0 7 0 1
7
10 10 10
0 8 0 1
8
10 10 0
0 101 0 1
9
0 0 0
0 102 0 1
10
10 10 0
0 103 0 1
11
10 10 10
0 104 0 1
12
0 0 10
1 1 0 1
13
0 0 5
1 2 0 1
14
0 5 10
1 3 0 1
15
0 10 5
1 4 0 1
16
0 5 0
1 5 0 1
17
10 0 5
1 6 0 1
18
10 5 10
1 7 0 1
19
10 10 5
1 8 0 1
20
10 5 0
1 9 0 1
21
5 0 0
1 10 0 1
22
5 0 10
1 11 0 1
23
5 10 0
1 12 0 1
24
5 10 10
1 101 0 1
25
5 5 0
1 102 0 1
26
10 10 5
1 103 0 1
27
5 5 10
1 104 0 1
28
0 0 5
2 1 0 4
29
30
31
32
0 7.5 7.5
0 3.75 6.25
0 2.8125 2.8125
0 6.54296875 3.45703125
2 2 0 4
33
34
35
36
10 7.5 7.5
10 3.75 6.25
10 2.8125 2.8125
10 6.54296875 3.45703125
2 3 0 4
37
38
39
40
7.5 0 7.5
3.75 0 6.25
2.8125 0 2.8125
6.54296875 0 3.45703125
2 4 0 4
41
42
43
44
7.5 10 7.5
3.75 10 6.25
2.8125 10 2.8125
6.54296875 10 3.45703125
2 5 0 4
45
46
47
48
7.5 7.5 0
3.75 6.25 0
2.8125 2.8125 0
6.54296875 3.45703125 0
2 6 0 4
49
50
51
52
7.5 7.5 10
3.75 6.25 10
2.8125 2.8125 10
6.54296875 3.45703125 10
2 101 0 5
53
54
55
56
57
7.5 7.5 6.5
2.5 2.5 3.5
7.5 7.5 3.3
2.5 2.5 6.7
5 5 5
3 1 0 0
$EndNodes
$Elements
8 194 1 194
2 1 2 14
1 13 1 30 
2 1 14 30 
3 15 4 32 
4 4 16 32 
5 2 13 31 
6 16 2 31 
7 14 3 29 
8 3 15 29 
9 30 29 32 
10 29 15 32 
11 14 29 30 
12 31 30 32 
13 16 31 32 
14 13 30 31 
2 2 2 14
15 17 34 5 
16 5 34 18 
17 19 36 8 
18 8 36 20 
19 6 35 17 
20 20 35 6 
21 18 33 7 
22 7 33 19 
23 34 36 33 
24 33 36 19 
25 18 34 33 
26 35 36 34 
27 20 36 35 
28 17 35 34 
2 3 2 14
29 22 1 38 
30 1 13 38 
31 6 17 40 
32 21 6 40 
33 13 2 39 
34 2 21 39 
35 17 5 37 
36 5 22 37 
37 37 38 40 
38 17 37 40 
39 37 22 38 
40 38 39 40 
41 39 21 40 
42 38 13 39 
2 4 2 14
43 24 42 3 
44 3 42 15 
45 8 44 19 
46 23 44 8 
47 15 43 4 
48 4 43 23 
49 19 41 7 
50 7 41 24 
51 41 44 42 
52 19 44 41 
53 41 42 24 
54 42 44 43 
55 43 44 23 
56 42 43 15 
2 5 2 14
57 16 4 46 
58 4 23 46 
59 20 6 48 
60 6 21 48 
61 2 16 47 
62 21 2 47 
63 8 20 45 
64 23 8 45 
65 46 45 48 
66 45 20 48 
67 23 45 46 
68 47 46 48 
69 21 47 48 
70 16 46 47 
2 6 2 14
71 14 50 3 
72 3 50 24 
73 18 52 5 
74 5 52 22 
75 1 51 14 
76 22 51 1 
77 7 49 18 
78 24 49 7 
79 50 52 49 
80 49 52 18 
81 24 50 49 
82 51 52 50 
83 22 52 51 
84 14 51 50 
2 101 2 16
85 25 54 9 
86 27 53 11 
87 12 56 27 
88 10 55 25 
89 9 54 28 
90 26 55 10 
91 11 53 26 
92 28 56 12 
93 53 55 26 
94 54 56 28 
95 53 57 55 
96 54 57 56 
97 25 57 54 
98 55 57 25 
99 27 57 53 
100 56 57 27 
3 1 4 94
101 39 47 31 46 
102 30 34 38 46 
103 34 42 44 46 
104 30 32 46 31 
105 39 47 46 48 
106 38 52 34 50 
107 34 33 44 42 
108 24 41 50 42 
109 39 46 38 48 
110 44 19 36 8 
111 4 43 46 23 
112 30 13 38 1 
113 44 43 46 42 
114 44 46 43 23 
115 39 38 40 48 
116 30 50 34 42 
117 30 29 42 32 
118 30 29 50 42 
119 44 19 33 36 
120 32 42 46 43 
121 5 22 52 37 
122 44 19 41 33 
123 50 41 49 33 
124 30 50 38 34 
125 46 45 36 48 
126 5 34 37 52 
127 30 39 38 13 
128 38 34 37 40 
129 20 35 36 48 
130 20 36 45 48 
131 30 31 39 13 
132 30 32 42 46 
133 5 18 34 52 
134 52 50 49 33 
135 38 37 34 52 
136 44 33 41 42 
137 44 36 45 8 
138 38 46 34 48 
139 39 13 31 2 
140 30 14 50 29 
141 4 15 32 43 
142 34 46 44 36 
143 39 31 47 2 
144 52 50 33 34 
145 33 18 49 52 
146 30 38 39 46 
147 20 8 45 36 
148 34 46 36 48 
149 40 21 48 6 
150 32 15 42 43 
151 32 16 46 31 
152 4 46 32 16 
153 4 32 46 43 
154 50 42 41 33 
155 35 40 34 48 
156 38 34 40 48 
157 30 34 46 42 
158 30 39 31 46 
159 5 37 34 17 
160 39 48 40 21 
161 33 18 52 34 
162 34 42 50 33 
163 7 33 41 19 
164 44 46 45 36 
165 24 50 3 42 
166 35 17 34 40 
167 34 44 33 36 
168 39 47 48 21 
169 29 15 3 42 
170 29 42 32 15 
171 47 16 2 31 
172 47 31 46 16 
173 44 45 46 23 
174 44 45 23 8 
175 30 50 51 38 
176 50 42 29 3 
177 50 3 29 14 
178 34 40 17 37 
179 7 49 41 33 
180 7 33 18 49 
181 24 49 50 41 
182 24 41 7 49 
183 30 14 51 50 
184 38 37 52 22 
185 39 47 21 2 
186 35 34 36 48 
187 35 6 17 40 
188 35 6 40 48 
189 20 6 35 48 
190 30 38 51 1 
191 51 52 38 50 
192 51 38 52 22 
193 51 1 38 22 
194 30 51 14 1 
$EndElements
