$MeshFormat
4.1 0 8
$EndMeshFormat
$PhysicalNames
20
1 12 "fault"
1 13 "bottom"
1 14 "top"
1 15 "left"
1 16 "right"
1 17 "interface_1"
1 18 "interface_2"
1 19 "interface_3"
1 20 "interface_4"
2 1 "domain"
2 2 "layer_11"
2 3 "layer_12"
2 4 "layer_21"
2 5 "layer_22"
2 6 "layer_31"
2 7 "layer_32"
2 8 "layer_41"
2 9 "layer_42"
2 10 "layer_51"
2 11 "layer_52"
$EndPhysicalNames
$Entities
22 31 10 0
1 0 0 0 0 
2 200 0 0 0 
3 0 80 0 0 
4 86 80 0 0 
5 200 92.5 0 0 
6 88.5 92.5 0 0 
7 0 95 0 0 
8 89 95 0 0 
9 200 107.5 0 0 
10 91.5 107.5 0 0 
11 0 105 0 0 
12 91 105 0 0 
13 200 117.5 0 0 
14 93.5 117.5 0 0 
15 0 120 0 0 
16 94 120 0 0 
17 200 132.5 0 0 
18 96.5 132.5 0 0 
19 0 200 0 0 
20 200 200 0 0 
1001 70 0 0 0 
1002 110 200 0 0 
1 -1.000000011686097e-07 -1e-07 -1e-07 70.00000009999999 1e-07 1e-07 1 13 2 1 -1001 
2 -1.000000011686097e-07 79.99999990000001 -1e-07 86.00000009999999 80.00000009999999 1e-07 1 17 2 3 -4 
3 88.49999990000001 92.49999990000001 -1e-07 200.0000001 92.50000009999999 1e-07 1 17 2 5 -6 
4 -1.000000011686097e-07 94.99999990000001 -1e-07 89.00000009999999 95.00000009999999 1e-07 1 18 2 7 -8 
5 91.49999990000001 107.4999999 -1e-07 200.0000001 107.5000001 1e-07 1 18 2 9 -10 
6 -1.000000011686097e-07 104.9999999 -1e-07 91.00000009999999 105.0000001 1e-07 1 19 2 11 -12 
9 93.49999990000001 117.4999999 -1e-07 200.0000001 117.5000001 1e-07 1 19 2 13 -14 
10 -1.000000011686097e-07 119.9999999 -1e-07 94.00000009999999 120.0000001 1e-07 1 20 2 15 -16 
11 96.49999990000001 132.4999999 -1e-07 200.0000001 132.5000001 1e-07 1 20 2 17 -18 
12 -1.000000011686097e-07 199.9999999 -1e-07 110.0000001 200.0000001 1e-07 1 14 2 19 -1002 
13 -1e-07 -1.000000011686097e-07 -1e-07 1e-07 80.00000009999999 1e-07 1 15 2 1 -3 
14 -1e-07 79.99999990000001 -1e-07 1e-07 95.00000009999999 1e-07 1 15 2 3 -7 
15 -1e-07 94.99999990000001 -1e-07 1e-07 105.0000001 1e-07 1 15 2 7 -11 
16 -1e-07 104.9999999 -1e-07 1e-07 120.0000001 1e-07 1 15 2 11 -15 
17 -1e-07 119.9999999 -1e-07 1e-07 200.0000001 1e-07 1 15 2 15 -19 
18 199.9999999 -1.000000011686097e-07 -1e-07 200.0000001 92.50000009999999 1e-07 1 16 2 2 -5 
19 199.9999999 92.49999990000001 -1e-07 200.0000001 107.5000001 1e-07 1 16 2 5 -9 
20 199.9999999 107.4999999 -1e-07 200.0000001 117.5000001 1e-07 1 16 2 9 -13 
21 199.9999999 117.4999999 -1e-07 200.0000001 132.5000001 1e-07 1 16 2 13 -17 
22 199.9999999 132.4999999 -1e-07 200.0000001 200.0000001 1e-07 1 16 2 17 -20 
23 69.99999990000001 -1e-07 -1e-07 200.0000001 1e-07 1e-07 1 13 2 1001 -2 
24 109.9999999 199.9999999 -1e-07 200.0000001 200.0000001 1e-07 1 14 2 1002 -20 
100 69.99999990000001 -1.000000011686097e-07 -1e-07 86.00000009999999 80.00000009999999 1e-07 1 12 2 1001 -4 
101 85.99999990000001 79.99999990000001 -1e-07 88.50000009999999 92.50000009999999 1e-07 1 12 2 4 -6 
102 88.49999990000001 92.49999990000001 -1e-07 89.00000009999999 95.00000009999999 1e-07 1 12 2 6 -8 
103 88.99999990000001 94.99999990000001 -1e-07 91.00000009999999 105.0000001 1e-07 1 12 2 8 -12 
104 90.99999990000001 104.9999999 -1e-07 91.50000009999999 107.5000001 1e-07 1 12 2 12 -10 
105 91.49999990000001 107.4999999 -1e-07 93.50000009999999 117.5000001 1e-07 1 12 2 10 -14 
106 93.49999990000001 117.4999999 -1e-07 94.00000009999999 120.0000001 1e-07 1 12 2 14 -16 
107 93.99999990000001 119.9999999 -1e-07 96.50000009999999 132.5000001 1e-07 1 12 2 16 -18 
108 96.49999990000001 132.4999999 -1e-07 110.0000001 200.0000001 1e-07 1 12 2 18 -1002 
1 -1.000000011686097e-07 -1.000000011686097e-07 -1e-07 86.00000009999999 80.00000009999999 1e-07 2 1 2 4 1 100 -2 -13 
2 69.99999990000001 -1.000000011686097e-07 -1e-07 200.0000001 92.50000009999999 1e-07 2 1 3 5 23 18 3 -101 -100 
3 -1.000000011686097e-07 79.99999990000001 -1e-07 89.00000009999999 95.00000009999999 1e-07 2 1 4 5 2 101 102 -4 -14 
4 88.49999990000001 92.49999990000001 -1e-07 200.0000001 107.5000001 1e-07 2 1 5 6 3 102 103 104 -5 -19 
6 91.49999990000001 107.4999999 -1e-07 200.0000001 117.5000001 1e-07 2 1 7 4 5 105 -9 -20 
7 -1.000000011686097e-07 104.9999999 -1e-07 94.00000009999999 120.0000001 1e-07 2 1 8 6 6 104 105 106 -10 -16 
8 93.49999990000001 117.4999999 -1e-07 200.0000001 132.5000001 1e-07 2 1 9 5 9 106 107 -11 -21 
9 -1.000000011686097e-07 119.9999999 -1e-07 110.0000001 200.0000001 1e-07 2 1 10 5 10 107 108 -12 -17 
10 96.49999990000001 132.4999999 -1e-07 200.0000001 200.0000001 1e-07 2 1 11 4 11 108 24 -22 
25 -1.000000011686097e-07 94.99999990000001 -1e-07 91.00000009999999 105.0000001 1e-07 2 1 6 4 4 103 -6 -15 
$EndEntities
$Nodes
63 184 1 184
0 1 0 1
1
0 0 0
0 2 0 1
2
200 0 0
0 3 0 1
3
0 80 0
0 4 0 1
4
86 80 0
0 5 0 1
5
200 92.5 0
0 6 0 1
6
88.5 92.5 0
0 7 0 1
7
0 95 0
0 8 0 1
8
89 95 0
0 9 0 1
9
200 107.5 0
0 10 0 1
10
91.5 107.5 0
0 11 0 1
11
0 105 0
0 12 0 1
12
91 105 0
0 13 0 1
13
200 117.5 0
0 14 0 1
14
93.5 117.5 0
0 15 0 1
15
0 120 0
0 16 0 1
16
94 120 0
0 17 0 1
17
200 132.5 0
0 18 0 1
18
96.5 132.5 0
0 19 0 1
19
0 200 0
0 20 0 1
20
200 200 0
0 1001 0 1
21
70 0 0
0 1002 0 1
22
110 200 0
1 1 0 3
23
24
25
24.32813701804621 0 0
44.73872837338607 0 0
59.37485189433045 0 0
1 2 0 3
26
27
28
21.5 80 0
43 80 0
64.5 80 0
1 3 0 4
29
30
31
32
177.7 92.5 0
155.4000000000001 92.5 0
133.1 92.5 0
110.7999999999999 92.5 0
1 4 0 3
33
34
35
22.25 95 0
44.5 95 0
66.75 95 0
1 5 0 4
36
37
38
39
178.3 107.5 0
156.6000000000001 107.5 0
134.9000000000001 107.5 0
113.2 107.5 0
1 6 0 3
40
41
42
22.74999999999994 105 0
45.49999999999996 105 0
68.24999999999997 105 0
1 9 0 4
43
44
45
46
178.7 117.5 0
157.4 117.5 0
136.1 117.5 0
114.8 117.5 0
1 10 0 3
47
48
49
23.49999999999995 120 0
46.99999999999996 120 0
70.49999999999997 120 0
1 11 0 4
50
51
52
53
179.3 132.5 0
158.6000000000001 132.5 0
137.9 132.5 0
117.2 132.5 0
1 12 0 5
54
55
56
57
58
22.8914080714904 200 0
45.78281614298077 200 0
68.47886370651885 200 0
86.74282535817727 200 0
100.1003965772767 200 0
1 13 0 3
59
60
61
0 19.99999999999994 0
0 39.99999999999995 0
0 59.99999999999998 0
1 14 0 0
1 15 0 0
1 16 0 0
1 17 0 3
62
63
64
0 139.9999999999999 0
0 159.9999999999999 0
0 180 0
1 18 0 3
65
66
67
200 23.12499999999994 0
200 46.24999999999996 0
200 69.37499999999997 0
1 19 0 0
1 20 0 0
1 21 0 0
1 22 0 2
68
69
200 154.9999999999999 0
200 177.4999999999999 0
1 23 0 6
70
71
72
73
74
75
79.69487787048367 0 0
92.70048485499314 0 0
110.3788547274833 0 0
132.5649505785666 0 0
155.0433003857111 0 0
177.5216501928556 0 0
1 24 0 4
76
77
78
79
120.1880548893184 200 0
134.0497933953827 200 0
153.152101041983 200 0
176.5305844606995 200 0
1 100 0 4
80
81
82
83
71.83455509376952 9.172775468847638 0
74.27105853653929 21.35529268269643 0
77.55240710482127 37.76203552410634 0
81.72737821989938 58.63689109949691 0
1 101 0 0
1 102 0 0
1 103 0 0
1 104 0 0
1 105 0 0
1 106 0 0
1 107 0 0
1 108 0 3
84
85
86
101.210741991801 156.0537099590052 0
105.1261920046093 175.6309600230467 0
107.9451177526117 189.7255887630583 0
2 1 0 16
87
88
89
90
91
92
93
94
95
96
97
98
99
100
101
102
63.53222007905341 32.03456665172676 0
34.53343269571614 15.17567270102607 0
32.47440125270388 60.48315871361169 0
61.99251295346293 58.62338433151487 0
52.31106968596252 10.89473931781323 0
17.32050807568875 29.99999999999994 0
49.76486481267564 26.3694083942609 0
63.80569383092088 17.11345667261874 0
16.97701684006896 49.40505572795181 0
33.08706227264907 39.98465363438365 0
50.46664822945834 46.99454869936834 0
15.1931828291705 13.68463541119358 0
63.46523410099667 7.436194291855927 0
66.0886044917121 45.80047025458715 0
14.6408292423675 65.65202579826047 0
48.44923947006038 65.43865781008806 0
2 2 0 23
103
104
105
106
107
108
109
110
111
112
113
114
115
116
117
118
119
120
121
122
123
124
125
95.78329832367979 44.97078217953774 0
142.11620275051 17.7535619066398 0
144.6505508230198 74.68179336482528 0
181.4396555931842 34.89435527876088 0
100.3560027700748 13.25047059174919 0
82.02820906413078 9.953691618761944 0
100.3360227323396 65.07823140483754 0
115.6773014740032 50.65706120066447 0
88.96440437321253 25.02292522370828 0
120.8069207025059 16.17038444460241 0
177.9785664729583 58.22949561271042 0
160.5044099573959 44.60237221213656 0
120.0798886215735 73.39220280239356 0
108.5898113101579 30.93243932970313 0
163.8899332980559 21.4039424918055 0
128.4983986373107 34.27202970059541 0
165.7175959490827 75.83972421911605 0
138.872079362185 53.52449714595205 0
101.1431822707826 80.69408684144622 0
183.1495039416992 17.01691036956624 0
183.5824651204368 76.1595972384101 0
146.7762048010915 34.31128069142586 0
156.4154430814318 61.43927278257222 0
2 3 0 4
126
127
128
129
78.94999999999999 88.5 0
10.9375 87.5 0
32.8125 87.5 0
54.41964285714285 87.21428571428571 0
2 4 0 6
130
131
132
133
134
135
95.91986427452107 98.94415504940996 0
189 100 0
167.0000000000001 100 0
145.0000000000001 100 0
123.3 100.3411428571429 0
103.3876002339149 101.4835792006689 0
2 6 0 2
136
137
189.25 112.5 0
167.7500000000001 112.5 0
2 7 0 5
138
139
140
141
142
86.83629636958392 113.4984680734042 0
11.56249999999997 112.5 0
34.68749999999995 112.5 0
57.54464285714282 112.1964285714286 0
78.62389416597377 110.9986323981114 0
2 8 0 5
143
144
145
146
147
103.2 124 0
189.5 125 0
168.5000000000001 125 0
147.5 125 0
126.8 125.324 0
2 9 0 19
148
149
150
151
152
153
154
155
156
157
158
159
160
161
162
163
164
165
166
60.05527309216041 180.1492429170102 0
34.08352637310919 140.4838733839134 0
84.96551427639756 147.0548263234032 0
17.32050807568879 170 0
93.34723879353879 190.6993017012242 0
88.5784111888641 167.8327467159134 0
69.64506093467006 157.9676179342303 0
79.13613197063131 186.9888632790818 0
56.87532888877179 139.327007748989 0
47.80734411789202 159.8306152042607 0
35.31293371849307 180.6297700365668 0
16.15818059201883 150.7306097538376 0
83.79951990050733 131.52563460129 0
30.13649857544038 160.3349736757157 0
14.7483413930256 134.2428966275502 0
14.98299947188941 185.9513163350901 0
93.52311349358662 179.1529167864997 0
73.15708480006934 139.1750173215825 0
75.66501532636849 173.1758343519569 0
2 10 0 16
167
168
169
170
171
172
173
174
175
176
177
178
179
180
181
182
144.8522458899723 185.5814130412939 0
117.1129561021872 163.434130815321 0
180.9283538759425 166.3387319531182 0
150.0995147088821 152.9949682047542 0
128.1588937522671 188.019567083489 0
134.2766648247753 170.1424730311892 0
152.0723598457193 171.7605818127011 0
170.0186550896041 149.4623766142715 0
129.8856133124846 149.078258883652 0
116.163673789867 180.7526706108012 0
165.1266735241108 181.6480580533303 0
117.758426097388 190.4636165348193 0
184.5171223721506 185.0973580012897 0
184.8920308991744 148.1273315727596 0
114.3503470626872 147.769483101401 0
164.9436026634348 164.3783888594042 0
2 25 0 2
183
184
11.24999999999999 100 0
33.74999999999997 100 0
$EndNodes
$Elements
41 418 1 418
1 1 1 4
1 1 23 
2 23 24 
3 24 25 
4 25 21 
1 2 1 4
5 3 26 
6 26 27 
7 27 28 
8 28 4 
1 3 1 5
9 5 29 
10 29 30 
11 30 31 
12 31 32 
13 32 6 
1 4 1 4
14 7 33 
15 33 34 
16 34 35 
17 35 8 
1 5 1 5
18 9 36 
19 36 37 
20 37 38 
21 38 39 
22 39 10 
1 6 1 4
23 11 40 
24 40 41 
25 41 42 
26 42 12 
1 9 1 5
27 13 43 
28 43 44 
29 44 45 
30 45 46 
31 46 14 
1 10 1 4
32 15 47 
33 47 48 
34 48 49 
35 49 16 
1 11 1 5
36 17 50 
37 50 51 
38 51 52 
39 52 53 
40 53 18 
1 12 1 6
41 19 54 
42 54 55 
43 55 56 
44 56 57 
45 57 58 
46 58 22 
1 13 1 4
47 1 59 
48 59 60 
49 60 61 
50 61 3 
1 14 1 1
51 3 7 
1 15 1 1
52 7 11 
1 16 1 1
53 11 15 
1 17 1 4
54 15 62 
55 62 63 
56 63 64 
57 64 19 
1 18 1 4
58 2 65 
59 65 66 
60 66 67 
61 67 5 
1 19 1 1
62 5 9 
1 20 1 1
63 9 13 
1 21 1 1
64 13 17 
1 22 1 3
65 17 68 
66 68 69 
67 69 20 
1 23 1 7
68 21 70 
69 70 71 
70 71 72 
71 72 73 
72 73 74 
73 74 75 
74 75 2 
1 24 1 5
75 22 76 
76 76 77 
77 77 78 
78 78 79 
79 79 20 
1 100 1 5
80 21 80 
81 80 81 
82 81 82 
83 82 83 
84 83 4 
1 101 1 1
85 4 6 
1 102 1 1
86 6 8 
1 103 1 1
87 8 12 
1 104 1 1
88 12 10 
1 105 1 1
89 10 14 
1 106 1 1
90 14 16 
1 107 1 1
91 16 18 
1 108 1 4
92 18 84 
93 84 85 
94 85 86 
95 86 22 
2 1 2 47
96 28 90 83 
97 96 97 89 
98 88 96 92 
99 97 102 89 
100 93 96 88 
101 28 83 4 
102 91 94 93 
103 93 94 87 
104 24 88 23 
105 23 98 1 
106 24 91 88 
107 25 91 24 
108 28 102 90 
109 90 102 97 
110 82 87 81 
111 90 100 83 
112 83 100 82 
113 92 98 88 
114 25 99 91 
115 26 89 27 
116 91 93 88 
117 59 92 60 
118 91 99 94 
119 81 94 80 
120 95 96 89 
121 87 94 81 
122 60 95 61 
123 92 95 60 
124 27 102 28 
125 3 101 26 
126 1 98 59 
127 92 96 95 
128 61 101 3 
129 93 97 96 
130 94 99 80 
131 87 97 93 
132 88 98 23 
133 21 99 25 
134 59 98 92 
135 26 101 89 
136 89 102 27 
137 95 101 61 
138 80 99 21 
139 89 101 95 
140 87 100 97 
141 82 100 87 
142 97 100 90 
2 2 2 66
143 107 108 71 
144 82 111 103 
145 111 116 103 
146 83 109 4 
147 107 116 111 
148 107 111 108 
149 21 70 80 
150 6 121 32 
151 71 108 70 
152 81 111 82 
153 80 108 81 
154 114 117 106 
155 115 121 109 
156 109 121 4 
157 114 124 117 
158 70 108 80 
159 73 112 72 
160 32 121 115 
161 110 115 109 
162 72 112 107 
163 110 120 115 
164 72 107 71 
165 82 103 83 
166 104 112 73 
167 113 114 106 
168 66 113 106 
169 67 113 66 
170 66 106 65 
171 74 104 73 
172 112 116 107 
173 32 115 31 
174 31 105 30 
175 31 115 105 
176 112 118 116 
177 115 120 105 
178 120 124 114 
179 104 118 112 
180 116 118 110 
181 75 117 74 
182 30 119 29 
183 103 110 109 
184 113 125 114 
185 114 125 120 
186 108 111 81 
187 74 117 104 
188 105 119 30 
189 65 122 2 
190 2 122 75 
191 119 125 113 
192 5 123 67 
193 29 123 5 
194 117 124 104 
195 103 109 83 
196 103 116 110 
197 4 121 6 
198 118 120 110 
199 118 124 120 
200 67 123 113 
201 106 122 65 
202 75 122 117 
203 119 123 29 
204 120 125 105 
205 117 122 106 
206 113 123 119 
207 105 125 119 
208 104 124 118 
2 3 2 17
209 6 126 4 
210 28 126 35 
211 35 129 28 
212 26 128 33 
213 3 127 7 
214 33 127 26 
215 34 128 27 
216 27 129 34 
217 26 127 3 
218 4 126 28 
219 8 126 6 
220 7 127 33 
221 35 126 8 
222 27 128 26 
223 28 129 27 
224 33 128 34 
225 34 129 35 
2 4 2 24
226 10 135 130 
227 39 134 32 
228 30 133 37 
229 29 132 36 
230 32 135 39 
231 5 131 9 
232 36 131 29 
233 37 132 30 
234 38 133 31 
235 31 134 38 
236 29 131 5 
237 8 130 6 
238 9 131 36 
239 39 135 10 
240 30 132 29 
241 31 133 30 
242 32 134 31 
243 130 135 32 
244 36 132 37 
245 37 133 38 
246 38 134 39 
247 6 130 32 
248 12 130 8 
249 10 130 12 
2 6 2 14
250 44 137 37 
251 43 136 36 
252 36 137 43 
253 9 136 13 
254 36 136 9 
255 13 136 43 
256 37 137 36 
257 43 137 44 
258 39 10 14 
259 46 39 14 
260 45 37 38 
261 44 37 45 
262 46 38 39 
263 45 38 46 
2 7 2 20
264 138 142 12 
265 49 141 42 
266 40 140 47 
267 11 139 15 
268 47 139 40 
269 42 142 49 
270 48 140 41 
271 41 141 48 
272 40 139 11 
273 16 138 14 
274 15 139 47 
275 41 140 40 
276 42 141 41 
277 47 140 48 
278 48 141 49 
279 49 142 138 
280 10 138 12 
281 14 138 10 
282 12 142 42 
283 49 138 16 
2 8 2 21
284 50 145 51 
285 51 146 52 
286 18 143 16 
287 46 143 53 
288 53 147 46 
289 44 146 51 
290 43 145 50 
291 13 144 17 
292 50 144 43 
293 51 145 44 
294 52 146 45 
295 45 147 52 
296 43 144 13 
297 16 143 14 
298 17 144 50 
299 53 143 18 
300 44 145 43 
301 45 146 44 
302 46 147 45 
303 52 147 53 
304 14 143 46 
2 9 2 55
305 16 160 49 
306 84 150 18 
307 58 152 86 
308 148 157 154 
309 152 164 86 
310 86 164 85 
311 86 22 58 
312 148 158 157 
313 85 153 84 
314 154 166 148 
315 154 157 156 
316 55 148 56 
317 153 154 150 
318 148 155 56 
319 156 157 149 
320 56 155 57 
321 155 164 152 
322 48 156 149 
323 48 149 47 
324 57 152 58 
325 85 164 153 
326 49 156 48 
327 84 153 150 
328 158 161 157 
329 54 158 55 
330 155 166 164 
331 57 155 152 
332 156 165 154 
333 148 166 155 
334 150 160 18 
335 55 158 148 
336 62 159 63 
337 63 151 64 
338 164 166 153 
339 63 159 151 
340 154 165 150 
341 47 162 15 
342 19 163 54 
343 151 161 158 
344 54 163 158 
345 157 161 149 
346 64 163 19 
347 149 162 47 
348 158 163 151 
349 15 162 62 
350 49 165 156 
351 153 166 154 
352 159 162 149 
353 149 161 159 
354 18 160 16 
355 62 162 159 
356 151 163 64 
357 159 161 151 
358 150 165 160 
359 160 165 49 
2 10 2 47
360 77 171 76 
361 172 176 171 
362 171 178 76 
363 168 176 172 
364 170 175 172 
365 172 173 170 
366 172 175 168 
367 84 181 18 
368 167 171 77 
369 78 167 77 
370 169 182 177 
371 85 168 84 
372 173 182 170 
373 68 169 69 
374 85 176 168 
375 52 170 51 
376 177 179 169 
377 18 181 53 
378 76 178 22 
379 22 178 86 
380 167 177 173 
381 170 174 51 
382 78 177 167 
383 86 176 85 
384 170 182 174 
385 69 179 20 
386 51 174 50 
387 53 175 52 
388 20 179 79 
389 79 177 78 
390 17 180 68 
391 52 175 170 
392 50 180 17 
393 167 172 171 
394 177 182 173 
395 167 173 172 
396 68 180 169 
397 169 179 69 
398 53 181 175 
399 169 180 174 
400 174 180 50 
401 86 178 176 
402 174 182 169 
403 175 181 168 
404 168 181 84 
405 176 178 171 
406 79 179 177 
2 25 2 12
407 41 184 34 
408 40 183 33 
409 33 184 40 
410 7 183 11 
411 33 183 7 
412 11 183 40 
413 34 184 33 
414 40 184 41 
415 42 8 12 
416 35 8 42 
417 41 34 35 
418 41 35 42 
$EndElements
