$MeshFormat
4.1 0 8
$EndMeshFormat
$PhysicalNames
12
0 7 "dirXY"
1 2 "Fault"
1 3 "bottom"
1 4 "top"
1 5 "left"
1 6 "right"
2 1 "domain"
2 28 "layer_1"
2 29 "layer_2"
2 30 "layer_3"
2 31 "layer_4"
2 32 "layer_5"
$EndPhysicalNames
$Entities
18 27 10 0
1 0 0 0 1 7 
2 0 65 0 0 
3 83 65 0 0 
4 70 0 0 0 
5 200 65 0 0 
6 200 0 0 0 
7 0 95 0 0 
8 89 95 0 0 
9 200 95 0 0 
10 0 105 0 0 
11 91 105 0 0 
12 200 105 0 0 
13 0 135 0 0 
14 97 135 0 0 
15 200 135 0 0 
16 0 200 0 0 
17 110 200 0 0 
18 200 200 0 0 
1 -1e-07 -1.000000011686097e-07 -1e-07 1e-07 65.00000009999999 1e-07 1 5 2 1 -2 
2 -1.000000011686097e-07 64.99999990000001 -1e-07 83.00000009999999 65.00000009999999 1e-07 0 2 2 -3 
3 69.99999990000001 -1.000000011686097e-07 -1e-07 83.00000009999999 65.00000009999999 1e-07 1 2 2 4 -3 
4 -1.000000011686097e-07 -1e-07 -1e-07 70.00000009999999 1e-07 1e-07 1 3 2 1 -4 
5 82.99999990000001 64.99999990000001 -1e-07 200.0000001 65.00000009999999 1e-07 0 2 3 -5 
6 199.9999999 -1.000000011686097e-07 -1e-07 200.0000001 65.00000009999999 1e-07 1 6 2 6 -5 
7 69.99999990000001 -1e-07 -1e-07 200.0000001 1e-07 1e-07 1 3 2 4 -6 
8 -1e-07 64.99999990000001 -1e-07 1e-07 95.00000009999999 1e-07 1 5 2 2 -7 
9 -1.000000011686097e-07 94.99999990000001 -1e-07 89.00000009999999 95.00000009999999 1e-07 0 2 7 -8 
10 82.99999990000001 64.99999990000001 -1e-07 89.00000009999999 95.00000009999998 1e-07 1 2 2 3 -8 
11 88.99999990000001 94.99999990000001 -1e-07 200.0000001 95.00000009999999 1e-07 0 2 8 -9 
12 199.9999999 64.99999990000001 -1e-07 200.0000001 95.00000009999999 1e-07 1 6 2 5 -9 
13 -1e-07 94.99999990000001 -1e-07 1e-07 105.0000001 1e-07 1 5 2 7 -10 
14 -1.000000011686097e-07 104.9999999 -1e-07 91.00000009999999 105.0000001 1e-07 0 2 10 -11 
15 88.99999990000001 94.99999989999999 -1e-07 91.00000009999999 105.0000001 1e-07 1 2 2 8 -11 
16 90.99999990000001 104.9999999 -1e-07 200.0000001 105.0000001 1e-07 0 2 11 -12 
17 199.9999999 94.99999990000001 -1e-07 200.0000001 105.0000001 1e-07 1 6 2 9 -12 
18 -1e-07 104.9999999 -1e-07 1e-07 135.0000001 1e-07 1 5 2 10 -13 
19 -1.000000011686097e-07 134.9999999 -1e-07 97.00000009999999 135.0000001 1e-07 0 2 13 -14 
20 90.99999990000001 104.9999999 -1e-07 97.00000009999999 135.0000001 1e-07 1 2 2 11 -14 
21 96.99999990000001 134.9999999 -1e-07 200.0000001 135.0000001 1e-07 0 2 14 -15 
22 199.9999999 104.9999999 -1e-07 200.0000001 135.0000001 1e-07 1 6 2 12 -15 
23 -1e-07 134.9999999 -1e-07 1e-07 200.0000001 1e-07 1 5 2 13 -16 
24 -1.000000011686097e-07 199.9999999 -1e-07 110.0000001 200.0000001 1e-07 1 4 2 16 -17 
25 96.99999990000001 134.9999999 -1e-07 110.0000001 200.0000001 1e-07 1 2 2 14 -17 
26 109.9999999 199.9999999 -1e-07 200.0000001 200.0000001 1e-07 1 4 2 17 -18 
27 199.9999999 134.9999999 -1e-07 200.0000001 200.0000001 1e-07 1 6 2 15 -18 
1 -1.000000011686097e-07 -1.000000011686097e-07 -1e-07 83.00000009999999 65.00000009999999 1e-07 2 1 28 4 -1 4 3 -2 
2 69.99999990000001 -1.000000011686097e-07 -1e-07 200.0000001 65.00000009999999 1e-07 2 1 28 4 -3 7 6 -5 
3 -1.000000011686097e-07 64.99999990000001 -1e-07 89.00000009999999 95.00000009999999 1e-07 2 1 29 4 -8 2 10 -9 
4 82.99999990000001 64.99999990000001 -1e-07 200.0000001 95.00000009999999 1e-07 2 1 29 4 -10 5 12 -11 
5 -1.000000011686097e-07 94.99999989999999 -1e-07 91.00000009999999 105.0000001 1e-07 2 1 30 4 -13 9 15 -14 
6 88.99999990000001 94.99999989999999 -1e-07 200.0000001 105.0000001 1e-07 2 1 30 4 -15 11 17 -16 
7 -1.000000011686097e-07 104.9999999 -1e-07 97.00000009999999 135.0000001 1e-07 2 1 31 4 -18 14 20 -19 
8 90.99999990000001 104.9999999 -1e-07 200.0000001 135.0000001 1e-07 2 1 31 4 -20 16 22 -21 
9 -1.000000011686097e-07 134.9999999 -1e-07 110.0000001 200.0000001 1e-07 2 1 32 4 -23 19 25 -24 
10 96.99999990000001 134.9999999 -1e-07 200.0000001 200.0000001 1e-07 2 1 32 4 -25 21 27 -26 
$EndEntities
$Nodes
55 111 1 111
0 1 0 1
1
0 0 0
0 2 0 1
2
0 65 0
0 3 0 1
3
83 65 0
0 4 0 1
4
70 0 0
0 5 0 1
5
200 65 0
0 6 0 1
6
200 0 0
0 7 0 1
7
0 95 0
0 8 0 1
8
89 95 0
0 9 0 1
9
200 95 0
0 10 0 1
10
0 105 0
0 11 0 1
11
91 105 0
0 12 0 1
12
200 105 0
0 13 0 1
13
0 135 0
0 14 0 1
14
97 135 0
0 15 0 1
15
200 135 0
0 16 0 1
16
0 200 0
0 17 0 1
17
110 200 0
0 18 0 1
18
200 200 0
1 1 0 2
19
20
0 21.66666666666664 0
0 43.33333333333332 0
1 2 0 2
21
22
27.66666666666668 65 0
55.33333333333323 65 0
1 3 0 2
23
24
74.33333333333334 21.6666666666667 0
78.66666666666667 43.33333333333337 0
1 4 0 2
25
26
23.33333333333335 0 0
46.66666666666664 0 0
1 5 0 3
27
28
29
112.2499999999999 65 0
141.4999999999998 65 0
170.7499999999999 65 0
1 6 0 2
30
31
200 21.66666666666664 0
200 43.33333333333332 0
1 7 0 4
32
33
34
35
95.99999999999999 0 0
121.9999999999999 0 0
147.9999999999999 0 0
174.0000000000001 0 0
1 8 0 0
1 9 0 2
36
37
29.66666666666658 95 0
59.33333333333315 95 0
1 10 0 1
38
86 80.00000000000003 0
1 11 0 3
39
40
41
116.7499999999999 95 0
144.4999999999999 95 0
172.25 95 0
1 12 0 0
1 13 0 0
1 14 0 3
42
43
44
22.75000000000007 105 0
45.50000000000014 105 0
68.25000000000013 105 0
1 15 0 0
1 16 0 3
45
46
47
118.2499999999999 105 0
145.4999999999999 105 0
172.75 105 0
1 17 0 0
1 18 0 0
1 19 0 3
48
49
50
24.25000000000001 135 0
48.5000000000001 135 0
72.7500000000001 135 0
1 20 0 1
51
94 120 0
1 21 0 3
52
53
54
122.75 135 0
148.5 135 0
174.25 135 0
1 22 0 0
1 23 0 2
55
56
0 156.6666666666666 0
0 178.3333333333333 0
1 24 0 3
57
58
59
27.50000000000004 200 0
55.00000000000015 200 0
82.5000000000001 200 0
1 25 0 2
60
61
101.3333333333333 156.6666666666667 0
105.6666666666667 178.3333333333333 0
1 26 0 2
62
63
140 200 0
170 200 0
1 27 0 2
64
65
200 156.6666666666666 0
200 178.3333333333333 0
2 1 0 7
66
67
68
69
70
71
72
17.09932088895775 32.95185016125888 0
53.8566695339793 36.83712911164028 0
35.04039701812709 19.80033431642524 0
55.24927361238322 17.19373793953604 0
33.80495346239957 45.62599670933184 0
15.71418820360481 50.3822360407848 0
15.09461024808363 14.88377022887015 0
2 2 0 10
73
74
75
76
77
78
79
80
81
82
181.5833333333333 31.96570848194109 0
111.1464793799111 22.41972838454474 0
136.7119132299851 21.18368590965556 0
156.9886066519026 42.80841024823198 0
126.48714732105 43.13292366196448 0
164.0473088692035 17.79852299552699 0
100.4625485925473 43.73090040572262 0
182.8674199978908 50.92011219954853 0
92.12180559449166 26.23012575805349 0
183.9261284405074 14.28617962882694 0
2 3 0 2
83
84
71.12244897959178 77.18231292517009 0
13.83333333333334 80 0
2 4 0 2
85
86
102.875 84.42500000000003 0
186.125 80 0
2 5 0 0
2 6 0 0
2 7 0 4
87
88
89
90
77.44642857142864 116.3089285714286 0
14.83928571428574 119.9241071428572 0
35.45238095238103 119.8227678571429 0
57.98313492063502 119.3552827380952 0
2 8 0 4
91
92
93
94
111.2051749271137 124.1157069970845 0
185.1388483965015 120.0441873177843 0
160.2939747327502 120.1969478862974 0
134.4165249433106 120.718775813897 0
2 9 0 9
95
96
97
98
99
100
101
102
103
18.34144391797885 167.9199412594362 0
61.30899744026125 157.3545172167958 0
84.02896327005129 170.9395140876026 0
39.61465573566877 178.2393683632805 0
34.69549662146477 153.9768144177499 0
64.49052328919632 181.3066799335358 0
83.28425880872919 150.992139594213 0
17.09121993072951 184.89852859121 0
15.45738810788872 149.7126844687706 0
2 10 0 8
104
105
106
107
108
109
110
111
138.4941194445144 158.6009076744888 0
181.4166666666667 166.8900093411694 0
157.3265408730259 179.263130955788 0
164.5187211640345 153.4312302174633 0
128.3045072752156 180.1215714383655 0
119.309725343946 161.7444958225709 0
181.7486415079385 184.8972947260581 0
184.0370775661402 149.3975812450599 0
$EndNodes
$Elements
30 232 1 232
0 1 15 1
1 1 
1 1 1 3
2 1 19 
3 19 20 
4 20 2 
1 3 1 3
5 4 23 
6 23 24 
7 24 3 
1 4 1 3
8 1 25 
9 25 26 
10 26 4 
1 6 1 3
11 6 30 
12 30 31 
13 31 5 
1 7 1 5
14 4 32 
15 32 33 
16 33 34 
17 34 35 
18 35 6 
1 8 1 1
19 2 7 
1 10 1 2
20 3 38 
21 38 8 
1 12 1 1
22 5 9 
1 13 1 1
23 7 10 
1 15 1 1
24 8 11 
1 17 1 1
25 9 12 
1 18 1 1
26 10 13 
1 20 1 2
27 11 51 
28 51 14 
1 22 1 1
29 12 15 
1 23 1 3
30 13 55 
31 55 56 
32 56 16 
1 24 1 4
33 16 57 
34 57 58 
35 58 59 
36 59 17 
1 25 1 3
37 14 60 
38 60 61 
39 61 17 
1 26 1 3
40 17 62 
41 62 63 
42 63 18 
1 27 1 3
43 15 64 
44 64 65 
45 65 18 
2 1 2 24
46 24 3 22 
47 22 67 24 
48 24 67 23 
49 67 69 23 
50 67 70 68 
51 2 71 21 
52 22 70 67 
53 4 69 26 
54 23 69 4 
55 68 70 66 
56 68 69 67 
57 21 70 22 
58 19 66 20 
59 26 68 25 
60 25 72 1 
61 1 72 19 
62 66 71 20 
63 26 69 68 
64 70 71 66 
65 20 71 2 
66 68 72 25 
67 19 72 66 
68 66 72 68 
69 21 71 70 
2 2 2 33
70 23 4 32 
71 32 81 23 
72 76 77 75 
73 3 79 27 
74 28 77 76 
75 24 79 3 
76 73 80 76 
77 29 80 5 
78 33 74 32 
79 76 80 29 
80 33 75 74 
81 34 75 33 
82 75 78 76 
83 78 82 73 
84 74 81 32 
85 28 76 29 
86 27 77 28 
87 6 82 35 
88 34 78 75 
89 76 78 73 
90 31 73 30 
91 35 82 78 
92 75 77 74 
93 35 78 34 
94 23 81 24 
95 27 79 77 
96 73 82 30 
97 77 79 74 
98 24 81 79 
99 31 80 73 
100 5 80 31 
101 30 82 6 
102 79 81 74 
2 3 2 11
103 36 21 22 
104 37 83 8 
105 36 22 37 
106 3 83 22 
107 22 83 37 
108 38 83 3 
109 2 84 7 
110 36 84 21 
111 7 84 36 
112 21 84 2 
113 8 83 38 
2 4 2 13
114 40 29 41 
115 28 29 40 
116 28 40 39 
117 27 85 38 
118 39 27 28 
119 8 85 39 
120 39 85 27 
121 38 85 8 
122 9 86 5 
123 29 86 41 
124 5 86 29 
125 41 86 9 
126 38 3 27 
2 5 2 7
127 10 7 42 
128 42 7 36 
129 44 8 11 
130 37 8 44 
131 43 36 37 
132 42 36 43 
133 43 37 44 
2 6 2 8
134 11 8 39 
135 12 47 9 
136 9 47 41 
137 45 11 39 
138 45 39 40 
139 46 40 41 
140 45 40 46 
141 41 47 46 
2 7 2 17
142 10 88 13 
143 50 87 51 
144 11 87 44 
145 50 90 87 
146 49 90 50 
147 87 90 44 
148 51 87 11 
149 48 89 49 
150 13 88 48 
151 42 88 10 
152 43 89 42 
153 89 90 49 
154 42 89 88 
155 44 90 43 
156 43 90 89 
157 88 89 48 
158 14 50 51 
2 8 2 17
159 45 91 51 
160 14 91 52 
161 15 92 12 
162 45 94 91 
163 51 91 14 
164 91 94 52 
165 46 94 45 
166 47 93 46 
167 12 92 47 
168 54 92 15 
169 53 93 54 
170 52 94 53 
171 54 93 92 
172 93 94 46 
173 53 94 93 
174 92 93 47 
175 51 11 45 
2 9 2 30
176 59 61 17 
177 59 97 61 
178 59 100 97 
179 98 102 95 
180 98 99 96 
181 96 100 98 
182 96 101 97 
183 97 100 96 
184 58 100 59 
185 16 102 57 
186 50 96 49 
187 57 102 98 
188 49 99 48 
189 61 97 60 
190 57 98 58 
191 95 99 98 
192 55 95 56 
193 14 101 50 
194 60 101 14 
195 96 99 49 
196 48 103 13 
197 13 103 55 
198 50 101 96 
199 98 100 58 
200 99 103 48 
201 97 101 60 
202 95 102 56 
203 95 103 99 
204 56 102 16 
205 55 103 95 
2 10 2 27
206 60 14 52 
207 52 109 60 
208 106 108 104 
209 105 110 106 
210 63 110 18 
211 108 109 104 
212 104 109 52 
213 106 110 63 
214 53 104 52 
215 17 108 62 
216 62 108 106 
217 62 106 63 
218 107 111 105 
219 104 107 106 
220 53 107 104 
221 15 111 54 
222 106 107 105 
223 65 105 64 
224 54 111 107 
225 54 107 53 
226 61 108 17 
227 60 109 61 
228 105 111 64 
229 61 109 108 
230 18 110 65 
231 64 111 15 
232 65 110 105 
$EndElements
