$MeshFormat
4.1 0 8
$EndMeshFormat
$PhysicalNames
12
1 8 "Fault"
1 9 "bottom"
1 10 "top"
1 11 "left"
1 12 "right"
2 1 "layer_1.1"
2 2 "layer_1.2"
2 3 "layer_2.1"
2 4 "layer_2.2"
2 5 "layer_3"
2 6 "layer_4"
2 7 "domain"
$EndPhysicalNames
$Entities
13 18 6 0
1 0 0 0 0 
2 500 0 0 0 
3 0 400 0 0 
4 500 400 0 0 
5 0 475 0 0 
6 500 475 0 0 
7 0 495 0 0 
8 500 495 0 0 
9 0 511 0 0 
10 500 511 0 0 
11 200 0 0 0 
12 200 400 0 0 
13 200 475 0 0 
1 -9.999999406318238e-08 -1e-07 -1e-07 200.0000001 1e-07 1e-07 1 9 2 1 -11 
2 199.9999999 -1e-07 -1e-07 500.0000001 1e-07 1e-07 1 9 2 11 -2 
3 -9.999999406318238e-08 399.9999999 -1e-07 200.0000001 400.0000001 1e-07 0 2 3 -12 
4 199.9999999 399.9999999 -1e-07 500.0000001 400.0000001 1e-07 0 2 12 -4 
5 -9.999999406318238e-08 474.9999999 -1e-07 200.0000001 475.0000001 1e-07 0 2 5 -13 
6 199.9999999 474.9999999 -1e-07 500.0000001 475.0000001 1e-07 0 2 13 -6 
7 -9.999999406318238e-08 494.9999999 -1e-07 500.0000001 495.0000001 1e-07 0 2 7 -8 
8 -9.999999406318238e-08 510.9999999 -1e-07 500.0000001 511.0000001 1e-07 1 10 2 9 -10 
9 -1e-07 -9.999999406318238e-08 -1e-07 1e-07 400.0000001 1e-07 1 11 2 1 -3 
10 -1e-07 399.9999999 -1e-07 1e-07 475.0000001 1e-07 1 11 2 3 -5 
11 -1e-07 474.9999999 -1e-07 1e-07 495.0000001 1e-07 1 11 2 5 -7 
12 -1e-07 494.9999999 -1e-07 1e-07 511.0000001 1e-07 1 11 2 7 -9 
13 499.9999999 -9.999999406318238e-08 -1e-07 500.0000001 400.0000001 1e-07 1 12 2 2 -4 
14 499.9999999 399.9999999 -1e-07 500.0000001 475.0000001 1e-07 1 12 2 4 -6 
15 499.9999999 474.9999999 -1e-07 500.0000001 495.0000001 1e-07 1 12 2 6 -8 
16 499.9999999 494.9999999 -1e-07 500.0000001 511.0000001 1e-07 1 12 2 8 -10 
17 199.9999999 -9.999999406318238e-08 -1e-07 200.0000001 400.0000001 1e-07 1 8 2 11 -12 
18 199.9999999 399.9999999 -1e-07 200.0000001 475.0000001 1e-07 1 8 2 12 -13 
1 -9.999999406318238e-08 -9.999999406318238e-08 -1e-07 200.0000001 400.0000001 1e-07 2 1 7 4 1 17 -3 -9 
2 199.9999999 -9.999999406318238e-08 -1e-07 500.0000001 400.0000001 1e-07 2 2 7 4 2 13 -4 -17 
3 -9.999999406318238e-08 399.9999999 -1e-07 200.0000001 475.0000001 1e-07 2 3 7 4 3 18 -5 -10 
4 199.9999999 399.9999999 -1e-07 500.0000001 475.0000001 1e-07 2 4 7 4 4 14 -6 -18 
5 -9.999999406318238e-08 474.9999999 -1e-07 500.0000001 495.0000001 1e-07 2 5 7 5 5 6 15 -7 -11 
6 -9.999999406318238e-08 494.9999999 -1e-07 500.0000001 511.0000001 1e-07 2 6 7 4 7 16 -8 -12 
$EndEntities
$Nodes
37 265 1 265
0 1 0 1
1
0 0 0
0 2 0 1
2
500 0 0
0 3 0 1
3
0 400 0
0 4 0 1
4
500 400 0
0 5 0 1
5
0 475 0
0 6 0 1
6
500 475 0
0 7 0 1
7
0 495 0
0 8 0 1
8
500 495 0
0 9 0 1
9
0 511 0
0 10 0 1
10
500 511 0
0 11 0 1
11
200 0 0
0 12 0 1
12
200 400 0
0 13 0 1
13
200 475 0
1 1 0 4
14
15
16
17
40 0 0
80 0 0
120 0 0
160 0 0
1 2 0 7
18
19
20
21
22
23
24
237.5 0 0
275 0 0
312.5 0 0
350 0 0
387.5 0 0
425 0 0
462.5 0 0
1 3 0 4
25
26
27
28
40 400 0
80 400 0
120 400 0
160 400 0
1 4 0 7
29
30
31
32
33
34
35
237.5 400 0
275 400 0
312.5 400 0
350 400 0
387.5 400 0
425 400 0
462.5 400 0
1 5 0 4
36
37
38
39
40 475 0
80 475 0
120 475 0
160 475 0
1 6 0 7
40
41
42
43
44
45
46
237.5 475 0
275 475 0
312.5 475 0
350 475 0
387.5 475 0
425 475 0
462.5 475 0
1 7 0 12
47
48
49
50
51
52
53
54
55
56
57
58
38.46153846153846 495 0
76.92307692307692 495 0
115.3846153846154 495 0
153.8461538461538 495 0
192.3076923076923 495 0
230.7692307692308 495 0
269.2307692307692 495 0
307.6923076923077 495 0
346.1538461538461 495 0
384.6153846153846 495 0
423.0769230769231 495 0
461.5384615384615 495 0
1 8 0 12
59
60
61
62
63
64
65
66
67
68
69
70
38.46153846153846 511 0
76.92307692307692 511 0
115.3846153846154 511 0
153.8461538461538 511 0
192.3076923076923 511 0
230.7692307692308 511 0
269.2307692307692 511 0
307.6923076923077 511 0
346.1538461538461 511 0
384.6153846153846 511 0
423.0769230769231 511 0
461.5384615384615 511 0
1 9 0 9
71
72
73
74
75
76
77
78
79
0 40 0
0 80 0
0 120 0
0 160 0
0 200 0
0 240 0
0 280 0
0 320 0
0 360 0
1 10 0 1
80
0 437.5 0
1 11 0 0
1 12 0 0
1 13 0 9
81
82
83
84
85
86
87
88
89
500 40 0
500 80 0
500 120 0
500 160 0
500 200 0
500 240 0
500 280 0
500 320 0
500 360 0
1 14 0 1
90
500 437.5 0
1 15 0 0
1 16 0 0
1 17 0 9
91
92
93
94
95
96
97
98
99
200 40 0
200 80 0
200 120 0
200 160 0
200 200 0
200 240 0
200 280 0
200 320 0
200 360 0
1 18 0 1
100
200 437.5 0
2 1 0 49
101
102
103
104
105
106
107
108
109
110
111
112
113
114
115
116
117
118
119
120
121
122
123
124
125
126
127
128
129
130
131
132
133
134
135
136
137
138
139
140
141
142
143
144
145
146
147
148
149
100.3269207045111 34.45226839462447 0
167.2586775903486 297.7330171482533 0
36.26376337701662 139.3845991166472 0
37.80917652039349 215.4906968955426 0
166.0886874711373 181.2638837486628 0
31.41257325229816 295.4240957630803 0
100 365.3589838486225 0
164.1481550017829 96.53097381173681 0
36.22788989763174 63.67302476229611 0
60.16949477123505 366.1291181977667 0
80.18989392683703 332.7843757986287 0
120.7701264271258 334.3295663218768 0
105.1862554435014 303.6920932668729 0
139.9123440108944 366.0657679381052 0
139.8503619285044 33.85941753129345 0
126.2650548281248 72.56450729460117 0
80.00000000000006 69.28203230275511 0
100.0000000000001 103.9230484541326 0
59.88109541962683 102.4711282068902 0
79.35747646610734 138.4588336494926 0
120.0000000000001 138.5640646055101 0
100.224369776295 172.6162156082867 0
60.11770175596939 175.6327403630391 0
80.00000000000023 207.8460969082653 0
66.28626279736937 247.383700603645 0
106.7882058717619 240.2540050244532 0
159.7673582397412 138.8406444283552 0
166.8556441452702 220.2106472914438 0
127.7173317930593 204.2534501532984 0
167.807460774631 259.6572774066162 0
166.7334605225709 59.63626060539832 0
61.25529774403061 32.98926533672525 0
36.97338942269985 335.9130660561502 0
163.5484313328557 337.1136406516613 0
130.7061116579179 273.7128932282272 0
31.55296633983262 259.5395914928619 0
27.05142439600358 180 0
26.47454973885505 101.1057504171667 0
133.0384757729337 107.9422863405994 0
139.6873151359819 239.7268961577198 0
66.82261602395774 301.371534099292 0
134.7595494560466 167.1076517088227 0
170.7179676972449 370.7179676972449 0
29.28203230275508 370.7179676972449 0
29.28203230275507 29.28203230275508 0
170.7179676972449 29.28203230275506 0
88.66141234485482 273.4225945497836 0
137.9393942467768 308.3596271165864 0
56.37897642836951 274.4615540670279 0
2 2 0 81
150
151
152
153
154
155
156
157
158
159
160
161
162
163
164
165
166
167
168
169
170
171
172
173
174
175
176
177
178
179
180
181
182
183
184
185
186
187
188
189
190
191
192
193
194
195
196
197
198
199
200
201
202
203
204
205
206
207
208
209
210
211
212
213
214
215
216
217
218
219
220
221
222
223
224
225
226
227
228
229
230
234.7689295608206 219.7641174232803 0
465.4489428653289 139.8798109720925 0
333.5214921818489 34.98890517846567 0
367.206542230252 368.2957058297455 0
463.6336676192439 263.4195465170739 0
234.4986703371895 139.753966619456 0
235.9082683851476 299.1236648862111 0
403.5785425660586 32.31726088438228 0
293.75 367.5240473580835 0
233.5046129855802 61.69043869498174 0
465.4347752634974 337.0791347331 0
462.7649516665374 58.85997850674514 0
234.242461980273 100.1947371934954 0
268.7462781462153 119.6946175240348 0
268.9980499563451 159.3246582837751 0
303.0751332986309 139.0861715958004 0
303.5563545577486 178.7130003224748 0
337.5395717422635 158.4633367663457 0
338.0615564029051 198.142717569666 0
371.0985289594709 179.7822524565075 0
371.684877374161 138.3618706248721 0
370.9654133016212 217.9104201335759 0
338.2697656265672 237.8174713740284 0
371.1783127891644 257.2478396485662 0
338.6415398298099 277.2454499772705 0
405.9625625650434 200.3887050209065 0
304.5070159693786 257.8856062925236 0
373.2568136948736 295.9817260002761 0
302.5853299899173 99.59134096302358 0
305.3462823671741 296.7766059192837 0
408.1162325622595 272.9340186263074 0
404.8565548058965 307.879609604992 0
441.2203838176295 295.989574764347 0
270.3763327662816 278.2755162796837 0
271.8186156324354 315.6220729044898 0
237.7598223602545 340.5126874281 0
269.5120218180086 198.8331145602419 0
341.5277529440241 313.3814992332232 0
465.0898644338167 99.87745909791603 0
432.4309813750209 119.9549565146229 0
430.4236242080508 163.972632811658 0
430.5833348402718 82.97866951236765 0
400.5366735711478 107.6159174285249 0
235.2104613441657 259.2903162476341 0
465.1268646738549 179.5966490230858 0
466.4808054117194 220.4390735105958 0
430.8454954726971 240.0172335377917 0
268.3666197728446 80.41212773800916 0
263.4599724047005 37.29845179109302 0
300.4103615559103 60.13191955148 0
333.9335238845211 77.42976251810846 0
366.7705987370684 53.46562211049789 0
335.4267816816312 118.5881253556336 0
234.5338065023977 179.8143074409053 0
269.7466789640124 238.7297760110006 0
304.0221081915847 218.3420409220021 0
404.1909810308287 368.6378145176152 0
329.9575417686365 368.9567309771854 0
442.1392795187966 28.59609267533369 0
442.7204798841445 370.0404774960253 0
308.727133797033 335.435803041338 0
256.25 369.9746835680525 0
380.8566566590388 334.3597203942466 0
398.5104389914137 71.29513736348858 0
365.817880623268 96.48562488735362 0
297.7283257978991 27.60563857779232 0
407.0280489975619 139.7263225304763 0
424.6057290739519 338.8303114691768 0
474.0577653400741 299.2976512029042 0
439.7678704662731 200.8828587808076 0
397.4136033381571 237.6996433934296 0
229.0603665530716 29.66596864350467 0
368.75 23.10058447823184 0
473.2648204460039 26.83291070930059 0
473.1409524465413 372.3977679186324 0
226.3019644720509 374.0974741992305 0
348.9017813433967 344.2135397670694 0
273.5405414483797 346.4165135027766 0
399.0347298447892 167.1665127567343 0
425.8512304336427 52.79708457950713 0
435.9539448679575 268.09009336138 0
2 3 0 7
231
232
233
234
235
236
237
55.77590844849109 436.2610209332026 0
144.2240915515089 436.2610209332026 0
100 437.9061277310916 0
172.220309027377 446.3546262724184 0
27.77969097262297 446.3546262724184 0
23.36508563158773 422.5165210293744 0
176.6349143684123 422.5165210293744 0
2 4 0 10
238
239
240
241
242
243
244
245
246
247
256.25 432.4759526419165 0
331.25 436.9781066744227 0
406.25 436.9781066744227 0
293.75 438.907706745157 0
368.75 437.3260355581409 0
443.75 441.3369048622756 0
224.6544374809635 447.4869143813757 0
475.4015215553677 427.2545958763521 0
477.7618084427347 452.7046634614347 0
221.7429550146354 421.674327430257 0
2 5 0 5
248
249
250
251
252
19.61538461538461 485 0
481.0096153846154 485 0
57.72213268385383 485.6525780122708 0
443.0288461538462 485 0
405.0480769230769 485 0
2 6 0 13
253
254
255
256
257
258
259
260
261
262
263
264
265
211.5384615384615 503 0
96.15384615384616 503 0
19.23076923076923 503 0
480.7692307692308 503 0
134.6153846153846 503 0
288.4615384615385 503 0
326.9230769230769 503 0
57.69230769230768 503 0
173.0769230769231 503 0
250 503 0
365.3846153846154 503 0
442.3076923076923 503 0
403.8461538461538 503 0
$EndNodes
$Elements
19 540 1 540
1 1 1 5
1 1 14 
2 14 15 
3 15 16 
4 16 17 
5 17 11 
1 2 1 8
6 11 18 
7 18 19 
8 19 20 
9 20 21 
10 21 22 
11 22 23 
12 23 24 
13 24 2 
1 8 1 13
14 9 59 
15 59 60 
16 60 61 
17 61 62 
18 62 63 
19 63 64 
20 64 65 
21 65 66 
22 66 67 
23 67 68 
24 68 69 
25 69 70 
26 70 10 
1 9 1 10
27 1 71 
28 71 72 
29 72 73 
30 73 74 
31 74 75 
32 75 76 
33 76 77 
34 77 78 
35 78 79 
36 79 3 
1 10 1 2
37 3 80 
38 80 5 
1 11 1 1
39 5 7 
1 12 1 1
40 7 9 
1 13 1 10
41 2 81 
42 81 82 
43 82 83 
44 83 84 
45 84 85 
46 85 86 
47 86 87 
48 87 88 
49 88 89 
50 89 4 
1 14 1 2
51 4 90 
52 90 6 
1 15 1 1
53 6 8 
1 16 1 1
54 8 10 
1 17 1 10
55 11 91 
56 91 92 
57 92 93 
58 93 94 
59 94 95 
60 95 96 
61 96 97 
62 97 98 
63 98 99 
64 99 12 
1 18 1 2
65 12 100 
66 100 13 
2 1 2 126
67 116 131 108 
68 123 124 104 
69 108 139 116 
70 124 129 126 
71 117 119 109 
72 104 137 123 
73 122 129 124 
74 133 141 111 
75 119 138 109 
76 106 141 133 
77 124 125 104 
78 135 147 126 
79 119 120 103 
80 126 140 135 
81 120 123 103 
82 110 133 111 
83 112 134 114 
84 115 131 116 
85 121 139 127 
86 109 132 117 
87 129 140 126 
88 112 148 134 
89 124 126 125 
90 127 142 121 
91 127 139 108 
92 103 138 119 
93 27 114 28 
94 107 114 27 
95 118 120 119 
96 122 123 120 
97 26 107 27 
98 71 109 72 
99 73 103 74 
100 75 104 76 
101 77 106 78 
102 93 108 92 
103 94 127 93 
104 95 105 94 
105 105 127 94 
106 96 128 95 
107 97 130 96 
108 98 102 97 
109 102 130 97 
110 128 129 105 
111 121 122 120 
112 122 124 123 
113 16 101 15 
114 115 116 101 
115 116 118 117 
116 118 119 117 
117 16 115 101 
118 93 127 108 
119 95 128 105 
120 96 130 128 
121 116 117 101 
122 112 114 107 
123 17 115 16 
124 110 111 107 
125 118 121 120 
126 25 110 26 
127 111 112 107 
128 111 113 112 
129 26 110 107 
130 125 136 104 
131 117 132 101 
132 15 132 14 
133 78 133 79 
134 92 131 91 
135 99 134 98 
136 113 147 135 
137 77 136 106 
138 104 136 76 
139 123 137 103 
140 108 131 92 
141 98 134 102 
142 101 132 15 
143 106 133 78 
144 103 137 74 
145 75 137 104 
146 73 138 103 
147 109 138 72 
148 116 139 118 
149 128 140 129 
150 105 142 127 
151 102 135 130 
152 91 146 11 
153 12 143 99 
154 14 145 1 
155 1 145 71 
156 79 144 3 
157 11 146 17 
158 3 144 25 
159 28 143 12 
160 76 136 77 
161 135 140 130 
162 113 148 112 
163 134 148 102 
164 122 142 129 
165 121 142 122 
166 141 149 147 
167 141 147 113 
168 74 137 75 
169 72 138 73 
170 135 148 113 
171 118 139 121 
172 130 140 128 
173 111 141 113 
174 129 142 105 
175 133 144 79 
176 99 143 134 
177 132 145 14 
178 131 146 91 
179 126 147 125 
180 136 149 106 
181 114 143 28 
182 71 145 109 
183 17 146 115 
184 25 144 110 
185 110 144 133 
186 115 146 131 
187 109 145 132 
188 134 143 114 
189 102 148 135 
190 125 149 136 
191 147 149 125 
192 106 149 141 
2 2 2 196
193 160 217 182 
194 19 198 18 
195 212 217 206 
196 198 221 18 
197 181 217 212 
198 213 214 201 
199 152 201 200 
200 152 200 199 
201 182 218 160 
202 192 214 213 
203 175 219 196 
204 182 217 181 
205 196 220 175 
206 153 212 206 
207 201 214 200 
208 98 185 99 
209 170 214 192 
210 192 216 170 
211 183 184 156 
212 156 185 98 
213 201 222 157 
214 156 193 183 
215 157 213 201 
216 190 219 175 
217 167 202 170 
218 188 191 161 
219 150 204 193 
220 210 226 207 
221 193 204 183 
222 184 185 156 
223 82 188 161 
224 154 195 86 
225 162 163 155 
226 163 197 178 
227 159 198 197 
228 93 162 155 
229 186 204 150 
230 154 196 195 
231 197 199 178 
232 198 199 197 
233 174 187 179 
234 158 210 207 
235 150 203 186 
236 162 197 163 
237 97 193 156 
238 96 193 97 
239 165 202 167 
240 199 200 178 
241 85 195 194 
242 159 197 162 
243 177 187 174 
244 189 191 188 
245 82 161 81 
246 159 162 92 
247 91 159 92 
248 189 192 191 
249 89 160 88 
250 173 177 174 
251 86 195 85 
252 151 188 83 
253 151 189 188 
254 85 194 84 
255 150 193 96 
256 163 178 165 
257 164 203 155 
258 174 179 176 
259 173 174 172 
260 180 220 196 
261 83 188 82 
262 186 203 164 
263 97 156 98 
264 167 170 169 
265 93 155 94 
266 84 151 83 
267 154 218 182 
268 87 154 86 
269 163 164 155 
270 92 162 93 
271 95 203 150 
272 180 181 177 
273 179 184 183 
274 178 202 165 
275 174 176 172 
276 84 194 151 
277 171 173 172 
278 173 180 177 
279 163 165 164 
280 151 190 189 
281 155 203 94 
282 171 172 168 
283 95 150 96 
284 169 171 168 
285 169 175 171 
286 167 169 168 
287 94 203 95 
288 179 183 176 
289 165 167 166 
290 167 168 166 
291 180 182 181 
292 176 205 172 
293 166 205 186 
294 168 205 166 
295 186 205 204 
296 165 166 164 
297 204 205 176 
298 200 202 178 
299 151 194 190 
300 172 205 168 
301 166 186 164 
302 21 152 20 
303 23 157 22 
304 183 204 176 
305 32 153 33 
306 33 206 34 
307 31 207 32 
308 30 158 31 
309 179 210 184 
310 153 206 33 
311 32 207 153 
312 158 207 31 
313 18 221 11 
314 11 221 91 
315 177 212 187 
316 175 228 190 
317 19 215 198 
318 202 214 170 
319 152 222 201 
320 23 208 157 
321 206 209 34 
322 159 221 198 
323 187 226 210 
324 196 230 180 
325 24 208 23 
326 34 209 35 
327 30 211 158 
328 187 210 179 
329 196 219 195 
330 160 218 88 
331 87 218 154 
332 189 216 192 
333 194 219 190 
334 185 225 99 
335 175 220 171 
336 173 220 180 
337 170 228 169 
338 29 211 30 
339 181 212 177 
340 191 229 161 
341 182 230 154 
342 20 215 19 
343 21 222 152 
344 157 222 22 
345 81 223 2 
346 4 224 89 
347 99 225 12 
348 199 215 152 
349 2 223 24 
350 35 224 4 
351 12 225 29 
352 209 217 160 
353 192 213 191 
354 161 229 208 
355 210 227 184 
356 216 228 170 
357 200 214 202 
358 184 227 185 
359 198 215 199 
360 152 215 20 
361 190 216 189 
362 195 219 194 
363 88 218 87 
364 171 220 173 
365 161 223 81 
366 89 224 160 
367 206 217 209 
368 158 227 210 
369 91 221 159 
370 212 226 187 
371 22 222 21 
372 154 230 196 
373 185 227 211 
374 169 228 175 
375 207 226 153 
376 180 230 182 
377 211 225 185 
378 211 227 158 
379 208 223 161 
380 160 224 209 
381 208 229 157 
382 24 223 208 
383 209 224 35 
384 153 226 212 
385 29 225 211 
386 157 229 213 
387 190 228 216 
388 213 229 191 
2 3 2 26
389 36 231 37 
390 38 232 39 
391 27 233 26 
392 38 233 232 
393 231 233 37 
394 26 233 231 
395 232 233 27 
396 37 233 38 
397 80 235 5 
398 13 234 100 
399 26 231 25 
400 28 232 27 
401 5 235 36 
402 39 234 13 
403 36 235 231 
404 232 234 39 
405 231 236 25 
406 28 237 232 
407 235 236 231 
408 232 237 234 
409 25 236 3 
410 12 237 28 
411 3 236 80 
412 100 237 12 
413 234 237 100 
414 80 236 235 
2 4 2 38
415 40 238 41 
416 42 239 43 
417 44 240 45 
418 31 241 30 
419 33 242 32 
420 35 243 34 
421 238 241 41 
422 239 242 43 
423 240 243 45 
424 42 241 239 
425 44 242 240 
426 30 241 238 
427 32 242 239 
428 34 243 240 
429 239 241 31 
430 240 242 33 
431 40 244 238 
432 35 245 243 
433 41 241 42 
434 43 242 44 
435 45 243 46 
436 30 238 29 
437 32 239 31 
438 34 240 33 
439 13 244 40 
440 100 244 13 
441 90 245 4 
442 4 245 35 
443 243 246 46 
444 238 247 29 
445 245 246 243 
446 244 247 238 
447 46 246 6 
448 6 246 90 
449 29 247 12 
450 12 247 100 
451 100 247 244 
452 90 246 245 
2 5 2 36
453 48 250 37 
454 44 252 56 
455 5 248 7 
456 58 251 46 
457 8 249 6 
458 47 248 36 
459 46 249 58 
460 45 251 57 
461 57 252 45 
462 36 250 47 
463 36 248 5 
464 6 249 46 
465 7 248 47 
466 58 249 8 
467 37 250 36 
468 45 252 44 
469 46 251 45 
470 47 250 48 
471 56 252 57 
472 57 251 58 
473 39 13 51 
474 52 13 40 
475 51 13 52 
476 37 38 49 
477 48 37 49 
478 50 38 39 
479 49 38 50 
480 50 39 51 
481 40 41 53 
482 52 40 53 
483 41 42 54 
484 53 41 54 
485 42 43 55 
486 54 42 55 
487 56 43 44 
488 55 43 56 
2 6 2 52
489 68 263 56 
490 58 256 70 
491 70 264 58 
492 69 265 57 
493 59 255 47 
494 62 257 50 
495 50 261 62 
496 47 260 59 
497 61 254 49 
498 52 262 64 
499 51 253 63 
500 64 253 52 
501 60 260 48 
502 49 257 61 
503 48 254 60 
504 10 256 8 
505 53 258 65 
506 65 262 53 
507 66 258 54 
508 54 259 66 
509 67 259 55 
510 7 255 9 
511 63 261 51 
512 57 264 69 
513 56 265 68 
514 55 263 67 
515 47 255 7 
516 8 256 58 
517 9 255 59 
518 70 256 10 
519 48 260 47 
520 49 254 48 
521 50 257 49 
522 51 261 50 
523 52 253 51 
524 53 262 52 
525 54 258 53 
526 55 259 54 
527 56 263 55 
528 57 265 56 
529 58 264 57 
530 59 260 60 
531 60 254 61 
532 61 257 62 
533 62 261 63 
534 63 253 64 
535 64 262 65 
536 65 258 66 
537 66 259 67 
538 67 263 68 
539 68 265 69 
540 69 264 70 
$EndElements
