$MeshFormat
4.1 0 8
$EndMeshFormat
$PhysicalNames
6
1 2 "bottom"
1 3 "right"
1 4 "top"
1 5 "left"
1 6 "Fault"
2 1 "Domain"
$EndPhysicalNames
$Entities
6 7 2 0
1 0 45 0 0 
2 0 0 0 0 
3 100 0 0 0 
4 100 45 0 0 
5 0 90 0 0 
6 100 90 0 0 
101 -1.000000011686097e-07 44.9999999 -1e-07 100.0000001 45.0000001 1e-07 1 6 2 1 -4 
102 -1e-07 -1.000000011686097e-07 -1e-07 1e-07 45.0000001 1e-07 1 5 2 1 -2 
103 99.99999990000001 -1.000000011686097e-07 -1e-07 100.0000001 45.0000001 1e-07 1 3 2 3 -4 
104 -1.000000011686097e-07 -1e-07 -1e-07 100.0000001 1e-07 1e-07 1 2 2 2 -3 
105 -1e-07 44.9999999 -1e-07 1e-07 90.00000009999999 1e-07 1 5 2 5 -1 
106 -1.000000011686097e-07 89.99999990000001 -1e-07 100.0000001 90.00000009999999 1e-07 1 4 2 6 -5 
107 99.99999990000001 44.9999999 -1e-07 100.0000001 90.00000009999999 1e-07 1 3 2 4 -6 
1 -1.000000011686097e-07 -1.000000011686097e-07 -1e-07 100.0000001 45.0000001 1e-07 1 1 4 102 104 103 -101 
2 -1.000000011686097e-07 44.9999999 -1e-07 100.0000001 90.00000009999999 1e-07 1 1 4 105 101 107 106 
$EndEntities
$Nodes
15 727 1 727
0 1 0 1
1
0 45 0
0 2 0 1
2
0 0 0
0 3 0 1
3
100 0 0
0 4 0 1
4
100 45 0
0 5 0 1
5
0 90 0
0 6 0 1
6
100 90 0
1 101 0 24
7
8
9
10
11
12
13
14
15
16
17
18
19
20
21
22
23
24
25
26
27
28
29
30
4 45 0
8 45 0
12 45 0
16 45 0
20 45 0
24 45 0
28 45 0
32 45 0
36 45 0
40 45 0
44 45 0
48 45 0
52 45 0
56 45 0
60 45 0
64 45 0
68 45 0
72 45 0
76 45 0
80 45 0
84 45 0
88 45 0
92 45 0
96 45 0
1 102 0 11
31
32
33
34
35
36
37
38
39
40
41
0 41.25 0
0 37.5 0
0 33.75 0
0 30 0
0 26.25 0
0 22.5 0
0 18.75 0
0 15 0
0 11.25 0
0 7.5 0
0 3.75 0
1 103 0 11
42
43
44
45
46
47
48
49
50
51
52
100 3.75 0
100 7.5 0
100 11.25 0
100 15 0
100 18.75 0
100 22.5 0
100 26.25 0
100 30 0
100 33.75 0
100 37.5 0
100 41.25 0
1 104 0 24
53
54
55
56
57
58
59
60
61
62
63
64
65
66
67
68
69
70
71
72
73
74
75
76
4 0 0
8 0 0
12 0 0
16 0 0
20 0 0
24 0 0
28 0 0
32 0 0
36 0 0
40 0 0
44 0 0
48 0 0
52 0 0
56 0 0
60 0 0
64 0 0
68 0 0
72 0 0
76 0 0
80 0 0
84 0 0
88 0 0
92 0 0
96 0 0
1 105 0 11
77
78
79
80
81
82
83
84
85
86
87
0 86.25 0
0 82.5 0
0 78.75 0
0 75 0
0 71.25 0
0 67.5 0
0 63.75 0
0 60 0
0 56.25 0
0 52.5 0
0 48.75 0
1 106 0 24
88
89
90
91
92
93
94
95
96
97
98
99
100
101
102
103
104
105
106
107
108
109
110
111
96 90 0
92 90 0
88 90 0
84 90 0
80 90 0
76 90 0
72 90 0
68 90 0
64 90 0
60 90 0
56 90 0
52 90 0
48 90 0
44 90 0
40 90 0
36 90 0
32 90 0
28 90 0
24 90 0
20 90 0
16 90 0
12 90 0
8 90 0
4 90 0
1 107 0 11
112
113
114
115
116
117
118
119
120
121
122
100 48.75 0
100 52.5 0
100 56.25 0
100 60 0
100 63.75 0
100 67.5 0
100 71.25 0
100 75 0
100 78.75 0
100 82.5 0
100 86.25 0
2 1 0 302
123
124
125
126
127
128
129
130
131
132
133
134
135
136
137
138
139
140
141
142
143
144
145
146
147
148
149
150
151
152
153
154
155
156
157
158
159
160
161
162
163
164
165
166
167
168
169
170
171
172
173
174
175
176
177
178
179
180
181
182
183
184
185
186
187
188
189
190
191
192
193
194
195
196
197
198
199
200
201
202
203
204
205
206
207
208
209
210
211
212
213
214
215
216
217
218
219
220
221
222
223
224
225
226
227
228
229
230
231
232
233
234
235
236
237
238
239
240
241
242
243
244
245
246
247
248
249
250
251
252
253
254
255
256
257
258
259
260
261
262
263
264
265
266
267
268
269
270
271
272
273
274
275
276
277
278
279
280
281
282
283
284
285
286
287
288
289
290
291
292
293
294
295
296
297
298
299
300
301
302
303
304
305
306
307
308
309
310
311
312
313
314
315
316
317
318
319
320
321
322
323
324
325
326
327
328
329
330
331
332
333
334
335
336
337
338
339
340
341
342
343
344
345
346
347
348
349
350
351
352
353
354
355
356
357
358
359
360
361
362
363
364
365
366
367
368
369
370
371
372
373
374
375
376
377
378
379
380
381
382
383
384
385
386
387
388
389
390
391
392
393
394
395
396
397
398
399
400
401
402
403
404
405
406
407
408
409
410
411
412
413
414
415
416
417
418
419
420
421
422
423
424
25.98763520602218 41.53397109547829 0
41.98081113510868 3.582101261629091 0
57.97115106017967 3.815684753617049 0
73.69659929210269 3.716357619483013 0
50.07674567723709 41.56249205765263 0
66.00453945485739 41.53529509677123 0
96.57046008727694 24.36864034080422 0
2.94827987686385 20.59195490410677 0
38.04923408551667 41.5900461086129 0
29.97871989401433 3.480377111958916 0
78.02309719301198 41.54374197542585 0
17.97685403155017 3.461161075674063 0
13.99110121154219 41.55017622187266 0
86 3.464101615137757 0
3.567492240906695 31.67217420154658 0
96.75240473580835 13.125 0
86.01083457867405 41.55163083280291 0
49.98067899266027 3.649531897481658 0
65.96807919062925 3.910760182077311 0
58.00203757110791 41.53656809105624 0
3.587212587551768 13.50196896658775 0
96.51184804989484 31.51457884729694 0
10.10413491252843 3.960831830594422 0
6.215976290930449 41.64698741998477 0
94.04392087020238 3.547377159641748 0
93.81123568297267 41.64258576671256 0
3.247595264191645 5.625 0
89.96917021447376 41.56294792106802 0
87.99994975831129 38.11357209647589 0
84.04777711682908 38.11228719709973 0
86.07251857820113 34.67969707877524 0
82.10130706433571 34.68037267242834 0
84.12721110408262 31.2616971028012 0
80.15793978619035 31.26438896021402 0
82.14918950195073 27.86123707875967 0
78.20048698780856 27.84914617703263 0
80.19462663740192 24.44031605174414 0
76.24084508170711 24.42496055548587 0
78.23298748472629 21.01823114999672 0
74.27753743891992 20.99522294859224 0
72.28227742592216 24.41264009770434 0
70.31289205888015 20.97580097501256 0
68.31289596611899 24.38196892030487 0
66.33924782123019 21.05700299993962 0
64.33562739477061 24.38224566704528 0
62.35857327398084 21.05649946482594 0
60.35190948834476 24.36933450558456 0
58.37235032401607 21.02715516473023 0
56.36335904478818 24.35254816263413 0
54.38196775962542 21.0067700694618 0
52.37134113220674 24.36053117730844 0
50.38888471376606 20.97743514155002 0
48.37711533589355 24.34637173623676 0
46.39379186310278 20.95815682706292 0
44.38126104416519 24.33017585157145 0
42.39736559743076 20.92486708169454 0
40.38411321626768 24.31072941565682 0
38.40002614726212 20.90468880619695 0
36.38670100204646 24.29253812806578 0
34.4029392267758 20.87391900001506 0
32.39062597701898 24.2719365644367 0
30.40736683357575 20.81913628889878 0
28.39812683844059 24.22433056999979 0
26.41845581604429 20.82733215025585 0
24.40195386135446 24.19245542320703 0
22.43943383608339 20.7818921929306 0
20.43407598197087 24.17874626271765 0
18.48477747768877 20.77101872508093 0
82.1850200928809 21.02314946810311 0
80.22398243404976 17.61241612347508 0
16.40244036203634 24.22332148974287 0
24.71300651895499 16.82583502759348 0
36.84623433220412 17.50825452282198 0
18.26607829735757 27.633617531408 0
76.18215384774531 31.23945192686251 0
30.28942950414 27.68362596807453 0
42.36871001962783 27.76358135198713 0
54.32708108907583 27.77579049876426 0
62.25936494673955 27.75182012918347 0
68.45529630308864 17.72250692252298 0
60.81506150049425 17.84782766778698 0
52.83091652291788 17.73473473601239 0
44.83928935320699 17.6205526568917 0
84.1642529698448 17.61939925179477 0
14.43454726704879 20.83812834056585 0
16.50885701991702 17.39640240990269 0
12.2626589231126 24.35898211894053 0
82.21661512802613 14.21336095425189 0
78.26459322513929 14.184116494942 0
86.11292613895164 27.86926541172793 0
86.1465942595018 14.24545280751519 0
88.07974062059415 17.62608516882228 0
12.48792985741802 17.45719824440121 0
14.55322433587757 14.03267555618168 0
80.26901709410404 10.77609082755029 0
76.30416677426787 10.75381260868668 0
18.78286168378201 13.37840562531592 0
70.24938283525628 27.78391555099444 0
10.67982933116835 14.02991962416462 0
12.92204462679769 9.960558688896988 0
90.15668639202481 34.6428528405862 0
89.98158320805149 14.30742581660856 0
91.88507641681812 17.68604394925362 0
90.02411329272837 20.98861544140551 0
88.13157155081839 10.886591872172 0
8.904623929235605 10.67960444645469 0
74.29911206489781 14.16679726750225 0
72.39720942725873 10.75411931901003 0
8.747183270330737 17.35647686235617 0
78.31368953025554 7.32126644159306 0
91.76140725864886 10.98659792250782 0
90.10311177344506 7.536207212009636 0
82.28506018504987 7.354320611563729 0
93.87776669255136 20.99483060870426 0
92.21724497680302 24.36968690597259 0
94.29628951014519 27.8238052182738 0
96.07201150435534 17.37554512265243 0
90.36321002820931 27.85387070955132 0
92.27019792651689 31.29006578803938 0
94.05428390621799 34.73154601137243 0
93.99518272764061 7.564733398764595 0
88.16720084120135 24.41837591032395 0
91.97420890211217 38.14030010039322 0
88.18379169466439 31.26624148858021 0
80.06256822224501 38.10747323880886 0
84.15527526725333 24.4327421403617 0
10.04658991980038 41.57003076647241 0
12.00866876465197 38.11765936167461 0
15.96274375200198 38.1067229430786 0
14.04822670168532 34.64500404178707 0
18.05808041300501 34.56008200371046 0
10.03298710564087 34.70457575185173 0
12.0748741526027 31.25226445994418 0
19.95335185877759 38.07582614573816 0
21.95693499219149 34.5646673236715 0
7.974283469516863 31.38064371255878 0
10.06612930753327 27.91668168068068 0
6.112503519054563 28.06135525057004 0
8.218865478786746 24.37461308009673 0
3.935209279623706 24.39113408556116 0
6.024796730442596 34.74537775054313 0
10.47029014823075 20.75146693335332 0
14.14401237537508 27.78233214011226 0
8.095587710522111 38.15313556110524 0
16.20200395360013 31.08923036818465 0
90.02700898324201 3.448507971392438 0
23.93086110292693 38.05902458363083 0
25.88199610543835 34.59456607191285 0
24.01893140870213 31.09216005987656 0
28.13043766206903 31.11460956207126 0
30.10361006777433 34.60754674252035 0
14.22194213045015 3.412583177393572 0
16.19858705617064 7.095180178172512 0
20.17886370460698 6.841037474835566 0
22.00548470966497 3.45998918017834 0
23.95993012766499 6.935749494797463 0
22.19760697945767 10.64231013296634 0
26.11772578744769 10.35621292133786 0
27.90917384140397 6.995812710989 0
29.8817695201292 10.4631610950714 0
27.7834451607505 13.90748250703697 0
31.34170439107841 13.97954712601055 0
33.76060548893807 10.4898317913181 0
25.96947342910643 3.489663522333174 0
31.90164806343305 7.006927723717808 0
35.89164208154915 7.090119343045004 0
37.79882582046305 10.57283128497155 0
39.89211848013706 7.172677453234485 0
41.80218763986267 10.654459672825 0
39.38535371403859 14.00546133754606 0
43.89360350661642 7.267405928270421 0
45.80095906456051 10.75406747303207 0
47.89260732223643 7.346032739824246 0
49.79900274821455 10.83813547024121 0
51.89096548440718 7.438205042861718 0
53.79607435873166 10.9370804397384 0
55.8871684993894 7.532679764761511 0
57.79244956017737 11.02377351256825 0
59.88408938248624 7.626436924889383 0
61.78754761186172 11.12257090913761 0
63.87958113177788 7.709248287289988 0
65.71838968816174 11.32836034945802 0
67.73929134557167 7.832996896004389 0
47.38035951573149 14.14518916729869 0
55.37338305660462 14.28617797723691 0
63.36881696617547 14.57536525014881 0
69.87332044690038 4.149396309705295 0
61.9504834608455 3.843688357978962 0
53.95499400610608 3.739350243120327 0
45.95795015943697 3.640845304534238 0
37.96851132598017 3.593743754717117 0
74.01183158075835 41.54130741732021 0
76.05267912890989 38.09833916673229 0
72.02565919114699 38.08820794958682 0
74.12742821095596 34.6509479112167 0
70.08075438529526 34.63167965410358 0
70.00702164712818 41.53994911854373 0
68.02090964346503 38.08125369134665 0
64.00877874700751 38.0771691130473 0
66.05922932113251 34.6336201394178 0
62.05097469230564 34.62728292532792 0
68.08420781548514 31.1836248221311 0
84.20710424091283 10.82246365091373 0
60.01222542664742 38.07212988820852 0
58.03215254762884 34.61652395856235 0
60.13138197085245 31.17171387979835 0
34.37336368741464 27.72847926107381 0
32.26363116628624 31.1637351877608 0
36.3363832895364 31.19660389744696 0
34.33393304603447 34.64839944247054 0
38.2734593854845 34.68238369229896 0
32.04985949969297 38.09411451658124 0
40.33694127634912 31.22116374596875 0
42.32325958203019 34.69526516710722 0
40.15666651309156 38.16336797551722 0
44.18551810819565 38.15801198771492 0
46.304873655353 34.69167580943249 0
44.34052300309281 31.23610546646628 0
48.34224860668299 31.26159617617736 0
50.30967209161712 34.72364717627931 0
52.31080195102574 31.2612291910255 0
38.36794586955293 27.74851177573485 0
29.9853222593615 41.53551335015009 0
54 41.53589838486224 0
56.02250950257485 38.07943194595834 0
46.3645021928736 27.78165229802001 0
50.36072410569849 27.79306635837699 0
33.95675356082945 3.528527988906482 0
62.00459686660337 41.53686036484721 0
82.02986254708229 41.55313953445889 0
17.97644223758481 41.54484342354379 0
74.23979747428538 27.81463348366615 0
34.01193181307772 41.56792033602293 0
3.20653914914233 17.44569654565908 0
3.247595264191631 9.375 0
6.779260472991254 7.39788436323559 0
78.1140127100637 34.67349564604379 0
76.26886374693036 17.59192653592462 0
21.95751097229493 41.53614667480449 0
86.12738752657418 21.00836057052842 0
20.55618982282779 17.21415007207838 0
27.98988070686938 38.07078939337894 0
72.32175716683255 17.58580999837021 0
10.39623508178582 7.632732645647174 0
86.19376722797671 7.458964832429274 0
96.29549166982763 38.65969239158376 0
70.47847419689096 14.21323983241851 0
82 3.410735920860589 0
77.69008879666463 3.516919252249224 0
7.270985878413484 13.92080372484396 0
22.27319639800517 27.59202075672653 0
3.735943485459586 38.66118631181568 0
74.63742582516672 7.326107067678791 0
16.3209914121639 10.82025185123815 0
72.16062076150389 31.21737555816242 0
36.04500023673331 38.16471537720877 0
42.06523645113398 41.59647263989007 0
66.28696402842311 27.74067411571045 0
26.25201261211856 27.64986705665928 0
46.10576768674863 41.5609920464024 0
48.18932423310817 38.1365812796472 0
64.17238116840846 31.20370268209617 0
58.29091708617001 27.74106979938995 0
54.16805081678923 34.66510273304731 0
52.15336817949749 38.1226686004014 0
5.817182288461211 3.28038213560383 0
56.19524124839082 31.196361861452 0
22.26182321635118 14.24135258739274 0
20.12920424381025 31.08862967392962 0
28.72589850225359 17.4113131163258 0
97.05011618983924 5.736393868223672 0
32.90935479868998 17.38416896081554 0
97.10196736035347 9.379960111020594 0
35.34034642423537 13.9900158372473 0
40.93142561074952 17.46520518076681 0
93.54367787612242 14.30486243431744 0
43.35659581635829 14.10748924806006 0
6.35072557145449 20.20037991134288 0
48.92505612597012 17.56330297603557 0
2.785917665122973 28.125 0
51.35079872136172 14.25077012776053 0
97.30404765683673 20.79780321443218 0
56.91422569132458 17.66061370590658 0
59.34191406443966 14.4193881704642 0
64.62586898505617 17.88860900118526 0
2.717932294393108 35.25805978238185 0
97.44316153957028 28.125 0
66.95113512690479 14.47068682645142 0
97.28562366558955 35.24501883022923 0
69.06512973533879 11.0495777962188 0
71.23482934538983 7.471425834683387 0
5.876776823038718 11.05360878587456 0
97.03340313564954 42.09396334469284 0
2.966596864350464 42.09396334469284 0
2.772103081055889 2.698576619792952 0
97.36890190564819 2.62803947567668 0
94.81410050883269 11.10363339913528 0
6.033186337750784 16.70685244950056 0
92.06408675646065 5.512146096399526 0
18.99792697081718 9.678534632143347 0
24.83254824809006 13.170846036283 0
13.0147223317488 6.291107064914769 0
2 2 0 303
425
426
427
428
429
430
431
432
433
434
435
436
437
438
439
440
441
442
443
444
445
446
447
448
449
450
451
452
453
454
455
456
457
458
459
460
461
462
463
464
465
466
467
468
469
470
471
472
473
474
475
476
477
478
479
480
481
482
483
484
485
486
487
488
489
490
491
492
493
494
495
496
497
498
499
500
501
502
503
504
505
506
507
508
509
510
511
512
513
514
515
516
517
518
519
520
521
522
523
524
525
526
527
528
529
530
531
532
533
534
535
536
537
538
539
540
541
542
543
544
545
546
547
548
549
550
551
552
553
554
555
556
557
558
559
560
561
562
563
564
565
566
567
568
569
570
571
572
573
574
575
576
577
578
579
580
581
582
583
584
585
586
587
588
589
590
591
592
593
594
595
596
597
598
599
600
601
602
603
604
605
606
607
608
609
610
611
612
613
614
615
616
617
618
619
620
621
622
623
624
625
626
627
628
629
630
631
632
633
634
635
636
637
638
639
640
641
642
643
644
645
646
647
648
649
650
651
652
653
654
655
656
657
658
659
660
661
662
663
664
665
666
667
668
669
670
671
672
673
674
675
676
677
678
679
680
681
682
683
684
685
686
687
688
689
690
691
692
693
694
695
696
697
698
699
700
701
702
703
704
705
706
707
708
709
710
711
712
713
714
715
716
717
718
719
720
721
722
723
724
725
726
727
25.55122879881663 48.45418195799013 0
42 48.46410161513776 0
58 48.46410161513776 0
73.64123223440906 48.44832806669141 0
66.00453172572354 86.53528576676828 0
50.03137282639803 86.50525618995307 0
34.05300326074475 86.41039003256741 0
3.181839112114801 69.55076137255995 0
96.5360635610601 69.37606084864959 0
78.02535302657594 86.5361175961431 0
22.13561328070019 86.21865264287285 0
13.63682312991644 48.37859647930924 0
86 48.46410161513776 0
3.344123227729156 58.37802239462005 0
96.820997182997 58.13991560677653 0
14.03811925963001 86.44985141488087 0
86.02425396860235 86.54981040765864 0
33.99983467728139 48.46381537800902 0
49.99983301693288 48.46413373322032 0
65.99843646695408 48.4641513196743 0
58.02432516876893 86.54372086538443 0
42.0624414725559 86.42478370602743 0
3.064154190140776 76.73624035546439 0
96.54324639833362 76.51882280039403 0
6 86.53589838486224 0
93.83704007470902 86.64731433017219 0
6.095391487061391 48.46725923903126 0
94.07565356600736 48.53927907272262 0
89.98777158501926 86.56561333225463 0
88.03528090317319 83.11539571689039 0
84.07281068862692 83.09898617803324 0
86.11907635498331 79.6730620054152 0
82.14530453494655 79.65253544394406 0
84.19132369132763 76.24457509116264 0
80.22133806090295 76.22598895651572 0
82.23105985351503 72.83427764514934 0
78.28284882104114 72.80047749057783 0
80.29541944707749 69.40318406237245 0
76.34229587169378 69.3660013597483 0
78.35296076831777 65.97075400409241 0
74.39815943774207 65.92589503092232 0
72.3841753806326 69.33201893298899 0
70.43377562102228 65.88438874120943 0
68.4148013372601 69.28574460832732 0
66.4601529580135 65.87390462517681 0
64.43725964862658 69.25356016998394 0
62.4791610104716 65.83808481887137 0
60.4530939390754 69.23265670031648 0
58.49249917936613 65.80979997887503 0
56.46429248118999 69.20002801345291 0
54.50192324819422 65.7722786236358 0
52.47217994132944 69.16366897002239 0
50.50849176147778 65.74096250837998 0
48.47772541308454 69.12710771490157 0
46.51316034059581 65.70293980323925 0
44.48127173647768 69.08922642216871 0
42.5164553477356 65.67106448914029 0
40.48432368139739 69.05124300786196 0
38.51978118594924 65.6337111188593 0
36.48054985132826 69.00265338188071 0
34.52357693335265 65.5998828125585 0
32.47389466745503 68.95417163978408 0
30.52946939032679 65.56176781325493 0
28.49399282841248 68.91900531049563 0
26.54387480181377 65.46227549427594 0
24.52002234908231 68.86865760256654 0
22.56698659672631 65.41652191541061 0
20.55343974560018 68.81980008993604 0
18.60778739554166 65.38150190754145 0
82.30428437493579 65.9974320324631 0
80.36250878464797 62.57651222597655 0
26.46603842475947 72.33047641095676 0
20.6151407669696 61.98434304679891 0
76.23861004095968 76.19562065524013 0
38.42601845246513 72.43905521080727 0
16.61499489551132 68.78006159157397 0
18.54366992324958 72.19897241599129 0
46.44673459855866 72.55107147052166 0
16.6741442895589 61.96090021197222 0
54.43639244000505 72.62171884871925 0
62.40493487233097 72.69069111710094 0
68.60650682574486 62.3868808005544 0
60.99912146146828 62.37360793509269 0
53.01360001421012 62.33263944291799 0
45.02007170132876 62.2900668921578 0
37.02435039322668 62.24714226987679 0
28.89970696204478 62.09546342255831 0
84.30192317318789 62.60515110791592 0
14.60112595065758 72.13202399170338 0
18.66062168519232 58.56218858168084 0
14.73356207946081 58.54451626541119 0
12.76063465265139 61.92135250382469 0
82.36911749472262 59.18482781304867 0
78.42176352489238 59.13735544157525 0
86.19405588002398 72.86315962824074 0
16.51984944218886 75.56941385782555 0
86.29690262773182 59.23966369863059 0
88.21540941859814 62.63273805811104 0
80.43993738751472 55.73832897167021 0
12.57492944205637 75.47802918860668 0
12.68035690709458 68.67937026223687 0
22.71512791199013 58.51770923387294 0
20.66444903013567 55.13700616592313 0
76.48040205557589 55.70073499189746 0
20.46428113582684 75.63070894545204 0
18.43469749858296 79.00810952783655 0
22.38817578327615 79.06969928110431 0
70.32190614555375 72.7207458365998 0
10.84721285470513 58.53271321236917 0
8.893492785388233 61.88560561856128 0
25.20095730970409 55.15589912094907 0
90.20555247839042 79.64626923861255 0
90.12504757828646 59.33097716106568 0
92.00850999642871 62.72025841760608 0
90.11703970269259 66.00536828498375 0
88.30531943862343 55.89638580569346 0
12.79769149151059 55.2026969748262 0
8.89953654270245 55.14297551667663 0
74.45798647352464 59.09888232092925 0
72.76195284493606 55.4436841013575 0
78.50981824911479 52.27676644208719 0
91.91482688291242 56.00616876392473 0
90.29458225771467 52.55851702350748 0
82.48037924813451 52.3319591575212 0
22.98643340612044 51.79883807832524 0
18.76047996986921 51.75646012160765 0
10.86102185307202 51.7777471870276 0
93.99405032539579 66.03274697584322 0
92.28665050526894 69.38425848636494 0
94.344670164107 72.83263378662171 0
90.43711970063313 72.86051002037607 0
92.32055825358739 76.29502370068636 0
96.15699889594973 62.40789626462092 0
94.0854163271884 79.73578887824526 0
20.33878155329084 82.48202941820355 0
24.27348665312617 82.61782075805331 0
26.34689996081784 79.12985435080763 0
28.2551057303541 82.62851709450987 0
30.32431048039306 79.18405840913553 0
16.32447001389261 82.56468536367218 0
26.12403814971951 86.26013233895804 0
94.18470797975122 52.60840882882456 0
32.21640994816009 82.70456384415083 0
34.30170237322719 79.23091811851663 0
32.35884488496238 75.76978297363209 0
36.22864797610712 82.73841545473736 0
38.31264507041374 79.26493793619471 0
88.25652813029298 69.42042042316751 0
40.19570604746772 82.81065381172223 0
42.3094603195969 79.31877750863634 0
44.2096225892396 82.8502226042004 0
46.31162609567372 79.38010558339394 0
80.08000585785155 83.08996397014953 0
10.78475576477092 65.2574148049236 0
6.919601537342345 65.20516694875701 0
5.261215198029753 61.91987584190572 0
92.01238704843213 83.14497446547901 0
88.29101530363343 76.19893326865801 0
84.2538116999401 69.41633672675083 0
8.935315593682802 68.48900999832746 0
10.62347472886402 71.99102852608799 0
8.814935816900643 75.30508447171064 0
10.6004003544154 78.90387227578634 0
6.621322301831796 71.63652277812812 0
6.313911525935971 78.56182746278424 0
8.576691002471989 82.12933640855942 0
4.526225248378921 82.31323939682221 0
10.18051111441589 86.32405428614713 0
89.98766174739416 48.45697812167445 0
48.2068782513018 82.9005061092743 0
50.30862791126466 79.43218656538102 0
52.16386202094108 82.99532435162189 0
54.27396042054355 79.53848365926233 0
12.44098658672011 82.75700049928307 0
18.0996409651802 86.23019402993526 0
14.68711231752147 65.3301002136788 0
14.48255555630939 79.04685178550173 0
74.0122084008749 86.54003898670125 0
76.06347402290029 83.08565078669939 0
72.02543095057544 83.08650088464063 0
74.05549460675635 79.64344603415397 0
70.07959978875316 79.62087607019737 0
70.007045104265 86.53945303200102 0
84.37746150693027 55.80965484552153 0
82.02628238420643 86.54619315201533 0
68.02067681658643 83.07910634904786 0
64.00896694192649 83.07671444146324 0
66.063697769082 79.63420755489611 0
62.14135221749624 79.62592289383291 0
68.23800481758747 76.16159102513373 0
38.06426175677089 86.37211298981534 0
60.07713739872241 83.1016617379 0
46.04339414451491 86.4299429137502 0
42.44471069967867 72.48886784128865 0
54.05869033434818 86.52961426791606 0
29.92602184082524 48.46288798876543 0
31.98873803635291 51.92773678628516 0
35.9981042683205 51.92732059588233 0
33.99802213272552 55.32382380968961 0
37.99750415413656 55.31325464800685 0
29.72901228797839 55.23869186695678 0
31.39385909874432 58.63503085045225 0
27.68982783869595 51.86582636648033 0
27.11366674105294 58.50399853765434 0
39.99885246359854 51.91448760120666 0
41.99891162821113 55.31649337201421 0
39.59445167569173 58.7201781562019 0
46.00019374404713 48.46423487577756 0
48.00039254359344 51.92804513764279 0
51.99931475027062 51.9279885262163 0
49.99999610811845 55.33919803557344 0
53.99839940842617 55.33023600803026 0
45.99987309670946 55.31076156417047 0
47.59340119256558 58.75111488510215 0
55.99803837160478 51.91785114221106 0
57.99615695293576 55.33472077706365 0
55.58891157045059 58.78174524369249 0
44.00090630734141 51.92134798885969 0
59.9963319898412 51.91668506489907 0
61.99290727417728 55.33432253314861 0
63.99595306041859 51.91593745469649 0
65.98804263153897 55.38986221451812 0
63.45821032231909 58.78627590721577 0
53.99953102313471 48.46234583613091 0
69.93596369212406 48.43881108639531 0
68 51.92820323027551 0
61.99845358620231 48.46014590906793 0
37.99946523486674 48.46162086503929 0
50.44249513168777 72.58337931570354 0
62.01916020585689 86.54289713525266 0
16.72720290027484 55.20981184874705 0
58.42564264288433 72.64861111540887 0
96.31154957719147 83.66203763151543 0
56.34825712738826 76.09478200441329 0
74.31980237246935 72.75612948163064 0
24.74241729676626 61.99671860842851 0
78.13403785405289 79.64886764111712 0
76.40801015765614 62.53408238635443 0
86.24149941660791 66.01290777223203 0
3.129901010451896 54.30966580538351 0
22.49339237974346 72.25530954547659 0
72.47008682055869 62.47772864465388 0
86.3870608710092 52.45972022960341 0
3.240083902378295 73.125 0
70.80581848960783 58.80389138611018 0
82 48.40893806386786 0
24.41825283961834 75.69534640954561 0
7.197748611150097 58.5990763455649 0
36.34588801080358 75.81611912224326 0
52.38113764546007 76.03385238673195 0
30.10809284816307 86.33393388503103 0
3.345264689919269 65.40006106337721 0
48.38417467502727 75.9841744436785 0
72.24892439427668 76.16559516405532 0
44.38536590836493 75.93352607392541 0
78 48.38139508059444 0
28.38366134193473 75.74903715517627 0
30.42020591632844 72.34958583432048 0
40.38348359634445 75.87724603852092 0
34.41027168908723 72.38249997635566 0
60.31300557149397 76.13152918815491 0
66.33878134248022 72.7239557145946 0
74.69108982946187 52.22481719152618 0
56.12559556958099 83.06658298072828 0
58.1967552003826 79.62102686544951 0
64.24996276507848 76.16131624895219 0
3.063955457746346 50.68042279136419 0
6.629123262005223 52.36500829514674 0
64.69602184930962 62.43650826496652 0
59.42771002113732 58.86211944424046 0
10.00000000000001 48.14848093216098 0
57.00396091580444 62.32203177807574 0
51.45624054348291 58.84349770725031 0
14.88643183293844 51.8921790171288 0
49.01749425894349 62.27687020650791 0
43.45929666567289 58.8128495230446 0
21.44000357792532 48.34893593426136 0
97.10574132104787 50.74167437100086 0
41.02240116160082 62.22916874154678 0
35.42769398389421 58.78162923137475 0
32.96644279359824 62.15348606667925 0
97.17566714842614 54.38181817094367 0
93.64937103134709 59.34566092300522 0
2.822947995692658 85.00897685023449 0
97.31287649005436 65.78800854079626 0
17.42193438252844 48.30691626507803 0
71.32616222089118 51.62734397146179 0
97.48117272627566 73.125 0
97.30211168200486 80.24748131018826 0
69.26985272639934 54.98177300294862 0
67.20162910413811 58.61967112130323 0
5.610881547437486 75.07293501361748 0
97.03340313564954 87.09396334469284 0
5.940911058345854 55.73526548925653 0
2.780858192891131 79.77226144301417 0
5.889333008583101 67.99962328041784 0
97.38242471838522 47.62652429894849 0
2.631869388961547 47.57953640607909 0
2.22350012751177 61.87879838087791 0
2.489180471127931 87.62167890193655 0
94.94255640676083 56.05091021906014 0
8.396384150534658 50.18962391334164 0
92.26485643913904 50.61770511533899 0
$EndNodes
$Elements
9 1477 1 1477
1 101 1 25
1 1 7 
2 7 8 
3 8 9 
4 9 10 
5 10 11 
6 11 12 
7 12 13 
8 13 14 
9 14 15 
10 15 16 
11 16 17 
12 17 18 
13 18 19 
14 19 20 
15 20 21 
16 21 22 
17 22 23 
18 23 24 
19 24 25 
20 25 26 
21 26 27 
22 27 28 
23 28 29 
24 29 30 
25 30 4 
1 102 1 12
26 1 31 
27 31 32 
28 32 33 
29 33 34 
30 34 35 
31 35 36 
32 36 37 
33 37 38 
34 38 39 
35 39 40 
36 40 41 
37 41 2 
1 103 1 12
38 3 42 
39 42 43 
40 43 44 
41 44 45 
42 45 46 
43 46 47 
44 47 48 
45 48 49 
46 49 50 
47 50 51 
48 51 52 
49 52 4 
1 104 1 25
50 2 53 
51 53 54 
52 54 55 
53 55 56 
54 56 57 
55 57 58 
56 58 59 
57 59 60 
58 60 61 
59 61 62 
60 62 63 
61 63 64 
62 64 65 
63 65 66 
64 66 67 
65 67 68 
66 68 69 
67 69 70 
68 70 71 
69 71 72 
70 72 73 
71 73 74 
72 74 75 
73 75 76 
74 76 3 
1 105 1 12
75 5 77 
76 77 78 
77 78 79 
78 79 80 
79 80 81 
80 81 82 
81 82 83 
82 83 84 
83 84 85 
84 85 86 
85 86 87 
86 87 1 
1 106 1 25
87 6 88 
88 88 89 
89 89 90 
90 90 91 
91 91 92 
92 92 93 
93 93 94 
94 94 95 
95 95 96 
96 96 97 
97 97 98 
98 98 99 
99 99 100 
100 100 101 
101 101 102 
102 102 103 
103 103 104 
104 104 105 
105 105 106 
106 106 107 
107 107 108 
108 108 109 
109 109 110 
110 110 111 
111 111 5 
1 107 1 12
112 4 112 
113 112 113 
114 113 114 
115 114 115 
116 115 116 
117 116 117 
118 117 118 
119 118 119 
120 119 120 
121 120 121 
122 121 122 
123 122 6 
2 1 2 676
124 234 367 268 
125 262 400 261 
126 32 374 31 
127 268 367 136 
128 45 239 138 
129 52 368 51 
130 137 260 258 
131 374 416 31 
132 145 366 358 
133 358 388 145 
134 46 239 45 
135 136 367 235 
136 235 370 136 
137 130 400 262 
138 232 375 371 
139 232 370 235 
140 52 415 368 
141 371 375 126 
142 232 371 370 
143 36 262 35 
144 141 305 303 
145 70 309 69 
146 129 237 236 
147 144 241 238 
148 129 238 237 
149 207 264 215 
150 259 261 209 
151 258 263 137 
152 130 262 36 
153 125 301 299 
154 68 310 67 
155 307 406 405 
156 284 396 394 
157 405 406 203 
158 394 396 195 
159 275 376 222 
160 306 403 401 
161 401 403 204 
162 292 399 397 
163 196 265 193 
164 397 399 205 
165 222 424 275 
166 126 413 309 
167 238 409 144 
168 375 413 126 
169 137 402 260 
170 141 309 305 
171 279 390 219 
172 303 310 141 
173 223 246 241 
174 126 309 70 
175 69 309 141 
176 219 422 279 
177 212 244 240 
178 66 311 65 
179 261 264 209 
180 284 392 283 
181 284 394 392 
182 255 267 252 
183 215 264 231 
184 140 297 295 
185 356 400 130 
186 261 400 264 
187 209 264 207 
188 209 265 259 
189 241 242 223 
190 356 420 400 
191 239 398 138 
192 125 310 301 
193 193 265 209 
194 299 311 125 
195 67 310 125 
196 141 310 68 
197 283 392 194 
198 198 330 272 
199 196 267 265 
200 272 330 273 
201 64 312 63 
202 332 334 273 
203 330 332 273 
204 262 402 35 
205 140 311 297 
206 144 242 241 
207 240 246 212 
208 65 311 140 
209 125 311 66 
210 124 293 290 
211 265 267 255 
212 194 423 283 
213 241 246 240 
214 295 312 140 
215 253 391 257 
216 252 267 253 
217 337 378 333 
218 155 246 153 
219 240 244 237 
220 373 381 271 
221 195 396 292 
222 292 397 195 
223 324 377 318 
224 143 420 356 
225 140 312 64 
226 63 312 124 
227 62 313 61 
228 236 404 129 
229 372 420 143 
230 124 312 293 
231 271 381 272 
232 238 240 237 
233 290 313 124 
234 131 378 337 
235 153 246 223 
236 212 246 155 
237 212 248 244 
238 242 245 223 
239 317 359 315 
240 267 391 253 
241 345 364 334 
242 254 263 258 
243 334 364 273 
244 358 366 228 
245 205 399 306 
246 407 410 202 
247 287 350 288 
248 197 359 317 
249 133 315 247 
250 150 245 148 
251 220 377 324 
252 306 401 205 
253 124 313 62 
254 315 359 247 
255 328 384 323 
256 149 388 358 
257 338 383 382 
258 272 381 198 
259 313 350 61 
260 254 266 263 
261 382 383 127 
262 281 286 132 
263 132 287 281 
264 151 245 150 
265 301 310 303 
266 146 266 249 
267 288 350 313 
268 333 378 332 
269 247 352 133 
270 132 350 287 
271 29 150 148 
272 146 249 8 
273 223 245 151 
274 191 362 248 
275 201 384 328 
276 297 311 299 
277 74 268 136 
278 159 248 157 
279 248 362 244 
280 157 248 212 
281 134 275 274 
282 123 361 269 
283 46 404 239 
284 58 277 57 
285 134 274 56 
286 58 286 277 
287 322 324 318 
288 338 379 337 
289 282 287 285 
290 254 258 255 
291 133 352 26 
292 338 382 379 
293 238 241 240 
294 281 287 282 
295 191 248 159 
296 258 260 259 
297 12 361 123 
298 320 322 318 
299 224 225 214 
300 123 364 345 
301 204 403 307 
302 318 377 317 
303 132 286 59 
304 139 151 150 
305 29 148 30 
306 278 286 281 
307 76 147 75 
308 7 146 8 
309 277 286 278 
310 147 268 75 
311 225 239 236 
312 153 223 151 
313 293 312 295 
314 213 214 206 
315 193 207 190 
316 250 254 252 
317 189 190 188 
318 213 224 214 
319 139 150 28 
320 215 231 221 
321 366 424 222 
322 260 262 261 
323 9 249 135 
324 258 259 255 
325 193 209 207 
326 189 193 190 
327 254 255 252 
328 249 250 135 
329 55 274 145 
330 225 236 226 
331 250 266 254 
332 128 319 23 
333 55 145 54 
334 245 368 148 
335 235 325 217 
336 25 314 133 
337 307 405 204 
338 59 286 58 
339 316 320 318 
340 187 189 188 
341 314 315 133 
342 242 368 245 
343 260 261 259 
344 343 349 200 
345 319 320 316 
346 341 349 343 
347 28 150 29 
348 249 266 250 
349 152 153 151 
350 8 249 9 
351 288 313 290 
352 287 288 285 
353 269 364 123 
354 128 320 319 
355 207 215 208 
356 57 277 134 
357 215 221 216 
358 152 352 247 
359 187 188 186 
360 139 352 152 
361 27 139 28 
362 225 226 214 
363 57 134 56 
364 23 319 24 
365 157 212 155 
366 74 136 73 
367 9 135 10 
368 25 133 26 
369 192 206 191 
370 348 349 341 
371 210 213 206 
372 227 233 224 
373 134 276 275 
374 139 152 151 
375 75 268 74 
376 340 348 341 
377 236 237 226 
378 56 274 55 
379 142 347 326 
380 188 194 186 
381 326 347 327 
382 161 191 159 
383 24 314 25 
384 206 362 191 
385 221 228 222 
386 32 408 374 
387 250 252 251 
388 251 353 135 
389 154 155 153 
390 199 348 340 
391 207 208 190 
392 185 186 184 
393 185 187 186 
394 334 355 345 
395 234 243 233 
396 199 340 335 
397 256 353 251 
398 278 279 276 
399 321 322 320 
400 152 154 153 
401 24 319 314 
402 183 185 184 
403 337 379 131 
404 316 317 315 
405 335 344 199 
406 304 308 302 
407 303 304 302 
408 326 351 142 
409 256 361 353 
410 288 289 285 
411 128 351 321 
412 183 184 182 
413 226 362 214 
414 11 361 12 
415 250 251 135 
416 314 316 315 
417 128 321 320 
418 303 305 304 
419 321 351 326 
420 301 302 300 
421 188 363 194 
422 269 361 256 
423 181 183 182 
424 300 307 298 
425 331 344 335 
426 299 300 298 
427 329 330 198 
428 215 216 208 
429 136 370 73 
430 329 344 331 
431 340 341 339 
432 346 347 142 
433 189 196 193 
434 297 298 296 
435 221 372 228 
436 181 182 180 
437 213 227 224 
438 341 343 342 
439 301 303 302 
440 181 329 183 
441 182 195 180 
442 296 306 294 
443 123 345 13 
444 13 345 14 
445 336 340 339 
446 341 342 339 
447 161 192 191 
448 327 328 323 
449 295 296 294 
450 336 339 338 
451 321 323 322 
452 297 299 298 
453 299 301 300 
454 199 344 179 
455 127 346 19 
456 20 346 142 
457 60 132 59 
458 63 124 62 
459 65 140 64 
460 67 125 66 
461 69 141 68 
462 71 126 70 
463 12 123 13 
464 15 131 16 
465 18 127 19 
466 19 346 20 
467 20 142 21 
468 22 128 23 
469 183 198 185 
470 295 297 296 
471 183 329 198 
472 179 181 180 
473 335 340 336 
474 179 180 178 
475 329 331 330 
476 293 294 291 
477 331 332 330 
478 293 295 294 
479 291 292 289 
480 177 199 179 
481 178 205 176 
482 27 352 139 
483 282 283 280 
484 175 348 177 
485 177 348 199 
486 61 350 60 
487 22 351 128 
488 142 351 21 
489 336 338 337 
490 177 179 178 
491 179 344 181 
492 232 235 217 
493 181 344 329 
494 336 337 333 
495 177 178 176 
496 135 353 10 
497 174 204 172 
498 335 336 333 
499 175 177 176 
500 252 253 251 
501 290 293 291 
502 290 291 289 
503 175 176 174 
504 331 335 333 
505 288 290 289 
506 171 200 173 
507 173 175 174 
508 175 349 348 
509 331 333 332 
510 257 271 270 
511 60 350 132 
512 173 174 172 
513 173 349 175 
514 217 325 210 
515 200 349 173 
516 171 173 172 
517 170 203 168 
518 163 220 165 
519 21 351 22 
520 326 327 323 
521 385 389 200 
522 26 352 27 
523 171 172 170 
524 316 318 317 
525 332 378 334 
526 169 171 170 
527 167 201 169 
528 321 326 323 
529 192 210 206 
530 156 157 155 
531 278 280 279 
532 169 170 168 
533 244 362 226 
534 154 156 155 
535 282 284 283 
536 166 202 164 
537 163 354 220 
538 167 169 168 
539 345 355 14 
540 10 353 11 
541 282 285 284 
542 15 355 131 
543 167 168 166 
544 271 272 270 
545 272 273 270 
546 165 167 166 
547 380 384 201 
548 211 229 218 
549 266 374 263 
550 160 161 159 
551 158 159 157 
552 259 265 255 
553 165 166 164 
554 208 363 190 
555 277 278 276 
556 160 162 161 
557 160 163 162 
558 146 374 266 
559 314 319 316 
560 229 230 218 
561 163 165 164 
562 158 160 159 
563 221 222 216 
564 281 282 280 
565 163 164 162 
566 253 257 256 
567 211 217 210 
568 152 247 154 
569 156 158 157 
570 134 277 276 
571 257 270 269 
572 218 232 217 
573 214 362 206 
574 156 197 158 
575 253 256 251 
576 14 355 15 
577 211 218 217 
578 278 281 280 
579 210 325 213 
580 257 269 256 
581 353 361 11 
582 211 360 229 
583 190 363 188 
584 227 234 233 
585 219 363 208 
586 192 360 211 
587 161 360 192 
588 317 377 197 
589 325 367 227 
590 227 367 234 
591 192 211 210 
592 160 354 163 
593 158 354 160 
594 235 367 325 
595 270 364 269 
596 187 381 373 
597 162 360 161 
598 202 365 164 
599 237 244 226 
600 48 129 47 
601 37 130 36 
602 38 356 37 
603 39 143 38 
604 197 354 158 
605 154 359 156 
606 216 219 208 
607 273 364 270 
608 247 359 154 
609 50 144 49 
610 162 365 360 
611 228 366 222 
612 71 371 126 
613 257 391 271 
614 308 410 407 
615 156 359 197 
616 360 365 229 
617 213 325 227 
618 45 138 44 
619 34 137 33 
620 40 357 39 
621 202 369 365 
622 164 365 162 
623 324 380 220 
624 187 373 189 
625 41 149 40 
626 328 385 201 
627 365 369 229 
628 229 369 230 
629 323 384 322 
630 73 370 72 
631 127 387 346 
632 203 406 308 
633 37 356 130 
634 143 356 38 
635 370 371 72 
636 39 357 143 
637 218 375 232 
638 131 379 16 
639 231 372 221 
640 198 381 185 
641 308 407 203 
642 18 382 127 
643 220 380 165 
644 72 371 71 
645 167 380 201 
646 324 384 380 
647 54 388 53 
648 339 383 338 
649 149 357 40 
650 171 385 200 
651 328 389 385 
652 201 385 169 
653 222 376 216 
654 197 377 354 
655 149 358 357 
656 189 373 196 
657 230 375 218 
658 334 378 355 
659 4 415 52 
660 31 416 1 
661 129 409 238 
662 354 377 220 
663 30 415 4 
664 1 416 7 
665 216 376 219 
666 355 378 131 
667 368 411 51 
668 219 390 363 
669 194 392 186 
670 376 422 219 
671 16 379 17 
672 147 393 243 
673 379 382 17 
674 185 381 187 
675 165 380 167 
676 17 382 18 
677 386 389 327 
678 182 394 195 
679 225 398 239 
680 383 387 127 
681 322 384 324 
682 233 398 224 
683 342 383 339 
684 169 385 171 
685 327 389 328 
686 373 391 196 
687 292 396 289 
688 346 387 347 
689 343 389 386 
690 347 386 327 
691 200 389 343 
692 195 397 180 
693 347 387 386 
694 178 397 205 
695 343 386 342 
696 285 396 284 
697 386 387 342 
698 271 391 373 
699 145 388 54 
700 363 390 194 
701 306 399 294 
702 291 399 292 
703 138 395 44 
704 205 401 176 
705 174 401 204 
706 146 416 374 
707 307 403 298 
708 296 403 306 
709 368 415 148 
710 204 405 172 
711 170 405 203 
712 196 391 267 
713 308 406 302 
714 300 406 307 
715 260 402 262 
716 342 387 383 
717 203 407 168 
718 34 402 137 
719 166 407 202 
720 274 424 145 
721 186 392 184 
722 43 393 42 
723 392 394 184 
724 145 424 366 
725 184 394 182 
726 48 409 129 
727 44 395 43 
728 129 404 47 
729 144 409 49 
730 276 422 275 
731 264 400 231 
732 280 423 279 
733 289 396 285 
734 43 395 393 
735 53 417 2 
736 275 422 376 
737 180 397 178 
738 228 414 358 
739 224 398 225 
740 3 418 76 
741 390 423 194 
742 2 417 41 
743 358 414 357 
744 279 423 390 
745 393 395 243 
746 33 408 32 
747 294 399 291 
748 42 418 3 
749 263 408 137 
750 51 411 50 
751 176 401 174 
752 47 404 46 
753 144 411 242 
754 35 402 34 
755 298 403 296 
756 239 404 236 
757 172 405 170 
758 309 413 305 
759 302 406 300 
760 233 419 398 
761 50 411 144 
762 137 408 33 
763 168 407 166 
764 243 419 233 
765 388 417 53 
766 243 421 147 
767 304 410 308 
768 49 409 48 
769 242 411 368 
770 305 412 304 
771 374 408 263 
772 268 421 234 
773 202 410 369 
774 372 414 228 
775 76 418 147 
776 305 413 412 
777 149 417 388 
778 412 413 230 
779 369 412 230 
780 410 412 369 
781 148 415 30 
782 304 412 410 
783 7 416 146 
784 230 413 375 
785 143 414 372 
786 357 414 143 
787 398 419 138 
788 395 419 243 
789 147 421 268 
790 275 424 274 
791 41 417 149 
792 279 422 276 
793 147 418 393 
794 283 423 280 
795 234 421 243 
796 231 420 372 
797 138 419 395 
798 400 420 231 
799 393 418 42 
2 2 2 678
800 425 701 12 
801 535 627 625 
802 549 627 535 
803 425 627 549 
804 115 557 439 
805 547 667 593 
806 449 591 590 
807 122 657 121 
808 593 667 437 
809 549 701 425 
810 625 628 535 
811 116 557 115 
812 122 717 657 
813 437 667 548 
814 590 592 449 
815 548 670 437 
816 507 696 694 
817 545 687 680 
818 694 696 641 
819 508 699 697 
820 697 699 638 
821 509 703 700 
822 545 670 548 
823 700 703 631 
824 680 687 428 
825 704 705 626 
826 510 705 704 
827 545 680 670 
828 448 556 554 
829 511 628 626 
830 433 553 552 
831 433 554 553 
832 693 715 506 
833 628 660 526 
834 554 712 448 
835 536 582 556 
836 110 592 109 
837 559 560 435 
838 519 572 555 
839 564 599 440 
840 440 598 564 
841 626 628 625 
842 591 708 78 
843 560 565 435 
844 647 693 507 
845 507 694 647 
846 587 601 598 
847 647 715 693 
848 12 701 11 
849 556 558 536 
850 557 707 439 
851 78 719 591 
852 641 696 508 
853 508 697 641 
854 435 599 559 
855 698 710 550 
856 108 599 107 
857 105 675 104 
858 449 592 110 
859 638 699 509 
860 509 700 638 
861 109 592 440 
862 567 570 431 
863 535 628 526 
864 511 660 628 
865 631 703 510 
866 555 582 519 
867 510 704 631 
868 587 598 590 
869 556 582 555 
870 565 675 105 
871 542 692 551 
872 551 695 436 
873 614 678 606 
874 626 705 511 
875 692 726 551 
876 448 558 556 
877 598 601 564 
878 458 582 456 
879 449 708 591 
880 573 575 446 
881 106 565 105 
882 435 565 106 
883 570 615 431 
884 440 599 108 
885 107 599 435 
886 436 698 551 
887 436 710 698 
888 555 572 553 
889 559 599 564 
890 532 678 614 
891 588 668 432 
892 562 565 560 
893 605 661 603 
894 438 672 580 
895 103 615 102 
896 575 617 446 
897 446 615 573 
898 498 661 605 
899 579 676 580 
900 586 588 585 
901 524 585 513 
902 456 582 536 
903 519 582 458 
904 594 596 430 
905 104 675 431 
906 554 555 553 
907 524 586 585 
908 431 675 567 
909 603 661 577 
910 434 603 577 
911 519 583 572 
912 685 689 658 
913 558 581 536 
914 596 619 430 
915 430 617 594 
916 573 615 570 
917 454 581 453 
918 594 617 575 
919 101 617 100 
920 431 615 103 
921 102 615 446 
922 686 690 505 
923 577 609 434 
924 562 675 565 
925 606 678 605 
926 453 581 450 
927 552 709 433 
928 590 598 592 
929 592 598 440 
930 578 600 525 
931 513 585 525 
932 525 584 578 
933 503 600 516 
934 536 581 454 
935 452 593 29 
936 441 454 453 
937 494 663 583 
938 441 453 90 
939 100 617 430 
940 446 617 101 
941 613 689 685 
942 583 663 572 
943 462 583 460 
944 460 583 519 
945 493 600 503 
946 614 686 532 
947 516 600 578 
948 612 614 606 
949 558 657 581 
950 673 683 571 
951 530 601 520 
952 494 583 462 
953 564 601 530 
954 605 678 498 
955 610 612 606 
956 537 538 522 
957 441 609 455 
958 455 609 577 
959 434 609 92 
960 89 450 88 
961 111 449 110 
962 89 453 450 
963 554 556 555 
964 8 451 7 
965 30 452 29 
966 581 657 450 
967 538 557 552 
968 524 587 586 
969 456 536 454 
970 516 534 533 
971 521 522 512 
972 521 537 522 
973 28 593 437 
974 579 580 534 
975 492 500 493 
976 538 552 539 
977 492 493 491 
978 567 675 562 
979 503 516 515 
980 429 607 95 
981 513 525 500 
982 516 533 515 
983 578 579 534 
984 93 602 434 
985 585 588 584 
986 500 600 493 
987 604 610 606 
988 525 585 584 
989 602 603 434 
990 490 492 491 
991 455 456 454 
992 607 610 604 
993 501 513 500 
994 587 589 586 
995 441 455 454 
996 29 593 28 
997 493 503 497 
998 429 610 607 
999 525 600 500 
1000 91 441 90 
1001 109 440 108 
1002 538 539 522 
1003 95 607 94 
1004 499 684 484 
1005 460 519 458 
1006 10 436 9 
1007 28 437 27 
1008 590 591 589 
1009 93 434 92 
1010 107 435 106 
1011 495 512 494 
1012 490 491 489 
1013 516 578 534 
1014 99 619 98 
1015 517 521 512 
1016 645 650 646 
1017 540 546 537 
1018 520 524 513 
1019 527 655 550 
1020 90 453 89 
1021 578 584 579 
1022 444 650 645 
1023 552 553 539 
1024 520 601 524 
1025 464 494 462 
1026 91 609 441 
1027 503 515 514 
1028 614 690 686 
1029 94 602 93 
1030 512 663 494 
1031 492 501 500 
1032 493 497 491 
1033 580 672 534 
1034 457 458 456 
1035 432 720 588 
1036 98 619 445 
1037 430 619 99 
1038 533 542 541 
1039 547 566 546 
1040 455 457 456 
1041 616 654 445 
1042 611 612 610 
1043 645 651 444 
1044 620 627 425 
1045 94 607 602 
1046 488 490 489 
1047 604 605 603 
1048 426 642 629 
1049 646 647 644 
1050 429 654 611 
1051 488 489 487 
1052 486 488 487 
1053 630 642 637 
1054 645 646 644 
1055 623 625 621 
1056 427 651 643 
1057 484 486 485 
1058 643 651 645 
1059 629 642 630 
1060 497 660 491 
1061 539 663 522 
1062 486 487 485 
1063 521 608 540 
1064 429 611 610 
1065 611 654 616 
1066 649 650 444 
1067 602 604 603 
1068 92 609 91 
1069 488 496 490 
1070 623 626 625 
1071 643 644 640 
1072 482 484 483 
1073 484 485 483 
1074 639 648 427 
1075 625 627 621 
1076 640 641 636 
1077 611 613 612 
1078 634 636 635 
1079 482 499 484 
1080 442 621 620 
1081 639 640 636 
1082 502 618 480 
1083 442 622 621 
1084 521 540 537 
1085 622 623 621 
1086 442 652 622 
1087 632 642 426 
1088 621 627 620 
1089 427 648 20 
1090 634 635 633 
1091 595 597 596 
1092 629 652 426 
1093 20 648 19 
1094 635 638 637 
1095 622 652 629 
1096 635 637 633 
1097 437 670 27 
1098 643 645 644 
1099 443 634 633 
1100 464 495 494 
1101 517 608 521 
1102 427 643 639 
1103 443 633 632 
1104 480 618 482 
1105 576 595 594 
1106 634 639 636 
1107 630 631 624 
1108 482 483 481 
1109 633 642 632 
1110 21 651 427 
1111 444 651 22 
1112 622 624 623 
1113 634 648 639 
1114 443 648 634 
1115 19 648 443 
1116 480 482 481 
1117 639 643 640 
1118 442 620 14 
1119 443 632 18 
1120 428 649 24 
1121 96 429 95 
1122 98 445 97 
1123 100 430 99 
1124 102 446 101 
1125 104 431 103 
1126 13 620 425 
1127 17 632 426 
1128 23 649 444 
1129 13 425 12 
1130 14 620 13 
1131 15 442 14 
1132 17 426 16 
1133 18 632 17 
1134 19 443 18 
1135 21 427 20 
1136 23 444 22 
1137 24 649 23 
1138 25 428 24 
1139 595 596 594 
1140 637 642 633 
1141 527 550 549 
1142 15 652 442 
1143 426 652 16 
1144 574 576 575 
1145 576 594 575 
1146 96 654 429 
1147 445 654 97 
1148 629 630 624 
1149 489 511 487 
1150 559 564 530 
1151 481 509 479 
1152 22 651 21 
1153 485 510 483 
1154 533 672 542 
1155 622 629 624 
1156 482 618 499 
1157 16 652 15 
1158 478 502 480 
1159 545 548 523 
1160 480 481 479 
1161 563 569 568 
1162 477 508 475 
1163 478 480 479 
1164 501 520 513 
1165 574 575 573 
1166 548 608 523 
1167 571 574 573 
1168 478 479 477 
1169 474 504 476 
1170 476 478 477 
1171 476 477 475 
1172 478 653 502 
1173 97 654 96 
1174 499 683 673 
1175 473 507 471 
1176 466 532 468 
1177 474 476 475 
1178 476 653 478 
1179 571 573 570 
1180 504 653 476 
1181 611 616 613 
1182 608 667 540 
1183 474 475 473 
1184 568 571 570 
1185 503 514 497 
1186 604 606 605 
1187 533 541 515 
1188 472 474 473 
1189 470 505 472 
1190 495 517 512 
1191 492 665 501 
1192 526 660 497 
1193 459 460 458 
1194 472 473 471 
1195 474 656 504 
1196 457 459 458 
1197 572 663 539 
1198 469 506 467 
1199 466 659 532 
1200 470 472 471 
1201 472 656 474 
1202 568 570 567 
1203 505 656 472 
1204 470 471 469 
1205 563 568 567 
1206 468 470 469 
1207 563 567 562 
1208 461 462 460 
1209 463 464 462 
1210 561 563 562 
1211 518 543 528 
1212 463 465 464 
1213 463 466 465 
1214 468 469 467 
1215 602 607 604 
1216 531 559 530 
1217 543 544 528 
1218 491 660 489 
1219 461 463 462 
1220 501 665 529 
1221 489 660 511 
1222 466 468 467 
1223 518 523 517 
1224 656 658 504 
1225 496 665 490 
1226 455 577 457 
1227 466 467 465 
1228 459 461 460 
1229 597 688 596 
1230 514 655 527 
1231 528 545 523 
1232 527 549 535 
1233 459 498 461 
1234 522 663 512 
1235 561 562 560 
1236 529 530 520 
1237 518 528 523 
1238 531 561 560 
1239 531 560 559 
1240 514 527 526 
1241 515 655 514 
1242 542 551 541 
1243 540 547 546 
1244 587 590 589 
1245 518 662 543 
1246 495 662 518 
1247 464 662 495 
1248 523 608 517 
1249 529 531 530 
1250 495 518 517 
1251 540 667 547 
1252 527 535 526 
1253 461 659 463 
1254 463 659 466 
1255 465 662 464 
1256 595 674 597 
1257 490 665 492 
1258 506 666 467 
1259 553 572 539 
1260 118 433 117 
1261 82 432 81 
1262 524 601 587 
1263 498 659 461 
1264 486 684 682 
1265 457 661 459 
1266 597 689 688 
1267 568 673 571 
1268 514 526 497 
1269 501 529 520 
1270 577 661 457 
1271 120 448 119 
1272 80 447 79 
1273 465 666 662 
1274 86 664 85 
1275 459 661 498 
1276 576 677 595 
1277 81 668 80 
1278 595 677 674 
1279 115 439 114 
1280 85 438 84 
1281 662 666 543 
1282 658 674 504 
1283 597 674 658 
1284 541 655 515 
1285 576 679 677 
1286 506 669 666 
1287 673 684 499 
1288 467 666 465 
1289 529 671 531 
1290 25 680 428 
1291 665 671 529 
1292 486 682 488 
1293 548 667 608 
1294 534 672 533 
1295 563 681 569 
1296 574 679 576 
1297 496 671 665 
1298 574 683 679 
1299 666 669 543 
1300 543 669 544 
1301 532 686 468 
1302 571 683 574 
1303 27 670 26 
1304 470 686 505 
1305 569 673 568 
1306 531 671 561 
1307 432 668 81 
1308 484 684 486 
1309 656 685 658 
1310 681 682 569 
1311 83 676 82 
1312 670 680 26 
1313 80 668 447 
1314 504 674 653 
1315 613 690 612 
1316 85 664 438 
1317 82 676 432 
1318 674 677 653 
1319 496 681 671 
1320 596 688 619 
1321 619 688 445 
1322 671 681 561 
1323 498 678 659 
1324 682 684 569 
1325 653 677 502 
1326 528 687 545 
1327 677 679 502 
1328 502 679 618 
1329 676 723 580 
1330 659 678 532 
1331 679 683 618 
1332 8 695 451 
1333 26 680 25 
1334 488 682 496 
1335 452 702 566 
1336 618 683 499 
1337 561 681 563 
1338 658 689 597 
1339 505 685 656 
1340 496 682 681 
1341 6 717 122 
1342 468 686 470 
1343 88 717 6 
1344 436 695 9 
1345 685 690 613 
1346 569 684 673 
1347 544 714 711 
1348 507 693 471 
1349 544 687 528 
1350 580 723 438 
1351 469 693 506 
1352 647 694 644 
1353 640 694 641 
1354 116 709 557 
1355 433 712 554 
1356 445 688 616 
1357 508 696 475 
1358 473 696 507 
1359 641 697 636 
1360 635 697 638 
1361 589 719 447 
1362 688 689 616 
1363 655 698 550 
1364 509 699 479 
1365 505 690 685 
1366 477 699 508 
1367 78 708 77 
1368 669 715 714 
1369 638 700 637 
1370 630 700 631 
1371 538 707 557 
1372 616 689 613 
1373 546 707 537 
1374 86 691 664 
1375 481 703 509 
1376 510 703 483 
1377 544 711 687 
1378 631 704 624 
1379 612 690 614 
1380 623 704 626 
1381 669 714 544 
1382 485 705 510 
1383 511 705 487 
1384 691 692 664 
1385 551 698 541 
1386 657 713 121 
1387 591 719 589 
1388 451 692 691 
1389 87 691 86 
1390 471 693 469 
1391 506 715 669 
1392 657 717 450 
1393 439 706 114 
1394 644 694 640 
1395 447 716 589 
1396 11 710 10 
1397 428 711 649 
1398 475 696 473 
1399 9 695 8 
1400 636 697 635 
1401 118 712 433 
1402 541 698 655 
1403 479 699 477 
1404 448 712 119 
1405 589 716 586 
1406 637 700 630 
1407 687 711 428 
1408 79 719 78 
1409 550 701 549 
1410 588 720 584 
1411 113 702 112 
1412 433 709 117 
1413 483 703 481 
1414 438 723 84 
1415 7 722 1 
1416 624 704 623 
1417 4 721 30 
1418 586 716 588 
1419 83 723 676 
1420 487 705 485 
1421 1 722 87 
1422 114 706 113 
1423 113 706 702 
1424 112 721 4 
1425 537 707 538 
1426 701 710 11 
1427 121 713 120 
1428 702 706 566 
1429 448 713 558 
1430 546 725 707 
1431 117 709 116 
1432 566 727 452 
1433 557 709 552 
1434 438 718 672 
1435 111 724 449 
1436 120 713 448 
1437 664 718 438 
1438 550 710 701 
1439 676 720 432 
1440 579 720 676 
1441 10 710 436 
1442 593 727 547 
1443 558 713 657 
1444 5 724 111 
1445 711 714 650 
1446 649 711 650 
1447 566 725 546 
1448 650 714 646 
1449 119 712 118 
1450 714 715 646 
1451 646 715 647 
1452 588 716 668 
1453 30 721 452 
1454 451 722 7 
1455 450 717 88 
1456 692 718 664 
1457 707 725 439 
1458 77 724 5 
1459 672 718 542 
1460 452 727 593 
1461 542 718 692 
1462 695 726 451 
1463 584 720 579 
1464 668 716 447 
1465 447 719 79 
1466 452 721 702 
1467 451 726 692 
1468 84 723 83 
1469 449 724 708 
1470 547 727 566 
1471 691 722 451 
1472 439 725 706 
1473 706 725 566 
1474 87 722 691 
1475 702 721 112 
1476 551 726 695 
1477 708 724 77 
$EndElements
