$MeshFormat
4.1 0 8
$EndMeshFormat
$PhysicalNames
6
1 2 "bottom"
1 3 "right"
1 4 "top"
1 5 "left"
1 6 "Fault"
2 1 "Domain"
$EndPhysicalNames
$Entities
6 7 2 0
1 0 90 0 0 
2 0 0 0 0 
3 72.76000000000001 90 0 0 
4 40 0 0 0 
5 100 90 0 0 
6 100 0 0 0 
101 39.9999999 -1.000000011686097e-07 -1e-07 72.7600001 90.00000009999999 1e-07 1 6 2 4 -3 
102 -1e-07 -1.000000011686097e-07 -1e-07 1e-07 90.00000009999999 1e-07 1 5 2 1 -2 
103 -1.000000011686097e-07 89.99999990000001 -1e-07 72.7600001 90.00000009999999 1e-07 1 4 2 3 -1 
104 -1.000000011686097e-07 -1e-07 -1e-07 40.0000001 1e-07 1e-07 1 2 2 2 -4 
105 72.75999990000001 89.99999990000001 -1e-07 100.0000001 90.00000009999999 1e-07 1 4 2 5 -3 
106 99.99999990000001 -1.000000011686097e-07 -1e-07 100.0000001 90.00000009999999 1e-07 1 3 2 6 -5 
107 39.9999999 -1e-07 -1e-07 100.0000001 1e-07 1e-07 1 2 2 4 -6 
1 -1.000000011686097e-07 -1.000000011686097e-07 -1e-07 72.7600001 90.00000009999999 1e-07 1 1 4 102 104 101 103 
2 39.9999999 -1.000000011686097e-07 -1e-07 100.0000001 90.00000009999999 1e-07 1 1 4 -101 107 106 105 
$EndEntities
$Nodes
15 739 1 739
0 1 0 1
1
0 90 0
0 2 0 1
2
0 0 0
0 3 0 1
3
72.76000000000001 90 0
0 4 0 1
4
40 0 0
0 5 0 1
5
100 90 0
0 6 0 1
6
100 0 0
1 101 0 23
7
8
9
10
11
12
13
14
15
16
17
18
19
20
21
22
23
24
25
26
27
28
29
41.365 3.75 0
42.73 7.5 0
44.095 11.25 0
45.46 15 0
46.825 18.75 0
48.19 22.5 0
49.555 26.25 0
50.92 30 0
52.285 33.75 0
53.65 37.5 0
55.015 41.25 0
56.38 45 0
57.745 48.75 0
59.11 52.5 0
60.475 56.25 0
61.84 60 0
63.205 63.74999999999999 0
64.56999999999999 67.5 0
65.935 71.25 0
67.3 75 0
68.66500000000001 78.75 0
70.03 82.5 0
71.39500000000001 86.25 0
1 102 0 22
30
31
32
33
34
35
36
37
38
39
40
41
42
43
44
45
46
47
48
49
50
51
0 86.08695652173913 0
0 82.17391304347827 0
0 78.26086956521739 0
0 74.34782608695652 0
0 70.43478260869566 0
0 66.52173913043478 0
0 62.60869565217391 0
0 58.69565217391305 0
0 54.78260869565217 0
0 50.8695652173913 0
0 46.95652173913044 0
0 43.04347826086956 0
0 39.1304347826087 0
0 35.21739130434783 0
0 31.30434782608695 0
0 27.39130434782609 0
0 23.47826086956522 0
0 19.56521739130434 0
0 15.65217391304348 0
0 11.73913043478261 0
0 7.826086956521735 0
0 3.913043478260875 0
1 103 0 18
52
53
54
55
56
57
58
59
60
61
62
63
64
65
66
67
68
69
68.93052631578948 90 0
65.10105263157895 90 0
61.27157894736843 90 0
57.4421052631579 90 0
53.61263157894737 90 0
49.78315789473685 90 0
45.95368421052632 90 0
42.12421052631579 90 0
38.29473684210527 90 0
34.46526315789474 90 0
30.63578947368421 90 0
26.80631578947369 90 0
22.97684210526316 90 0
19.14736842105263 90 0
15.31789473684211 90 0
11.48842105263158 90 0
7.658947368421053 90 0
3.829473684210527 90 0
1 104 0 9
70
71
72
73
74
75
76
77
78
4 0 0
8 0 0
12 0 0
16 0 0
20 0 0
24 0 0
28 0 0
32 0 0
36 0 0
1 105 0 6
79
80
81
82
83
84
96.10857142857142 90 0
92.21714285714286 90 0
88.32571428571428 90 0
84.43428571428572 90 0
80.54285714285714 90 0
76.65142857142857 90 0
1 106 0 22
85
86
87
88
89
90
91
92
93
94
95
96
97
98
99
100
101
102
103
104
105
106
100 3.91304347826087 0
100 7.826086956521739 0
100 11.73913043478261 0
100 15.65217391304348 0
100 19.56521739130435 0
100 23.47826086956522 0
100 27.39130434782609 0
100 31.30434782608696 0
100 35.21739130434783 0
100 39.1304347826087 0
100 43.04347826086956 0
100 46.95652173913044 0
100 50.8695652173913 0
100 54.78260869565217 0
100 58.69565217391305 0
100 62.60869565217391 0
100 66.52173913043478 0
100 70.43478260869566 0
100 74.34782608695652 0
100 78.26086956521739 0
100 82.17391304347827 0
100 86.08695652173913 0
1 107 0 14
107
108
109
110
111
112
113
114
115
116
117
118
119
120
44 0 0
48 0 0
52 0 0
56 0 0
60 0 0
64 0 0
68 0 0
72 0 0
76 0 0
80 0 0
84 0 0
88 0 0
92 0 0
96 0 0
2 1 0 351
121
122
123
124
125
126
127
128
129
130
131
132
133
134
135
136
137
138
139
140
141
142
143
144
145
146
147
148
149
150
151
152
153
154
155
156
157
158
159
160
161
162
163
164
165
166
167
168
169
170
171
172
173
174
175
176
177
178
179
180
181
182
183
184
185
186
187
188
189
190
191
192
193
194
195
196
197
198
199
200
201
202
203
204
205
206
207
208
209
210
211
212
213
214
215
216
217
218
219
220
221
222
223
224
225
226
227
228
229
230
231
232
233
234
235
236
237
238
239
240
241
242
243
244
245
246
247
248
249
250
251
252
253
254
255
256
257
258
259
260
261
262
263
264
265
266
267
268
269
270
271
272
273
274
275
276
277
278
279
280
281
282
283
284
285
286
287
288
289
290
291
292
293
294
295
296
297
298
299
300
301
302
303
304
305
306
307
308
309
310
311
312
313
314
315
316
317
318
319
320
321
322
323
324
325
326
327
328
329
330
331
332
333
334
335
336
337
338
339
340
341
342
343
344
345
346
347
348
349
350
351
352
353
354
355
356
357
358
359
360
361
362
363
364
365
366
367
368
369
370
371
372
373
374
375
376
377
378
379
380
381
382
383
384
385
386
387
388
389
390
391
392
393
394
395
396
397
398
399
400
401
402
403
404
405
406
407
408
409
410
411
412
413
414
415
416
417
418
419
420
421
422
423
424
425
426
427
428
429
430
431
432
433
434
435
436
437
438
439
440
441
442
443
444
445
446
447
448
449
450
451
452
453
454
455
456
457
458
459
460
461
462
463
464
465
466
467
468
469
470
471
3.544512793956756 60.76162930762531 0
32.36690918991258 86.41606030590007 0
53.89394373752701 48.30136038195982 0
3.208126063632577 45.04273080167989 0
48.35490473580835 33.05712467616576 0
3.379699055587494 29.64848317197822 0
42.96986606027609 18.15630588357625 0
57.92742511773012 59.39121958825952 0
21.09112426751378 86.79615010162651 0
22 3.464101615137757 0
43.93217476979565 86.76796695559749 0
3.092768030288106 72.39524264539361 0
3.314789519448738 17.73983602669754 0
62.01167509200751 70.56342789446299 0
56.07249648271458 86.93821301383477 0
14.15931983220206 3.519939009681693 0
29.98506744725986 3.413020952430216 0
45.74949951531399 25.75432000782094 0
51.11798884008016 40.54509183381893 0
3.341702127733377 52.78497171491837 0
3.416203340261063 37.10461571342378 0
13.64897839186823 86.50764081123174 0
40.24977142586469 10.75445120879786 0
3.549633123833189 9.516209271448282 0
4.079164355927198 80.64829030639555 0
64.8207323395262 78.60454734584843 0
63.04835753516906 86.52081494792949 0
5.552960367704841 86.93029784590911 0
6.026880134197093 3.296375189005047 0
67.46490473580836 85.55712467616576 0
64.17999341108745 82.727448861759 0
60.80238185957758 83.62602469620006 0
63.39247371224081 74.39552804782051 0
59.46978889146821 73.62278854403155 0
58.10468931983078 69.89238347346325 0
55.56687032707268 72.92030834123885 0
54.21377976730258 69.21819484778965 0
51.68947090668352 72.23652751513868 0
50.33693841597659 68.54563620210044 0
47.8203275325425 71.55907986014805 0
46.46846929577988 67.87483331771921 0
43.9561711802447 70.88381891070902 0
42.60586862557395 67.2041338903566 0
40.09462760770946 70.20919779751404 0
38.74691469190806 66.53368004345104 0
36.22909713715281 69.53710953072112 0
34.88474464180241 65.86239319041357 0
37.39464866858499 62.87134127552787 0
33.53528350373458 62.19073708256867 0
31.02457665758602 65.19510008573019 0
29.67408393266575 61.51756976790693 0
32.18535661344301 58.51174012944517 0
28.31708520393794 57.83523455226104 0
30.83273233456105 54.82263553283202 0
26.95849936018545 54.14818564699662 0
29.4743684743202 51.12757222604576 0
27.16629501171868 64.52983837362937 0
25.5981994999537 50.45587179251162 0
28.11636590527351 47.43296418701725 0
24.2380542745214 46.76199890841498 0
26.75904106907212 43.73637861977718 0
22.88501072008459 43.07147874214589 0
25.40104581052334 40.03959985534819 0
33.3674364677528 51.82772074236116 0
23.0931369286745 53.4942652187042 0
21.53830667053522 39.39598931487304 0
24.04972524313597 36.34862414259707 0
27.92856235587043 37.01192341654919 0
26.56620379878067 33.30793706359681 0
22.68364437089316 32.64285599325336 0
25.202079076384 29.60196056495072 0
21.30921249617728 28.93063040274042 0
23.83551247823735 25.89381042155847 0
19.94049283158401 25.22156777827902 0
22.46975420681026 22.18369281636348 0
27.72777364421188 26.56362234488997 0
20.37842346822868 46.12522759721635 0
28.51676257234031 68.20210900423982 0
24.66529956068842 67.53781417662519 0
30.45730427506651 33.97638658279043 0
30.64570607208936 44.41795302760649 0
45.11483060922856 64.20037090016447 0
18.5731614204096 21.51387887686994 0
26.0108062876354 71.20277494737374 0
22.16311782452996 70.53937535006968 0
20.81577437646064 66.87607040518451 0
18.81362051730249 32.012929236174 0
18.32064143561934 69.87806491129815 0
16.96725319469962 66.21554542605995 0
21.10336172385253 18.46901276310269 0
25.00617723638655 19.14242343151464 0
17.31517648664244 17.75094311850073 0
37.583088838515 73.20954367762178 0
19.66635371372054 73.53503957671309 0
16.04789415378257 24.55319967632228 0
15.83119063538859 72.87581658901381 0
49.17730561307899 75.24601111698615 0
23.63686793025977 15.42063348839305 0
27.54873421557834 16.09578234127284 0
17.18118672507919 76.52269795216336 0
21.01509130648013 77.18237921867424 0
13.35128824889355 75.86975741237592 0
19.4638835698379 63.21060403151576 0
15.61263696887283 62.54826498176236 0
13.11530653783981 65.55570045437015 0
26.17530909205372 12.36832632997183 0
30.0922510631654 13.04295666055858 0
31.42347889421859 16.77941258263643 0
22.25979174729227 11.69461273893366 0
11.75914067155404 61.88798856408953 0
14.25861015180355 58.87868977077895 0
10.4008590751471 58.21851326392435 0
12.90131297664858 55.20589801804903 0
9.262152948972023 64.89577401316106 0
56.92619325872829 76.62958832235938 0
52.8548218938937 65.52057148524626 0
29.85740346766092 71.86649340263736 0
27.35789685296505 74.8591463044062 0
31.19176950606231 75.52336032835747 0
28.69220260492015 78.71789075529863 0
32.52202540129225 79.20278332128649 0
10.62143448763915 68.56103390347639 0
31.81976412998835 37.68810142619463 0
34.35458273118621 34.64788574878078 0
35.72057092681963 38.36408204898886 0
38.22952124505152 35.33415917503351 0
39.59064224365296 39.05682638833986 0
36.88935949201125 31.60427560935992 0
37.08336369759232 42.08812928107299 0
40.95459014520713 42.77898199891759 0
38.44832999933962 45.80901293385532 0
42.3182184164727 46.49970163454192 0
39.81301575177449 49.52878454974671 0
43.70905080270617 50.20819557273342 0
41.17959433282839 53.24571116407758 0
45.07475732120502 53.92215273634677 0
42.49680510695118 56.93533928367286 0
46.37195936060875 57.61008957519562 0
48.9620984513271 54.59480189737799 0
50.27590496721534 58.28817552972212 0
46.14750925040482 47.10434032934641 0
43.39958307318985 39.5529960413859 0
40.71851431108675 32.25095261967353 0
39.38819136381085 28.55833818148441 0
35.5158252242592 27.87853609631218 0
38.02254629212681 24.83676235014222 0
34.14341197822256 24.15728328053716 0
36.6175948727621 21.02059882150229 0
18.47169706827157 80.11597782767495 0
22.34020881964113 80.82048092580092 0
34.01101373974879 13.7198659972132 0
32.66109210992735 10.10797857789845 0
38.61624010074289 56.24588604671323 0
16.75915279575236 55.86985995721718 0
15.40291312983866 52.19374590233915 0
11.54143010280478 51.53061768585271 0
14.0471733981758 48.51448856838455 0
10.22602642968754 47.83570186744932 0
12.68866892135323 44.83386767589148 0
52.80360680902673 55.24278233175023 0
25.00532077398973 8.859894527622913 0
9.028582803769972 44.09521098386188 0
11.36170539563033 41.13924449363232 0
15.18478439263497 41.80611911877226 0
13.83272183669634 38.12599621783333 0
10.07190521984288 37.42741688943985 0
12.481792394997 34.44054965925172 0
8.72313817201011 33.73846455483656 0
11.09071935224293 30.70408823792539 0
6.853235662025348 67.94919339594522 0
30.14823177001323 82.32906449666814 0
8.36584090516638 71.49040955035315 0
20.93959428184781 7.359902299129779 0
18.38326926006967 10.91320171575843 0
16.72441770501876 7.218353309538969 0
14.21311227108841 10.53114665285506 0
7.153368043489706 51.03373151780401 0
40.46944618816856 21.44701388650775 0
43.21005376825374 29.01469817966379 0
34.04991918601753 82.91415247005041 0
36.36688256635604 79.85867064315258 0
38.13502942381092 83.40342602634558 0
40.32431750702834 80.41482285367996 0
28.41395074792591 86.15312654671172 0
26.10399238230156 82.62530258773651 0
51.42497979129905 51.53723371525372 0
5.508548640529156 64.64667689042513 0
60.82743376916673 77.34830812697685 0
58.38560000102681 80.77386441520429 0
54.41060566620291 79.655969137228 0
24.83417220175262 78.06831742537963 0
60.64910181676073 66.83137921857102 0
59.2839936595514 63.08807014593588 0
55.3855713265832 62.49968585900668 0
23.49564124420767 74.20470476036127 0
16.32123375833642 35.08531674047442 0
33.70686617195059 72.53295343279775 0
45.31045377030385 74.56205030041954 0
46.66375904051898 78.23640786421146 0
42.78424270347104 77.53110373274927 0
44.16387176824173 81.07384440972396 0
48.00917056242638 81.73660684618341 0
9.990824359086616 3.45880405638642 0
7.351195313577072 7.207851346834843 0
12.04858039717372 7.007933971754987 0
9.991158573904222 10.34223152899605 0
12.12031923000062 13.81093265509613 0
8.152268712257161 13.78640407745561 0
9.64978830172582 16.8688251488052 0
53.05357394111343 75.93898754645991 0
50.55099787491422 78.9455208458084 0
51.70186094982334 82.65084686768546 0
49.24402670733782 85.55155461831905 0
14.69430203707559 79.49989205216536 0
10.87692367240494 78.86242994863304 0
15.96935467593548 83.14535680498724 0
9.65744896739065 75.170291397374 0
7.161323576795908 77.86669111230634 0
8.411216078701905 81.86410982090393 0
3.533232919604124 76.30804766742983 0
34.54390787782707 45.10473662058493 0
41.42381786116945 73.87811083259635 0
37.27257824038342 52.54320723250839 0
17.42820983470914 28.29055285809327 0
13.54295679931874 27.61879046132343 0
12.14902156232439 23.98142332986411 0
9.773240765626653 27.0926811540074 0
8.533392732522181 23.62694134690609 0
12.01173290849528 72.21461366320699 0
26.00081647089681 3.372617949400372 0
21.73714181394713 49.81572367038942 0
14.76670808185627 20.90180426839116 0
14.4779265332803 69.21679582457091 0
24.45486921814186 57.17956569690516 0
52.48869829355461 44.43647222519061 0
48.63704396612383 43.88320834166795 0
49.75826256839957 36.79351278524465 0
45.85555102996653 36.26885987430198 0
12.19574317775208 82.76050132404517 0
41.5767382222803 14.35958865344172 0
39.08518187312039 17.63183748748467 0
33.74437385469417 3.421647859788081 0
9.037595110905208 54.54495958611926 0
6.568638373153107 57.59034149728383 0
25.8135060283987 60.85753646380493 0
7.840642083885371 61.33348725608487 0
32.36894112207652 68.86523316580229 0
38.83195797478906 6.912269059495998 0
3.381095317417419 48.96319381083634 0
28.89586876917917 19.81274220654128 0
7.123399578470057 40.08520707091311 0
7.339080507245562 30.20479391925008 0
5.254854894394121 33.42258148050257 0
35.0160846333207 76.19703816856504 0
3.346445035705244 41.15069986691925 0
3.311707035163693 25.42756305027164 0
18.10966660861624 59.54235217935555 0
32.98599365843835 30.92911366616657 0
3.143744119231144 21.54239259978473 0
6.73137608953612 20.05929973709786 0
3.994471577686866 13.67996860813804 0
19.78206214442579 14.71258817085225 0
29.28408401706708 40.71205507754905 0
23.31247294006625 63.87431548781858 0
40.0881442152246 86.77240099493062 0
28.93131803437299 9.509876085638552 0
29.09133038898378 30.27039898763209 0
18.09140511013891 3.490739671172108 0
41.25372783848327 63.53926769359218 0
9.307732343385112 85.97849989592193 0
48.98049995370394 64.86332024359842 0
26.36343919775296 22.85474668515363 0
33.18289945356397 41.39584291366616 0
47.55319517259923 50.879426260524 0
56.74865963065373 66.17504750500213 0
38.88723922263274 76.8552822966809 0
21.95905017220174 60.20107475331947 0
32.01042030235617 48.12104925873354 0
31.62325776568575 27.22244880219369 0
35.91195355923708 48.818955793435 0
36.05627026138586 59.21027466350797 0
20.60251302548317 56.52563871799823 0
34.71805328067553 55.52405347936971 0
30.25718497060324 23.51321522102499 0
19.24511532941467 52.84824957827495 0
17.88761463847845 49.16815066710745 0
16.53756836409471 45.47989693725172 0
19.03223923820744 42.44481048891252 0
17.68427258106311 38.76021926480782 0
20.1859573996655 35.70634947515892 0
32.76342325326323 20.46828964811565 0
14.94642210948446 31.35870453220704 0
17.45188337404372 86.66218506751979 0
39.92694049928363 59.90114274919049 0
43.79616880038137 60.57801981140474 0
47.66746877420212 61.25047610244026 0
51.50111378864264 61.91932567305882 0
55.26022340184716 52.02210143392968 0
24.75676540442213 86.76141314166014 0
44.33478870333332 22.02818704060339 0
15.9733429794837 14.05431274364418 0
41.86242097183455 25.27321994103708 0
50.02422836858476 47.69034020899042 0
47.10186669028224 29.35621398396764 0
44.80058533902729 43.26895622253635 0
47.26150246946454 40.05210418315929 0
42.03716473763895 35.86422122370834 0
36.36600474601031 10.73375533570008 0
3.103116120523524 84.4690959174836 0
35.22886665199694 17.42834708889167 0
36.38 86.88708141706545 0
3.300851921021959 5.912590356841008 0
54.07050722791816 58.85300690935782 0
55.76783648793293 83.02548976388636 0
3.329137036660121 68.13834473840163 0
56.60779375942036 55.70985171054954 0
6.480831542261654 46.68921865293613 0
35.13887646384772 7.099658529637786 0
37.51336804888849 3.53059590815365 0
3.104633871104483 56.66111811691518 0
59.44399252480798 86.94766487438575 0
44.48895510585548 32.67755969728989 0
19.71507869336785 83.59465825205422 0
37.91789013955969 13.97333883750791 0
13.42156332723839 17.35110732369641 0
42.04691820081212 83.73566847424709 0
31.52944884325118 6.598207203260678 0
10.82637593049222 20.53773613968327 0
61.80322827607696 80.61603868919772 0
6.620083733545094 10.88701037335357 0
52.22852840012578 86.9899399946876 0
6.917900240995642 36.35565714182317 0
6.216512851127774 73.94770724657828 0
22.96620395480139 84.02779878471594 0
6.338081022686197 26.9242393289544 0
27.69691238220791 6.202230909028351 0
45.71398141403786 84.35257068140915 0
6.324525954723846 16.43901616018517 0
5.887790595572696 43.16474293598538 0
5.954651805361266 54.53518441793351 0
2.84382490812493 2.84248198813561 0
2.360944216256755 64.56521739130434 0
2.497110034487775 87.49727005702637 0
67.13248398282096 81.47292245149592 0
6.090837853248509 83.97805875732283 0
24.08666517205028 5.758715000185319 0
46.9254049992869 87.33441845106515 0
5.488462707521407 70.45556110661271 0
5.449347115379645 23.47826086956522 0
58.02703506086036 84.60093658835022 0
2.19074355467815 33.30097891932478 0
2 2 0 268
472
473
474
475
476
477
478
479
480
481
482
483
484
485
486
487
488
489
490
491
492
493
494
495
496
497
498
499
500
501
502
503
504
505
506
507
508
509
510
511
512
513
514
515
516
517
518
519
520
521
522
523
524
525
526
527
528
529
530
531
532
533
534
535
536
537
538
539
540
541
542
543
544
545
546
547
548
549
550
551
552
553
554
555
556
557
558
559
560
561
562
563
564
565
566
567
568
569
570
571
572
573
574
575
576
577
578
579
580
581
582
583
584
585
586
587
588
589
590
591
592
593
594
595
596
597
598
599
600
601
602
603
604
605
606
607
608
609
610
611
612
613
614
615
616
617
618
619
620
621
622
623
624
625
626
627
628
629
630
631
632
633
634
635
636
637
638
639
640
641
642
643
644
645
646
647
648
649
650
651
652
653
654
655
656
657
658
659
660
661
662
663
664
665
666
667
668
669
670
671
672
673
674
675
676
677
678
679
680
681
682
683
684
685
686
687
688
689
690
691
692
693
694
695
696
697
698
699
700
701
702
703
704
705
706
707
708
709
710
711
712
713
714
715
716
717
718
719
720
721
722
723
724
725
726
727
728
729
730
731
732
733
734
735
736
737
738
739
97.17885198016243 25.72551395913208 0
54.77231903578181 30.72107419947189 0
60.56879604246093 45.59310853902785 0
73.97988020926456 3.258403830824875 0
96.61120494171307 37.17391304347827 0
97.08744014060363 49.69355422355331 0
67.07014608705678 64.88950210587691 0
96.72446658758989 68.48044180094347 0
62.01844215384753 3.130873591159315 0
71.56796055203316 75.59686654976994 0
86.01069667445896 3.461174931785536 0
86.36159178088432 86.54319751588946 0
50.67929443686179 19.46986878354036 0
96.61120494171307 13.69565217391305 0
64.4040556708425 56.94704770190442 0
57.4719444429441 38.23194196453197 0
96.40395117576408 56.59860232936441 0
96.57713916592452 76.13218776696361 0
54.36629864244292 3.642717932124583 0
73.98346155580012 83.05723264331262 0
48.11721990813457 11.93486429470032 0
93.83994265031973 3.366280152143176 0
96.36599380726777 84.09117820596028 0
78.55644089288603 86.99150192934849 0
45.50486994547539 3.938198021549425 0
46.92446450785408 7.947630586873856 0
50.86690562672391 9.085928468013577 0
51.9691551214224 12.88850993212471 0
54.73800054484629 10.21537043932923 0
55.79596696348884 13.93664506773202 0
58.61640603449595 11.17571671316306 0
59.63677199048244 15.02300042215428 0
62.47050119578677 12.21972730465356 0
63.4869008841403 16.07866156573543 0
66.32067242640568 13.27194608318173 0
67.33103518155039 17.13065767478696 0
64.50104371808106 19.93434696294715 0
68.34157290605259 20.98202491707119 0
71.16933653553176 18.18558417179129 0
72.17803004322451 22.03048414894891 0
75.0020725408551 19.23902673355781 0
76.0079710624272 23.07827318244461 0
73.18793384547475 25.86649038581239 0
77.01229008221014 26.91452780505466 0
74.19794966366172 29.69875703684382 0
78.01685136042113 30.74348068964558 0
75.20530774841922 33.52714575832148 0
79.02075636153002 34.56803470943802 0
76.21216310396133 37.35342156668787 0
80.02421688417228 38.3885721017864 0
77.21737723299435 41.17642234333954 0
78.82598147302076 20.29145392717401 0
81.02903993834801 42.21341019565124 0
78.2223224712604 44.99940485767563 0
82.03383797176485 46.03998285946516 0
79.31334581025774 48.79922511540791 0
81.83581916828103 31.76598617761064 0
83.05194601147284 49.8585320532351 0
80.33449455292573 52.61580003789484 0
70.3648130865468 28.66476509922279 0
75.62817822571019 48.02031541359848 0
72.39346408543275 36.31252281135055 0
77.82346382525932 16.45464044288227 0
81.64293341562481 17.50643449751212 0
84.06043470798735 53.67777506471003 0
81.25602914789253 56.45728532142491 0
85.0505760152608 57.50070484781698 0
82.2438329721879 60.28027956143703 0
84.83903565564376 43.23582914411332 0
77.62522548020459 55.45698921844564 0
86.05001517450141 61.31837633590406 0
83.24598775967237 64.09885247673606 0
82.64451754655876 21.33491660019325 0
79.43248381509035 63.06047108791722 0
80.43715282261914 66.88398308168438 0
84.25041982473024 67.92098520409323 0
81.44654713469258 70.70524587199604 0
85.25558046107822 71.74406871851758 0
82.45580659625614 74.5235759750239 0
85.4562928872199 18.55740996604992 0
86.26023136003442 75.5595687596622 0
80.64359206442114 13.67105249704353 0
86.454619694751 22.37571666597463 0
86.91642531455473 50.87518843047318 0
76.82038910093448 12.61485077192341 0
76.61822103958821 65.84426222622631 0
89.11272459235263 19.64378817836828 0
88.24650645745905 15.835238871309 0
83.46585357219979 78.33307768269449 0
79.42836974460619 9.881654804375557 0
89.05521296350807 72.78498224360641 0
79.65944642408212 77.29959027609394 0
87.26519784138313 79.36035160867279 0
65.51370741442022 23.78264848322029 0
61.67312843280051 22.73734128281428 0
62.68607720800553 26.58644678215705 0
83.23408064529679 10.54518067398094 0
75.61307940622152 62.01291291245965 0
88.84935649746198 58.54380408494676 0
89.85143183934761 62.35378286229398 0
65.27560098128046 9.529423583340524 0
69.14960201250375 10.49224421967934 0
56.86099455120555 17.72155711988737 0
90.15235426954752 23.34493136283488 0
87.43681302893688 26.17504126653716 0
92.78477192347661 20.53096703743483 0
59.0122748444725 25.40804888212672 0
91.1354423905411 27.1940928298955 0
88.45444232075634 29.99562492176154 0
92.2104854003754 31.08972912591584 0
89.44511574197922 33.80785139197037 0
67.76548249805508 6.785387754898011 0
80.83447270726755 81.12325313584812 0
57.43304006171183 7.175006983960607 0
72.96304726200873 64.89262708847109 0
71.78655557229024 60.96331941368616 0
73.83185210912826 68.64796371041729 0
75.93314173561514 8.922343159392767 0
78.64472855491553 5.974611468317143 0
60.11269162558681 29.22354370675442 0
63.74078753020166 30.4078282793648 0
61.20614860136847 33.0495307057065 0
64.7731966404523 34.2465584823041 0
92.83520824820008 59.5531594379317 0
91.93793604297815 55.69677984521388 0
93.64630392718615 63.38964135260322 0
90.75009975797846 66.07205699462337 0
94.5360978210154 52.62977662843093 0
62.17861789205237 36.93812774256001 0
65.78218980805562 38.0982323378262 0
62.70998299672208 41.14844487404611 0
66.73641366705112 41.99850340421148 0
50.17884503530286 4.498943095420145 0
70.347354932804 67.13649735757913 0
90.8576034112173 51.8450917273892 0
76.82688568767146 80.07773168994979 0
75.68778833776759 76.393820831591 0
70.15165992088146 71.24681678392099 0
93.06276389113333 35.09116218449147 0
90.44750330080444 37.60052126898741 0
86.65249897306248 36.57043384289683 0
96.20884724030321 32.3185447159218 0
87.64367447700654 40.42106505961729 0
91.35092375885623 41.46014837977864 0
69.5583950889646 39.17565487374858 0
70.55002822503045 43.07176253378563 0
67.42212513463062 46.55035085710362 0
84.6442609267408 28.96800028669221 0
67.55017290591131 31.46699759791 0
89.9784347575804 76.61191827545545 0
90.87424001481983 80.43596917691372 0
93.15489117344595 73.7330611440027 0
91.61108001098938 69.76024666953003 0
88.2685623524049 83.15437026963889 0
92.04709882447733 84.17582292970873 0
84.59488803641827 82.21400658581018 0
81.90924494717444 85.73504274740584 0
89.97666308514086 3.439223208916701 0
91.96741161083951 6.881253221762996 0
96.29887573399397 6.454778857767913 0
94.01280786338954 10.22242342613126 0
89.81616886215984 9.833155358304488 0
91.58388921679756 13.66370956215808 0
72.79351602221206 79.39594195243723 0
94.39698763452475 17.34825332705585 0
85.86747041673713 47.06858085611697 0
88.66207562318374 44.24687269231524 0
92.50663493279599 45.13026333435938 0
95.25088411389311 42.41451879382343 0
80.83046559156519 27.95492933788541 0
79.82831658188144 24.12015465729296 0
87.94538866491004 54.68989066675834 0
89.65464973906796 48.04787379331968 0
70.16144819171693 14.34085345957125 0
87.99954503971654 6.827593492177783 0
84.30173138283851 6.842695881800481 0
81.73297919360233 3.762865261974717 0
65.59782116443814 60.82723026471561 0
68.55309387110648 58.09391154098293 0
67.00552179200525 53.97474629036834 0
70.83944224866467 54.56607650091321 0
69.53122834059943 50.8561339556508 0
65.61749593227913 50.15961387080244 0
73.2648871741257 51.35678538911417 0
71.53498976516889 47.3350099884327 0
66.53505379388412 27.62181911905869 0
58.8852790198065 41.8954878180236 0
56.07255581483535 34.49318128447394 0
87.99710159411833 68.90159609121913 0
68.54546327071463 35.32549275892061 0
96.70137127812048 80.01328906669352 0
61.68526825066132 49.64711665187927 0
53.3559398063097 26.98987841462712 0
84.34923086351242 14.69651385955938 0
63.0495569409647 53.24642075249241 0
51.9024444895368 23.27199894958893 0
87.02417599172473 65.11094166081163 0
96.6112734018932 72.3914229243364 0
57.97347736159098 21.52970920590117 0
61.41192834133192 8.474549523875702 0
69.35387454444393 24.82399767705709 0
82.83388858911844 35.58959712629136 0
96.65018359453744 60.9018280562151 0
77.63547187648035 69.66959705284285 0
83.64235837329164 25.15251712297496 0
73.39616212833089 40.15626375093073 0
71.38805386913521 32.48504429949092 0
60.6887194897168 18.83743609323994 0
85.66050914091124 32.76031984296787 0
72.24610524585384 7.174862398221421 0
74.42484300808252 44.12652981462712 0
78.43967546150587 59.24195470510314 0
83.83705908622525 39.40315124505941 0
73.99571151001582 15.40248318670311 0
78.61879830564696 73.50682280438588 0
74.78414352496245 58.30925866845892 0
73.05106629944 11.49127286591522 0
74.58225518365629 72.51031462215465 0
58.08347103583278 3.358897740479222 0
66.0101690136118 3.256472591170095 0
49.30474287413992 15.74739033945801 0
64.29371477270138 44.59432924401435 0
96.48732443991648 21.17644626682246 0
70.00027282779755 3.412521095852405 0
53.10559272621109 16.62345331406822 0
74.97776503743717 86.78699257487071 0
94.6852179535104 28.27565372481878 0
94.16285714285713 87.02862161395993 0
96.89196616122385 64.69412663128793 0
87.04451222484951 12.17968153958908 0
93.46062096195479 77.92875114989462 0
54.2929363901896 20.4127673290655 0
89.85022440034186 86.87310634169097 0
93.11768873591888 49.12124571926412 0
76.78641444435374 51.73067005922388 0
96.32710798720193 46.05993034516671 0
93.80840511217255 38.88935746939856 0
77.94215120379425 83.62467631758648 0
53.51661798220556 6.923593383769628 0
55.47161578185312 24.18807441612261 0
93.65894152817877 24.18045299455973 0
63.76463601960928 6.151084075682981 0
77.88299544535835 2.85212240374041 0
97.38457770781932 9.987614369823319 0
74.15817434601014 54.8112197968188 0
56.75367732973385 28.04563878522007 0
94.03714732650423 66.8609638631783 0
97.48649914649371 17.54688593903816 0
91.17722053426297 17.06875640622048 0
71.76091899804382 57.51728742909042 0
93.88508478714061 81.42663693166234 0
68.63832967043075 61.79283401878119 0
57.98402638896335 31.84809141462529 0
97.05751075109032 2.919955193571425 0
97.1810017935278 87.1750181941501 0
97.17164666072581 40.11624298972778 0
97.69902229092105 52.85842458857593 0
86.14766072027072 9.191145570311868 0
97.75202367808643 29.25808400756269 0
59.18214976737472 35.65507886190473 0
63.98979246721377 47.54554805256418 0
60.10619312952895 5.729797409654182 0
75.71604905459733 5.841108613456377 0
67.5110865308494 68.47391176417185 0
81.28108847232133 7.38413336608469 0
70.16108670491809 63.9349559968789 0
60.17960546408468 39.36960005953062 0
94.61692373872472 70.43487678719859 0
$EndNodes
$Elements
9 1500 1 1500
1 101 1 24
1 4 7 
2 7 8 
3 8 9 
4 9 10 
5 10 11 
6 11 12 
7 12 13 
8 13 14 
9 14 15 
10 15 16 
11 16 17 
12 17 18 
13 18 19 
14 19 20 
15 20 21 
16 21 22 
17 22 23 
18 23 24 
19 24 25 
20 25 26 
21 26 27 
22 27 28 
23 28 29 
24 29 3 
1 102 1 23
25 1 30 
26 30 31 
27 31 32 
28 32 33 
29 33 34 
30 34 35 
31 35 36 
32 36 37 
33 37 38 
34 38 39 
35 39 40 
36 40 41 
37 41 42 
38 42 43 
39 43 44 
40 44 45 
41 45 46 
42 46 47 
43 47 48 
44 48 49 
45 49 50 
46 50 51 
47 51 2 
1 103 1 19
48 3 52 
49 52 53 
50 53 54 
51 54 55 
52 55 56 
53 56 57 
54 57 58 
55 58 59 
56 59 60 
57 60 61 
58 61 62 
59 62 63 
60 63 64 
61 64 65 
62 65 66 
63 66 67 
64 67 68 
65 68 69 
66 69 1 
1 104 1 10
67 2 70 
68 70 71 
69 71 72 
70 72 73 
71 73 74 
72 74 75 
73 75 76 
74 76 77 
75 77 78 
76 78 4 
1 105 1 7
77 5 79 
78 79 80 
79 80 81 
80 81 82 
81 82 83 
82 83 84 
83 84 3 
1 106 1 23
84 6 85 
85 85 86 
86 86 87 
87 87 88 
88 88 89 
89 89 90 
90 90 91 
91 91 92 
92 92 93 
93 93 94 
94 94 95 
95 95 96 
96 96 97 
97 97 98 
98 98 99 
99 99 100 
100 100 101 
101 101 102 
102 102 103 
103 103 104 
104 104 105 
105 105 106 
106 106 5 
1 107 1 15
107 4 107 
108 107 108 
109 108 109 
110 109 110 
111 110 111 
112 111 112 
113 112 113 
114 113 114 
115 114 115 
116 115 116 
117 116 117 
118 117 118 
119 118 119 
120 119 120 
121 120 6 
2 1 2 776
122 305 311 240 
123 144 432 324 
124 434 451 332 
125 359 390 339 
126 135 451 434 
127 122 304 291 
128 293 388 130 
129 324 450 144 
130 338 339 145 
131 53 150 52 
132 339 465 145 
133 291 300 122 
134 371 375 141 
135 270 311 305 
136 295 325 136 
137 295 388 293 
138 147 150 53 
139 141 452 371 
140 142 390 359 
141 140 369 297 
142 291 305 240 
143 52 150 29 
144 296 325 295 
145 390 465 339 
146 300 431 122 
147 352 448 445 
148 63 304 62 
149 62 304 122 
150 364 366 121 
151 268 361 298 
152 298 361 127 
153 142 359 336 
154 302 431 300 
155 381 450 328 
156 136 388 295 
157 290 435 307 
158 355 423 356 
159 445 448 329 
160 121 366 307 
161 324 432 149 
162 19 418 123 
163 369 437 297 
164 435 462 307 
165 147 151 150 
166 328 458 381 
167 3 52 29 
168 146 464 151 
169 296 326 325 
170 151 449 146 
171 296 327 326 
172 356 423 261 
173 362 439 438 
174 420 422 298 
175 138 422 420 
176 271 444 430 
177 297 460 140 
178 336 413 142 
179 123 418 306 
180 304 305 291 
181 143 428 368 
182 425 426 356 
183 262 426 425 
184 438 439 368 
185 125 442 424 
186 33 340 32 
187 333 451 57 
188 304 419 305 
189 63 419 304 
190 121 440 364 
191 145 340 338 
192 428 438 368 
193 57 467 333 
194 320 321 303 
195 320 396 342 
196 127 420 298 
197 123 423 355 
198 344 412 345 
199 32 340 145 
200 303 396 320 
201 132 340 33 
202 289 347 345 
203 289 372 347 
204 138 424 299 
205 332 451 333 
206 430 444 361 
207 299 422 138 
208 20 418 19 
209 147 152 151 
210 327 328 326 
211 145 465 429 
212 268 430 361 
213 345 412 289 
214 358 426 262 
215 313 395 314 
216 314 395 236 
217 130 466 293 
218 262 427 358 
219 217 331 319 
220 148 465 390 
221 310 332 331 
222 424 442 299 
223 21 436 20 
224 221 311 270 
225 184 400 343 
226 213 374 317 
227 319 331 322 
228 213 317 166 
229 261 425 356 
230 154 308 235 
231 385 431 302 
232 308 309 235 
233 372 373 126 
234 330 331 217 
235 22 313 128 
236 342 396 213 
237 329 448 380 
238 221 315 311 
239 313 314 128 
240 146 308 153 
241 153 308 154 
242 310 330 235 
243 343 400 253 
244 238 315 204 
245 320 342 318 
246 302 446 385 
247 146 153 26 
248 312 313 23 
249 327 329 328 
250 317 367 166 
251 309 310 235 
252 207 412 344 
253 190 410 207 
254 311 315 238 
255 235 330 156 
256 318 342 162 
257 310 331 330 
258 343 403 184 
259 29 150 28 
260 325 326 324 
261 323 325 324 
262 136 325 323 
263 207 410 316 
264 331 332 322 
265 273 403 343 
266 24 312 23 
267 292 349 337 
268 158 330 217 
269 312 395 313 
270 242 349 292 
271 23 313 22 
272 332 333 322 
273 153 154 134 
274 306 423 123 
275 201 393 341 
276 154 235 156 
277 136 323 72 
278 204 315 205 
279 73 388 136 
280 323 324 149 
281 154 156 155 
282 164 342 213 
283 341 393 249 
284 156 330 158 
285 160 318 162 
286 217 319 318 
287 319 321 320 
288 27 146 26 
289 25 153 134 
290 166 367 167 
291 336 359 334 
292 158 217 160 
293 217 318 160 
294 296 421 327 
295 221 269 220 
296 154 155 134 
297 225 353 242 
298 241 291 240 
299 319 320 318 
300 156 158 157 
301 71 323 149 
302 239 240 238 
303 71 149 70 
304 207 344 192 
305 162 342 164 
306 221 270 269 
307 214 221 220 
308 237 238 204 
309 164 213 166 
310 319 322 321 
311 269 336 334 
312 401 403 273 
313 214 220 216 
314 242 353 349 
315 198 204 199 
316 241 300 291 
317 158 160 159 
318 184 403 174 
319 239 241 240 
320 25 134 24 
321 32 145 31 
322 398 400 184 
323 26 153 25 
324 75 350 130 
325 240 311 238 
326 198 237 204 
327 156 157 155 
328 198 367 237 
329 237 239 238 
330 205 214 208 
331 185 351 178 
332 357 358 125 
333 160 162 161 
334 257 273 255 
335 209 353 225 
336 203 352 212 
337 294 296 295 
338 310 434 332 
339 237 367 317 
340 170 198 177 
341 373 452 141 
342 335 339 338 
343 256 257 255 
344 335 359 339 
345 192 344 194 
346 334 359 335 
347 204 205 199 
348 73 136 72 
349 251 341 249 
350 344 345 215 
351 345 347 346 
352 214 216 208 
353 123 355 18 
354 198 199 177 
355 15 357 125 
356 22 128 21 
357 34 132 33 
358 194 215 203 
359 162 164 163 
360 355 356 139 
361 194 344 215 
362 269 334 220 
363 177 365 171 
364 254 255 253 
365 134 312 24 
366 255 343 253 
367 164 166 165 
368 175 354 185 
369 347 348 346 
370 220 334 222 
371 158 159 157 
372 205 315 214 
373 178 351 180 
374 77 362 137 
375 301 302 300 
376 190 207 192 
377 72 323 71 
378 75 130 74 
379 334 335 222 
380 242 292 290 
381 180 351 197 
382 213 396 374 
383 137 350 76 
384 232 364 363 
385 225 242 234 
386 345 346 215 
387 180 197 182 
388 252 253 251 
389 127 361 360 
390 220 222 216 
391 232 363 233 
392 160 161 159 
393 17 355 139 
394 139 357 16 
395 229 294 293 
396 171 365 173 
397 233 363 276 
398 167 367 170 
399 175 185 178 
400 11 127 10 
401 256 258 257 
402 173 354 175 
403 250 251 249 
404 13 138 12 
405 76 350 75 
406 276 297 278 
407 19 123 18 
408 17 139 16 
409 15 125 14 
410 77 137 76 
411 9 360 143 
412 276 363 297 
413 78 362 77 
414 273 343 255 
415 242 290 234 
416 232 366 364 
417 173 365 354 
418 127 360 10 
419 284 408 407 
420 37 121 36 
421 254 256 255 
422 229 382 294 
423 286 288 287 
424 170 177 171 
425 351 406 197 
426 208 353 209 
427 247 249 245 
428 18 355 17 
429 16 357 15 
430 288 373 372 
431 200 378 244 
432 167 170 169 
433 212 382 210 
434 283 371 286 
435 205 208 206 
436 162 163 161 
437 341 400 398 
438 185 405 351 
439 214 315 221 
440 282 371 283 
441 252 254 253 
442 219 370 211 
443 283 286 285 
444 170 367 198 
445 10 360 9 
446 190 192 191 
447 225 234 230 
448 187 190 189 
449 248 265 264 
450 209 225 224 
451 182 186 183 
452 278 282 279 
453 244 378 248 
454 9 143 8 
455 228 370 219 
456 164 165 163 
457 39 140 38 
458 265 267 266 
459 166 167 165 
460 180 182 181 
461 203 212 210 
462 192 194 193 
463 294 295 293 
464 194 203 195 
465 177 384 365 
466 215 352 203 
467 230 366 232 
468 276 278 277 
469 8 368 7 
470 143 368 8 
471 250 252 251 
472 178 180 179 
473 241 301 300 
474 290 307 234 
475 170 171 169 
476 247 250 249 
477 225 230 224 
478 243 393 383 
479 288 289 287 
480 227 228 219 
481 383 393 201 
482 40 369 39 
483 39 369 140 
484 233 276 275 
485 286 287 285 
486 237 317 239 
487 349 353 216 
488 234 366 230 
489 175 178 176 
490 307 366 234 
491 208 209 206 
492 230 232 231 
493 282 283 279 
494 265 266 264 
495 205 206 199 
496 216 353 208 
497 222 349 216 
498 278 279 277 
499 346 352 215 
500 41 124 40 
501 42 375 41 
502 354 402 185 
503 248 378 265 
504 43 141 42 
505 249 393 245 
506 45 126 44 
507 186 187 183 
508 370 392 211 
509 173 175 174 
510 182 183 181 
511 267 268 266 
512 276 277 275 
513 259 260 258 
514 288 372 289 
515 180 181 179 
516 190 191 189 
517 232 233 231 
518 218 229 226 
519 46 376 45 
520 209 224 223 
521 230 231 224 
522 227 271 228 
523 171 173 172 
524 124 369 40 
525 74 388 73 
526 210 382 218 
527 200 243 188 
528 301 303 302 
529 283 285 284 
530 229 293 281 
531 155 312 134 
532 335 338 337 
533 244 245 243 
534 283 284 279 
535 178 179 176 
536 233 274 231 
537 192 193 191 
538 246 247 245 
539 233 275 274 
540 268 298 266 
541 287 316 285 
542 253 400 251 
543 406 407 197 
544 248 264 263 
545 341 398 201 
546 167 169 168 
547 47 379 46 
548 175 176 174 
549 41 375 124 
550 209 223 206 
551 65 129 64 
552 244 248 246 
553 224 377 223 
554 141 375 42 
555 194 195 193 
556 187 189 188 
557 365 397 354 
558 203 210 195 
559 171 172 169 
560 181 201 179 
561 226 227 219 
562 231 377 224 
563 227 272 271 
564 187 188 183 
565 247 262 250 
566 200 244 243 
567 239 374 241 
568 229 281 226 
569 335 337 222 
570 264 299 263 
571 173 174 172 
572 256 259 258 
573 218 219 211 
574 48 133 47 
575 45 376 126 
576 244 246 245 
577 241 374 301 
578 189 200 188 
579 316 410 409 
580 248 263 246 
581 252 261 254 
582 317 374 239 
583 193 196 191 
584 67 142 66 
585 218 226 219 
586 210 218 211 
587 210 211 195 
588 337 349 222 
589 243 383 188 
590 176 184 174 
591 274 377 231 
592 62 122 61 
593 265 399 267 
594 218 382 229 
595 167 168 165 
596 159 236 157 
597 130 388 74 
598 49 381 48 
599 60 385 59 
600 199 384 177 
601 163 202 161 
602 200 387 378 
603 46 379 376 
604 259 280 260 
605 59 131 58 
606 183 383 181 
607 191 387 189 
608 189 387 200 
609 68 390 67 
610 50 144 49 
611 259 306 280 
612 206 384 199 
613 254 394 256 
614 405 406 351 
615 227 386 272 
616 226 386 227 
617 181 383 201 
618 223 384 206 
619 188 383 183 
620 196 387 191 
621 133 379 47 
622 281 386 226 
623 245 393 243 
624 174 403 172 
625 196 399 387 
626 402 405 185 
627 316 412 207 
628 69 148 68 
629 133 380 379 
630 256 394 259 
631 261 394 254 
632 211 392 195 
633 193 392 196 
634 165 389 163 
635 387 399 378 
636 56 135 55 
637 384 397 365 
638 195 392 193 
639 48 381 133 
640 161 391 159 
641 201 398 179 
642 168 389 165 
643 258 415 257 
644 259 394 306 
645 155 395 312 
646 163 389 202 
647 176 398 184 
648 67 390 142 
649 202 391 161 
650 397 402 354 
651 59 385 131 
652 159 391 236 
653 223 397 384 
654 144 381 49 
655 179 398 176 
656 260 416 258 
657 157 395 155 
658 407 408 197 
659 172 401 169 
660 377 397 223 
661 301 396 303 
662 54 147 53 
663 374 396 301 
664 409 410 186 
665 236 395 157 
666 251 400 341 
667 182 408 186 
668 378 399 265 
669 148 390 68 
670 144 450 381 
671 257 414 273 
672 187 410 190 
673 399 404 267 
674 284 407 279 
675 169 401 168 
676 370 404 392 
677 377 402 397 
678 172 403 401 
679 274 402 377 
680 287 412 316 
681 392 404 196 
682 404 411 267 
683 258 416 415 
684 274 405 402 
685 370 411 404 
686 65 413 129 
687 196 404 399 
688 275 405 274 
689 316 409 285 
690 142 413 66 
691 285 409 284 
692 275 406 405 
693 277 406 275 
694 267 411 268 
695 279 407 277 
696 277 407 406 
697 197 408 182 
698 408 409 186 
699 260 417 416 
700 186 410 187 
701 257 415 414 
702 228 411 370 
703 289 412 287 
704 66 413 65 
705 294 421 296 
706 236 417 314 
707 284 409 408 
708 152 470 309 
709 401 414 168 
710 263 442 427 
711 326 450 324 
712 273 414 401 
713 11 420 127 
714 138 420 12 
715 356 426 139 
716 357 426 358 
717 380 458 329 
718 64 419 63 
719 13 424 138 
720 125 424 14 
721 212 421 382 
722 141 471 373 
723 298 422 266 
724 264 422 299 
725 417 433 314 
726 31 429 30 
727 247 427 262 
728 262 425 250 
729 263 427 246 
730 252 425 261 
731 20 436 418 
732 168 414 389 
733 271 430 228 
734 34 435 132 
735 51 432 50 
736 122 431 61 
737 60 431 385 
738 394 423 306 
739 389 415 202 
740 414 415 389 
741 413 443 129 
742 380 448 348 
743 297 437 278 
744 415 416 202 
745 202 416 391 
746 347 455 348 
747 260 433 417 
748 303 446 302 
749 352 445 212 
750 4 439 78 
751 7 439 4 
752 37 440 121 
753 314 433 128 
754 140 440 38 
755 391 417 236 
756 336 443 413 
757 416 417 391 
758 305 454 270 
759 270 443 269 
760 427 442 358 
761 306 418 280 
762 147 441 152 
763 128 436 21 
764 307 462 121 
765 129 419 64 
766 382 421 294 
767 12 420 11 
768 266 422 264 
769 135 441 55 
770 411 430 268 
771 14 424 13 
772 433 436 128 
773 261 423 394 
774 139 426 357 
775 54 441 147 
776 250 425 252 
777 246 427 247 
778 360 444 143 
779 419 454 305 
780 358 442 125 
781 124 437 369 
782 70 461 2 
783 385 446 131 
784 151 464 150 
785 145 429 31 
786 272 428 271 
787 61 431 60 
788 346 448 352 
789 2 461 51 
790 446 457 131 
791 309 449 152 
792 50 432 144 
793 386 447 272 
794 288 452 373 
795 228 430 411 
796 371 452 286 
797 309 434 310 
798 280 433 260 
799 340 453 338 
800 57 451 56 
801 35 435 34 
802 280 436 433 
803 309 470 434 
804 338 453 337 
805 150 464 28 
806 373 471 126 
807 329 458 328 
808 281 456 386 
809 278 437 282 
810 27 464 146 
811 362 447 137 
812 333 457 322 
813 363 460 297 
814 143 444 428 
815 121 462 36 
816 321 446 303 
817 438 447 362 
818 43 471 141 
819 126 471 44 
820 381 458 133 
821 348 469 380 
822 78 439 362 
823 58 467 57 
824 30 463 1 
825 368 439 7 
826 428 444 271 
827 380 469 379 
828 1 463 69 
829 55 441 54 
830 38 440 37 
831 418 436 280 
832 281 466 456 
833 299 442 263 
834 146 449 308 
835 126 455 372 
836 376 455 126 
837 269 443 336 
838 308 449 309 
839 124 459 437 
840 212 445 421 
841 272 438 428 
842 361 444 360 
843 455 469 348 
844 327 445 329 
845 35 462 435 
846 348 448 346 
847 437 459 282 
848 321 457 446 
849 270 454 443 
850 132 453 340 
851 386 456 447 
852 328 450 326 
853 152 449 151 
854 421 445 327 
855 293 466 281 
856 140 460 440 
857 371 459 375 
858 286 452 288 
859 56 451 135 
860 333 467 457 
861 337 453 292 
862 372 455 347 
863 132 468 453 
864 272 447 438 
865 137 456 350 
866 453 468 292 
867 429 463 30 
868 322 457 321 
869 129 454 419 
870 375 459 124 
871 443 454 129 
872 456 466 350 
873 440 460 364 
874 133 458 380 
875 149 461 70 
876 282 459 371 
877 364 460 363 
878 36 462 35 
879 447 456 137 
880 51 461 432 
881 28 464 27 
882 135 470 441 
883 435 468 132 
884 69 463 148 
885 350 466 130 
886 148 463 429 
887 131 467 58 
888 292 468 290 
889 44 471 43 
890 379 469 376 
891 434 470 135 
892 432 461 149 
893 429 465 148 
894 290 468 435 
895 376 469 455 
896 457 467 131 
897 441 470 152 
2 2 2 603
898 476 613 93 
899 653 654 618 
900 109 604 108 
901 25 609 26 
902 559 701 634 
903 595 596 488 
904 474 658 602 
905 639 707 705 
906 634 701 633 
907 602 693 474 
908 7 496 8 
909 496 497 8 
910 618 656 653 
911 705 707 477 
912 83 628 82 
913 596 599 488 
914 628 709 584 
915 610 613 476 
916 490 604 109 
917 636 694 577 
918 490 690 585 
919 636 719 694 
920 26 609 481 
921 585 710 490 
922 93 613 92 
923 481 689 608 
924 86 631 85 
925 108 604 496 
926 483 628 627 
927 488 674 595 
928 608 635 481 
929 25 735 609 
930 495 709 628 
931 483 627 625 
932 627 628 584 
933 107 496 7 
934 609 689 481 
935 681 695 475 
936 579 712 698 
937 631 725 85 
938 82 628 483 
939 495 628 83 
940 9 497 492 
941 655 656 532 
942 485 634 632 
943 8 497 9 
944 617 682 656 
945 607 635 608 
946 95 707 640 
947 698 712 472 
948 653 656 655 
949 485 636 634 
950 491 709 697 
951 623 669 489 
952 640 727 95 
953 654 732 618 
954 107 7 4 
955 491 635 607 
956 587 723 650 
957 583 695 681 
958 497 604 498 
959 656 682 532 
960 497 498 492 
961 650 721 587 
962 606 643 555 
963 617 656 618 
964 496 604 497 
965 596 606 599 
966 494 699 626 
967 489 702 623 
968 599 705 477 
969 555 644 606 
970 697 709 495 
971 596 643 606 
972 604 710 498 
973 595 674 597 
974 113 695 691 
975 475 734 681 
976 637 644 555 
977 609 735 605 
978 615 638 614 
979 614 638 540 
980 80 704 699 
981 626 722 494 
982 640 707 639 
983 490 710 604 
984 615 639 638 
985 498 499 492 
986 638 644 637 
987 540 684 614 
988 624 660 598 
989 616 661 533 
990 616 677 617 
991 528 680 673 
992 477 728 599 
993 620 678 661 
994 528 641 619 
995 612 684 673 
996 614 684 612 
997 673 680 612 
998 691 695 583 
999 524 684 540 
1000 620 657 531 
1001 677 682 617 
1002 533 677 616 
1003 681 688 573 
1004 660 668 598 
1005 661 678 533 
1006 619 680 528 
1007 615 640 639 
1008 654 666 663 
1009 531 678 620 
1010 117 648 116 
1011 493 631 630 
1012 560 627 584 
1013 547 668 660 
1014 641 676 619 
1015 544 642 523 
1016 118 629 482 
1017 642 676 641 
1018 498 500 499 
1019 523 642 513 
1020 639 644 638 
1021 621 622 564 
1022 631 632 630 
1023 630 646 629 
1024 552 621 564 
1025 481 635 27 
1026 493 630 629 
1027 633 646 630 
1028 570 643 596 
1029 538 643 570 
1030 629 646 482 
1031 543 668 547 
1032 529 637 555 
1033 657 672 531 
1034 562 660 624 
1035 120 493 119 
1036 493 629 119 
1037 552 564 560 
1038 503 679 574 
1039 622 625 564 
1040 565 672 657 
1041 28 491 29 
1042 562 621 552 
1043 601 661 616 
1044 28 635 491 
1045 549 660 562 
1046 486 650 649 
1047 549 552 550 
1048 663 666 20 
1049 552 560 550 
1050 622 626 625 
1051 589 688 681 
1052 549 562 552 
1053 592 657 620 
1054 512 513 511 
1055 558 577 575 
1056 558 575 554 
1057 562 623 621 
1058 486 649 22 
1059 570 595 571 
1060 521 684 524 
1061 632 634 633 
1062 551 554 544 
1063 482 648 117 
1064 551 558 554 
1065 536 643 538 
1066 18 658 474 
1067 526 637 529 
1068 486 666 651 
1069 507 645 510 
1070 538 570 542 
1071 512 523 513 
1072 16 659 487 
1073 540 638 637 
1074 513 642 515 
1075 535 544 523 
1076 595 597 571 
1077 651 652 650 
1078 529 555 536 
1079 507 509 508 
1080 510 511 509 
1081 651 666 654 
1082 570 571 542 
1083 510 512 511 
1084 564 627 560 
1085 535 551 544 
1086 517 528 519 
1087 581 613 610 
1088 524 540 526 
1089 118 482 117 
1090 653 655 652 
1091 506 507 505 
1092 555 643 536 
1093 575 579 576 
1094 486 651 650 
1095 540 637 526 
1096 567 657 592 
1097 507 508 505 
1098 500 501 499 
1099 506 645 507 
1100 513 515 514 
1101 547 549 548 
1102 594 661 601 
1103 494 662 105 
1104 601 616 603 
1105 549 550 548 
1106 570 596 595 
1107 119 629 118 
1108 568 665 553 
1109 592 620 594 
1110 651 653 652 
1111 14 664 473 
1112 573 645 506 
1113 515 641 517 
1114 616 617 603 
1115 574 679 670 
1116 23 649 478 
1117 579 581 580 
1118 547 660 549 
1119 26 481 27 
1120 519 673 521 
1121 474 663 19 
1122 515 517 516 
1123 487 658 17 
1124 513 514 511 
1125 507 510 509 
1126 544 676 642 
1127 565 657 567 
1128 509 565 508 
1129 517 519 518 
1130 473 659 15 
1131 620 661 594 
1132 27 635 28 
1133 534 535 523 
1134 581 610 582 
1135 575 576 554 
1136 23 478 24 
1137 515 642 641 
1138 21 486 22 
1139 519 521 520 
1140 517 641 528 
1141 607 709 491 
1142 106 494 105 
1143 18 474 19 
1144 567 592 591 
1145 16 487 17 
1146 521 524 522 
1147 524 526 525 
1148 514 672 511 
1149 538 542 539 
1150 529 536 530 
1151 14 473 15 
1152 536 538 537 
1153 526 529 527 
1154 592 594 593 
1155 504 505 503 
1156 611 615 614 
1157 543 547 546 
1158 572 573 506 
1159 531 672 514 
1160 22 649 23 
1161 13 667 664 
1162 594 601 600 
1163 503 574 501 
1164 108 496 107 
1165 17 658 18 
1166 19 663 20 
1167 504 506 505 
1168 15 659 16 
1169 601 603 602 
1170 625 627 564 
1171 104 662 489 
1172 579 580 576 
1173 509 672 565 
1174 105 662 104 
1175 542 668 543 
1176 13 664 14 
1177 597 598 571 
1178 562 624 623 
1179 560 584 563 
1180 502 503 501 
1181 500 502 501 
1182 515 516 514 
1183 115 475 114 
1184 21 666 486 
1185 110 490 109 
1186 646 647 482 
1187 112 480 111 
1188 505 679 503 
1189 517 518 516 
1190 592 593 591 
1191 565 567 566 
1192 12 667 13 
1193 20 666 21 
1194 581 582 580 
1195 551 559 558 
1196 576 676 554 
1197 502 504 503 
1198 519 520 518 
1199 610 611 582 
1200 104 489 103 
1201 572 583 573 
1202 484 667 12 
1203 632 633 630 
1204 594 600 593 
1205 547 548 546 
1206 521 522 520 
1207 561 568 553 
1208 512 534 523 
1209 511 672 509 
1210 567 591 578 
1211 524 525 522 
1212 617 618 603 
1213 11 484 12 
1214 526 527 525 
1215 529 530 527 
1216 500 585 502 
1217 504 572 506 
1218 601 602 600 
1219 528 673 519 
1220 536 537 530 
1221 542 543 539 
1222 9 492 10 
1223 538 539 537 
1224 619 676 576 
1225 651 654 653 
1226 502 671 504 
1227 565 566 508 
1228 489 669 103 
1229 504 671 572 
1230 103 669 102 
1231 645 685 510 
1232 535 665 551 
1233 567 578 566 
1234 585 671 502 
1235 82 483 81 
1236 91 472 90 
1237 573 688 645 
1238 551 665 559 
1239 94 476 93 
1240 97 477 96 
1241 534 553 535 
1242 516 531 514 
1243 611 614 612 
1244 99 488 98 
1245 554 676 544 
1246 100 674 99 
1247 673 684 521 
1248 102 479 101 
1249 571 668 542 
1250 578 670 566 
1251 520 533 518 
1252 553 665 535 
1253 580 619 576 
1254 560 563 550 
1255 611 612 582 
1256 543 546 545 
1257 598 668 571 
1258 586 587 569 
1259 102 669 479 
1260 647 648 482 
1261 557 588 586 
1262 508 679 505 
1263 527 532 525 
1264 512 685 534 
1265 557 569 545 
1266 588 609 605 
1267 537 541 530 
1268 522 677 520 
1269 583 681 573 
1270 548 675 546 
1271 543 545 539 
1272 518 678 516 
1273 99 674 488 
1274 683 687 541 
1275 566 679 508 
1276 546 557 545 
1277 516 678 531 
1278 557 586 569 
1279 588 605 586 
1280 520 677 533 
1281 533 678 518 
1282 589 590 561 
1283 510 685 512 
1284 582 680 580 
1285 556 561 553 
1286 525 682 522 
1287 670 679 566 
1288 569 687 683 
1289 534 685 556 
1290 557 675 588 
1291 534 556 553 
1292 556 589 561 
1293 88 485 87 
1294 546 675 557 
1295 539 683 537 
1296 580 680 619 
1297 612 680 582 
1298 532 682 525 
1299 522 682 677 
1300 569 683 545 
1301 584 607 563 
1302 537 683 541 
1303 545 683 539 
1304 588 689 609 
1305 550 686 548 
1306 563 686 550 
1307 548 686 675 
1308 607 608 563 
1309 587 687 569 
1310 686 689 675 
1311 84 495 83 
1312 608 686 563 
1313 645 688 685 
1314 532 706 655 
1315 685 688 556 
1316 608 689 686 
1317 556 688 589 
1318 606 705 599 
1319 675 689 588 
1320 110 690 490 
1321 480 690 111 
1322 113 691 112 
1323 499 692 492 
1324 541 716 706 
1325 11 692 484 
1326 492 692 10 
1327 603 693 602 
1328 472 694 90 
1329 111 690 110 
1330 699 704 626 
1331 114 695 113 
1332 625 704 483 
1333 112 691 480 
1334 599 728 488 
1335 674 700 597 
1336 662 702 489 
1337 590 714 648 
1338 476 708 610 
1339 626 704 625 
1340 10 692 11 
1341 574 696 501 
1342 618 693 603 
1343 90 694 89 
1344 632 715 485 
1345 605 735 478 
1346 579 698 581 
1347 29 697 3 
1348 623 702 621 
1349 3 697 84 
1350 100 700 674 
1351 479 700 101 
1352 665 701 559 
1353 475 695 114 
1354 598 718 624 
1355 81 704 80 
1356 574 703 696 
1357 639 705 644 
1358 96 707 95 
1359 527 706 532 
1360 541 706 530 
1361 472 712 694 
1362 648 714 116 
1363 692 696 484 
1364 610 708 611 
1365 575 712 579 
1366 6 725 120 
1367 615 708 640 
1368 85 725 6 
1369 500 710 585 
1370 493 725 631 
1371 662 722 702 
1372 115 714 475 
1373 572 713 583 
1374 577 720 636 
1375 706 716 655 
1376 558 720 577 
1377 474 732 663 
1378 501 696 499 
1379 670 703 574 
1380 633 729 646 
1381 485 719 636 
1382 650 723 649 
1383 88 719 485 
1384 694 712 577 
1385 491 697 29 
1386 568 736 647 
1387 499 696 692 
1388 478 735 24 
1389 583 713 691 
1390 95 727 94 
1391 561 736 568 
1392 97 728 477 
1393 488 728 98 
1394 91 730 472 
1395 648 736 590 
1396 581 698 613 
1397 5 726 106 
1398 79 726 5 
1399 670 711 703 
1400 693 732 474 
1401 84 697 495 
1402 681 734 589 
1403 634 720 559 
1404 696 703 484 
1405 80 699 79 
1406 101 700 100 
1407 694 719 89 
1408 718 739 624 
1409 568 701 665 
1410 618 732 693 
1411 485 715 87 
1412 86 715 631 
1413 621 702 622 
1414 578 711 670 
1415 484 703 667 
1416 483 704 81 
1417 644 705 606 
1418 701 729 633 
1419 714 734 475 
1420 623 739 669 
1421 472 730 698 
1422 647 736 648 
1423 708 727 640 
1424 530 706 527 
1425 477 707 96 
1426 578 717 711 
1427 703 711 667 
1428 478 737 605 
1429 494 722 662 
1430 479 718 700 
1431 611 708 615 
1432 624 739 623 
1433 87 715 86 
1434 584 709 607 
1435 498 710 500 
1436 591 717 578 
1437 667 711 664 
1438 702 722 622 
1439 577 712 575 
1440 586 737 587 
1441 687 716 541 
1442 591 724 717 
1443 671 713 572 
1444 711 717 664 
1445 631 715 632 
1446 636 720 634 
1447 691 713 480 
1448 116 714 115 
1449 687 721 716 
1450 613 730 92 
1451 655 716 652 
1452 593 724 591 
1453 664 717 473 
1454 713 733 480 
1455 716 721 652 
1456 597 718 598 
1457 89 719 88 
1458 593 731 724 
1459 658 738 602 
1460 717 724 473 
1461 559 720 558 
1462 671 733 713 
1463 587 721 687 
1464 652 721 650 
1465 622 722 626 
1466 649 723 478 
1467 120 725 493 
1468 700 718 597 
1469 600 731 593 
1470 473 724 659 
1471 106 726 494 
1472 600 738 731 
1473 647 729 568 
1474 724 731 659 
1475 605 737 586 
1476 476 727 708 
1477 480 733 690 
1478 94 727 476 
1479 663 732 654 
1480 646 729 647 
1481 98 728 97 
1482 479 739 718 
1483 659 731 487 
1484 92 730 91 
1485 602 738 600 
1486 731 738 487 
1487 590 734 714 
1488 585 733 671 
1489 24 735 25 
1490 487 738 658 
1491 589 734 590 
1492 590 736 561 
1493 494 726 699 
1494 690 733 585 
1495 669 739 479 
1496 587 737 723 
1497 698 730 613 
1498 699 726 79 
1499 568 729 701 
1500 723 737 478 
$EndElements
