$MeshFormat
4.1 0 8
$EndMeshFormat
$PhysicalNames
6
1 2 "right"
1 3 "left"
1 4 "bottom"
1 5 "top"
1 6 "Fault"
2 1 "domain"
$EndPhysicalNames
$Entities
22 5 2 0
1 30 8 0 0 
5 25 15 0 0 
12 0 0 0 0 
13 0 77 0 0 
14 66 77 0 0 
15 66 0 0 0 
16 40 25 0 0 
17 30 40 0 0 
18 5 10 0 0 
19 15 21 0 0 
20 55 60 0 0 
21 45 68 0 0 
22 10 50 0 0 
23 15 35 0 0 
24 24 65 0 0 
25 33 50 0 0 
26 45 10 0 0 
27 57 18 0 0 
28 50 40 0 0 
29 57 31 0 0 
30 7 64 0 0 
31 18 69 0 0 
12 0 0 0 0 77 0 1 3 2 12 -13 
13 0 77 0 66 77 0 1 5 2 13 -14 
14 66 0 0 66 77 0 1 2 2 14 -15 
15 0 0 0 66 0 0 1 4 2 15 -12 
18 30 25 0 40 40 0 2 6 -6 2 16 -17 
12 30 25 0 40 40 0 0 2 18 -18 
1000 0 0 0 66 77 0 1 1 6 18 -18 -15 -14 -13 -12 
$EndEntities
$Nodes
12 89 1 89
0 12 0 1
1
0 0 0
0 13 0 1
2
0 77 0
0 14 0 1
3
66 77 0
0 15 0 1
4
66 0 0
0 16 0 1
5
40 25 0
0 17 0 1
6
30 40 0
1 12 0 7
7
8
9
10
11
12
13
0 9.624999999993483 0
0 19.24999999997806 0
0 28.87499999997685 0
0 38.4999999999479 0
0 48.12499999998973 0
0 57.75000000003292 0
0 67.3750000000456 0
1 13 0 6
14
15
16
17
18
19
9.428571428545492 77 0
18.85714285709233 77 0
28.28571428563917 77 0
37.71428571420723 77 0
47.14285714280481 77 0
56.57142857140241 77 0
1 14 0 7
20
21
22
23
24
25
26
66 67.37500000002949 0
66 57.75000000005898 0
66 48.12500000008847 0
66 38.50000000011657 0
66 28.87500000005863 0
66 19.24999999999931 0
66 9.624999999970512 0
1 15 0 6
27
28
29
30
31
32
56.57142857144403 0 0
47.14285714286864 0 0
37.71428571429324 0 0
28.28571428572618 0 0
18.85714285715078 0 0
9.428571428575388 0 0
1 18 0 1
33
35.00000000004901 32.49999999992649 0
2 1000 0 56
34
35
36
37
38
39
40
41
42
43
44
45
46
47
48
49
50
51
52
53
54
55
56
57
58
59
60
61
62
63
64
65
66
67
68
69
70
71
72
73
74
75
76
77
78
79
80
81
82
83
84
85
86
87
88
89
41.82455424031886 69.16097955644123 0
23.62014473817391 68.84600077060394 0
8.045920670844602 24.71979301589505 0
57.69106263634923 43.37523779563952 0
7.984736815939518 52.24176858013938 0
23.67344951564314 8.112315296582283 0
58.17807104825714 14.69132433116058 0
41.93499612649956 7.821044699267832 0
58.07997745979684 62.47952170341485 0
57.7925339025143 52.92394152441682 0
49.53926346859544 48.14201167088289 0
49.73244283558558 38.71323255349027 0
42.31083991431724 43.44746519312876 0
41.38477782895243 53.66403632368658 0
57.62725843714117 33.89141263299669 0
49.50645496289284 29.32218450458253 0
57.75986404836746 24.32475372270889 0
49.95539267987524 19.50657718455439 0
50.40775385266215 58.07215041628049 0
32.86173289564013 68.94222576924973 0
28.25519514123295 61.21553862739002 0
18.85216662184536 61.3569128997965 0
24.03143204331302 53.04254349180722 0
14.23900634902451 68.91350115055855 0
32.9432655520822 8.048326248287985 0
28.14739438923011 16.10597850062216 0
18.94353413265987 15.58312866055276 0
23.69178375948831 24.38346801524272 0
8.286598879690436 33.77379236023991 0
8.2436152903718 43.23743555148356 0
15.97022417400856 38.53504793459855 0
8.89632570132504 15.02750563518828 0
36.57651042505336 15.90989706259142 0
36.91357359121793 61.72854134539293 0
33.1232600106539 47.16515195430135 0
16.2827516163061 47.5488470655859 0
16.20350962319991 29.56918285175787 0
8.753494895123925 61.83889807337199 0
51.02334798319988 9.128193236974258 0
14.52027546581149 7.861479131870981 0
51.01001188652535 67.96714003107537 0
22.94848605155639 34.23045949013544 0
32.0673314111578 23.92881490612735 0
42.62444196748785 34.28123667931727 0
23.0684937964665 43.27326919858503 0
6.960889976608236 6.95111303083045 0
58.8308689119043 7.089064562180395 0
58.83086891181603 69.91093543783629 0
6.921429124065401 70.02540033328287 0
32.74164772307404 55.36316234851562 0
15.31118939253439 22.4650316203551 0
15.27672568675513 54.61983339864177 0
43.89804944292561 15.47314243667758 0
44.2126430268764 62.1463931035547 0
36.53532674692532 38.94021783123046 0
28.7415202444503 31.0085484822864 0
$EndNodes
$Elements
6 178 1 178
1 12 1 8
1 1 7 
2 7 8 
3 8 9 
4 9 10 
5 10 11 
6 11 12 
7 12 13 
8 13 2 
1 13 1 7
9 2 14 
10 14 15 
11 15 16 
12 16 17 
13 17 18 
14 18 19 
15 19 3 
1 14 1 8
16 3 20 
17 20 21 
18 21 22 
19 22 23 
20 23 24 
21 24 25 
22 25 26 
23 26 4 
1 15 1 7
24 4 27 
25 27 28 
26 28 29 
27 29 30 
28 30 31 
29 31 32 
30 32 1 
1 18 1 2
31 5 33 
32 33 6 
2 1000 2 146
33 68 56 78 
34 40 51 72 
35 6 68 78 
36 72 51 86 
37 49 5 51 
38 51 5 86 
39 52 42 74 
40 52 74 87 
41 5 66 86 
42 55 57 71 
43 56 68 83 
44 55 71 85 
45 60 65 73 
46 65 60 84 
47 40 50 51 
48 5 49 77 
49 40 25 50 
50 24 48 50 
51 63 62 64 
52 50 49 51 
53 24 23 48 
54 48 49 50 
55 47 44 52 
56 25 24 50 
57 10 62 63 
58 44 43 52 
59 9 36 62 
60 21 42 43 
61 45 44 46 
62 43 42 52 
63 37 44 45 
64 53 35 54 
65 39 58 59 
66 37 43 44 
67 16 35 53 
68 59 58 66 
69 37 22 43 
70 15 14 57 
71 38 11 63 
72 23 22 37 
73 10 9 62 
74 48 45 49 
75 9 8 36 
76 36 8 65 
77 39 30 58 
78 29 28 41 
79 46 44 47 
80 26 25 40 
81 12 11 38 
82 60 59 61 
83 34 17 53 
84 29 41 58 
85 23 37 48 
86 21 20 42 
87 33 6 89 
88 11 10 63 
89 18 17 34 
90 16 15 35 
91 54 55 56 
92 35 15 57 
93 22 21 43 
94 62 36 70 
95 17 16 53 
96 8 7 65 
97 39 59 60 
98 30 29 58 
99 54 35 55 
100 31 30 39 
101 37 45 48 
102 58 41 66 
103 34 53 67 
104 55 35 57 
105 38 63 69 
106 36 65 84 
107 66 5 76 
108 6 75 89 
109 59 66 76 
110 13 12 71 
111 53 54 67 
112 39 60 73 
113 28 27 72 
114 32 31 73 
115 19 18 74 
116 46 47 68 
117 33 5 77 
118 5 33 76 
119 70 61 75 
120 64 62 70 
121 63 64 69 
122 45 46 77 
123 41 28 72 
124 12 38 71 
125 4 26 80 
126 18 34 74 
127 20 3 81 
128 31 39 73 
129 7 1 79 
130 27 4 80 
131 3 19 81 
132 71 38 85 
133 1 32 79 
134 47 52 87 
135 54 56 83 
136 2 13 82 
137 14 2 82 
138 56 69 78 
139 75 6 78 
140 67 47 87 
141 74 34 87 
142 64 70 75 
143 68 6 88 
144 64 75 78 
145 46 68 88 
146 41 72 86 
147 61 59 76 
148 49 45 77 
149 47 67 83 
150 68 47 83 
151 77 46 88 
152 56 55 85 
153 60 61 84 
154 75 61 89 
155 13 71 82 
156 69 56 85 
157 70 36 84 
158 69 64 78 
159 61 70 84 
160 76 33 89 
161 26 40 80 
162 57 14 82 
163 42 20 81 
164 65 7 79 
165 38 69 85 
166 32 73 79 
167 72 27 80 
168 19 74 81 
169 71 57 82 
170 34 67 87 
171 66 41 86 
172 67 54 83 
173 6 33 88 
174 73 65 79 
175 40 72 80 
176 74 42 81 
177 33 77 88 
178 61 76 89 
$EndElements
