$MeshFormat
4.1 0 8
$EndMeshFormat
$PhysicalNames
6
1 2 "bottom"
1 3 "right"
1 4 "top"
1 5 "left"
1 6 "Fault"
2 1 "Domain"
$EndPhysicalNames
$Entities
6 7 2 0
1 0 90 0 0 
2 0 0 0 0 
3 50 90 0 0 
4 50 0 0 0 
5 100 90 0 0 
6 100 0 0 0 
101 49.9999999 -1.000000011686097e-07 -1e-07 50.0000001 90.00000009999999 1e-07 1 6 2 4 -3 
102 -1e-07 -1.000000011686097e-07 -1e-07 1e-07 90.00000009999999 1e-07 1 5 2 1 -2 
103 -1.000000011686097e-07 89.99999990000001 -1e-07 50.0000001 90.00000009999999 1e-07 1 4 2 3 -1 
104 -1.000000011686097e-07 -1e-07 -1e-07 50.0000001 1e-07 1e-07 1 2 2 2 -4 
105 49.9999999 89.99999990000001 -1e-07 100.0000001 90.00000009999999 1e-07 1 4 2 5 -3 
106 99.99999990000001 -1.000000011686097e-07 -1e-07 100.0000001 90.00000009999999 1e-07 1 3 2 6 -5 
107 49.9999999 -1e-07 -1e-07 100.0000001 1e-07 1e-07 1 2 2 4 -6 
1 -1.000000011686097e-07 -1.000000011686097e-07 -1e-07 50.0000001 90.00000009999999 1e-07 1 1 4 102 104 101 103 
2 49.9999999 -1.000000011686097e-07 -1e-07 100.0000001 90.00000009999999 1e-07 1 1 4 -101 107 106 105 
$EndEntities
$Nodes
15 760 1 760
0 1 0 1
1
0 90 0
0 2 0 1
2
0 0 0
0 3 0 1
3
50 90 0
0 4 0 1
4
50 0 0
0 5 0 1
5
100 90 0
0 6 0 1
6
100 0 0
1 101 0 22
7
8
9
10
11
12
13
14
15
16
17
18
19
20
21
22
23
24
25
26
27
28
50 3.91304347826087 0
50 7.826086956521739 0
50 11.73913043478261 0
50 15.65217391304348 0
50 19.56521739130435 0
50 23.47826086956522 0
50 27.39130434782609 0
50 31.30434782608696 0
50 35.21739130434783 0
50 39.1304347826087 0
50 43.04347826086956 0
50 46.95652173913044 0
50 50.8695652173913 0
50 54.78260869565217 0
50 58.69565217391305 0
50 62.60869565217391 0
50 66.52173913043478 0
50 70.43478260869566 0
50 74.34782608695652 0
50 78.26086956521739 0
50 82.17391304347827 0
50 86.08695652173913 0
1 102 0 22
29
30
31
32
33
34
35
36
37
38
39
40
41
42
43
44
45
46
47
48
49
50
0 86.08695652173913 0
0 82.17391304347827 0
0 78.26086956521739 0
0 74.34782608695652 0
0 70.43478260869566 0
0 66.52173913043478 0
0 62.60869565217391 0
0 58.69565217391305 0
0 54.78260869565217 0
0 50.8695652173913 0
0 46.95652173913044 0
0 43.04347826086956 0
0 39.1304347826087 0
0 35.21739130434783 0
0 31.30434782608695 0
0 27.39130434782609 0
0 23.47826086956522 0
0 19.56521739130434 0
0 15.65217391304348 0
0 11.73913043478261 0
0 7.826086956521735 0
0 3.913043478260875 0
1 103 0 12
51
52
53
54
55
56
57
58
59
60
61
62
46.15384615384615 90 0
42.30769230769231 90 0
38.46153846153846 90 0
34.61538461538461 90 0
30.76923076923077 90 0
26.92307692307692 90 0
23.07692307692308 90 0
19.23076923076923 90 0
15.38461538461539 90 0
11.53846153846155 90 0
7.692307692307693 90 0
3.84615384615384 90 0
1 104 0 12
63
64
65
66
67
68
69
70
71
72
73
74
3.846153846153846 0 0
7.692307692307693 0 0
11.53846153846154 0 0
15.38461538461539 0 0
19.23076923076923 0 0
23.07692307692308 0 0
26.92307692307692 0 0
30.76923076923077 0 0
34.61538461538461 0 0
38.46153846153846 0 0
42.30769230769231 0 0
46.15384615384615 0 0
1 105 0 12
75
76
77
78
79
80
81
82
83
84
85
86
96.15384615384616 90 0
92.30769230769231 90 0
88.46153846153847 90 0
84.61538461538461 90 0
80.76923076923077 90 0
76.92307692307692 90 0
73.07692307692308 90 0
69.23076923076923 90 0
65.38461538461539 90 0
61.53846153846154 90 0
57.69230769230769 90 0
53.84615384615385 90 0
1 106 0 22
87
88
89
90
91
92
93
94
95
96
97
98
99
100
101
102
103
104
105
106
107
108
100 3.91304347826087 0
100 7.826086956521739 0
100 11.73913043478261 0
100 15.65217391304348 0
100 19.56521739130435 0
100 23.47826086956522 0
100 27.39130434782609 0
100 31.30434782608696 0
100 35.21739130434783 0
100 39.1304347826087 0
100 43.04347826086956 0
100 46.95652173913044 0
100 50.8695652173913 0
100 54.78260869565217 0
100 58.69565217391305 0
100 62.60869565217391 0
100 66.52173913043478 0
100 70.43478260869566 0
100 74.34782608695652 0
100 78.26086956521739 0
100 82.17391304347827 0
100 86.08695652173913 0
1 107 0 12
109
110
111
112
113
114
115
116
117
118
119
120
53.84615384615385 0 0
57.69230769230769 0 0
61.53846153846154 0 0
65.38461538461539 0 0
69.23076923076923 0 0
73.07692307692308 0 0
76.92307692307692 0 0
80.76923076923077 0 0
84.61538461538461 0 0
88.46153846153845 0 0
92.30769230769231 0 0
96.15384615384616 0 0
2 1 0 320
121
122
123
124
125
126
127
128
129
130
131
132
133
134
135
136
137
138
139
140
141
142
143
144
145
146
147
148
149
150
151
152
153
154
155
156
157
158
159
160
161
162
163
164
165
166
167
168
169
170
171
172
173
174
175
176
177
178
179
180
181
182
183
184
185
186
187
188
189
190
191
192
193
194
195
196
197
198
199
200
201
202
203
204
205
206
207
208
209
210
211
212
213
214
215
216
217
218
219
220
221
222
223
224
225
226
227
228
229
230
231
232
233
234
235
236
237
238
239
240
241
242
243
244
245
246
247
248
249
250
251
252
253
254
255
256
257
258
259
260
261
262
263
264
265
266
267
268
269
270
271
272
273
274
275
276
277
278
279
280
281
282
283
284
285
286
287
288
289
290
291
292
293
294
295
296
297
298
299
300
301
302
303
304
305
306
307
308
309
310
311
312
313
314
315
316
317
318
319
320
321
322
323
324
325
326
327
328
329
330
331
332
333
334
335
336
337
338
339
340
341
342
343
344
345
346
347
348
349
350
351
352
353
354
355
356
357
358
359
360
361
362
363
364
365
366
367
368
369
370
371
372
373
374
375
376
377
378
379
380
381
382
383
384
385
386
387
388
389
390
391
392
393
394
395
396
397
398
399
400
401
402
403
404
405
406
407
408
409
410
411
412
413
414
415
416
417
418
419
420
421
422
423
424
425
426
427
428
429
430
431
432
433
434
435
436
437
438
439
440
25.01146469769112 86.7150634872994 0
25.02988858855367 3.124251489757896 0
46.61137376628137 37.16954405192369 0
46.62083419182355 52.80414002242703 0
3.274741299807474 45 0
3.388795058286931 60.65217391304348 0
3.252292810797471 29.49809681211836 0
46.61344490330649 25.43324183023104 0
46.59895127499647 64.55275124971635 0
3.24344686960233 72.53990956054781 0
3.668941625937364 18.00875575490689 0
46.61120494171307 76.30434782608695 0
46.61526553950711 13.69287510490834 0
13.60892228888521 86.89703367998248 0
13.74380181991303 3.480307996715055 0
36.51513282793807 86.5216253617197 0
36.49898644992625 3.467922461728712 0
3.275998409984787 37.17391304347826 0
3.546966680996242 53.21716267469645 0
46.61918894890388 44.97591802959735 0
3.388795058286931 80.21739130434783 0
3.388795058286931 9.782608695652165 0
46.68947722622281 83.92490225954835 0
46.71651489770926 5.954201394878709 0
5.820136522792346 87.0542708623757 0
5.820136522792346 2.944122646174591 0
46.61916832559154 9.766161708529538 0
43.22723359496563 11.6662251253304 0
43.22955796167739 15.63980948281119 0
39.86004895396998 13.64491904849396 0
39.85388985024549 17.57425261483667 0
36.48382591644205 15.62099679333523 0
36.4794452912506 19.52053313159048 0
33.10942276945793 17.56917364971336 0
33.10530531582373 21.46554717482844 0
29.73506088870212 19.51395020906448 0
29.72980592967431 23.41049857426003 0
26.35635239214021 21.4562372339904 0
26.35230556800913 25.35547859631279 0
29.72117006689225 27.30992222491988 0
26.34788193440785 29.25648661434102 0
29.71836906190942 31.21235338612223 0
26.34191923543316 33.16098527171099 0
29.71381181422853 35.11770476084207 0
26.33437916895839 37.06760453004325 0
29.70966340218387 39.02513408651723 0
26.32894987649167 40.97585451039397 0
29.7123583622262 42.93415340472605 0
26.32522595305901 44.88530720840829 0
29.70990510022081 46.84389374692258 0
26.3212081773425 48.7955093276193 0
29.7055343392346 50.75439221549763 0
26.31743385152954 52.70642778865147 0
29.70111727344391 54.66470250163174 0
26.31393549746534 56.61643680364998 0
29.69586644549074 58.57386663869467 0
26.30957624578205 60.52395882580659 0
29.68927579567901 62.47956284176995 0
26.3085414486407 64.42647845419155 0
29.68284124390084 66.37974969702191 0
22.97815576314519 23.40146291930358 0
26.30751766543045 68.32460415701371 0
22.93515779720465 66.37425972431917 0
22.95850947207602 35.1090748931306 0
22.93869188495097 50.74982736396952 0
22.93242660348667 70.26842367267017 0
22.9802860115556 19.50232799744188 0
29.67811677123142 70.27466182207974 0
22.92836490448773 58.56707796822337 0
22.94210161952811 42.92601401153994 0
19.56571597998758 68.320542812087 0
19.60582444760126 21.44748753882482 0
19.56063384052569 72.21056863530683 0
19.60796433270671 17.5512788498724 0
33.07072278962793 60.54382127036215 0
33.08316450686213 33.1864115716273 0
33.05195609870118 68.33303742531442 0
33.04700919951927 72.22654684794631 0
33.09423623397402 48.80303359558274 0
33.09007762507987 40.98899911596826 0
29.67124461595704 74.16523902657728 0
29.72061038423048 15.61471302727523 0
16.19658697264945 70.26414802166823 0
16.19644538696164 66.37098927161026 0
16.19581723987761 74.15278197918799 0
16.23477540094216 19.49399597258789 0
16.22770801724838 23.39225206081586 0
16.24296324356234 15.60127105382513 0
36.47494981569526 23.423449483099 0
36.41851741519778 70.28494377497182 0
36.41316230030937 74.17794260269204 0
19.55541282750096 76.0959923767836 0
19.60974722443937 13.6617040907514 0
12.82263624564337 68.31723120913105 0
12.82289765223009 64.41901470289768 0
12.85385628818039 21.43653080287714 0
12.84588776765798 25.33793008158784 0
16.22257340072208 27.29549559625947 0
12.95015050141436 29.24316410595761 0
9.46903855179071 23.37935963106722 0
9.444330935113456 66.36789640486582 0
16.19473469986893 78.03626107463282 0
12.93953323093771 76.09502844484577 0
16.25039807435328 11.71304911244149 0
12.98458207418216 13.65069420133024 0
36.45912511839506 11.69613055291572 0
19.55215940296286 79.97439904506589 0
19.6137988976962 9.780152268292746 0
39.79570210291213 72.25305393405873 0
22.96994165821044 11.72245331846835 0
39.77801305058357 76.12760258588571 0
36.40873755934291 78.06665054227639 0
39.79209627041676 80.10190207787385 0
22.90975780219828 78.03942577603206 0
39.79180683293525 68.34311181492217 0
16.23567438969084 31.19931698216632 0
12.96463280561234 33.1499807514347 0
16.1970074767283 62.47215252866037 0
12.82442667614779 60.51732788693688 0
16.23487086203885 35.10504214856569 0
12.96400857831352 37.05824032498753 0
16.23039512340497 39.01415154460356 0
12.95887636163553 40.96790214150496 0
16.22499348177953 42.92399033055467 0
12.95424730538195 44.87831623189976 0
16.21958308419868 46.83463140882789 0
12.9487412843726 48.78922468842533 0
16.21320225289591 50.74751722030749 0
12.82861336426464 52.69969617897404 0
16.19485501291961 54.65794457642959 0
12.80535996343544 79.89585867229647 0
9.686364293319215 19.6543025293542 0
9.642966382491316 70.11484340659135 0
12.84826763957512 9.867550015051251 0
43.1850947064216 70.34685120766035 0
43.23118361094737 19.5482272087216 0
19.59985241244558 29.24820067585177 0
9.702600933393562 77.44653327564666 0
9.523941653730283 11.69998580564889 0
9.432392714768255 35.1122426380344 0
9.397956384953368 42.97371529290898 0
9.417406491189702 50.74049101437637 0
9.518053180021326 54.82590709673387 0
9.473376594857214 81.91722584667815 0
9.672739325977027 7.550488980472934 0
22.94969417522865 81.68295061601731 0
26.32872907665326 79.8861146997276 0
19.32780266865128 83.81148072973559 0
6.158496499061485 67.76455047715027 0
22.99081107905975 8.104415400048495 0
26.37361722054379 9.902920194209116 0
19.99371830309979 6.141453113382525 0
6.169670556387878 21.33000298129424 0
36.43642055471381 82.13037102786473 0
33.04091006276427 80.0315564039644 0
33.04086447942584 83.87720824462573 0
6.164021397935088 24.76476652975741 0
6.313032059951034 63.72585726314685 0
39.91835866819162 84.01769576829989 0
43.24140217345231 82.05276018282711 0
29.70839156430645 81.8576025857536 0
29.3716802402666 86.06257997217946 0
26.34612145270827 13.68679687201684 0
26.29176830415172 76.08699438361813 0
29.71147325947154 11.75046446545642 0
29.73820163835784 7.948071992958745 0
33.07332485923721 9.803318697294173 0
33.01216832614872 5.948679144285308 0
29.37443990901679 3.793607247727948 0
36.45487885463913 7.705039290406177 0
39.80805125849979 5.699984833962873 0
39.82896110635943 9.668392976083382 0
33.09296371787238 13.67579953099836 0
29.681364186379 78.02574427358959 0
26.2996324943722 72.21315823649715 0
46.62398636201136 80.14988335950059 0
26.35147830709818 17.56335756381808 0
33.04714149444125 76.12695854189654 0
3.328422767599847 13.76138120057012 0
6.636346845575702 15.10838908058786 0
3.253620204119741 76.33006601202148 0
6.502791633331853 75.0084273868935 0
16.01699464527331 7.24278202535524 0
15.96710222570802 81.61590635992776 0
22.92878949769011 62.47210219146725 0
46.60368548106716 72.36553854278785 0
22.93548266937796 54.66063248507008 0
46.61091847737929 60.65076429506993 0
43.19811165091978 62.58477141893324 0
43.22158352725197 58.69117759341876 0
39.82085338296384 60.6116366048451 0
39.84139741356884 56.69948223461117 0
46.61472413935884 21.51737759990207 0
43.22971448696752 23.46421155528608 0
43.22780627118912 27.3833192294414 0
39.84752051694483 25.40989220335031 0
39.84654403384877 29.32754088886662 0
43.225142272997 31.29133602969472 0
39.84332423503757 33.23732094563389 0
36.46779341863172 27.35203060178022 0
43.22494313584889 35.20558684441508 0
39.83606739960216 37.15310388128534 0
36.45686138162093 35.17851818568666 0
13.02237805912238 17.57007540031737 0
12.83018605838332 56.63816217540231 0
9.561026274529972 58.59836381141479 0
6.009406461660774 56.90199161080437 0
33.0813404651152 56.63419956141863 0
33.08887386967707 52.71529621455429 0
36.47834741326207 50.76279274582856 0
36.48348937850338 46.8515749771033 0
39.8607017580315 48.81138920069 0
39.86388934713482 44.90692187620791 0
39.85738398890089 52.73382296837627 0
43.23559141327612 50.81215676151401 0
36.4675885707641 54.69695038106375 0
36.4751830383728 42.95492648227845 0
16.20602433457637 58.56827222262024 0
46.6100124465648 56.72911783745252 0
22.94079973403282 46.83670673131064 0
3.234448594019511 33.2859146860777 0
6.550777856166619 31.87241845594586 0
46.61120494171307 41.08695652173913 0
43.22383315085362 39.12390803046231 0
3.333822789214693 48.94629821620089 0
6.816217350886632 46.91482739255772 0
3.236932898677189 41.08695652173913 0
6.785362996041727 39.11941867813249 0
43.2095255487996 78.17081003568921 0
43.21918508869779 54.74761866195482 0
12.98423276431689 72.18345336607078 0
46.61561545482228 17.60105641938132 0
33.09420828972952 44.8960968870969 0
22.94961458120903 39.01749905040678 0
33.05907259015975 64.4409306551611 0
46.61376438094511 29.34339300816772 0
46.6081811131334 68.46443730658436 0
9.694911930745725 27.03490919252139 0
9.61479255708899 62.36115300862049 0
22.92493864537259 74.15242718015132 0
46.6121955446036 33.25427075779308 0
43.20369223473737 74.27459029083883 0
9.7690804889031 86.25703449129972 0
22.97408724277656 15.61047365142332 0
36.42081739105596 66.40227477667545 0
19.60111122633701 25.3470717990637 0
33.095485940076 25.37071042530432 0
39.85278392867518 21.49009436614736 0
22.97558974346853 27.30204866389857 0
9.717156120197984 3.519503719088775 0
19.56575778857387 64.42553200273522 0
22.96924637620237 31.20381946187636 0
19.56379273309089 52.7068892620697 0
19.59701241683637 33.15386960649202 0
19.58392098856454 37.05776347736138 0
19.56643076204103 56.61226981210342 0
19.57971146200821 40.96744509319186 0
19.56470162014244 60.5207370556824 0
19.57299854479878 44.87669028986554 0
19.57024454120859 48.78955007546492 0
36.43305376244371 62.52217363825009 0
33.09388073829157 29.28131829450534 0
43.23502887907997 7.704376655404204 0
43.67822760762419 3.541275030269041 0
36.45249273074727 58.61804394842515 0
36.4687013999047 31.25936859828184 0
33.08033181136541 37.08832963192005 0
46.6149124100216 48.87974707085931 0
36.46435972738428 39.06425469077767 0
43.23838709518522 46.89691007689282 0
39.84989522618186 41.03307374725001 0
43.23603869374342 42.99532752248835 0
39.79147117396699 64.48950882708191 0
43.1794052196725 66.46028226138037 0
43.69103375513529 86.3602730703939 0
17.34507687556449 87.05384445940568 0
3.693922967632446 5.794881174723038 0
3.690113801267749 84.20339107911434 0
17.58729092291949 3.283961602995049 0
21.14695856567148 87.05675577918167 0
26.28320952999255 83.49498103479482 0
21.15384615384616 2.839226482517468 0
26.31685085126761 6.344636685245604 0
12.65766482765586 83.43347079827529 0
32.86245858644918 87.29228271570499 0
6.68606328029793 8.667355450329211 0
5.978987939028137 11.78528792952063 0
9.941876150275633 15.81723013437497 0
6.073189101205408 81.83044383921171 0
6.222558589224249 78.45463233275123 0
9.72666631062291 73.69404731583768 0
2.931131139717408 21.81522138833572 0
2.948765557193681 25.6585821830346 0
2.718895870785921 68.47826086956522 0
2.91117458984013 64.7658953638969 0
9.907023219828858 30.98363665174723 0
5.855796114196174 35.31278150033374 0
10.30771940714249 39.04630381511367 0
6.977410482303533 60.44790792140599 0
5.902242186073273 43.01898357706767 0
10.30691376335685 46.85931492403363 0
5.949203383599624 50.71230493206597 0
2.589033640188788 56.8499178136219 0
12.3997919101873 6.332126547336657 0
32.85404201394143 2.642041770748392 0
40.38461538461538 87.4021694748416 0
40.38461538461538 2.554746134877945 0
47.1418443719265 87.12438380724046 0
47.1418443719265 2.875616192759544 0
6.587872919266097 71.31599801497799 0
2.803922743535026 2.822310366076429 0
2.803922743535026 87.17768963392359 0
6.419632128777906 28.30206830418748 0
7.073057857960933 18.14990012393017 0
6.81489191555562 53.41190686481055 0
7.172930270520169 84.33829248631181 0
22.88971484442961 84.76014599864936 0
7.483013213835349 5.531452619048537 0
15.78131377729297 84.56234720546536 0
22.89488303475137 5.129477482842553 0
2 2 0 320
441
442
443
444
445
446
447
448
449
450
451
452
453
454
455
456
457
458
459
460
461
462
463
464
465
466
467
468
469
470
471
472
473
474
475
476
477
478
479
480
481
482
483
484
485
486
487
488
489
490
491
492
493
494
495
496
497
498
499
500
501
502
503
504
505
506
507
508
509
510
511
512
513
514
515
516
517
518
519
520
521
522
523
524
525
526
527
528
529
530
531
532
533
534
535
536
537
538
539
540
541
542
543
544
545
546
547
548
549
550
551
552
553
554
555
556
557
558
559
560
561
562
563
564
565
566
567
568
569
570
571
572
573
574
575
576
577
578
579
580
581
582
583
584
585
586
587
588
589
590
591
592
593
594
595
596
597
598
599
600
601
602
603
604
605
606
607
608
609
610
611
612
613
614
615
616
617
618
619
620
621
622
623
624
625
626
627
628
629
630
631
632
633
634
635
636
637
638
639
640
641
642
643
644
645
646
647
648
649
650
651
652
653
654
655
656
657
658
659
660
661
662
663
664
665
666
667
668
669
670
671
672
673
674
675
676
677
678
679
680
681
682
683
684
685
686
687
688
689
690
691
692
693
694
695
696
697
698
699
700
701
702
703
704
705
706
707
708
709
710
711
712
713
714
715
716
717
718
719
720
721
722
723
724
725
726
727
728
729
730
731
732
733
734
735
736
737
738
739
740
741
742
743
744
745
746
747
748
749
750
751
752
753
754
755
756
757
758
759
760
74.9885353023089 86.71506348729937 0
74.9701114114463 3.12425148975786 0
53.39510332356041 37.16475094513316 0
53.38902156536074 52.82703325228589 0
96.72525870019254 45 0
96.61120494171307 60.65217391304348 0
96.74770718920254 29.49809681211833 0
53.38685597703117 25.43289398231662 0
53.40135034387536 64.55240469786786 0
96.75655313039775 72.53990956054781 0
96.33105837406264 18.00875575490684 0
53.38473446049289 13.69287510490833 0
53.38879505828693 76.30434782608695 0
86.39107771111482 86.89703367998248 0
86.25619818008695 3.480307996714998 0
63.52893402765441 86.40527890483249 0
63.50101355007371 3.467922461728726 0
96.45303331900375 53.2171626746964 0
96.72400159001522 37.17391304347827 0
53.39627736637551 45.00024322237899 0
96.61120494171307 9.782608695652172 0
96.61120494171307 80.21739130434784 0
53.33569322448688 83.90070841495351 0
53.28348510229073 5.954201394878673 0
94.17986347720765 87.05427086237569 0
94.17986347720765 2.944122646174563 0
53.38083167440846 9.766161708529509 0
56.77276640503433 11.66622512533038 0
56.77044203832262 15.63980948281117 0
60.13995104602999 13.64491904849394 0
60.14611014975451 17.57425261483665 0
63.51617408355794 15.62099679333521 0
63.52055470874942 19.52053313159045 0
66.89057723054208 17.56917364971332 0
66.8946946841763 21.46554717482839 0
70.26493911129791 19.5139502090644 0
70.27019407032573 23.41049857425995 0
73.64364760785982 21.4562372339903 0
73.64769443199093 25.35547859631269 0
70.27888191923189 27.30992218843018 0
73.65212672994625 29.25648660825931 0
70.28169303262777 31.21235334253733 0
73.65809255771546 33.16098526343315 0
70.28617372764964 35.11770477570836 0
73.66562038687951 37.06760453114126 0
70.29030734136603 39.02513411268803 0
73.67104517340641 40.97585451493869 0
70.29992772721693 42.93406622768241 0
73.67682090349798 44.88529267965839 0
70.30512743196445 46.84402623560208 0
73.68163838744803 48.79552898760749 0
70.30659510175886 50.75440696691898 0
73.68542125743654 52.70581062091313 0
70.31459327370021 54.67143434138376 0
73.68951788655512 56.61683301267901 0
70.31130404302252 58.58191733595213 0
73.69157812128725 60.52433578133027 0
70.3094165816577 62.48077019199684 0
73.69143300876047 64.42674250514992 0
70.31718200283657 66.38041830913117 0
77.02184423685486 23.40146291930344 0
73.69248195192614 68.32475960085826 0
77.06483788192182 66.3743296401196 0
77.04149149297395 35.10907489251996 0
77.06297694807029 50.74910427864515 0
77.06757261259401 70.26846123261095 0
77.01971398844441 19.50232799744175 0
70.32188703945108 70.27479916473865 0
77.07163509551252 58.56707796822327 0
77.05789838047207 42.92601401153981 0
80.43428316921377 68.32056072471046 0
80.39417555239876 21.44748753882465 0
80.43936588702148 72.21057788073415 0
80.39203566729329 17.55127884987224 0
66.93701873082435 60.5560576549946 0
66.91666023534434 33.18671130751927 0
66.94829385181657 68.3335951296875 0
66.95303309401427 72.22666268911826 0
66.93664936209791 48.84603248809694 0
66.93632811564792 41.01105192843251 0
70.32875738426081 74.16525001088195 0
70.2793896157695 15.61471302727517 0
83.8034130273508 70.26414802166812 0
83.80355447123877 66.37099225704739 0
83.80418271471379 74.15278352009247 0
83.76385884948428 19.49324222987391 0
83.7719547959542 23.3916848137788 0
83.75625369290206 15.60014586415581 0
63.52506908704632 23.42351283580646 0
63.58153129214428 70.28505603256261 0
63.58685286650339 74.17798061915244 0
80.44458711952231 76.09599417450551 0
80.39012226497132 13.66151655913971 0
87.17736375435688 68.31723120913092 0
87.17710234777013 64.41901470289756 0
87.14552492518719 21.43534491861695 0
87.15380866808528 25.33737469423578 0
83.77731980743559 27.29530849052782 0
87.04978110590248 29.2430403571102 0
90.53090976921439 23.37925490666252 0
90.55566906488679 66.36789640486566 0
83.80526530013131 78.03626107463273 0
87.06046676149437 76.09502870166311 0
83.74960192564666 11.7130491124413 0
87.01476846504337 13.64939546330289 0
63.54087488160486 11.69613055291573 0
80.4478405882079 79.97439934468613 0
80.38617935053884 9.780121013023987 0
60.21534638631439 72.2361554646528 0
77.03003296473047 11.72241685398821 0
60.22391801469834 76.12730452701663 0
63.59158681267302 78.06660720187489 0
60.23357319762182 80.01376284890739 0
77.09024218750088 78.03942612558902 0
60.20819316706503 68.34311181492205 0
83.76429641288826 31.19926517306966 0
87.03535092937032 33.14995149177722 0
83.80299249963861 62.47215302623314 0
87.17557332385239 60.51732788693674 0
83.76512156088813 35.10502863710654 0
87.03598744800476 37.05823319646796 0
83.76960295146927 39.01414810460699 0
87.04112265522987 40.96790038008549 0
83.77500603351042 42.92398946365188 0
87.04575244997724 44.87831579384591 0
83.78041679424287 46.83463119133499 0
87.05125865459416 48.7892245791674 0
83.78715716273196 50.74751656812283 0
87.17144652816779 52.69969605206681 0
83.80557431819852 54.65794170112443 0
87.19464003530344 79.89585871509931 0
90.31300501222439 19.65297622149433 0
90.3570336175089 70.11484340659123 0
87.15162411696242 9.867333558713199 0
56.82751199504849 70.32226723348684 0
56.76911718816699 19.54787951729839 0
80.40012492267726 29.2481608567136 0
90.29739906513501 77.44653332558335 0
90.47605834626965 11.69998580564864 0
90.56760653261756 35.11224128487123 0
90.60204343965015 42.97371497869844 0
90.58259350881028 50.74049101437618 0
90.48195680205073 54.82590707558251 0
90.526623405143 81.91722584667809 0
90.32724778789645 7.550463211861135 0
77.05030582158311 81.68295072421344 0
73.67127092109872 79.88611477601972 0
80.67219732963197 83.81148078799504 0
93.84150350093873 67.76455047715017 0
77.00918106613616 8.104404113423605 0
73.62637724081229 9.902912235691588 0
80.00627676247204 6.141446023066841 0
93.83029983904412 21.32994089638738 0
63.58505605872554 82.04337926264128 0
66.96272343481176 80.01705055302685 0
66.95913552057436 83.87720824462565 0
93.83596892545032 24.76474667150593 0
93.6869679400491 63.72585726314674 0
60.24343325072073 83.89365746685257 0
56.82558400921309 81.99061365369668 0
70.29221401824837 81.85518495664596 0
70.62838155387178 86.06233327533171 0
73.65387339467455 13.68678946818384 0
73.70823202712657 76.08699628531038 0
70.28852495865155 11.75046190506465 0
70.26179714155526 7.948070239807194 0
66.92667464043542 9.803317978370316 0
66.98783138711551 5.948678732272768 0
70.62555993722573 3.793607026792813 0
63.54512101418362 7.705039101916782 0
60.19194874150015 5.699984833962858 0
60.17103887177766 9.668392944668462 0
66.90703590176022 13.67579898444573 0
70.33691620531167 78.03134417692516 0
56.38547427441507 86.29528418453074 0
73.70036833489715 72.21321544190398 0
73.64852083413228 17.56335632984583 0
66.95794407272815 76.11780901803941 0
96.67157723240014 13.76138120057011 0
93.36367921758246 15.10830933735058 0
96.7463797958803 76.33006601202148 0
93.49720836642304 75.00842739521626 0
83.98298607906159 7.242745625080538 0
53.40252843735968 80.11844335974347 0
84.03289777232419 81.61590642670816 0
77.07127880306308 62.47214537187791 0
53.38879505828692 72.39130434782608 0
77.06633937346547 54.65945030416691 0
53.38879505828693 60.65217391304348 0
56.80263813048014 62.58532030706927 0
56.77954169160955 58.69446525834934 0
60.18265491068221 60.61607461943078 0
60.16879849313197 56.73125671785465 0
53.38902020767812 56.73909096491762 0
53.38547629717665 21.51726150823852 0
56.77048819732329 23.46418432915415 0
56.77167043867819 27.38299639474741 0
60.15242135865846 25.41008920027858 0
60.15314232002419 29.32793227478859 0
56.77448186767605 31.29146761645799 0
60.15603648212355 33.23781810005205 0
63.5321797603153 27.35248099654395 0
56.77660119627839 35.20016586075003 0
60.1665610519519 37.15139142752142 0
63.54061113286294 35.17237302657405 0
86.97698380347035 17.56901544936344 0
56.77874647508001 54.78325123889594 0
60.16891439200798 52.8336743783104 0
63.55951970272926 54.74834402631357 0
63.55480811632891 50.85551899959568 0
60.16610285565918 48.91884802650545 0
56.78138168566271 50.8722598624563 0
56.78942911844877 46.96069772004876 0
60.17807613161098 45.01333311432499 0
56.79615997570266 43.04423791020022 0
60.20698080152317 41.10219445564579 0
63.55561316176009 43.01179343979003 0
87.16989714255386 56.63816167150827 0
90.43898925597163 58.59836372390707 0
93.9905971829926 56.90199159528157 0
53.40319191396567 41.08260038100336 0
83.7939756654238 58.56827222262012 0
53.39268495597462 48.91438683561528 0
77.06074143765525 46.83660220856363 0
96.76555140598049 33.2859146860777 0
93.44922205423646 31.87241829485496 0
96.7630671013228 41.08695652173913 0
93.21463696944846 39.11941861612806 0
96.66617721078531 48.94629821620089 0
93.1837826240567 46.91482734767043 0
87.01576722685382 72.183453665691 0
53.38438454517772 17.60105641938132 0
77.05038522663095 39.01749905062498 0
66.93957216953601 64.4390358200674 0
53.38635953811841 29.34303529080623 0
53.40498563026741 68.45298868347685 0
90.30501585049606 27.03477523937873 0
90.38521003132809 62.36115299403573 0
77.07506136144373 74.15244519010899 0
53.38875765427221 33.25352647393036 0
90.28284294057994 3.519501840910053 0
77.02589899029869 15.61045386962925 0
63.57954785641824 66.40216259864329 0
80.39883322086339 25.34697725478896 0
66.90457339068357 25.37079600731159 0
56.82041792772984 78.12393560424978 0
56.82145781886225 74.23324456993251 0
60.14729344828316 21.49007527149412 0
77.02439866431106 27.30202626898274 0
90.23091951109694 86.25703449129969 0
80.43424970709864 64.42554801366906 0
56.7907663771637 39.12422349670899 0
77.03075148470683 31.20380909037229 0
80.40297748092831 33.15385035452389 0
80.43497673281075 52.70487747172185 0
80.41607901143554 37.05776347736127 0
80.43361352848459 56.61212158592079 0
80.42028842510504 40.96744490634764 0
80.43531267310985 60.52072651553171 0
80.42700145520132 44.87669028986539 0
80.42750168254197 48.79058459267389 0
63.57081006505929 62.52819772421823 0
56.76497111831728 7.704376651664283 0
56.32177239200397 3.541275029734763 0
66.90604480600456 29.28160302654089 0
63.53411245611248 31.2598197886698 0
66.92210521859278 37.09052637891585 0
63.55469991372313 39.08988844281328 0
66.94033858782265 56.65466839719556 0
66.94396074296394 52.74318077570523 0
63.55985674837495 58.6390998566679 0
63.56109672789041 46.92293596177144 0
60.20082276858247 64.48782192638299 0
56.80758367255315 66.45731911053431 0
66.93245708776294 44.92831771356256 0
82.65492312414939 87.05384446911557 0
96.30988619873226 84.20339107911431 0
96.30607703236755 5.79488117472301 0
82.41270504206497 3.283954354563285 0
78.85304143399472 87.05675579050987 0
73.71684721926411 83.49475449215298 0
78.84615384615384 2.839226482517333 0
73.68314789301017 6.344634880889345 0
87.34233517214813 83.43347080493119 0
67.18136605158422 87.25517505451816 0
93.3139345720143 8.667351155560524 0
94.02101547746761 11.78527592409117 0
90.05807017713644 15.81658191695408 0
93.92681089879466 81.83044383921168 0
93.7774414106716 78.45463233628986 0
90.27333368635823 73.69404741828714 0
97.06886552004597 21.81521442038008 0
97.05123333593124 25.65857990189452 0
97.28110412921421 68.47826086956522 0
97.08882541015997 64.76589536389687 0
90.09296336871964 30.98361212148339 0
94.14420371045964 35.31278118508204 0
89.69227940899015 39.04630169125024 0
93.0225938704109 60.44790789788292 0
94.09775776693414 43.01898349284721 0
89.6930861354177 46.85931474275167 0
94.05079661138902 50.71230492308844 0
97.41096708874188 56.84991781051733 0
87.60017982091748 6.33207044665599 0
67.14595789795992 2.642041644158866 0
59.88322790335127 87.27278177916567 0
59.61538461538461 2.554746134877938 0
52.85815562807351 87.12438380724046 0
52.85815562807348 2.87561619275953 0
93.41212708073422 71.31599801497794 0
97.19607725646499 87.17768963392358 0
97.19607725646497 2.822310366076408 0
93.58035178733937 28.30203817353931 0
92.92684386940275 18.14959778772658 0
93.18511003040349 53.41190685828881 0
92.82706972947986 84.33829248631176 0
77.11028515557035 84.76014599864928 0
92.51698562194919 5.531450290946509 0
84.2186862218737 84.56234723374649 0
77.10511623404531 5.129476432171039 0
$EndNodes
$Elements
9 1541 1 1541
1 101 1 23
1 4 7 
2 7 8 
3 8 9 
4 9 10 
5 10 11 
6 11 12 
7 12 13 
8 13 14 
9 14 15 
10 15 16 
11 16 17 
12 17 18 
13 18 19 
14 19 20 
15 20 21 
16 21 22 
17 22 23 
18 23 24 
19 24 25 
20 25 26 
21 26 27 
22 27 28 
23 28 3 
1 102 1 23
24 1 29 
25 29 30 
26 30 31 
27 31 32 
28 32 33 
29 33 34 
30 34 35 
31 35 36 
32 36 37 
33 37 38 
34 38 39 
35 39 40 
36 40 41 
37 41 42 
38 42 43 
39 43 44 
40 44 45 
41 45 46 
42 46 47 
43 47 48 
44 48 49 
45 49 50 
46 50 2 
1 103 1 13
47 3 51 
48 51 52 
49 52 53 
50 53 54 
51 54 55 
52 55 56 
53 56 57 
54 57 58 
55 58 59 
56 59 60 
57 60 61 
58 61 62 
59 62 1 
1 104 1 13
60 2 63 
61 63 64 
62 64 65 
63 65 66 
64 66 67 
65 67 68 
66 68 69 
67 69 70 
68 70 71 
69 71 72 
70 72 73 
71 73 74 
72 74 4 
1 105 1 13
73 5 75 
74 75 76 
75 76 77 
76 77 78 
77 78 79 
78 79 80 
79 80 81 
80 81 82 
81 82 83 
82 83 84 
83 84 85 
84 85 86 
85 86 3 
1 106 1 23
86 6 87 
87 87 88 
88 88 89 
89 89 90 
90 90 91 
91 91 92 
92 92 93 
93 93 94 
94 94 95 
95 95 96 
96 96 97 
97 97 98 
98 98 99 
99 99 100 
100 100 101 
101 101 102 
102 102 103 
103 103 104 
104 104 105 
105 105 106 
106 106 107 
107 107 108 
108 108 5 
1 107 1 13
109 4 109 
110 109 110 
111 110 111 
112 111 112 
113 112 113 
114 113 114 
115 114 115 
116 115 116 
117 116 117 
118 117 118 
119 118 119 
120 119 120 
121 120 6 
2 1 2 710
122 135 399 303 
123 121 282 56 
124 303 424 135 
125 69 289 122 
126 56 282 55 
127 52 395 51 
128 259 406 265 
129 259 407 406 
130 136 276 274 
131 395 428 51 
132 70 289 69 
133 277 412 273 
134 277 413 412 
135 274 279 136 
136 269 415 278 
137 414 415 269 
138 264 404 363 
139 409 410 264 
140 264 410 258 
141 137 290 288 
142 363 436 264 
143 137 291 290 
144 121 401 282 
145 74 384 73 
146 300 407 259 
147 277 433 413 
148 413 433 127 
149 327 419 126 
150 303 399 272 
151 259 408 300 
152 348 417 260 
153 260 418 348 
154 346 420 261 
155 126 423 327 
156 261 421 346 
157 289 403 122 
158 414 430 130 
159 269 430 414 
160 370 424 265 
161 273 412 131 
162 233 279 274 
163 260 417 342 
164 342 416 260 
165 74 429 384 
166 261 420 348 
167 348 418 261 
168 278 415 126 
169 262 422 346 
170 346 421 262 
171 258 410 302 
172 327 423 139 
173 126 419 278 
174 302 411 258 
175 233 280 279 
176 148 383 147 
177 131 434 273 
178 136 405 276 
179 292 383 148 
180 226 292 150 
181 363 404 134 
182 150 292 148 
183 416 433 358 
184 139 435 327 
185 411 430 253 
186 291 292 290 
187 252 434 408 
188 265 438 370 
189 306 362 255 
190 280 296 143 
191 291 384 383 
192 255 362 229 
193 147 383 144 
194 288 425 137 
195 290 292 226 
196 312 336 334 
197 357 394 129 
198 255 357 306 
199 294 298 275 
200 334 350 312 
201 226 293 287 
202 280 349 296 
203 408 434 300 
204 287 290 226 
205 231 349 233 
206 231 362 349 
207 267 294 281 
208 229 362 231 
209 124 350 335 
210 285 293 202 
211 316 368 314 
212 316 320 209 
213 201 298 294 
214 281 294 275 
215 342 433 416 
216 233 349 280 
217 320 367 209 
218 296 349 132 
219 287 293 285 
220 202 297 283 
221 336 385 328 
222 310 350 339 
223 209 368 316 
224 312 385 336 
225 283 285 202 
226 135 424 370 
227 313 314 256 
228 335 350 334 
229 284 295 201 
230 255 394 357 
231 314 368 256 
232 302 430 411 
233 335 390 388 
234 388 390 140 
235 201 294 284 
236 132 362 306 
237 256 352 313 
238 198 298 201 
239 349 362 132 
240 312 350 310 
241 295 360 186 
242 143 296 27 
243 8 147 144 
244 239 326 325 
245 187 364 297 
246 146 438 397 
247 339 350 124 
248 398 436 145 
249 284 360 295 
250 323 386 319 
251 152 293 226 
252 250 338 325 
253 297 364 283 
254 228 303 272 
255 123 344 321 
256 154 293 152 
257 130 302 301 
258 321 344 322 
259 325 338 239 
260 268 304 227 
261 211 298 198 
262 202 293 154 
263 239 359 326 
264 299 300 131 
265 156 297 202 
266 130 301 32 
267 47 299 131 
268 306 357 24 
269 313 352 11 
270 224 303 228 
271 158 297 156 
272 182 295 186 
273 183 305 179 
274 188 295 182 
275 227 304 222 
276 179 305 177 
277 201 295 188 
278 8 144 7 
279 28 143 27 
280 233 274 232 
281 133 148 147 
282 187 297 158 
283 286 289 288 
284 224 228 213 
285 254 303 224 
286 228 272 270 
287 26 296 132 
288 133 147 9 
289 274 276 275 
290 208 213 194 
291 208 224 213 
292 321 361 123 
293 276 282 281 
294 222 304 251 
295 212 227 222 
296 266 268 227 
297 123 361 15 
298 142 299 48 
299 31 301 141 
300 152 226 150 
301 31 141 30 
302 49 142 48 
303 180 182 179 
304 274 275 232 
305 193 212 205 
306 149 150 148 
307 231 232 211 
308 198 201 188 
309 212 222 205 
310 228 270 230 
311 178 179 177 
312 133 352 149 
313 180 188 182 
314 234 266 227 
315 149 352 256 
316 27 296 26 
317 9 147 8 
318 177 305 189 
319 286 288 287 
320 271 286 285 
321 128 314 313 
322 232 298 211 
323 308 339 21 
324 26 132 25 
325 10 133 9 
326 132 306 25 
327 178 180 179 
328 133 149 148 
329 231 233 232 
330 276 281 275 
331 182 186 183 
332 177 189 175 
333 206 208 194 
334 192 194 187 
335 156 202 154 
336 197 198 188 
337 47 131 46 
338 33 130 32 
339 259 265 254 
340 128 313 12 
341 176 177 175 
342 214 351 253 
343 176 178 177 
344 310 339 308 
345 173 307 185 
346 228 230 213 
347 382 386 196 
348 222 251 223 
349 129 309 308 
350 212 234 227 
351 182 183 179 
352 225 254 224 
353 186 193 191 
354 181 187 158 
355 23 129 22 
356 13 128 12 
357 48 299 47 
358 32 301 31 
359 193 205 203 
360 186 360 193 
361 129 308 22 
362 270 271 230 
363 251 264 258 
364 151 152 150 
365 194 364 187 
366 12 313 11 
367 196 386 323 
368 234 267 266 
369 248 250 249 
370 249 325 263 
371 325 326 263 
372 25 306 24 
373 149 151 150 
374 315 316 314 
375 286 287 285 
376 210 211 198 
377 334 336 330 
378 250 325 249 
379 311 385 312 
380 153 154 152 
381 337 353 200 
382 317 320 316 
383 248 249 247 
384 128 315 314 
385 128 356 315 
386 331 353 337 
387 22 308 21 
388 127 342 341 
389 174 176 175 
390 212 360 234 
391 288 290 287 
392 174 175 173 
393 169 340 190 
394 21 339 20 
395 181 192 187 
396 343 344 123 
397 249 263 262 
398 309 310 308 
399 138 348 347 
400 172 174 173 
401 309 311 310 
402 180 197 188 
403 197 210 198 
404 15 361 14 
405 125 346 345 
406 329 336 328 
407 315 356 318 
408 174 329 328 
409 322 323 319 
410 174 328 176 
411 172 173 171 
412 246 248 247 
413 330 336 329 
414 172 329 174 
415 189 307 175 
416 220 252 216 
417 230 364 213 
418 171 340 169 
419 332 334 330 
420 218 257 236 
421 199 329 172 
422 331 337 333 
423 10 352 133 
424 170 172 171 
425 20 339 124 
426 169 190 167 
427 39 345 38 
428 138 347 41 
429 38 345 139 
430 41 347 40 
431 36 126 35 
432 38 139 37 
433 42 138 41 
434 125 345 39 
435 16 123 15 
436 17 343 16 
437 18 140 17 
438 140 343 17 
439 20 124 19 
440 42 341 138 
441 40 125 39 
442 43 341 42 
443 40 347 125 
444 44 127 43 
445 127 341 43 
446 16 343 123 
447 199 330 329 
448 170 199 172 
449 175 307 173 
450 185 340 171 
451 165 354 184 
452 192 206 194 
453 173 185 171 
454 199 353 331 
455 249 262 247 
456 168 353 170 
457 167 354 165 
458 199 331 330 
459 176 328 195 
460 222 223 205 
461 244 246 245 
462 331 333 332 
463 170 171 169 
464 246 247 245 
465 176 195 178 
466 331 332 330 
467 190 354 167 
468 242 244 243 
469 200 353 168 
470 332 335 334 
471 11 352 10 
472 206 324 208 
473 186 191 183 
474 244 245 243 
475 252 324 216 
476 234 360 284 
477 170 353 199 
478 245 261 243 
479 168 170 169 
480 214 253 221 
481 240 242 241 
482 151 153 152 
483 13 356 128 
484 315 317 316 
485 242 243 241 
486 24 357 23 
487 311 312 310 
488 166 200 168 
489 165 184 163 
490 168 169 167 
491 208 225 224 
492 326 327 263 
493 241 260 237 
494 166 168 167 
495 162 196 164 
496 318 361 321 
497 236 240 237 
498 240 241 237 
499 166 167 165 
500 14 356 13 
501 321 322 319 
502 275 298 232 
503 387 389 200 
504 220 273 252 
505 356 361 318 
506 318 319 317 
507 164 166 165 
508 155 156 154 
509 283 364 230 
510 218 236 219 
511 229 231 211 
512 284 294 267 
513 193 203 191 
514 23 357 129 
515 208 324 225 
516 159 181 158 
517 164 165 163 
518 318 321 319 
519 236 237 219 
520 180 355 197 
521 157 158 156 
522 193 360 212 
523 153 155 154 
524 162 164 163 
525 239 338 238 
526 195 355 178 
527 218 366 257 
528 207 218 217 
529 157 159 158 
530 162 163 161 
531 253 269 221 
532 248 380 373 
533 218 219 217 
534 315 318 317 
535 271 285 283 
536 215 238 204 
537 157 160 159 
538 160 162 161 
539 217 220 216 
540 178 355 180 
541 220 277 273 
542 160 161 159 
543 203 351 214 
544 213 364 194 
545 207 216 206 
546 215 239 238 
547 155 157 156 
548 14 361 356 
549 149 256 151 
550 210 229 211 
551 181 366 192 
552 214 221 215 
553 269 278 221 
554 207 217 216 
555 153 209 155 
556 225 259 254 
557 234 284 267 
558 219 358 217 
559 251 258 223 
560 155 367 157 
561 205 351 203 
562 217 358 220 
563 220 358 277 
564 373 380 185 
565 203 214 204 
566 183 371 305 
567 192 366 207 
568 214 215 204 
569 209 367 155 
570 210 235 229 
571 328 385 195 
572 192 207 206 
573 238 378 371 
574 271 283 230 
575 57 121 56 
576 69 122 68 
577 129 394 309 
578 215 359 239 
579 143 395 280 
580 216 324 206 
581 335 388 124 
582 221 359 215 
583 161 369 159 
584 307 373 185 
585 203 204 191 
586 235 255 229 
587 320 382 367 
588 278 359 221 
589 60 134 59 
590 66 135 65 
591 207 366 218 
592 238 371 204 
593 157 367 160 
594 366 369 257 
595 159 369 181 
596 153 368 209 
597 161 372 369 
598 184 372 163 
599 223 351 205 
600 374 375 240 
601 151 368 153 
602 72 137 71 
603 54 136 53 
604 355 365 197 
605 65 370 64 
606 61 363 60 
607 181 369 366 
608 197 365 210 
609 236 374 240 
610 371 378 305 
611 210 365 235 
612 189 378 376 
613 256 368 151 
614 250 376 338 
615 381 385 311 
616 320 386 382 
617 62 145 61 
618 64 146 63 
619 291 383 292 
620 369 372 257 
621 309 393 311 
622 191 371 183 
623 373 376 250 
624 305 378 189 
625 240 375 242 
626 204 371 191 
627 184 374 372 
628 140 392 343 
629 379 380 246 
630 246 380 248 
631 375 377 242 
632 242 377 244 
633 244 379 246 
634 377 379 244 
635 163 372 161 
636 248 373 250 
637 184 375 374 
638 135 370 65 
639 60 363 134 
640 376 378 338 
641 195 381 355 
642 257 374 236 
643 309 394 393 
644 162 382 196 
645 354 375 184 
646 189 376 307 
647 372 374 257 
648 323 387 196 
649 354 377 375 
650 145 363 61 
651 64 370 146 
652 340 379 190 
653 340 380 379 
654 190 379 377 
655 190 377 354 
656 185 380 340 
657 319 386 317 
658 307 376 373 
659 338 378 238 
660 323 389 387 
661 124 388 19 
662 18 388 140 
663 367 382 160 
664 166 387 200 
665 196 387 164 
666 397 438 406 
667 409 436 398 
668 383 384 144 
669 332 390 335 
670 355 381 365 
671 160 382 162 
672 280 395 279 
673 317 386 320 
674 195 385 381 
675 391 392 333 
676 164 387 166 
677 322 389 323 
678 390 392 140 
679 19 388 18 
680 200 389 337 
681 344 391 322 
682 337 391 333 
683 333 390 332 
684 344 392 391 
685 343 392 344 
686 322 391 389 
687 389 391 337 
688 381 393 365 
689 311 393 381 
690 282 405 55 
691 393 394 235 
692 235 394 255 
693 365 393 235 
694 59 396 58 
695 333 392 390 
696 396 400 58 
697 67 402 399 
698 50 397 49 
699 30 398 29 
700 67 399 66 
701 279 426 136 
702 267 401 266 
703 134 396 59 
704 268 439 304 
705 282 401 281 
706 57 400 121 
707 268 400 396 
708 137 427 291 
709 286 403 289 
710 396 439 268 
711 399 402 272 
712 304 404 251 
713 270 403 271 
714 141 398 30 
715 49 397 142 
716 122 402 68 
717 66 399 135 
718 299 407 300 
719 302 410 301 
720 326 419 327 
721 131 412 46 
722 252 408 324 
723 254 424 303 
724 33 414 130 
725 351 411 253 
726 44 413 127 
727 126 415 35 
728 342 417 341 
729 138 417 348 
730 260 416 237 
731 348 420 347 
732 125 420 346 
733 261 418 243 
734 225 408 259 
735 241 418 260 
736 346 422 345 
737 36 423 126 
738 139 423 37 
739 219 416 358 
740 3 428 28 
741 7 429 4 
742 245 421 261 
743 262 421 247 
744 51 428 3 
745 4 429 74 
746 258 411 223 
747 137 425 71 
748 54 405 136 
749 278 419 359 
750 136 426 53 
751 143 428 395 
752 52 426 395 
753 72 427 137 
754 263 435 262 
755 281 401 267 
756 2 431 50 
757 29 432 1 
758 63 431 2 
759 1 432 62 
760 58 400 57 
761 70 425 289 
762 270 440 403 
763 401 437 266 
764 384 429 144 
765 68 402 67 
766 291 427 384 
767 271 403 286 
768 251 404 264 
769 55 405 54 
770 276 405 282 
771 406 407 142 
772 142 407 299 
773 141 410 409 
774 301 410 141 
775 324 408 225 
776 262 435 422 
777 46 412 45 
778 412 413 45 
779 223 411 351 
780 45 413 44 
781 34 415 414 
782 34 414 33 
783 35 415 34 
784 237 416 219 
785 341 417 138 
786 243 418 241 
787 359 419 326 
788 347 420 125 
789 289 425 288 
790 247 421 245 
791 265 424 254 
792 345 422 139 
793 37 423 36 
794 403 440 122 
795 71 425 70 
796 53 426 52 
797 384 427 73 
798 121 437 401 
799 73 427 72 
800 397 406 142 
801 130 430 302 
802 266 437 268 
803 127 433 342 
804 300 434 131 
805 141 409 398 
806 395 426 279 
807 50 431 397 
808 398 432 29 
809 272 440 270 
810 304 439 404 
811 144 429 7 
812 28 428 143 
813 253 430 269 
814 62 432 145 
815 146 431 63 
816 358 433 277 
817 122 440 402 
818 273 434 252 
819 397 431 146 
820 145 432 398 
821 327 435 263 
822 400 437 121 
823 145 436 363 
824 370 438 146 
825 268 437 400 
826 134 439 396 
827 402 440 272 
828 422 435 139 
829 264 436 409 
830 404 439 134 
831 406 438 265 
2 2 2 710
832 623 719 455 
833 81 602 441 
834 455 744 623 
835 86 615 85 
836 442 609 114 
837 82 602 81 
838 86 748 615 
839 585 726 579 
840 726 727 579 
841 594 596 456 
842 114 609 113 
843 593 732 597 
844 732 733 597 
845 456 599 594 
846 598 735 589 
847 589 735 734 
848 690 724 584 
849 584 730 729 
850 578 730 584 
851 608 610 457 
852 584 756 690 
853 610 611 457 
854 602 721 441 
855 110 704 109 
856 579 727 620 
857 733 753 597 
858 447 753 733 
859 446 739 660 
860 592 719 623 
861 620 728 579 
862 580 737 668 
863 668 738 580 
864 581 740 670 
865 660 743 446 
866 670 741 581 
867 442 723 609 
868 450 750 734 
869 734 750 589 
870 585 744 681 
871 451 732 593 
872 666 737 580 
873 580 736 666 
874 704 749 109 
875 668 740 581 
876 581 738 668 
877 446 735 598 
878 670 742 582 
879 582 741 670 
880 622 730 578 
881 458 743 660 
882 598 739 446 
883 578 731 622 
884 467 703 468 
885 593 754 451 
886 596 725 456 
887 468 703 612 
888 470 612 546 
889 454 724 690 
890 468 612 470 
891 463 624 600 
892 677 753 736 
893 660 755 458 
894 573 750 731 
895 600 615 463 
896 610 612 611 
897 728 754 572 
898 681 758 585 
899 453 686 624 
900 624 686 600 
901 703 704 611 
902 464 703 467 
903 457 745 608 
904 546 612 610 
905 627 687 453 
906 449 714 676 
907 453 687 686 
908 627 676 575 
909 595 618 614 
910 575 687 627 
911 607 613 546 
912 620 754 728 
913 546 610 607 
914 601 614 587 
915 649 710 709 
916 522 613 605 
917 712 715 519 
918 529 642 638 
919 636 688 638 
920 614 618 521 
921 655 692 656 
922 595 614 601 
923 656 692 644 
924 657 715 712 
925 529 685 642 
926 736 753 666 
927 656 708 657 
928 605 613 607 
929 603 617 522 
930 638 688 529 
931 522 605 603 
932 681 744 455 
933 576 636 635 
934 521 616 604 
935 676 714 575 
936 576 688 636 
937 657 708 520 
938 16 661 17 
939 731 750 622 
940 604 614 521 
941 650 710 649 
942 460 655 653 
943 521 618 518 
944 635 672 576 
945 506 679 616 
946 464 467 8 
947 27 624 463 
948 653 663 460 
949 658 659 559 
950 617 682 507 
951 718 758 466 
952 443 661 16 
953 17 661 460 
954 465 756 717 
955 616 679 604 
956 460 661 655 
957 641 706 645 
958 546 613 472 
959 658 662 570 
960 603 682 617 
961 592 623 548 
962 472 613 474 
963 621 622 450 
964 559 662 658 
965 547 625 588 
966 518 618 531 
967 474 613 522 
968 659 678 559 
969 451 620 619 
970 522 617 476 
971 105 621 450 
972 451 619 90 
973 548 623 544 
974 476 617 478 
975 506 616 502 
976 661 692 655 
977 499 626 503 
978 633 711 632 
979 11 672 635 
980 502 616 508 
981 542 625 547 
982 497 626 499 
983 508 616 521 
984 24 676 627 
985 7 464 8 
986 27 463 28 
987 552 594 553 
988 467 468 452 
989 478 617 507 
990 608 609 606 
991 652 663 653 
992 533 548 544 
993 544 623 574 
994 594 599 553 
995 590 592 548 
996 9 467 452 
997 595 596 594 
998 514 533 528 
999 25 627 453 
1000 533 544 528 
1001 15 680 443 
1002 601 602 596 
1003 571 625 542 
1004 542 547 532 
1005 547 588 586 
1006 443 680 643 
1007 648 652 651 
1008 89 619 461 
1009 462 621 106 
1010 470 546 472 
1011 89 461 88 
1012 107 462 106 
1013 499 502 500 
1014 552 595 594 
1015 525 532 513 
1016 468 470 469 
1017 531 552 551 
1018 508 521 518 
1019 525 542 532 
1020 550 590 548 
1021 497 499 498 
1022 635 636 448 
1023 12 635 448 
1024 469 672 452 
1025 453 624 26 
1026 502 508 500 
1027 547 586 554 
1028 576 672 469 
1029 8 467 9 
1030 536 646 572 
1031 509 626 497 
1032 607 608 606 
1033 444 634 20 
1034 631 647 633 
1035 605 606 591 
1036 629 630 449 
1037 647 652 648 
1038 22 629 449 
1039 531 618 552 
1040 25 453 26 
1041 9 452 10 
1042 499 500 498 
1043 468 469 452 
1044 552 553 551 
1045 595 601 596 
1046 503 506 502 
1047 495 509 497 
1048 514 528 526 
1049 507 514 512 
1050 634 647 631 
1051 652 653 651 
1052 495 628 509 
1053 474 522 476 
1054 508 518 517 
1055 91 451 90 
1056 105 450 104 
1057 574 585 579 
1058 495 497 496 
1059 516 706 705 
1060 573 671 534 
1061 497 498 496 
1062 26 624 27 
1063 444 647 634 
1064 24 627 25 
1065 533 550 548 
1066 543 571 542 
1067 11 635 12 
1068 547 554 532 
1069 499 503 502 
1070 20 634 21 
1071 544 574 545 
1072 511 513 506 
1073 478 507 501 
1074 12 448 13 
1075 22 449 23 
1076 106 621 105 
1077 90 619 89 
1078 523 525 513 
1079 645 706 516 
1080 513 679 506 
1081 599 615 600 
1082 550 591 590 
1083 578 584 571 
1084 470 472 471 
1085 507 682 514 
1086 586 587 554 
1087 569 570 568 
1088 583 658 569 
1089 583 659 658 
1090 21 629 22 
1091 493 628 495 
1092 636 638 637 
1093 470 471 469 
1094 505 628 493 
1095 605 607 606 
1096 636 637 448 
1097 518 531 530 
1098 569 658 570 
1099 647 648 633 
1100 472 474 473 
1101 653 654 651 
1102 638 642 639 
1103 567 569 568 
1104 629 631 630 
1105 637 675 448 
1106 665 666 447 
1107 520 708 707 
1108 495 496 494 
1109 554 679 532 
1110 607 610 608 
1111 21 634 629 
1112 493 495 494 
1113 510 664 489 
1114 656 657 654 
1115 631 632 630 
1116 507 512 501 
1117 648 649 633 
1118 460 663 18 
1119 582 583 569 
1120 667 668 459 
1121 493 494 492 
1122 655 656 654 
1123 508 517 500 
1124 518 530 517 
1125 669 670 445 
1126 641 645 644 
1127 14 680 15 
1128 640 675 637 
1129 491 493 492 
1130 18 663 19 
1131 567 568 566 
1132 536 572 540 
1133 533 682 550 
1134 489 664 491 
1135 653 655 654 
1136 556 577 538 
1137 444 652 647 
1138 452 672 10 
1139 491 492 490 
1140 487 510 489 
1141 459 665 95 
1142 96 459 95 
1143 97 667 96 
1144 445 667 97 
1145 100 458 99 
1146 458 669 99 
1147 102 446 101 
1148 95 665 94 
1149 15 443 16 
1150 17 460 18 
1151 19 444 20 
1152 94 447 93 
1153 99 669 98 
1154 98 445 97 
1155 96 667 459 
1156 98 669 445 
1157 94 665 447 
1158 492 519 490 
1159 491 664 505 
1160 504 673 485 
1161 514 526 512 
1162 491 505 493 
1163 567 582 569 
1164 19 663 444 
1165 485 673 487 
1166 525 543 542 
1167 565 566 564 
1168 489 491 490 
1169 565 567 566 
1170 498 515 496 
1171 487 673 510 
1172 648 650 649 
1173 563 564 562 
1174 10 672 11 
1175 503 511 506 
1176 444 663 652 
1177 563 565 564 
1178 604 679 554 
1179 563 581 565 
1180 489 490 488 
1181 541 573 534 
1182 561 562 560 
1183 472 473 471 
1184 638 639 637 
1185 648 651 650 
1186 631 633 632 
1187 561 563 562 
1188 23 676 24 
1189 448 675 13 
1190 498 674 515 
1191 488 520 486 
1192 483 504 485 
1193 487 489 488 
1194 544 545 528 
1195 583 660 659 
1196 557 580 561 
1197 487 488 486 
1198 484 516 482 
1199 557 560 556 
1200 557 561 560 
1201 485 487 486 
1202 641 644 643 
1203 552 618 595 
1204 13 675 14 
1205 572 593 540 
1206 639 641 640 
1207 485 486 484 
1208 474 476 475 
1209 550 682 603 
1210 643 680 640 
1211 539 556 538 
1212 531 551 549 
1213 587 614 604 
1214 511 523 513 
1215 449 676 23 
1216 478 501 479 
1217 483 485 484 
1218 629 634 631 
1219 641 643 640 
1220 539 557 556 
1221 640 680 675 
1222 476 478 477 
1223 532 679 513 
1224 474 475 473 
1225 526 646 536 
1226 483 484 482 
1227 558 662 559 
1228 709 710 494 
1229 577 684 538 
1230 537 538 527 
1231 478 479 477 
1232 481 483 482 
1233 541 589 573 
1234 537 539 538 
1235 639 640 637 
1236 603 605 591 
1237 524 558 535 
1238 479 480 477 
1239 481 482 480 
1240 536 540 537 
1241 593 597 540 
1242 479 481 480 
1243 534 671 523 
1244 514 682 533 
1245 526 536 527 
1246 558 559 535 
1247 476 477 475 
1248 695 701 568 
1249 471 576 469 
1250 505 701 695 
1251 531 549 530 
1252 528 646 526 
1253 675 680 14 
1254 512 684 501 
1255 535 541 534 
1256 541 598 589 
1257 536 537 527 
1258 475 529 473 
1259 574 579 545 
1260 587 604 554 
1261 537 677 539 
1262 543 578 571 
1263 477 685 475 
1264 523 671 525 
1265 500 674 498 
1266 540 677 537 
1267 597 677 540 
1268 524 534 523 
1269 626 691 503 
1270 527 684 512 
1271 524 535 534 
1272 517 674 500 
1273 475 685 529 
1274 549 555 530 
1275 526 527 512 
1276 630 714 449 
1277 599 600 553 
1278 691 699 558 
1279 550 603 591 
1280 81 441 80 
1281 115 442 114 
1282 559 678 535 
1283 551 687 549 
1284 535 678 541 
1285 479 689 481 
1286 511 524 523 
1287 685 705 642 
1288 549 575 555 
1289 643 692 443 
1290 541 678 598 
1291 78 454 77 
1292 118 455 117 
1293 538 684 527 
1294 524 691 558 
1295 480 685 477 
1296 577 689 684 
1297 501 689 479 
1298 529 688 473 
1299 689 693 481 
1300 483 693 504 
1301 525 671 543 
1302 560 696 694 
1303 473 688 471 
1304 519 710 650 
1305 112 457 111 
1306 84 456 83 
1307 644 708 656 
1308 505 695 628 
1309 549 687 575 
1310 77 690 76 
1311 119 681 118 
1312 684 689 501 
1313 530 683 517 
1314 560 694 556 
1315 545 646 528 
1316 626 699 691 
1317 697 699 509 
1318 555 683 530 
1319 471 688 576 
1320 517 683 674 
1321 705 706 642 
1322 662 697 570 
1323 553 686 551 
1324 120 466 119 
1325 76 465 75 
1326 612 703 611 
1327 577 693 689 
1328 443 692 661 
1329 686 687 551 
1330 503 691 511 
1331 632 713 630 
1332 644 692 643 
1333 509 699 626 
1334 562 696 560 
1335 511 691 524 
1336 693 694 504 
1337 566 701 700 
1338 568 701 566 
1339 562 698 696 
1340 564 698 562 
1341 566 700 564 
1342 570 697 695 
1343 564 700 698 
1344 481 693 483 
1345 600 686 553 
1346 650 712 519 
1347 694 696 504 
1348 454 690 77 
1349 118 681 455 
1350 662 699 697 
1351 674 702 515 
1352 556 694 577 
1353 628 697 509 
1354 570 695 568 
1355 713 714 630 
1356 516 707 645 
1357 504 696 673 
1358 516 705 482 
1359 577 694 693 
1360 707 708 645 
1361 696 698 673 
1362 466 681 119 
1363 76 690 465 
1364 510 700 664 
1365 700 701 664 
1366 698 700 510 
1367 673 698 510 
1368 664 701 505 
1369 639 706 641 
1370 558 699 662 
1371 520 707 486 
1372 484 707 516 
1373 480 705 685 
1374 632 711 702 
1375 695 697 628 
1376 726 758 718 
1377 717 756 729 
1378 496 709 494 
1379 464 704 703 
1380 683 702 674 
1381 492 710 519 
1382 657 712 654 
1383 651 712 650 
1384 482 705 480 
1385 520 715 657 
1386 642 706 639 
1387 519 715 490 
1388 488 715 520 
1389 649 711 633 
1390 486 707 484 
1391 515 711 709 
1392 645 708 644 
1393 709 711 649 
1394 515 709 496 
1395 494 710 492 
1396 683 713 702 
1397 702 713 632 
1398 702 711 515 
1399 654 712 651 
1400 82 725 602 
1401 575 714 555 
1402 555 714 713 
1403 79 716 78 
1404 555 713 683 
1405 490 715 488 
1406 79 720 716 
1407 719 722 116 
1408 88 718 87 
1409 108 717 107 
1410 117 719 116 
1411 615 748 463 
1412 586 721 587 
1413 456 746 599 
1414 615 746 85 
1415 78 716 454 
1416 625 759 588 
1417 601 721 602 
1418 441 720 80 
1419 716 720 588 
1420 611 747 457 
1421 609 723 606 
1422 588 759 716 
1423 592 722 719 
1424 571 724 625 
1425 591 723 590 
1426 461 718 88 
1427 107 717 462 
1428 115 722 442 
1429 455 719 117 
1430 620 727 619 
1431 621 730 622 
1432 660 739 659 
1433 646 728 572 
1434 91 732 451 
1435 623 744 574 
1436 450 734 104 
1437 573 731 671 
1438 447 733 93 
1439 102 735 446 
1440 665 737 666 
1441 668 737 459 
1442 557 736 580 
1443 667 740 668 
1444 670 740 445 
1445 563 738 581 
1446 580 738 561 
1447 579 728 545 
1448 669 742 670 
1449 446 743 101 
1450 100 743 458 
1451 677 736 539 
1452 28 748 3 
1453 4 749 7 
1454 581 741 565 
1455 567 741 582 
1456 3 748 86 
1457 109 749 4 
1458 543 731 578 
1459 112 745 457 
1460 456 725 83 
1461 678 739 598 
1462 457 747 111 
1463 582 755 583 
1464 587 721 601 
1465 87 752 6 
1466 5 751 108 
1467 75 751 5 
1468 6 752 120 
1469 80 720 79 
1470 609 745 113 
1471 723 760 590 
1472 586 757 721 
1473 464 749 704 
1474 85 746 84 
1475 84 746 456 
1476 116 722 115 
1477 704 747 611 
1478 606 723 591 
1479 584 724 571 
1480 83 725 82 
1481 602 725 596 
1482 461 727 726 
1483 619 727 461 
1484 729 730 462 
1485 462 730 621 
1486 742 755 582 
1487 545 728 646 
1488 92 732 91 
1489 92 733 732 
1490 671 731 543 
1491 93 733 92 
1492 734 735 103 
1493 104 734 103 
1494 103 735 102 
1495 539 736 557 
1496 459 737 665 
1497 561 738 563 
1498 659 739 678 
1499 445 740 667 
1500 608 745 609 
1501 565 741 567 
1502 574 744 585 
1503 458 742 669 
1504 599 746 615 
1505 101 743 100 
1506 442 760 723 
1507 113 745 112 
1508 110 747 704 
1509 721 757 441 
1510 111 747 110 
1511 461 726 718 
1512 622 750 450 
1513 588 757 586 
1514 666 753 447 
1515 451 754 620 
1516 717 729 462 
1517 108 751 717 
1518 718 752 87 
1519 590 760 592 
1520 724 759 625 
1521 463 748 28 
1522 7 749 464 
1523 589 750 573 
1524 465 751 75 
1525 120 752 466 
1526 597 753 677 
1527 722 760 442 
1528 572 754 593 
1529 717 751 465 
1530 466 752 718 
1531 583 755 660 
1532 441 757 720 
1533 690 756 465 
1534 466 758 681 
1535 720 757 588 
1536 716 759 454 
1537 592 760 722 
1538 458 755 742 
1539 729 756 584 
1540 454 759 724 
1541 585 758 726 
$EndElements
