$MeshFormat
4.1 0 8
$EndMeshFormat
$PhysicalNames
7
0 8 "dirXY"
0 9 "dirY"
1 4 "left"
1 5 "right"
1 6 "bottom"
1 7 "top"
2 1 "domain"
$EndPhysicalNames
$Entities
4 4 1 0
1 0 0 0 1 8 
2 1 0 0 1 9 
3 1 1 0 0 
4 0 1 0 0 
1 0 0 0 1 0 0 1 6 2 1 -2 
2 1 0 0 1 1 0 1 5 2 2 -3 
3 0 1 0 1 1 0 1 7 2 3 -4 
4 0 0 0 0 1 0 1 4 2 4 -1 
1 0 0 0 1 1 0 1 1 4 1 2 3 4 
$EndEntities
$Nodes
9 16 1 16
0 1 0 1
1
0 0 0
0 2 0 1
2
1 0 0
0 3 0 1
3
1 1 0
0 4 0 1
4
0 1 0
1 1 0 2
5
6
0.333333333332501 0 0
0.6666666666657874 0 0
1 2 0 2
7
8
1 0.333333333332501 0
1 0.6666666666657874 0
1 3 0 2
9
10
0.6666666666675918 1 0
0.3333333333347207 1 0
1 4 0 2
11
12
0 0.6666666666675918 0
0 0.3333333333347207 0
2 1 0 4
13
14
15
16
0.3333333333332409 0.3333333333339809 0
0.3333333333339808 0.6666666666669903 0
0.666666666666389 0.3333333333332409 0
0.6666666666669903 0.666666666666389 0
$EndNodes
$Elements
7 23 1 23
0 1 15 1
1 1 
0 2 15 1
2 2 
1 1 1 3
3 1 5 
4 5 6 
5 6 2 
1 2 1 3
6 2 7 
7 7 8 
8 8 3 
1 3 1 3
9 3 9 
10 9 10 
11 10 4 
1 4 1 3
12 4 11 
13 11 12 
14 12 1 
2 1 3 9
15 1 5 13 12 
16 12 13 14 11 
17 11 14 10 4 
18 5 6 15 13 
19 13 15 16 14 
20 14 16 9 10 
21 6 2 7 15 
22 15 7 8 16 
23 16 8 3 9 
$EndElements
