$MeshFormat
4.1 0 8
$EndMeshFormat
$PhysicalNames
7
0 8 "dirXY"
0 9 "dirY"
1 4 "left"
1 5 "right"
1 6 "bottom"
1 7 "top"
2 1 "domain"
$EndPhysicalNames
$Entities
4 4 1 0
1 0 0 0 1 8 
2 1 0 0 1 9 
3 1 1 0 0 
4 0 1 0 0 
1 -9.999999994736442e-08 -1e-07 -1e-07 1.0000001 1e-07 1e-07 1 6 2 1 -2 
2 0.9999999000000001 -9.999999994736442e-08 -1e-07 1.0000001 1.0000001 1e-07 1 5 2 2 -3 
3 -9.999999994736442e-08 0.9999999000000001 -1e-07 1.0000001 1.0000001 1e-07 1 7 2 3 -4 
4 -1e-07 -9.999999994736442e-08 -1e-07 1e-07 1.0000001 1e-07 1 4 2 4 -1 
1 -9.999999994736442e-08 -9.999999994736442e-08 -1e-07 1.0000001 1.0000001 1e-07 1 1 4 2 3 4 1 
$EndEntities
$Nodes
9 9 1 9
0 1 0 1
1
0 0 0
0 2 0 1
2
1 0 0
0 3 0 1
3
1 1 0
0 4 0 1
4
0 1 0
1 1 0 1
5
0.5000000000000007 0 0
1 2 0 1
6
1 0.5000000000000007 0
1 3 0 1
7
0.4999999999999993 1 0
1 4 0 1
8
0 0.4999999999999993 0
2 1 0 1
9
0.5 0.5 0
$EndNodes
$Elements
7 14 1 14
0 1 15 1
1 1 
0 2 15 1
2 2 
1 1 1 2
3 1 5 
4 5 2 
1 2 1 2
5 2 6 
6 6 3 
1 3 1 2
7 3 7 
8 7 4 
1 4 1 2
9 4 8 
10 8 1 
2 1 3 4
11 2 6 9 5 
12 5 9 8 1 
13 6 3 7 9 
14 9 7 4 8 
$EndElements
