$MeshFormat
4.1 0 8
$EndMeshFormat
$PhysicalNames
7
0 10 "FracEnds"
1 4 "right"
1 5 "left"
1 6 "top"
1 7 "bottom"
1 9 "Fault"
2 1 "domain"
$EndPhysicalNames
$Entities
6 5 2 0
1 57 24 0 1 10 
5 33 70 0 1 10 
12 0 0 0 0 
13 0 100 0 0 
14 100 100 0 0 
15 100 0 0 0 
12 0 0 0 0 100 0 1 5 2 12 -13 
13 0 100 0 100 100 0 1 6 2 13 -14 
14 100 0 0 100 100 0 1 4 2 14 -15 
15 0 0 0 100 0 0 1 7 2 15 -12 
16 33 24 0 57 70 0 2 9 -9 2 5 -1 
11 33 24 0 57 70 0 0 2 16 -16 
1000 0 0 0 100 100 0 1 1 6 16 -16 -15 -14 -13 -12 
$EndEntities
$Nodes
12 41 1 41
0 1 0 1
1
57 24 0
0 5 0 1
2
33 70 0
0 12 0 1
3
0 0 0
0 13 0 1
4
0 100 0
0 14 0 1
5
100 100 0
0 15 0 1
6
100 0 0
1 12 0 4
7
8
9
10
0 19.99999999991413 0
0 39.99999999984005 0
0 59.99999999980733 0
0 79.99999999989062 0
1 13 0 4
11
12
13
14
19.99999999991413 100 0
39.99999999984005 100 0
59.99999999980733 100 0
79.99999999989062 100 0
1 14 0 4
15
16
17
18
100 80.00000000014211 0
100 60.00000000025813 0
100 40.00000000025814 0
100 20.00000000014211 0
1 15 0 4
19
20
21
22
80.00000000014211 0 0
60.00000000025813 0 0
40.00000000025814 0 0
20.00000000014211 0 0
1 16 0 1
23
44.99999999992771 47.00000000013856 0
2 1000 0 18
24
25
26
27
28
29
30
31
32
33
34
35
36
37
38
39
40
41
69.90799824176932 83.70587245413574 0
82.24482822589681 50.68248801540645 0
30.06610184243015 17.17537930770768 0
20.26318203541033 50.21615579355304 0
49.1557140762671 83.66050569410262 0
84.74636445313249 29.91714892448366 0
61.44257399645587 63.57840945203986 0
83.17603586218061 70.57126410516879 0
16.01282525767703 29.99999999987709 0
66.80230268897068 40.00000000029562 0
14.98484848483586 69.99999999984898 0
72.45819302196051 15.79326831266749 0
85.46081470896181 85.4608147090305 0
29.00479332627303 85.33342908496518 0
14.53918529107187 14.53918529100963 0
32.84460050543175 34.51309055535931 0
14.05671590066266 85.9080420593001 0
86.97286278196697 13.02713721813213 0
$EndNodes
$Elements
8 84 1 84
0 1 15 1
1 1 
0 5 15 1
2 2 
1 12 1 5
3 3 7 
4 7 8 
5 8 9 
6 9 10 
7 10 4 
1 13 1 5
8 4 11 
9 11 12 
10 12 13 
11 13 14 
12 14 5 
1 14 1 5
13 5 15 
14 15 16 
15 16 17 
16 17 18 
17 18 6 
1 15 1 5
18 6 19 
19 19 20 
20 20 21 
21 21 22 
22 22 3 
1 16 1 2
23 2 23 
24 23 1 
2 1000 2 60
25 1 21 20 
26 1 26 21 
27 25 31 30 
28 1 39 26 
29 2 27 23 
30 30 33 25 
31 30 31 24 
32 23 30 2 
33 2 30 28 
34 27 39 23 
35 13 24 14 
36 23 33 30 
37 23 39 1 
38 17 29 18 
39 16 25 17 
40 20 35 1 
41 21 26 22 
42 33 35 29 
43 12 28 13 
44 15 31 16 
45 8 27 9 
46 13 28 24 
47 14 36 5 
48 5 36 15 
49 16 31 25 
50 22 38 3 
51 3 38 7 
52 7 32 8 
53 25 29 17 
54 1 33 23 
55 28 30 24 
56 19 35 20 
57 10 40 4 
58 4 40 11 
59 2 34 27 
60 1 35 33 
61 8 32 27 
62 9 34 10 
63 18 41 6 
64 6 41 19 
65 27 34 9 
66 32 39 27 
67 12 37 28 
68 37 40 34 
69 24 36 14 
70 11 37 12 
71 29 41 18 
72 25 33 29 
73 26 38 22 
74 15 36 31 
75 28 37 2 
76 31 36 24 
77 2 37 34 
78 7 38 32 
79 26 39 32 
80 32 38 26 
81 35 41 29 
82 34 40 10 
83 19 41 35 
84 11 40 37 
$EndElements
