$MeshFormat
4.1 0 8
$EndMeshFormat
$PhysicalNames
11
1 4 "left"
1 5 "right"
1 6 "bottom"
1 7 "top"
1 8 "res-left"
1 9 "res-right"
1 10 "res-bottom"
1 11 "res-top"
2 1 "domain"
2 2 "far-field"
2 3 "pre-stress"
$EndPhysicalNames
$Entities
8 8 2 0
1 0 0 0 0 
2 100 0 0 0 
3 100 100 0 0 
4 0 100 0 0 
5 20 40 0 0 
6 20 50 0 0 
7 80 50 0 0 
8 80 40 0 0 
1 20 50 0 80 50 0 1 11 2 6 -7 
2 80 40 0 80 50 0 1 9 2 7 -8 
3 20 40 0 80 40 0 1 10 2 8 -5 
4 20 40 0 20 50 0 1 8 2 5 -6 
5 0 0 0 100 0 0 1 6 2 1 -2 
6 100 0 0 100 100 0 1 5 2 2 -3 
7 0 100 0 100 100 0 1 7 2 3 -4 
8 0 0 0 0 100 0 1 4 2 4 -1 
1 0 0 0 100 100 0 2 1 2 8 1 2 3 4 -5 -8 -7 -6 
2 20 40 0 80 50 0 2 1 3 4 1 2 3 4 
$EndEntities
$Nodes
18 512 1 512
0 1 0 1
1
0 0 0
0 2 0 1
2
100 0 0
0 3 0 1
3
100 100 0
0 4 0 1
4
0 100 0
0 5 0 1
5
20 40 0
0 6 0 1
6
20 50 0
0 7 0 1
7
80 50 0
0 8 0 1
8
80 40 0
1 1 0 29
9
10
11
12
13
14
15
16
17
18
19
20
21
22
23
24
25
26
27
28
29
30
31
32
33
34
35
36
37
21.99999999999907 50 0
23.99999999999815 50 0
25.99999999999722 50 0
27.99999999999629 50 0
29.99999999999537 50 0
31.99999999999444 50 0
33.99999999999351 50 0
35.99999999999221 50 0
37.99999999997002 50 0
39.9999999999454 50 0
41.99999999992079 50 0
43.99999999989618 50 0
45.99999999987156 50 0
47.99999999984696 50 0
49.99999999982373 50 0
51.99999999982143 50 0
53.9999999998205 50 0
55.99999999981959 50 0
57.99999999981866 50 0
59.99999999981775 50 0
61.99999999981682 50 0
63.9999999998183 50 0
65.9999999998407 50 0
67.99999999986346 50 0
69.9999999998862 50 0
71.99999999990897 50 0
73.99999999993173 50 0
75.99999999995448 50 0
77.99999999997723 50 0
1 2 0 4
38
39
40
41
80 48 0
80 46 0
80 44 0
80 42 0
1 3 0 29
42
43
44
45
46
47
48
49
50
51
52
53
54
55
56
57
58
59
60
61
62
63
64
65
66
67
68
69
70
78.00000000001185 40 0
76.00000000002369 40 0
74.00000000003554 40 0
72.00000000004738 40 0
70.00000000005923 40 0
68.00000000007108 40 0
66.00000000008292 40 0
64.00000000009477 40 0
62.00000000010661 40 0
60.00000000011846 40 0
58.0000000001303 40 0
56.00000000014215 40 0
54.000000000154 40 0
52.00000000016584 40 0
50.0000000001763 40 0
48.00000000016585 40 0
46.000000000154 40 0
44.00000000014215 40 0
42.00000000013031 40 0
40.00000000011847 40 0
38.00000000010662 40 0
36.00000000009477 40 0
34.00000000008292 40 0
32.00000000007108 40 0
30.00000000005923 40 0
28.00000000004739 40 0
26.00000000003554 40 0
24.0000000000237 40 0
22.00000000001184 40 0
1 4 0 4
71
72
73
74
20 42 0
20 44 0
20 46 0
20 48 0
1 5 0 6
75
76
77
78
79
80
14.28571428565806 0 0
28.5714285712982 0 0
42.85714285697816 0 0
57.14285714266902 0 0
71.42857142841505 0 0
85.71428571420753 0 0
1 6 0 6
81
82
83
84
85
86
100 14.28571428565806 0
100 28.5714285712982 0
100 42.85714285697816 0
100 57.14285714266902 0
100 71.42857142841505 0
100 85.71428571420753 0
1 7 0 6
87
88
89
90
91
92
85.71428571438723 100 0
71.42857142877446 100 0
57.14285714311531 100 0
42.85714285740109 100 0
28.57142857163167 100 0
14.28571428581583 100 0
1 8 0 6
93
94
95
96
97
98
0 85.71428571438723 0
0 71.42857142877446 0
0 57.14285714311531 0
0 42.85714285740109 0
0 28.57142857163167 0
0 14.28571428581583 0
2 1 0 264
99
100
101
102
103
104
105
106
107
108
109
110
111
112
113
114
115
116
117
118
119
120
121
122
123
124
125
126
127
128
129
130
131
132
133
134
135
136
137
138
139
140
141
142
143
144
145
146
147
148
149
150
151
152
153
154
155
156
157
158
159
160
161
162
163
164
165
166
167
168
169
170
171
172
173
174
175
176
177
178
179
180
181
182
183
184
185
186
187
188
189
190
191
192
193
194
195
196
197
198
199
200
201
202
203
204
205
206
207
208
209
210
211
212
213
214
215
216
217
218
219
220
221
222
223
224
225
226
227
228
229
230
231
232
233
234
235
236
237
238
239
240
241
242
243
244
245
246
247
248
249
250
251
252
253
254
255
256
257
258
259
260
261
262
263
264
265
266
267
268
269
270
271
272
273
274
275
276
277
278
279
280
281
282
283
284
285
286
287
288
289
290
291
292
293
294
295
296
297
298
299
300
301
302
303
304
305
306
307
308
309
310
311
312
313
314
315
316
317
318
319
320
321
322
323
324
325
326
327
328
329
330
331
332
333
334
335
336
337
338
339
340
341
342
343
344
345
346
347
348
349
350
351
352
353
354
355
356
357
358
359
360
361
362
64.99999999982907 51.79886845276037 0
72.99999999992035 51.73205080758859 0
56.78443004942844 51.97961943505818 0
48.99999999983534 51.73205080754816 0
41.09281848860697 51.99185992180736 0
32.99999999999608 51.79886845275006 0
24.79663899839284 52.11459950189485 0
35.02240278610095 37.65473948198991 0
42.82120861703704 37.78318489162328 0
51.00000000016934 38.259772961484 0
27.00000000004146 38.183096887779 0
58.91702440408127 38.03186699585962 0
66.95411710129136 38.40231799373645 0
75.30158552428455 37.47466181894964 0
68.99999999987482 51.73748926191445 0
76.71118628839359 52.01283559743272 0
53.24281941882506 52.07776486984537 0
60.93123879519719 51.89706964776631 0
36.99999999997941 51.79886845273438 0
44.99999999988388 51.73205080754756 0
30.92433902797832 38.43456679418771 0
23.20000000001896 38.5038184307464 0
47.20000000016367 38.52221649680019 0
38.98384024743596 37.7128441965517 0
55.00000000014809 38.18640973893829 0
71.13677047093098 37.97150293844784 0
63.00093770612131 37.95658949136612 0
35.71428571451639 87.62820851734132 0
65.12721171492187 87.67153364187085 0
28.92589801759667 51.56134804496376 0
79.78504765895576 10.00973841993242 0
49.99999999982359 12.37179148260983 0
21.61175670141188 11.66660322649218 0
81.71110375214312 47.39882643398374 0
81.88243354285518 42.82160143222192 0
17.96121550527823 47.16577904865815 0
18.2558296366799 43.05662813528316 0
10.77430512887972 64.03778315411392 0
88.19292488443534 62.7106461964874 0
90.65544853286724 53.48863484220616 0
82.71892990265727 58.28430813381295 0
80.02022900128199 65.43701729602043 0
84.44785536624794 71.82963379271398 0
76.21074577508335 72.53084987511023 0
72.83134960815342 65.69620725925536 0
68.48058838039285 72.53980994736219 0
65.61495251456061 65.67146447018814 0
61.21489771521266 72.47320332590692 0
57.64999801878714 65.61404390903887 0
54.13681881970044 72.50917505216199 0
50.8867044216855 66.52991398448009 0
53.17013031000599 61.26413674521474 0
47.57734491293261 60.8779186773825 0
44.74566212726106 66.21453074823137 0
42.0676828696338 61.20985038635141 0
39.18885092672856 65.72102604091866 0
36.74962242503714 60.91193462201949 0
33.47865475836613 65.45667217393665 0
30.67137161998635 60.11169122194438 0
26.64089176033367 65.4784227669396 0
66.86126623820138 59.82492546127305 0
73.72724016296144 60.38514698802766 0
41.09137408462603 72.02222787988487 0
23.97568397199983 59.93391471925116 0
30.08031140803589 71.53607155635422 0
80.99627595581848 80.15309708133516 0
61.91121702177486 60.7370521930322 0
50.92842135540837 57.41341861838144 0
55.14090921899189 57.04018398376253 0
22.28011543541358 71.69920366630149 0
39.84311202119873 56.68515469251148 0
44.00633890329897 57.42775155120887 0
35.24806235430928 56.28721321645436 0
10.26913867846074 55.93575082121303 0
64.27828190458955 10.27368830746665 0
71.64003055306836 21.27919972777054 0
35.68692545836974 9.44704200898296 0
44.05439869809467 20.84566268092837 0
64.12806959226759 56.3390570869088 0
47.57064527359917 89.03444477851298 0
68.38543120200849 55.92894380256811 0
91.35244502683373 34.23010336236612 0
89.65739570325663 24.21836672468081 0
83.95544148709058 30.48034270395894 0
9.043103222855638 34.25363838133036 0
10.68764932818759 24.30538380862485 0
15.87199376306195 30.60636018147206 0
26.80957474531061 79.35316485710115 0
17.47841417508193 78.51035536409924 0
59.73857268442625 56.72069600637217 0
31.34997616030321 55.96260656620288 0
57.55253284856661 79.20794514210358 0
80.52419911815821 22.21031704285276 0
15.20228919053244 36.67187096389642 0
11.26287742860915 42.25276247900788 0
84.62095991427212 52.76125015983303 0
88.51444856719502 47.45640066965157 0
85.00570005156065 37.08172101330742 0
18.88720274158381 22.96921391057223 0
25.6196848002382 27.91016141109194 0
26.95487617184108 20.32765929464412 0
31.72540594128798 26.27696835360711 0
29.70464302524153 32.21841229964982 0
34.81475350280469 30.8707699360776 0
24.75644128488552 33.46871570620387 0
33.3706525452472 34.90497823132529 0
37.08939151048151 35.10824787875803 0
39.59147082514346 31.38635021018926 0
37.73258450890484 25.95035024592166 0
41.02475541671299 35.34994244925737 0
43.4454335655766 31.91562993863781 0
35.55718322103031 18.64184846978502 0
57.4150020181715 60.05472925185499 0
80.0953025389076 34.99584121923255 0
77.73639035436852 30.0931500882521 0
17.40522730101332 58.05640619318216 0
42.81373810951109 80.36217271468173 0
20.58721756356635 89.11356376443224 0
42.24597197224585 54.48734686749379 0
80.52708481083681 54.56869781473743 0
77.48600188399391 57.77302595620893 0
72.10593426642677 80.13948260391697 0
76.57555490815822 88.97345365755163 0
76.29047584454841 34.45808438735087 0
72.74035819252171 31.63719935545526 0
52.54222486583129 54.65986709101531 0
57.40481362254599 54.55245533554329 0
66.99999999985042 51.81091113602089 0
66.02227807817728 53.82723322400756 0
51.13084071399315 52.05039263534679 0
49.72565170030045 54.41308447030167 0
47.33260406506024 53.7000881378012 0
70.99999999989757 51.79443516864036 0
71.57144021604744 54.50396627440607 0
74.54260578347561 53.55829462254776 0
74.85075841433515 51.46063620551381 0
34.99999999999345 51.82114100113555 0
30.82802239351964 51.82812060752856 0
54.98782804659695 51.64786886910555 0
39.05499102006779 51.90974848197121 0
37.89721550458049 54.00208506248644 0
43.20167866689352 52.08586868086552 0
62.99582354181145 51.77048268053389 0
61.89685623093554 54.05156411783372 0
47.0665208128996 51.43283795057938 0
58.99999999981819 51.73205080756819 0
20.10546181798405 34.91961967374482 0
79.07524511264032 37.90613677469658 0
81.36359320439504 38.07783736001219 0
82.48621634325026 40.42071813884483 0
85.03595216689067 42.84679980444112 0
72.58601118336168 35.53495983814013 0
69.27705837855703 33.29595926317206 0
68.84681970841953 29.15425421025202 0
64.89753889040476 31.88609524961768 0
64.58231299532957 26.59909643528168 0
60.49735691207954 29.2278869483609 0
59.78435456024096 23.26181874779095 0
55.42633603282583 27.54406825156672 0
54.72985857415598 33.11213029702997 0
50.81228792999989 30.28048497251796 0
60.95247371432441 33.81091459060234 0
50.9710706742131 34.52141456629942 0
49.19686822872028 25.37204061443629 0
54.19724449420694 20.68819072838655 0
57.98375377217462 35.48581124987388 0
63.8855393654603 35.31577327476464 0
90.59357609574815 78.38668692308067 0
44.5911243023856 35.41267828054817 0
47.38389257176549 32.87139199919969 0
49.03333333350523 38.22411206669358 0
32.65651491651857 37.77187001559996 0
29.09100569463412 38.05496389453192 0
27.86229752407819 35.67493720282762 0
25.03333333336315 38.19293465501914 0
37.00697044789344 38.20498167020477 0
45.00000000014801 38.26794919242099 0
40.96596085628696 38.16919430748647 0
60.99644081079806 38.22744109064417 0
53.00000000015954 38.17610122348152 0
53.90025550341915 36.10067554898269 0
56.9834630294698 38.03524398904144 0
65.10186327986654 37.85839539061107 0
68.81024551309342 37.98744943585888 0
73.00487343573202 38.19622491910752 0
15.18949063132404 52.31550085354514 0
65.19167416699942 20.51145126113648 0
19.35767048215171 54.29268423210804 0
17.47580269469385 49.53174720130682 0
14.73699457226906 46.98202895950141 0
42.54126828620414 27.43897803799536 0
46.67595011645328 29.57570511255742 0
27.05867118399672 52.02761742944126 0
26.16311343205629 54.25324395298094 0
44.87128154080747 54.3039544883444 0
73.01937399778402 26.73683788836537 0
21.32973094435172 37.91429059357312 0
18.80199440378009 37.9804356356393 0
17.28063957259236 40.51490852641895 0
89.98170916249602 40.89443354134889 0
19.34083407215931 64.55498955660485 0
79.02308038911245 52.21395890954574 0
89.28015469909636 11.78735607885401 0
10.79870965157995 13.0573183107237 0
48.00000000017941 36.07518409914577 0
8.574497284753882 48.74285999734263 0
34.00000000000623 53.83267304369654 0
47.64608985174939 72.35206759647333 0
35.78354479019409 76.82789536092059 0
29.32602866880102 13.34681454315971 0
22.95678295803592 51.75886440427716 0
47.40694041296801 56.35603599057001 0
77.27536612739442 38.29830268148512 0
20.9467680548424 52.18313569344835 0
22.8941022622519 55.03722949311275 0
51.04146760270576 80.06573616749947 0
77.27342017502602 54.62451817252384 0
27.45242343265334 57.30480509740818 0
82.16916994140878 44.84453794510782 0
84.31594318927267 46.3879046914173 0
17.76141825461014 45.20073935724045 0
64.89623298510415 78.4063949322321 0
59.58743277209631 54.08564322774966 0
88.97994877901868 88.87125389602916 0
54.98709084029026 53.80886472402717 0
59.61556966529904 15.69233264147189 0
30.60157545561632 36.17662140635372 0
66.98948036124753 35.83159638670437 0
10.23980611458199 87.79982363440143 0
73.95980320316036 56.52773449019743 0
69.8285094153299 36.11026229438042 0
61.91511600566702 36.24677162679132 0
23.4041612301065 36.58114631699861 0
15.739511690739 43.79663953647467 0
9.087761156600477 75.31834514093771 0
58.2869197122637 32.16487854081528 0
83.40706720545523 49.31634345097391 0
81.51563846393533 51.77205006701802 0
40.12982873877401 53.82496168363489 0
18.5939463726024 51.66461359608167 0
63.99999999981451 53.49643605767149 0
68.05824418278912 53.39454963407685 0
35.82905557177377 53.54839615530147 0
69.79746077551749 53.46821367906634 0
35.92454719359014 70.31277860240299 0
29.11115780287435 53.77631110802937 0
70.86288672377665 58.1697216371187 0
70.31877183520427 61.89959258018511 0
31.75559376524123 53.45592169908107 0
21.16664449435211 30.85528124491403 0
50.20088080164663 36.72314484698393 0
51.81444139592156 36.75622182944632 0
60.00000000011848 36.5055631827916 0
56.22211562691032 87.02603162810925 0
77.7997933824318 36.37392428447507 0
25.61124667449496 36.42016615376564 0
15.79797681437305 70.55411810736285 0
77.24617814585221 61.66256896259074 0
68.66587603835799 24.8217071215793 0
92.51885242174282 68.97260584557398 0
55.85687049796438 36.34241585528931 0
56.86136391395744 8.085340797036379 0
72.04634683439185 14.20288981545122 0
42.14225377630316 12.84331842354409 0
2 2 0 150
363
364
365
366
367
368
369
370
371
372
373
374
375
376
377
378
379
380
381
382
383
384
385
386
387
388
389
390
391
392
393
394
395
396
397
398
399
400
401
402
403
404
405
406
407
408
409
410
411
412
413
414
415
416
417
418
419
420
421
422
423
424
425
426
427
428
429
430
431
432
433
434
435
436
437
438
439
440
441
442
443
444
445
446
447
448
449
450
451
452
453
454
455
456
457
458
459
460
461
462
463
464
465
466
467
468
469
470
471
472
473
474
475
476
477
478
479
480
481
482
483
484
485
486
487
488
489
490
491
492
493
494
495
496
497
498
499
500
501
502
503
504
505
506
507
508
509
510
511
512
36.99999999998112 48.26794919245139 0
40.9999999999331 48.26794919245244 0
44.99999999988388 48.26794919245244 0
25.10313918060446 48.364500760826 0
48.99999999983534 48.26794919245184 0
61.00000000011254 41.73205080755861 0
73.00000000004145 41.73205080755861 0
57.00000000013672 41.73205080755856 0
53.00000000016014 41.73205080756461 0
28.99999999999582 48.26794919243193 0
32.99999999999397 48.26794919243209 0
69.00000000006521 41.73205080755861 0
65.00000000008887 41.73205080755861 0
35.00000000011292 41.73205080760482 0
27.0000000000725 41.73205080761949 0
31.00000000008537 41.73205080760583 0
39.00000000012995 41.73205080759448 0
74.99999999993085 48.26794919233508 0
43.00000000014641 41.73205080758498 0
62.99999999981811 48.26794919242717 0
58.99999999981684 48.26794919243314 0
70.99999999988856 48.26794919238155 0
54.98099087138507 48.35046186128051 0
47.00000000016448 41.73205080757474 0
66.99999999984956 48.26794919241404 0
21.63706612048928 45.11334914259108 0
78.37244843820771 44.90332094503023 0
76.86114907733388 41.9190205462257 0
23.00847473858762 41.6935440901303 0
49.00000000017105 41.73205080756887 0
48.00000000017432 43.46410161514349 0
46.00000000017243 43.46410161515291 0
50.00000000017297 43.4641016151361 0
47.00000000018299 45.19615242271836 0
45.00000000018647 45.19615242273048 0
44.00000000017108 43.46410161516319 0
43.00000000019073 45.19615242274542 0
42.0000000001798 43.46410161518767 0
41.00000000019482 45.19615242276051 0
40.00000000018377 43.4641016152026 0
39.00000000019872 45.19615242277561 0
38.00000000018757 43.46410161521757 0
37.00000000020246 45.19615242279077 0
36.0000000001839 43.46410161522642 0
35.00000000020412 45.196152422807 0
34.00000000018984 43.46410161524607 0
33.00000000020215 45.19615242282433 0
32.00000000018661 43.46410161526064 0
31.00000000019775 45.196152422841 0
30.00000000016944 43.46410161526583 0
29.00000000019214 45.19615242285708 0
28.00000000016644 43.46410161528292 0
27.00000000018613 45.19615242287294 0
26.00000000016949 43.46410161530667 0
24.84795404394645 45.18583659296634 0
23.9391475918213 43.2926046602547 0
41.00000000014811 41.73205080759495 0
37.00000000012587 41.73205080760451 0
64.99999999983304 48.26794919241694 0
63.99999999981683 46.53589838485164 0
61.9999999998107 46.53589838486293 0
62.99999999979985 44.80384757729018 0
60.99999999980234 44.80384757730369 0
64.99999999979806 44.80384757727623 0
65.99999999982555 46.53589838483774 0
67.99999999983692 46.53589838481587 0
66.99999999980294 44.80384757723833 0
68.99999999981765 44.80384757722303 0
69.99999999985016 46.53589838478912 0
70.99999999982484 44.80384757717825 0
71.99999999986532 46.53589838474511 0
72.99999999983224 44.80384757713207 0
73.99999999987864 46.53589838470694 0
75.1521534112495 44.81446806171449 0
76.06237152878757 46.70115938720915 0
76.9966525854165 48.30262378957898 0
72.99999999990068 48.26794919236144 0
68.99999999986247 48.2679491924001 0
33.00000000010875 41.7320508076182 0
45.00000000015351 41.73205080757827 0
49.00000000018164 45.19615242270567 0
51.00000000017467 45.16340317711139 0
52.00000000016668 43.45864340753364 0
52.9733872203001 45.1744196182089 0
51.94233897704795 46.78835460673288 0
53.99556453684662 43.45956977977836 0
54.94159973317285 45.12841029613107 0
29.00000000008671 41.73205080763152 0
24.99127038845169 41.69705019555185 0
34.99999999999286 48.26794919244429 0
56.99683181174652 48.3144505494619 0
57.99947196852554 46.64178199748908 0
51.00000000016882 41.73114110630053 0
21.69382143477006 46.99886423395247 0
59.00000000012447 41.69930156200418 0
58.00000000008062 43.36051002107446 0
54.99926075626412 41.73129550166951 0
60.99999999981513 48.26794919243188 0
30.99999999999491 48.26794919243197 0
26.99999999999677 48.26794919243193 0
63.00000000010073 41.73205080755852 0
74.8901132277166 41.67612962817562 0
67.00000000007688 41.73205080755832 0
71.0000000000533 41.73205080755837 0
38.99999999995767 48.26794919245246 0
42.99999999990845 48.26794919245253 0
46.99999999985929 48.26794919245252 0
60.02652477446163 46.56891054925695 0
55.96279139124343 43.41929990919505 0
21.87883147909977 43.16365973604527 0
23.15624432142369 48.10881348928388 0
78.40958954142101 43.04793351215213 0
78.12355331134597 46.837395744341 0
23.15981251342781 46.14188552472267 0
76.86206216653615 43.87354466530992 0
50.99038982942233 48.37540937028177 0
58.97772001065803 44.95776988931193 0
56.98026385058345 45.04002766189895 0
53.97305280025785 46.77308081771793 0
62.00000000000475 43.26789201730382 0
45.9999999998988 46.73205080767241 0
43.99999999992264 46.7320508076735 0
48.0000000000238 46.73199363245743 0
41.99999999994561 46.73205080767546 0
39.99999999996827 46.7320508076775 0
63.99999999997925 43.26793966321609 0
37.99999999999099 46.73205080767941 0
36.00000000009801 46.73205080762162 0
68.00000000004829 43.26794919232411 0
65.99999999996569 43.26794760419527 0
34.00000000008092 46.73205080763864 0
70.00000000003783 43.26794919230936 0
32.00000000002472 46.73205080768197 0
30.00000000001402 46.73205080769574 0
72.00000000002717 43.26794919229179 0
28.00000000001384 46.73205080770216 0
26.07864201617221 46.76815347035766 0
73.92029948794936 43.23870041498024 0
55.98478702800475 46.71499505281434 0
52.98112874629252 48.38121777600217 0
60.00000000011843 43.26760614178914 0
50.00000000018472 46.73170775674379 0
78.53589838483451 48.53589838484059 0
21.46410161514845 41.46410161514527 0
21.46410161513766 48.53589838486209 0
78.53589838487295 41.46410161513018 0
75.49453059737981 43.12906694819432 0
24.46915841511492 46.9138379676313 0
23.09256234975692 44.57946713131601 0
76.89750224217566 45.41876770372814 0
$EndNodes
$Elements
10 1092 1 1092
1 1 1 30
1 6 9 
2 9 10 
3 10 11 
4 11 12 
5 12 13 
6 13 14 
7 14 15 
8 15 16 
9 16 17 
10 17 18 
11 18 19 
12 19 20 
13 20 21 
14 21 22 
15 22 23 
16 23 24 
17 24 25 
18 25 26 
19 26 27 
20 27 28 
21 28 29 
22 29 30 
23 30 31 
24 31 32 
25 32 33 
26 33 34 
27 34 35 
28 35 36 
29 36 37 
30 37 7 
1 2 1 5
31 7 38 
32 38 39 
33 39 40 
34 40 41 
35 41 8 
1 3 1 30
36 8 42 
37 42 43 
38 43 44 
39 44 45 
40 45 46 
41 46 47 
42 47 48 
43 48 49 
44 49 50 
45 50 51 
46 51 52 
47 52 53 
48 53 54 
49 54 55 
50 55 56 
51 56 57 
52 57 58 
53 58 59 
54 59 60 
55 60 61 
56 61 62 
57 62 63 
58 63 64 
59 64 65 
60 65 66 
61 66 67 
62 67 68 
63 68 69 
64 69 70 
65 70 5 
1 4 1 5
66 5 71 
67 71 72 
68 72 73 
69 73 74 
70 74 6 
1 5 1 7
71 1 75 
72 75 76 
73 76 77 
74 77 78 
75 78 79 
76 79 80 
77 80 2 
1 6 1 7
78 2 81 
79 81 82 
80 82 83 
81 83 84 
82 84 85 
83 85 86 
84 86 3 
1 7 1 7
85 3 87 
86 87 88 
87 88 89 
88 89 90 
89 90 91 
90 91 92 
91 92 4 
1 8 1 7
92 4 93 
93 93 94 
94 94 95 
95 95 96 
96 96 97 
97 97 98 
98 98 1 
2 1 2 626
99 179 232 342 
100 130 176 263 
101 204 106 205 
102 106 204 270 
103 137 138 139 
104 147 165 211 
105 205 106 274 
106 267 275 303 
107 167 188 225 
108 159 145 346 
109 107 208 276 
110 151 150 166 
111 295 120 331 
112 157 171 189 
113 165 159 177 
114 122 205 274 
115 137 84 138 
116 157 155 171 
117 205 122 208 
118 286 214 313 
119 112 311 353 
120 147 145 165 
121 198 197 348 
122 180 182 196 
123 126 186 216 
124 3 86 322 
125 6 74 287 
126 95 136 172 
127 185 183 192 
128 145 159 165 
129 262 289 290 
130 153 151 170 
131 84 137 358 
132 155 153 169 
133 87 3 322 
134 170 151 310 
135 197 185 348 
136 166 150 167 
137 149 147 150 
138 77 130 360 
139 132 7 335 
140 169 153 170 
141 195 83 298 
142 171 169 239 
143 184 183 185 
144 200 198 201 
145 101 225 244 
146 180 181 182 
147 91 126 216 
148 208 122 276 
149 162 157 316 
150 2 80 301 
151 155 169 171 
152 75 1 302 
153 257 258 334 
154 188 177 242 
155 149 150 151 
156 284 287 288 
157 95 94 136 
158 139 138 194 
159 224 115 228 
160 213 191 294 
161 165 177 188 
162 139 219 356 
163 201 203 272 
164 202 201 204 
165 150 147 211 
166 112 250 283 
167 232 179 345 
168 214 162 313 
169 84 83 138 
170 203 245 331 
171 174 191 361 
172 208 107 267 
173 177 159 179 
174 172 136 214 
175 196 248 249 
176 196 249 298 
177 186 126 307 
178 130 77 362 
179 129 79 361 
180 126 90 178 
181 112 222 250 
182 176 130 362 
183 182 191 213 
184 81 2 301 
185 200 201 202 
186 1 98 302 
187 80 79 129 
188 145 143 346 
189 76 75 131 
190 166 167 224 
191 284 288 304 
192 119 270 325 
193 201 198 203 
194 111 282 326 
195 144 143 145 
196 335 7 336 
197 169 170 217 
198 161 215 306 
199 192 193 297 
200 188 167 211 
201 151 166 310 
202 245 295 331 
203 315 233 328 
204 142 140 143 
205 229 230 310 
206 143 140 356 
207 261 303 349 
208 91 90 126 
209 89 88 127 
210 76 131 308 
211 173 78 360 
212 175 76 308 
213 177 179 227 
214 255 257 334 
215 80 129 301 
216 118 230 243 
217 265 125 281 
218 262 176 289 
219 189 171 305 
220 131 75 302 
221 292 313 316 
222 258 259 261 
223 93 327 333 
224 79 173 361 
225 103 217 240 
226 77 175 362 
227 258 257 259 
228 110 264 280 
229 199 198 200 
230 126 178 215 
231 327 187 333 
232 197 131 302 
233 79 78 173 
234 77 76 175 
235 253 255 260 
236 244 225 321 
237 101 237 323 
238 152 151 153 
239 210 176 362 
240 250 124 283 
241 146 145 147 
242 236 128 344 
243 136 94 333 
244 328 232 345 
245 90 89 178 
246 137 139 140 
247 224 228 229 
248 118 240 293 
249 95 172 304 
250 207 176 210 
251 261 268 303 
252 148 147 149 
253 78 77 360 
254 127 88 221 
255 131 197 199 
256 297 193 332 
257 74 134 287 
258 236 344 347 
259 129 191 301 
260 4 92 327 
261 267 107 275 
262 140 139 356 
263 183 96 193 
264 191 174 294 
265 270 204 325 
266 83 82 180 
267 97 96 183 
268 184 185 197 
269 82 81 181 
270 98 97 184 
271 326 282 329 
272 71 5 297 
273 8 41 248 
274 222 112 353 
275 225 101 323 
276 89 127 352 
277 272 203 354 
278 178 89 352 
279 268 267 303 
280 237 115 323 
281 184 197 302 
282 142 143 144 
283 240 217 293 
284 212 213 222 
285 197 198 199 
286 94 93 333 
287 154 153 155 
288 166 229 310 
289 180 82 181 
290 85 84 358 
291 115 224 323 
292 97 183 184 
293 191 129 361 
294 96 95 304 
295 281 111 326 
296 251 253 326 
297 156 155 157 
298 88 87 221 
299 181 81 301 
300 98 184 302 
301 220 127 221 
302 158 157 162 
303 230 118 293 
304 265 281 326 
305 93 4 327 
306 219 315 328 
307 253 260 265 
308 258 279 359 
309 105 309 313 
310 202 206 207 
311 144 145 146 
312 162 214 299 
313 158 162 299 
314 92 91 216 
315 149 151 152 
316 258 261 279 
317 194 195 335 
318 206 205 208 
319 171 239 341 
320 189 305 347 
321 191 181 301 
322 264 110 351 
323 130 263 324 
324 306 215 314 
325 261 259 268 
326 182 181 191 
327 163 186 307 
328 124 250 329 
329 251 252 253 
330 202 204 205 
331 143 160 346 
332 165 188 211 
333 188 242 321 
334 146 147 148 
335 215 161 307 
336 233 114 234 
337 217 103 337 
338 250 251 329 
339 230 293 310 
340 141 140 142 
341 222 223 250 
342 253 254 255 
343 167 150 211 
344 264 258 359 
345 201 272 325 
346 255 256 257 
347 200 202 207 
348 172 284 304 
349 83 180 298 
350 86 85 266 
351 221 87 322 
352 219 218 315 
353 126 215 307 
354 114 233 315 
355 193 96 304 
356 149 152 306 
357 300 114 315 
358 200 207 210 
359 172 214 284 
360 125 265 330 
361 271 119 325 
362 253 265 326 
363 86 266 322 
364 160 143 356 
365 190 127 320 
366 180 196 298 
367 175 210 362 
368 139 194 218 
369 152 153 154 
370 242 177 339 
371 199 200 210 
372 142 144 220 
373 168 158 299 
374 131 199 308 
375 209 208 267 
376 127 220 320 
377 176 207 289 
378 202 205 206 
379 31 30 99 
380 24 23 228 
381 32 31 226 
382 33 32 113 
383 25 24 115 
384 34 33 231 
385 16 15 235 
386 26 25 237 
387 35 34 100 
388 15 14 104 
389 27 26 101 
390 28 27 244 
391 19 18 103 
392 20 19 240 
393 23 22 102 
394 30 29 241 
395 21 20 118 
396 29 28 116 
397 22 21 243 
398 18 17 238 
399 17 16 117 
400 250 223 251 
401 292 105 313 
402 245 203 348 
403 206 208 209 
404 212 182 213 
405 285 174 361 
406 116 244 321 
407 160 219 328 
408 195 249 318 
409 313 162 316 
410 166 224 229 
411 280 264 359 
412 137 140 141 
413 249 133 317 
414 139 218 219 
415 152 161 306 
416 14 13 236 
417 222 213 223 
418 57 56 269 
419 58 57 121 
420 59 58 275 
421 65 64 270 
422 64 63 106 
423 66 65 119 
424 68 67 109 
425 67 66 271 
426 63 62 274 
427 62 61 122 
428 61 60 276 
429 60 59 107 
430 52 51 110 
431 51 50 277 
432 56 55 108 
433 53 52 280 
434 50 49 125 
435 54 53 123 
436 49 48 281 
437 48 47 111 
438 46 45 124 
439 55 54 278 
440 44 43 112 
441 47 46 282 
442 45 44 283 
443 309 312 313 
444 196 182 212 
445 215 178 314 
446 259 257 262 
447 141 142 164 
448 36 35 234 
449 192 183 193 
450 263 256 324 
451 288 134 319 
452 186 187 216 
453 154 155 156 
454 185 192 245 
455 293 170 310 
456 212 222 353 
457 135 71 297 
458 69 68 273 
459 41 133 248 
460 196 212 247 
461 239 169 337 
462 204 201 325 
463 229 102 230 
464 256 285 324 
465 148 149 306 
466 223 213 294 
467 207 206 289 
468 209 267 268 
469 13 12 128 
470 156 157 158 
471 206 209 289 
472 186 168 187 
473 92 216 327 
474 253 252 254 
475 251 223 252 
476 128 291 344 
477 70 69 120 
478 177 227 339 
479 141 164 266 
480 37 36 114 
481 163 168 186 
482 146 148 190 
483 164 142 220 
484 272 271 325 
485 255 254 256 
486 190 314 352 
487 296 192 297 
488 242 116 321 
489 163 158 168 
490 173 285 361 
491 12 11 291 
492 135 297 332 
493 218 300 315 
494 43 42 311 
495 196 247 248 
496 257 256 263 
497 127 190 352 
498 194 138 195 
499 314 178 352 
500 7 37 300 
501 230 102 243 
502 260 255 334 
503 152 154 161 
504 259 262 290 
505 245 192 296 
506 179 159 345 
507 11 10 105 
508 260 264 351 
509 113 32 226 
510 31 99 226 
511 33 113 231 
512 99 30 241 
513 25 115 237 
514 115 24 228 
515 100 34 231 
516 23 102 228 
517 101 26 237 
518 27 101 244 
519 15 104 235 
520 117 16 235 
521 19 103 240 
522 116 28 244 
523 118 20 240 
524 29 116 241 
525 102 22 243 
526 21 118 243 
527 103 18 238 
528 17 117 238 
529 217 170 293 
530 100 232 233 
531 164 220 221 
532 193 288 332 
533 5 70 295 
534 156 158 163 
535 256 254 285 
536 252 223 294 
537 220 144 320 
538 262 257 263 
539 227 179 340 
540 268 259 290 
541 218 194 336 
542 42 8 246 
543 199 210 308 
544 209 268 290 
545 104 14 236 
546 249 195 298 
547 103 238 337 
548 266 85 358 
549 169 217 337 
550 35 100 234 
551 214 136 299 
552 157 189 316 
553 344 189 347 
554 228 102 229 
555 10 9 309 
556 285 173 324 
557 203 198 348 
558 289 209 290 
559 241 116 242 
560 226 99 227 
561 238 117 239 
562 216 187 327 
563 130 324 360 
564 187 168 355 
565 58 121 275 
566 121 57 269 
567 56 108 269 
568 107 59 275 
569 119 65 270 
570 66 119 271 
571 64 106 270 
572 109 67 271 
573 106 63 274 
574 62 122 274 
575 122 61 276 
576 60 107 276 
577 40 39 317 
578 39 38 132 
579 41 40 133 
580 73 72 319 
581 72 71 135 
582 74 73 134 
583 110 51 277 
584 52 110 280 
585 50 125 277 
586 123 53 280 
587 125 49 281 
588 108 55 278 
589 54 123 278 
590 111 47 282 
591 48 111 281 
592 124 45 283 
593 44 112 283 
594 46 124 282 
595 233 232 328 
596 144 146 320 
597 235 104 305 
598 100 233 234 
599 100 231 232 
600 9 6 312 
601 292 316 344 
602 68 109 273 
603 288 193 304 
604 224 167 323 
605 13 128 236 
606 295 245 296 
607 167 225 323 
608 291 292 344 
609 210 175 308 
610 238 239 337 
611 307 161 343 
612 316 189 344 
613 278 123 279 
614 121 269 303 
615 148 306 314 
616 225 188 321 
617 265 260 330 
618 266 164 322 
619 190 148 314 
620 114 36 234 
621 6 287 338 
622 112 43 311 
623 120 69 273 
624 164 221 322 
625 282 124 329 
626 146 190 320 
627 279 261 350 
628 109 271 272 
629 284 214 286 
630 264 260 334 
631 247 8 248 
632 5 296 297 
633 141 266 358 
634 340 179 342 
635 128 12 291 
636 312 286 313 
637 219 160 356 
638 287 134 288 
639 156 163 343 
640 7 300 336 
641 212 246 247 
642 284 286 338 
643 285 254 357 
644 249 317 318 
645 120 273 331 
646 277 125 330 
647 251 326 329 
648 194 335 336 
649 163 307 343 
650 305 171 341 
651 37 114 300 
652 5 295 296 
653 288 319 332 
654 246 8 247 
655 324 173 360 
656 70 120 295 
657 11 105 291 
658 258 264 334 
659 137 141 358 
660 291 105 292 
661 161 154 343 
662 333 187 355 
663 99 241 339 
664 42 246 311 
665 113 226 340 
666 252 294 357 
667 203 331 354 
668 117 235 341 
669 254 252 357 
670 318 132 335 
671 154 156 343 
672 248 133 249 
673 241 242 339 
674 227 99 339 
675 231 113 342 
676 226 227 340 
677 239 117 341 
678 246 212 353 
679 136 333 355 
680 105 10 309 
681 235 305 341 
682 168 299 355 
683 232 231 342 
684 300 218 336 
685 195 318 335 
686 104 236 347 
687 174 285 357 
688 305 104 347 
689 269 108 349 
690 312 6 338 
691 303 269 349 
692 279 123 359 
693 278 279 350 
694 123 280 359 
695 110 277 351 
696 294 174 357 
697 309 9 312 
698 39 132 317 
699 133 40 317 
700 72 135 319 
701 134 73 319 
702 108 278 350 
703 261 349 350 
704 345 159 346 
705 185 245 348 
706 277 330 351 
707 273 109 354 
708 113 340 342 
709 109 272 354 
710 319 135 332 
711 311 246 353 
712 317 132 318 
713 331 273 354 
714 299 136 355 
715 330 260 351 
716 160 328 345 
717 160 345 346 
718 349 108 350 
719 287 284 338 
720 286 312 338 
721 38 7 132 
722 138 83 195 
723 275 121 303 
724 176 262 263 
2 2 2 368
725 418 391 472 
726 437 438 475 
727 454 479 480 
728 479 458 480 
729 456 473 476 
730 474 390 477 
731 418 472 511 
732 437 475 512 
733 476 473 510 
734 477 390 509 
735 449 481 501 
736 478 24 502 
737 36 37 438 
738 391 418 451 
739 435 380 437 
740 418 416 451 
741 416 377 451 
742 414 377 416 
743 380 36 438 
744 437 380 438 
745 410 378 412 
746 34 35 439 
747 377 414 450 
748 380 435 439 
749 412 378 450 
750 378 410 441 
751 406 376 408 
752 408 376 441 
753 376 406 420 
754 431 384 433 
755 414 412 450 
756 384 431 440 
757 404 379 420 
758 410 408 441 
759 384 34 439 
760 35 380 439 
761 66 67 450 
762 402 379 404 
763 379 402 419 
764 433 384 439 
765 406 404 420 
766 400 381 419 
767 64 65 441 
768 402 400 419 
769 429 428 430 
770 381 398 442 
771 378 66 450 
772 67 377 450 
773 398 381 400 
774 427 428 429 
775 376 64 441 
776 62 63 420 
777 65 378 441 
778 431 428 440 
779 426 422 427 
780 422 421 427 
781 33 384 440 
782 382 30 421 
783 30 31 421 
784 379 62 420 
785 63 376 420 
786 382 421 422 
787 435 433 439 
788 398 394 442 
789 394 386 442 
790 371 445 448 
791 381 60 419 
792 61 379 419 
793 60 61 419 
794 392 386 393 
795 32 33 440 
796 426 427 429 
797 56 57 392 
798 59 381 442 
799 392 393 395 
800 445 371 455 
801 393 396 443 
802 395 393 443 
803 382 422 423 
804 371 448 459 
805 393 394 396 
806 55 56 455 
807 421 387 427 
808 31 387 421 
809 371 55 455 
810 57 386 392 
811 430 428 431 
812 396 394 397 
813 393 386 394 
814 386 58 442 
815 15 16 452 
816 57 58 386 
817 377 68 451 
818 56 392 455 
819 61 62 379 
820 59 60 381 
821 395 443 444 
822 31 32 387 
823 63 64 376 
824 33 34 384 
825 35 36 380 
826 423 422 424 
827 382 423 460 
828 29 382 460 
829 423 424 425 
830 460 423 470 
831 430 431 432 
832 385 26 453 
833 395 445 455 
834 427 387 428 
835 69 391 451 
836 58 59 442 
837 69 70 391 
838 29 30 382 
839 453 383 454 
840 434 435 436 
841 397 398 399 
842 415 416 417 
843 399 400 401 
844 401 402 403 
845 432 433 434 
846 27 383 453 
847 65 66 378 
848 424 422 426 
849 67 68 377 
850 387 32 440 
851 25 26 385 
852 27 28 383 
853 68 69 451 
854 16 363 452 
855 423 425 470 
856 392 395 455 
857 26 27 453 
858 395 444 445 
859 413 414 415 
860 417 416 418 
861 445 446 448 
862 411 412 413 
863 403 404 405 
864 445 444 446 
865 73 74 456 
866 72 73 388 
867 383 28 460 
868 415 414 416 
869 28 29 460 
870 388 73 456 
871 448 446 449 
872 10 11 366 
873 413 412 414 
874 54 55 371 
875 50 51 368 
876 52 53 370 
877 11 12 462 
878 397 394 398 
879 409 410 411 
880 14 15 373 
881 51 52 457 
882 53 54 459 
883 13 14 461 
884 12 13 372 
885 436 435 437 
886 446 444 447 
887 448 449 471 
888 411 410 412 
889 434 433 435 
890 383 460 470 
891 403 402 404 
892 401 400 402 
893 432 431 433 
894 399 398 400 
895 366 11 462 
896 368 51 457 
897 54 371 459 
898 52 370 457 
899 370 53 459 
900 405 406 407 
901 49 50 463 
902 407 408 409 
903 16 17 363 
904 39 40 389 
905 12 372 462 
906 372 13 461 
907 14 373 461 
908 428 387 440 
909 457 370 458 
910 22 23 367 
911 409 408 410 
912 459 448 471 
913 405 404 406 
914 42 43 390 
915 373 15 452 
916 50 368 463 
917 48 49 375 
918 44 45 369 
919 46 47 374 
920 43 44 464 
921 20 21 365 
922 18 19 364 
923 45 46 466 
924 47 48 465 
925 19 20 468 
926 21 22 469 
927 17 18 467 
928 407 406 408 
929 454 383 470 
930 375 49 463 
931 370 459 471 
932 363 17 467 
933 390 43 464 
934 22 367 469 
935 374 47 465 
936 44 369 464 
937 369 45 466 
938 46 374 466 
939 48 375 465 
940 20 365 468 
941 364 19 468 
942 365 21 469 
943 18 364 467 
944 458 370 471 
945 40 41 474 
946 9 10 473 
947 71 72 472 
948 38 39 475 
949 447 478 502 
950 481 385 501 
951 23 24 478 
952 449 446 481 
953 454 470 479 
954 458 471 480 
955 453 454 501 
956 25 385 502 
957 457 458 503 
958 447 444 504 
959 72 388 472 
960 10 366 473 
961 389 40 474 
962 39 389 475 
963 388 456 476 
964 37 7 505 
965 7 38 505 
966 70 5 506 
967 5 71 506 
968 74 6 507 
969 6 9 507 
970 41 8 508 
971 8 42 508 
972 478 447 504 
973 454 480 501 
974 385 481 502 
975 458 479 503 
976 367 23 478 
977 471 449 480 
978 470 425 479 
979 446 447 481 
980 390 464 509 
981 485 367 504 
982 425 482 503 
983 493 409 495 
984 373 493 495 
985 443 396 485 
986 396 397 483 
987 425 424 482 
988 424 426 488 
989 397 399 484 
990 396 483 485 
991 482 424 488 
992 426 429 492 
993 488 426 492 
994 483 397 484 
995 399 401 486 
996 484 399 486 
997 401 403 487 
998 429 430 491 
999 486 401 487 
1000 403 405 489 
1001 429 491 492 
1002 430 432 494 
1003 487 403 489 
1004 491 430 494 
1005 405 407 490 
1006 489 405 490 
1007 373 452 493 
1008 432 434 497 
1009 494 432 497 
1010 409 411 495 
1011 411 413 496 
1012 495 411 496 
1013 434 436 500 
1014 497 434 500 
1015 413 415 498 
1016 496 413 498 
1017 415 417 499 
1018 498 415 499 
1019 463 368 482 
1020 365 469 483 
1021 463 482 488 
1022 468 365 484 
1023 469 367 485 
1024 364 468 486 
1025 467 364 487 
1026 375 463 488 
1027 365 483 484 
1028 452 363 490 
1029 483 469 485 
1030 363 467 489 
1031 468 484 486 
1032 364 486 487 
1033 467 487 489 
1034 363 489 490 
1035 375 488 492 
1036 374 465 491 
1037 465 375 492 
1038 491 465 492 
1039 407 409 493 
1040 374 491 494 
1041 466 374 494 
1042 461 373 495 
1043 461 495 496 
1044 372 461 496 
1045 466 494 497 
1046 372 496 498 
1047 369 466 497 
1048 462 372 498 
1049 462 498 499 
1050 366 462 499 
1051 369 497 500 
1052 464 369 500 
1053 452 490 493 
1054 490 407 493 
1055 443 485 504 
1056 482 368 503 
1057 385 453 501 
1058 24 25 502 
1059 368 457 503 
1060 444 443 504 
1061 389 474 477 
1062 436 437 512 
1063 417 418 511 
1064 473 366 510 
1065 472 388 511 
1066 475 389 512 
1067 367 478 504 
1068 479 425 503 
1069 480 449 501 
1070 481 447 502 
1071 477 436 512 
1072 476 417 511 
1073 38 475 505 
1074 474 41 508 
1075 9 473 507 
1076 71 472 506 
1077 438 37 505 
1078 391 70 506 
1079 456 74 507 
1080 42 390 508 
1081 390 474 508 
1082 473 456 507 
1083 472 391 506 
1084 475 438 505 
1085 417 476 510 
1086 436 477 509 
1087 500 436 509 
1088 499 417 510 
1089 388 476 511 
1090 389 477 512 
1091 464 500 509 
1092 366 499 510 
$EndElements
