$MeshFormat
4.1 0 8
$EndMeshFormat
$PhysicalNames
13
1 5 "bottom"
1 6 "right"
1 7 "top"
1 8 "left"
1 9 "bottom_res"
1 10 "right_res"
1 11 "top_res"
1 12 "left_res"
1 13 "Fault"
2 1 "Domain"
2 2 "Reservoir_1"
2 3 "Reservoir_2"
2 4 "Far-Field"
$EndPhysicalNames
$Entities
12 15 4 0
1 0 90 0 0 
2 0 0 0 0 
3 50 90 0 0 
4 50 60 0 0 
5 25 60 0 0 
6 25 40 0 0 
7 50 40 0 0 
8 50 0 0 0 
9 75 40 0 0 
10 75 60 0 0 
11 100 90 0 0 
12 100 0 0 0 
1 -1e-07 -1.000000011686097e-07 -1e-07 1e-07 90.00000009999999 1e-07 1 8 2 1 -2 
2 -1.000000011686097e-07 89.99999990000001 -1e-07 50.0000001 90.00000009999999 1e-07 1 7 2 3 -1 
3 49.9999999 59.9999999 -1e-07 50.0000001 90.00000009999999 1e-07 1 13 2 4 -3 
4 24.9999999 59.9999999 -1e-07 50.0000001 60.0000001 1e-07 1 11 2 4 -5 
5 24.9999999 39.9999999 -1e-07 25.0000001 60.0000001 1e-07 1 12 2 5 -6 
6 24.9999999 39.9999999 -1e-07 50.0000001 40.0000001 1e-07 1 9 2 6 -7 
7 49.9999999 -1.000000011686097e-07 -1e-07 50.0000001 40.0000001 1e-07 1 13 2 8 -7 
8 -1.000000011686097e-07 -1e-07 -1e-07 50.0000001 1e-07 1e-07 1 5 2 2 -8 
9 49.9999999 39.9999999 -1e-07 75.00000009999999 40.0000001 1e-07 1 9 2 7 -9 
10 74.99999990000001 39.9999999 -1e-07 75.00000009999999 60.0000001 1e-07 1 10 2 9 -10 
11 49.9999999 59.9999999 -1e-07 75.00000009999999 60.0000001 1e-07 1 11 2 10 -4 
12 49.9999999 89.99999990000001 -1e-07 100.0000001 90.00000009999999 1e-07 1 7 2 11 -3 
13 99.99999990000001 -1.000000011686097e-07 -1e-07 100.0000001 90.00000009999999 1e-07 1 6 2 12 -11 
14 49.9999999 -1e-07 -1e-07 100.0000001 1e-07 1e-07 1 5 2 8 -12 
15 49.9999999 39.9999999 -1e-07 50.0000001 60.0000001 1e-07 1 13 2 7 -4 
1 -1.000000011686097e-07 -1.000000011686097e-07 -1e-07 50.0000001 90.00000009999999 1e-07 2 1 4 8 1 8 7 -6 -5 -4 3 2 
2 49.9999999 -1.000000011686097e-07 -1e-07 100.0000001 90.00000009999999 1e-07 2 1 4 8 -7 14 13 12 -3 -11 -10 -9 
3 24.9999999 39.9999999 -1e-07 50.0000001 60.0000001 1e-07 2 1 2 4 5 6 15 4 
4 49.9999999 39.9999999 -1e-07 75.00000009999999 60.0000001 1e-07 2 1 3 4 -15 9 10 11 
$EndEntities
$Nodes
31 838 1 838
0 1 0 1
1
0 90 0
0 2 0 1
2
0 0 0
0 3 0 1
3
50 90 0
0 4 0 1
4
50 60 0
0 5 0 1
5
25 60 0
0 6 0 1
6
25 40 0
0 7 0 1
7
50 40 0
0 8 0 1
8
50 0 0
0 9 0 1
9
75 40 0
0 10 0 1
10
75 60 0
0 11 0 1
11
100 90 0
0 12 0 1
12
100 0 0
1 1 0 22
13
14
15
16
17
18
19
20
21
22
23
24
25
26
27
28
29
30
31
32
33
34
0 86.08695652173913 0
0 82.17391304347827 0
0 78.26086956521739 0
0 74.34782608695652 0
0 70.43478260869566 0
0 66.52173913043478 0
0 62.60869565217391 0
0 58.69565217391305 0
0 54.78260869565217 0
0 50.8695652173913 0
0 46.95652173913044 0
0 43.04347826086956 0
0 39.1304347826087 0
0 35.21739130434783 0
0 31.30434782608695 0
0 27.39130434782609 0
0 23.47826086956522 0
0 19.56521739130434 0
0 15.65217391304348 0
0 11.73913043478261 0
0 7.826086956521735 0
0 3.913043478260875 0
1 2 0 12
35
36
37
38
39
40
41
42
43
44
45
46
46.15384615384615 90 0
42.30769230769231 90 0
38.46153846153846 90 0
34.61538461538461 90 0
30.76923076923077 90 0
26.92307692307692 90 0
23.07692307692308 90 0
19.23076923076923 90 0
15.38461538461539 90 0
11.53846153846155 90 0
7.692307692307693 90 0
3.84615384615384 90 0
1 3 0 7
47
48
49
50
51
52
53
50 63.75 0
50 67.5 0
50 71.25 0
50 75 0
50 78.75 0
50 82.5 0
50 86.25 0
1 4 0 6
54
55
56
57
58
59
46.42857142857143 60 0
42.85714285714285 60 0
39.28571428571428 60 0
35.71428571428572 60 0
32.14285714285714 60 0
28.57142857142857 60 0
1 5 0 4
60
61
62
63
25 56 0
25 52 0
25 48 0
25 44 0
1 6 0 6
64
65
66
67
68
69
28.57142857142857 40 0
32.14285714285715 40 0
35.71428571428572 40 0
39.28571428571428 40 0
42.85714285714286 40 0
46.42857142857143 40 0
1 7 0 9
70
71
72
73
74
75
76
77
78
50 4 0
50 8 0
50 12 0
50 16 0
50 20 0
50 24 0
50 28 0
50 32 0
50 36 0
1 8 0 12
79
80
81
82
83
84
85
86
87
88
89
90
3.846153846153846 0 0
7.692307692307693 0 0
11.53846153846154 0 0
15.38461538461539 0 0
19.23076923076923 0 0
23.07692307692308 0 0
26.92307692307692 0 0
30.76923076923077 0 0
34.61538461538461 0 0
38.46153846153846 0 0
42.30769230769231 0 0
46.15384615384615 0 0
1 9 0 6
91
92
93
94
95
96
53.57142857142857 40 0
57.14285714285715 40 0
60.71428571428572 40 0
64.28571428571428 40 0
67.85714285714286 40 0
71.42857142857143 40 0
1 10 0 4
97
98
99
100
75 44 0
75 48 0
75 52 0
75 56 0
1 11 0 6
101
102
103
104
105
106
71.42857142857143 60 0
67.85714285714286 60 0
64.28571428571428 60 0
60.71428571428572 60 0
57.14285714285714 60 0
53.57142857142857 60 0
1 12 0 12
107
108
109
110
111
112
113
114
115
116
117
118
96.15384615384616 90 0
92.30769230769231 90 0
88.46153846153847 90 0
84.61538461538461 90 0
80.76923076923077 90 0
76.92307692307692 90 0
73.07692307692308 90 0
69.23076923076923 90 0
65.38461538461539 90 0
61.53846153846154 90 0
57.69230769230769 90 0
53.84615384615385 90 0
1 13 0 22
119
120
121
122
123
124
125
126
127
128
129
130
131
132
133
134
135
136
137
138
139
140
100 3.91304347826087 0
100 7.826086956521739 0
100 11.73913043478261 0
100 15.65217391304348 0
100 19.56521739130435 0
100 23.47826086956522 0
100 27.39130434782609 0
100 31.30434782608696 0
100 35.21739130434783 0
100 39.1304347826087 0
100 43.04347826086956 0
100 46.95652173913044 0
100 50.8695652173913 0
100 54.78260869565217 0
100 58.69565217391305 0
100 62.60869565217391 0
100 66.52173913043478 0
100 70.43478260869566 0
100 74.34782608695652 0
100 78.26086956521739 0
100 82.17391304347827 0
100 86.08695652173913 0
1 14 0 12
141
142
143
144
145
146
147
148
149
150
151
152
53.84615384615385 0 0
57.69230769230769 0 0
61.53846153846154 0 0
65.38461538461539 0 0
69.23076923076923 0 0
73.07692307692308 0 0
76.92307692307692 0 0
80.76923076923077 0 0
84.61538461538461 0 0
88.46153846153845 0 0
92.30769230769231 0 0
96.15384615384616 0 0
1 15 0 4
153
154
155
156
50 44 0
50 48 0
50 52 0
50 56 0
2 1 0 304
157
158
159
160
161
162
163
164
165
166
167
168
169
170
171
172
173
174
175
176
177
178
179
180
181
182
183
184
185
186
187
188
189
190
191
192
193
194
195
196
197
198
199
200
201
202
203
204
205
206
207
208
209
210
211
212
213
214
215
216
217
218
219
220
221
222
223
224
225
226
227
228
229
230
231
232
233
234
235
236
237
238
239
240
241
242
243
244
245
246
247
248
249
250
251
252
253
254
255
256
257
258
259
260
261
262
263
264
265
266
267
268
269
270
271
272
273
274
275
276
277
278
279
280
281
282
283
284
285
286
287
288
289
290
291
292
293
294
295
296
297
298
299
300
301
302
303
304
305
306
307
308
309
310
311
312
313
314
315
316
317
318
319
320
321
322
323
324
325
326
327
328
329
330
331
332
333
334
335
336
337
338
339
340
341
342
343
344
345
346
347
348
349
350
351
352
353
354
355
356
357
358
359
360
361
362
363
364
365
366
367
368
369
370
371
372
373
374
375
376
377
378
379
380
381
382
383
384
385
386
387
388
389
390
391
392
393
394
395
396
397
398
399
400
401
402
403
404
405
406
407
408
409
410
411
412
413
414
415
416
417
418
419
420
421
422
423
424
425
426
427
428
429
430
431
432
433
434
435
436
437
438
439
440
441
442
443
444
445
446
447
448
449
450
451
452
453
454
455
456
457
458
459
460
26.78439219606367 36.90038015259491 0
21.15384615384616 3.330866937632457 0
3.300001556741201 21.65799467005955 0
46.04168380436125 17.94148925884516 0
17.37777908370558 86.53835511652747 0
33.65279114436125 63.25459481646095 0
23.19109523257607 36.89938551473755 0
24.99184780937207 33.77454605223384 0
3.237872495619762 72.37572986991542 0
28.88986013124839 86.63334556561882 0
32.68394504969747 3.139275468036026 0
46.51040952180172 77.08542894136298 0
21.36991815903263 33.77213124924569 0
23.19171705876058 30.62397618021188 0
26.83256526310751 30.6327742847622 0
25.018892374058 27.44720837709394 0
2.918228949634582 60.81674687073463 0
19.55759673784464 36.92827265436964 0
3.972305259961985 49.28688145548468 0
28.69986972483353 27.4616447848388 0
26.87112881325719 24.24273421001775 0
23.15624282560034 24.2358166565493 0
17.71055935496369 33.79636212478966 0
21.71279106442599 57.93859530120906 0
21.52835515583013 61.72585353601642 0
25.01701509105589 21.0005614895958 0
21.2705216988036 21.00404362923647 0
28.76854331812844 21.01282339496485 0
21.76307114869311 50.38840828578493 0
15.86432007698019 36.97247193473405 0
3.546584509867444 13.43594676215138 0
36.557074722021 86.67086821958063 0
13.46444787539492 3.124781765033276 0
46.53589838486224 26 0
26.90179294265971 17.74113166764652 0
30.68534384809607 17.75704416520975 0
37.5 36.93450487181384 0
3.105122392952751 80.11820539573036 0
46.53171498307909 9.945073703614383 0
46.93048191605346 69.49594554242665 0
3.375659230905825 29.32911542715122 0
18.43897561681988 59.81622079267947 0
18.4220212492249 63.53474639474763 0
21.45502102057775 65.40841914522767 0
18.38221777803749 67.22759776915677 0
21.57509773497051 69.09581029452106 0
18.36786866191862 70.92837848563518 0
21.58247710429818 72.79947723284005 0
32.56051403860432 21.05661547001534 0
24.80693681185415 70.96396930053122 0
3.388795058286931 41.08695652173913 0
15.2091358054095 65.3979774189167 0
24.79039311399664 74.67892787628494 0
28.03008632886164 72.83188641048469 0
18.34293281255562 74.65072272101341 0
34.50648705075102 17.76936341987739 0
28.80229723753406 14.45996691747791 0
25.00704267028246 14.45677622628896 0
19.40963872184007 24.25534809557284 0
17.50715606916359 21.00613470616942 0
15.62972811533533 24.28213353215462 0
15.11741755205469 72.75442976820337 0
15.04196083691339 76.44512678365778 0
14.01932045701945 33.77086816850906 0
13.72103846874611 21.01154148065157 0
15.59850428150596 17.72767914373417 0
36.39057673326325 21.11179079869983 0
17.75783650468446 40.16108066667216 0
14.00746792310829 40.21156392544276 0
28.03206010573722 76.51340670432261 0
31.25876484103843 74.69713793587329 0
24.86326728358937 78.16710808220456 0
26.78717787426788 11.23247921780674 0
9.686316616998013 86.52482136110498 0
40.37541085938052 3.228435711819657 0
41.2393136198769 62.99784483845026 0
31.16980893011245 78.51751094941626 0
34.43060276113877 76.53581106086895 0
34.48782549094901 72.84432359219724 0
30.50791151708366 30.71065797906612 0
11.55759387870347 23.94495593677745 0
37.69825353878509 74.71605133032298 0
15.93996818612871 43.48137896726507 0
12.30287588259966 43.62325348332471 0
14.10439500200695 46.84637668335977 0
23.09986091713496 11.16340309948113 0
11.80133052963609 17.72152742059054 0
13.6943071193621 14.41689320972248 0
37.47227294165265 78.19800692206979 0
30.72240513538818 10.61048777015155 0
37.71162882837755 71.00728175173236 0
28.11864334134142 69.20280297249438 0
11.85691918891601 74.64941926928456 0
11.74636933990987 78.31952489544646 0
46.5770600661017 34.05809432929292 0
44.07465869078011 86.76756576125641 0
3.748619371950987 5.838490010003007 0
38.35666732834415 17.79193104819269 0
18.4255198666707 56.05065281623352 0
15.17821675626552 57.93382193463186 0
18.11295803849417 78.11394311979879 0
36.4581748653097 14.42323761289819 0
12.04950542229377 70.86173925573416 0
34.41853426096399 24.35658751506946 0
38.26611386041689 24.44995315583682 0
36.30248645525732 27.7012608203872 0
14.78286284985856 53.72292748799432 0
11.86783488361205 56.04707718086361 0
11.88609351762059 59.84789024718788 0
40.20766267188473 14.51351465302455 0
38.39236263287573 11.06306607291062 0
40.92435415481187 72.86862632980245 0
10.02260676090725 40.63853590366814 0
40.0837712580124 27.81235428613102 0
10.4671611118988 46.99672235656475 0
8.785223697479417 76.49896230837003 0
9.962983003874577 14.46299615993063 0
11.65902228238157 11.17997981577643 0
15.49724557318007 10.64244295416212 0
41.08152610052936 68.9453145264853 0
34.56998880340638 69.24633156453582 0
26.84781517865116 63.3126253637633 0
21.22273462153598 14.46057324941684 0
17.59658004423625 27.48165146775064 0
24.90129252265415 8.168440804311459 0
37.96532434745987 30.98660232913575 0
8.7079944050667 57.93163877165524 0
8.541148595075541 54.1289253361922 0
8.971627482764134 61.53702243693316 0
7.988339378366867 17.65523546841926 0
7.331433526199405 11.31077215689717 0
9.571146505560613 8.23738084762536 0
8.465491209321158 80.27290855977564 0
41.41073000968646 31.21025996203034 0
11.63379810200997 82.62666558912532 0
5.88094198369307 55.58925479289657 0
19.5489007552877 43.24610879540091 0
12.5137037753472 50.16833638997328 0
21.29468239358345 8.342032982965577 0
42.68072285783575 24.32925726693058 0
42.75480141142164 11.44330817222345 0
40.36638273191512 7.683777808463425 0
36.58124135557439 8.018570262887543 0
16.07361967040234 49.99362470517003 0
41.9642184000241 17.86152303941121 0
34.16981450849275 30.80354542397529 0
46.79129042055248 30.01056556311464 0
31.30499374877219 70.96927027194559 0
31.6110825599859 66.81733113777271 0
37.64795837907302 67.35906216986589 0
8.323354401868123 50.22341199541584 0
25.01760617779103 66.78625072184023 0
3.358873822209233 25.45193048113215 0
6.646480826819612 27.51808546828589 0
6.759929728338186 31.24488924271878 0
9.931692541311747 29.44507915713909 0
10.20054532310938 33.52394117807465 0
6.809984759835011 35.06260056933258 0
7.236181227846856 23.75587640302968 0
40.36401867366848 86.69611844325786 0
42.32233639475648 83.42431134131456 0
46.44391422871794 83.81154970496513 0
44.39573730805792 80.32207079637868 0
38.57145479910555 83.58544269243902 0
34.96441709216294 83.54883688206984 0
32.77517255070192 86.69512659305248 0
31.03168310833658 82.66958405200315 0
26.91535512510337 83.37746977887072 0
25.042665243479 86.61191036685821 0
23.20952194748647 83.47106890056736 0
21.22517394067103 86.62154736400953 0
19.37271283725589 83.50423609953533 0
15.68541290687682 83.35101616461731 0
13.55106393877789 86.50680970522917 0
3.956944795609317 17.5809566801653 0
46.47993173730914 22.13278130172343 0
3.412059125850782 33.20916211299286 0
3.369934304240374 37.15121648203446 0
46.48862564066923 13.79061046716192 0
3.121362562158879 64.58142996952999 0
3.31069265305424 68.45978204739744 0
6.266953152634926 66.64893868789673 0
6.120725915444432 70.55332605908575 0
3.131770596632244 76.3018511164955 0
3.439595144268402 9.72648229961716 0
3.439146816790924 45.05981548373454 0
6.557349120283035 42.84768561204755 0
46.61371039073045 65.84209319115453 0
46.83025467353464 73.09699115779489 0
46.25632821243274 5.944502156972952 0
17.30983204269175 3.117067366901573 0
15.42230503819175 6.357472877757445 0
24.99913979916534 3.238435879040551 0
3.645283816922571 83.92690955238504 0
9.62456241548017 3.209567510500889 0
28.83750197944176 3.107433604612055 0
30.74916551085424 6.342109433062795 0
13.27272292022989 27.58412242119388 0
36.5326822596885 3.174222682483489 0
12.1647575836881 63.52796827614773 0
30.35692250886776 36.90989741235867 0
30.20456322832755 63.21431795527391 0
21.32105757253842 27.44568456393176 0
23.14441111149756 17.75117754537524 0
37.50923852649086 63.63914273293717 0
41.07419305991099 36.95899507259561 0
33.92853470385892 36.96290327710368 0
40.68004640915272 76.37009026940378 0
9.767466284941705 20.74532236687224 0
21.52899509654663 76.41630969216348 0
34.70130580948351 11.12272861768928 0
30.59251042025389 24.2560166539583 0
19.37256125275428 17.74121996836533 0
32.64600232442709 14.35713808388402 0
17.70079829010474 46.57158749578528 0
19.51046768092524 30.63849144870119 0
21.25833141460309 39.97988314923954 0
28.60274940622531 33.79437740330506 0
40.22430328984956 21.16633007822673 0
12.18879607181541 37.06022337266729 0
15.28357195529493 61.68072368071984 0
15.2065679501432 69.06675646457231 0
32.43066421244235 27.53155653162462 0
17.45826511792464 14.36533508161355 0
19.44059604928059 11.21636731485327 0
3.062612846454009 53.26095739669125 0
21.69233239894915 54.0752714938974 0
32.21336972646901 33.87939838924062 0
6.550979334386582 39.06104319729079 0
44.5526412281482 37.09800483749972 0
15.87297389601985 30.71114310627749 0
5.914782886956878 86.84847746766542 0
5.915272720960893 2.887031629430723 0
7.019841759815925 46.42882787661789 0
44.59471789489636 62.93560502348469 0
42.99572098318467 65.82863324102266 0
44.084469314369 2.932690179307933 0
12.22819473477149 67.12384778496056 0
21.4106272516628 80.22438217327046 0
40.53923884880651 80.06574286889588 0
27.94300376690584 80.05638550525975 0
43.97031232801046 71.26301322525745 0
7.697058371315727 83.71252941907204 0
35.80679086741435 33.99535118059744 0
6.362526383955704 8.10232827549271 0
21.76398000410112 46.39504895279433 0
43.68179647863943 28.56812404225989 0
43.73865769642378 74.68882199518521 0
34.25752294606579 79.97547139300238 0
14.8343247840577 79.88868615537123 0
39.34313714563309 34.1246595134708 0
28.40140477268129 65.90135641364652 0
18.50256158462699 52.44859930013622 0
8.98655458953251 72.5553921702051 0
42.92435457506128 34.24938681504036 0
43.6380117514325 8.106392982286074 0
6.561144723319579 14.77995875431887 0
34.99821188266348 66.06329248431452 0
47.47001221171551 80.49380988854136 0
12.65945102753807 31.00703080623884 0
43.47817201787596 20.68627618902742 0
18.146934331358 8.400009148342704 0
5.94807264257183 78.33128088745991 0
6.035036656213371 74.43609040192194 0
9.201335929029945 68.73960725806508 0
28.0091104688851 8.389924063239498 0
9.018515889767848 37.24395912557512 0
6.376575666325493 20.32987893357325 0
43.49139838567219 15.11008911813326 0
23.94456679370023 63.53094410895874 0
33.45977287924279 8.271874528653569 0
9.568269755476067 26.31201947901303 0
40.12278830620548 65.78068541980801 0
47.16870420990404 87.19349346972406 0
12.78933401162624 8.317890360662219 0
2.814783640359018 87.18632861450007 0
47.17597583333563 2.821357636471191 0
2.858155628073504 2.875616192759551 0
11.32120128764907 53.02285823425592 0
6.163552349578445 63.12686104874277 0
19.23213592062125 5.592914865699719 0
9.166070205411174 65.11737424879101 0
23.08854913569528 5.656782437206381 0
2.650911553692254 56.94437583148439 0
26.88551130126108 5.596103090864901 0
47.43139492943834 62.62061027128321 0
5.882209454071528 59.32431662540779 0
47.51165454456427 37.43121983335853 0
6.03779727874273 52.44086264922299 0
17.88320716366947 81.01645274251862 0
38.43413447034689 5.528277664425957 0
34.61832423058129 5.568465615857406 0
25.17290559560911 81.18741217077815 0
36.81625499768901 81.11149601317568 0
11.48430726977141 5.609674597867603 0
42.2808314183139 5.515303070156172 0
22.49455925722569 42.644451264257 0
9.359733848092688 44.15845035646002 0
5.812526562694984 81.33980090764071 0
43.17281795684853 77.70643097424531 0
7.721837371799111 5.398516063320862 0
44.47491126491093 31.89068726536547 0
18.97131388641796 49.3100822162382 0
44.30596549118461 68.35702051841666 0
2 2 0 304
461
462
463
464
465
466
467
468
469
470
471
472
473
474
475
476
477
478
479
480
481
482
483
484
485
486
487
488
489
490
491
492
493
494
495
496
497
498
499
500
501
502
503
504
505
506
507
508
509
510
511
512
513
514
515
516
517
518
519
520
521
522
523
524
525
526
527
528
529
530
531
532
533
534
535
536
537
538
539
540
541
542
543
544
545
546
547
548
549
550
551
552
553
554
555
556
557
558
559
560
561
562
563
564
565
566
567
568
569
570
571
572
573
574
575
576
577
578
579
580
581
582
583
584
585
586
587
588
589
590
591
592
593
594
595
596
597
598
599
600
601
602
603
604
605
606
607
608
609
610
611
612
613
614
615
616
617
618
619
620
621
622
623
624
625
626
627
628
629
630
631
632
633
634
635
636
637
638
639
640
641
642
643
644
645
646
647
648
649
650
651
652
653
654
655
656
657
658
659
660
661
662
663
664
665
666
667
668
669
670
671
672
673
674
675
676
677
678
679
680
681
682
683
684
685
686
687
688
689
690
691
692
693
694
695
696
697
698
699
700
701
702
703
704
705
706
707
708
709
710
711
712
713
714
715
716
717
718
719
720
721
722
723
724
725
726
727
728
729
730
731
732
733
734
735
736
737
738
739
740
741
742
743
744
745
746
747
748
749
750
751
752
753
754
755
756
757
758
759
760
761
762
763
764
73.21560780393631 36.90038015259491 0
78.84615384615384 3.33086693763245 0
96.69653847833001 21.66631159070567 0
53.95831619563874 17.94148925884517 0
82.6848514372364 86.67772627967128 0
66.3594346493158 63.25093040039826 0
76.80890476742391 36.89938551473755 0
75.00815219062792 33.77454605223385 0
96.76501528584183 72.38936131456695 0
71.15796716958059 86.66551735017288 0
67.31749890648851 3.140515238360116 0
53.48767047830416 77.08375520510674 0
78.63008184096736 33.7721312492457 0
76.80828294123941 30.62397618021189 0
73.16743473689249 30.63277428476221 0
74.98017866388582 27.45015066676095 0
97.07997108730615 60.82055376023172 0
80.44240326215534 36.92827265436965 0
96.02577563021924 49.29122948025665 0
71.30013027516645 27.46164478483882 0
73.12886959340932 24.24288387865459 0
76.84577249728122 24.23508183677855 0
82.28944064503632 33.79636212478967 0
78.287208935574 57.93859530120906 0
78.47164484416986 61.72585353601642 0
74.98332053053542 21.00046396440683 0
78.72987012527517 21.00390490507652 0
71.23166105930736 21.01291667096354 0
78.23692885130689 50.38840828578496 0
84.13567992301979 36.97247193473409 0
96.45341549013251 13.43594676215134 0
63.43425837176221 86.66511083405598 0
86.53850597942926 3.126001028593478 0
53.46410161513776 26 0
73.09829705717812 17.74113095944817 0
69.31469119681744 17.757055185186 0
62.5 36.93450487181384 0
96.89418950400436 80.11939658694999 0
53.46860191695365 9.94444810352293 0
53.06953413940138 69.492121429777 0
96.62434076909418 29.32911542715123 0
81.56102438318011 59.81622079267949 0
81.57797875077507 63.53474639474766 0
78.54497897942221 65.40841914522767 0
81.61778222196246 67.2275977691568 0
78.42490226502943 69.09581029452106 0
81.63213133808131 70.92837848563521 0
78.41752289570175 72.79947723284005 0
67.43967457118006 21.05671743810188 0
75.19306318814577 70.9639693005312 0
96.61120494171307 41.08695652173913 0
84.79086419459047 65.39797741891675 0
75.20960688600327 74.67892787628492 0
71.9699136711383 72.83188641048466 0
81.65706718744428 74.65072272101344 0
65.49355022503194 17.76938225122121 0
71.1971596399777 14.45960519319276 0
74.99290338654484 14.45673307956476 0
80.5929328847665 24.25395235876299 0
82.4933378359506 21.00587896267441 0
84.36658089009558 24.28535417390593 0
84.88258244794523 72.75442976820341 0
84.95237666897216 76.4550541696955 0
85.98067954298055 33.77086816850911 0
86.27777091743152 21.01253514476703 0
84.40137960037596 17.72780213050421 0
63.60946091433129 21.11181093193823 0
82.24216349531551 40.16108066667218 0
85.99253207689168 40.2115639254428 0
71.97306672183323 76.52216589507726 0
68.74208963022326 74.69859780099902 0
75.17003444017674 78.19380718983629 0
73.21282581523243 11.23247112598715 0
90.3141370512879 86.56201449054382 0
59.62482392721022 3.228299863290779 0
58.75676030245027 62.99505233777666 0
68.85765270131071 78.5291051068705 0
65.57468740951948 76.53698673600542 0
65.51319861603761 72.84476284890756 0
69.49208848291633 30.71065797906613 0
88.4426653625778 23.95168942028891 0
62.30279884082235 74.71632048563073 0
84.06003181387123 43.4813789672651 0
87.69677356580468 43.62345171947547 0
85.89554657272706 46.84640972271828 0
76.900139082865 11.16340309948117 0
88.19845168170711 17.72171352907139 0
86.30563722950868 14.41694472559759 0
62.52910282168816 78.1995437290785 0
69.27752702290378 10.61088263127931 0
62.28447719429045 71.00600505358904 0
71.91017513078262 69.2022356611288 0
88.14008508585543 74.65474593448207 0
88.24652512941853 78.33199462335674 0
53.43325610130574 34.04618706297565 0
55.92534130921988 86.76756576125641 0
96.25147255409469 5.838448966066359 0
61.64334515888541 17.79193754228975 0
81.5744801333293 56.05065281623355 0
84.82178324373449 57.93382193463191 0
81.86943783240675 78.13482706952496 0
63.5418334285257 14.42324183380503 0
87.94709860122265 70.87549611374754 0
65.58165215465864 24.35669245071433 0
61.73392348345261 24.44997400065071 0
63.69755083799134 27.701281783797 0
85.21713715014143 53.72292748799438 0
88.13216511638797 56.04707718086367 0
88.11390648237943 59.84789024718793 0
59.79234079162607 14.51351643885856 0
61.60763932668193 11.06306707403411 0
59.07564584518809 72.86862632980235 0
89.97639526471437 40.63873773141656 0
59.91430437269527 27.81127895495366 0
89.53167426310816 46.99944579423914 0
91.21080207955019 76.50560072613858 0
90.03697142282768 14.46303576398989 0
88.34165668968782 11.18039629162634 0
84.50508167150156 10.64296780344392 0
58.91093183358122 68.94265109447247 0
65.43751862011544 69.241132808088 0
73.16573872421121 63.31542975567288 0
78.7772607914595 14.46056958047772 0
82.40718957701996 27.48174880638623 0
75.09867596290169 8.167893693132456 0
62.03436113986618 30.9864266011745 0
91.29177360776494 57.9320858904922 0
91.45885140492446 54.12892533619225 0
91.02532540691524 61.54521238093183 0
92.0088696908355 17.6586022425884 0
92.66865695933936 11.31083731116987 0
90.42975621918254 8.237834858327091 0
91.5345087906787 80.27290855977574 0
58.58696003450715 31.20896915295926 0
88.37699011628916 82.69442532366517 0
94.11878736461051 55.58977643153966 0
80.45109924471225 43.24610879540092 0
87.48609238294294 50.16879580281213 0
78.70606580160816 8.341662212054885 0
57.31734744526498 24.32817894098038 0
57.2451662182584 11.4431745909506 0
59.63361726808483 7.683777808463482 0
63.41869862898287 8.01861606378182 0
83.92634910733859 49.99368333043167 0
58.03578425843261 17.86152441939972 0
65.83013928826971 30.8035196298834 0
53.20289255299834 30.02676412538694 0
68.70214727219189 70.98100248339674 0
68.40588650772173 66.81981282381665 0
62.34558135647094 67.35649595613765 0
91.67664559813184 50.22341199541588 0
75.00006464966047 66.78897406926902 0
96.63983658917905 25.4583043998068 0
93.35259131395485 27.52413555329863 0
93.24007027166182 31.24488924271882 0
90.06993858595409 29.44713083860798 0
89.79968769507146 33.52423427542737 0
93.19001524016502 35.06260056933262 0
92.76069014439372 23.76265488021822 0
59.63015693683128 86.69700447300551 0
57.67231296852939 83.42630460694093 0
53.5553213946086 83.81183445719746 0
55.6032640479938 80.32210335666066 0
61.42073535116243 83.58469051160506 0
65.05388626530511 83.54614525913499 0
67.2706551540266 86.60182718423937 0
69.0082101827586 82.68033125085819 0
73.17288932340118 83.45240919409994 0
96.03980761602529 17.58547934120674 0
53.51983853686952 22.1326529295865 0
96.58794087414923 33.20916211299287 0
96.63006569575963 37.15121648203446 0
53.51140823191562 13.79052008842807 0
96.88008000719503 64.59118474127879 0
96.6914804772337 68.4801797830242 0
93.7314974396696 66.68156766545886 0
93.87672394217489 70.5773050839323 0
96.86832076690979 76.3036158955702 0
96.56042036692077 9.726484349815792 0
96.55903209440561 45.06303100033263 0
93.44108457367058 42.85094006119478 0
53.38523559889764 65.83969893013656 0
53.16834249152846 73.09607484583815 0
78.85355683914722 86.67984473491366 0
80.68565943038354 83.55152332534202 0
76.87339851278742 83.62299554234659 0
53.74483811890699 5.944330827736785 0
75.00963530748606 86.7367944702555 0
82.69235240708412 3.11747460684176 0
84.58001063089111 6.35772103907761 0
75.00753975814926 3.23477171215977 0
86.50583119722914 86.54861784681439 0
96.35459027465166 83.92790356407212 0
71.16370656062514 3.106429733116769 0
69.25109300635202 6.341441163971915 0
84.31986495631631 83.42415666022872 0
90.37579285891053 3.209720005598179 0
86.72755836480357 27.58585144196064 0
63.46742361916961 3.1742931381403 0
87.83185513937941 63.53653595877988 0
69.64307749113223 36.90989741235867 0
62.48604811415365 63.63695965776147 0
69.816115468576 63.21739262416531 0
78.66485482867826 27.44120076134108 0
76.85558888850238 17.75117754537531 0
66.07146529614108 36.96290327710368 0
58.92580694008902 36.95899507259561 0
59.31921383782764 76.3703361301118 0
90.2286085579606 20.75166127352898 0
78.4712057267574 76.42837036446717 0
65.29857950055359 11.12285754273963 0
69.40838181610313 24.25652416650249 0
80.62752982153978 17.7411872124339 0
67.35389016896835 14.357170772904 0
82.29918676864105 46.57160277322198 0
80.48781265615358 30.63776037137535 0
78.74166858539688 39.97988314923954 0
71.39725059377469 33.79437740330507 0
59.77569671015041 21.16633007822672 0
87.81107643548499 37.06030586018417 0
84.71642804470507 61.68072368071986 0
84.79286605377615 69.06904927424124 0
67.56946313779464 27.53162886704213 0
82.54210854252932 14.36544556945629 0
80.56046633983628 11.21614344771734 0
96.93702219329347 53.26176900726043 0
78.30766760105084 54.07527149389743 0
67.78662257299138 33.87939409022531 0
93.44871539413428 39.06145465882596 0
55.44907813308638 37.0960202931135 0
84.12702610398017 30.71114310627748 0
78.6584861224074 80.33106167294585 0
94.08487229713731 2.887029273865267 0
94.08459562163554 86.85407860368326 0
92.97872916697817 46.43128301746723 0
87.76685625236401 67.14435034826791 0
55.91625966484128 2.933117292190502 0
55.4032036802983 62.9339353121013 0
56.99909492355878 65.82626724292679 0
72.11012354783475 80.09602488035927 0
59.4585626358445 80.0681002290282 0
56.02713007568543 71.26175025127395 0
92.30295096796456 83.7125310980589 0
64.19316527348433 33.99532667808929 0
93.63777832717821 8.102399192829317 0
78.23601999589886 46.39504895279435 0
56.2601800069031 74.68816567239814 0
56.31620667995271 28.57024972493885 0
85.13170025125613 79.94825047159731 0
65.7459019751991 79.96947142124145 0
60.65670078393556 34.12456894984469 0
81.49743576041899 52.44860428527757 0
71.67991864449299 65.91818276510408 0
91.01020931577669 72.57287289552472 0
57.07723934200611 34.24684128447359 0
56.36227605270734 8.106206890084934 0
93.43841842486388 14.78054142148662 0
65.00689384955551 66.0610663292404 0
52.52925118418131 80.49353860379297 0
87.34097805855797 31.00784556615652 0
56.52139662927125 20.6860351254077 0
81.8550518787923 8.39940800981168 0
94.05192735742807 78.33128088746005 0
90.79329251754292 68.77341687799465 0
93.96383312461357 74.44667280053213 0
71.99074447172826 8.388548603032596 0
90.98148411023213 37.24395912557505 0
93.61366240117056 20.34265479230609 0
56.50860313917429 15.11004495929642 0
76.05861940327057 63.53150816399325 0
66.54007559858528 8.271962058742076 0
90.43173024452389 26.31201947901303 0
52.83129579009596 87.19349346972406 0
52.82633052206056 2.823493724544079 0
59.86624155445079 65.77719752275905 0
87.21335107095342 8.319233310603316 0
97.14184437192651 2.875616192759523 0
97.1878569807614 87.18930569672881 0
88.67878810001699 53.02288215204226 0
93.83251058608725 63.14357429001313 0
90.83022289032641 65.13744292024104 0
80.7694544096006 5.591736723607951 0
76.92358172161082 5.709497613229949 0
73.11360055125137 5.590054400792148 0
97.34876297878918 56.94504103996491 0
52.56807076228256 62.6201014062555 0
94.11618850524555 59.32937396552891 0
52.49075256116414 37.42844147121783 0
75.00550960883659 81.26151150482174 0
93.96183776100473 52.44167425979217 0
82.42974050340288 81.1123098561099 0
61.56588577117372 5.528279882462613 0
63.18223211082525 81.12527199654465 0
65.38179359564352 5.568540814943205 0
88.51653604032161 5.609935016990775 0
57.71915674133285 5.515303119750847 0
77.50544074277428 42.64445126425696 0
90.6381628423336 44.15963977336429 0
94.1873584723931 81.34011224560092 0
56.82577820137464 77.70649211866112 0
92.27858553635369 5.398390478767482 0
55.52521892902577 31.89087535858679 0
81.02868113210576 49.31009026601777 0
55.69241621154314 68.355658701365 0
2 3 0 37
765
766
767
768
769
770
771
772
773
774
775
776
777
778
779
780
781
782
783
784
785
786
787
788
789
790
791
792
793
794
795
796
797
798
799
800
801
37.70800579715298 56.97574021952422 0
33.93683936122201 42.95769852261338 0
41.07142857142857 43.0929478706587 0
28.16396624086744 50.03400392307343 0
46.55511431655548 49.91977634538115 0
30.28936522053034 57.02106412222906 0
44.50397372906241 57.09629997016094 0
46.3882903713194 45.84467590888349 0
43.15889702113202 48.1772942763827 0
43.14704519666981 51.6385292054397 0
40.00377277868395 49.88366751270715 0
39.70144166590396 53.73371851646406 0
36.69921169729905 51.55715664701025 0
37.21189548374868 48.60140656569889 0
33.87146325886296 49.50898904153485 0
33.77994108085896 53.19332491234849 0
28.47018678833641 46.06100114212861 0
37.61256721319285 42.96711086870457 0
41.07142857142857 56.92264373681274 0
46.3606155935743 54.09259623444306 0
28.31442802789424 54.04851679356992 0
44.51007674113956 42.80789138414453 0
33.85757475279352 56.55764319188058 0
39.6610378342603 46.18865221383984 0
30.47021460185418 42.98937859503737 0
32.22196791294898 46.02944317896837 0
31.04517016480585 51.65405545512528 0
35.72825903659631 45.60947252025817 0
42.95690095132781 54.6967575326641 0
36.33174580871101 54.40119977577464 0
27.51824689323492 42.63276722260493 0
27.5291113477228 57.33625262320668 0
47.45863215024163 57.4377792409208 0
47.46538770820608 42.5305134586056 0
42.92836666485435 45.22643710237048 0
31.06067689996625 48.82153244276012 0
31.45729584937658 54.49492089503067 0
2 4 0 37
802
803
804
805
806
807
808
809
810
811
812
813
814
815
816
817
818
819
820
821
822
823
824
825
826
827
828
829
830
831
832
833
834
835
836
837
838
62.29199420284701 43.02425978047578 0
66.06316063877799 57.04230147738662 0
58.92857142857143 56.9070521293413 0
71.83603375913256 49.96599607692657 0
53.44488568344452 50.08022365461885 0
69.71063477946967 42.97893587777094 0
55.49602627093758 42.90370002983906 0
53.6117096286806 54.15532409111651 0
56.84110297886798 51.8227057236173 0
56.85295480333019 48.3614707945603 0
59.99622722131605 50.11633248729286 0
60.29855833409604 46.26628148353594 0
63.30078830270095 48.44284335298975 0
62.78810451625132 51.39859343430111 0
66.12853674113703 50.49101095846515 0
66.22005891914104 46.80667508765151 0
71.52981321166359 53.93899885787139 0
62.38743278680715 57.03288913129543 0
58.92857142857143 43.07735626318726 0
53.6393844064257 45.90740376555694 0
71.68557197210576 45.95148320643008 0
55.48992325886044 57.19210861585547 0
66.14242524720648 43.44235680811942 0
60.3389621657397 53.81134778616016 0
69.52978539814582 57.01062140496263 0
67.77803208705102 53.97055682103163 0
68.95482983519415 48.34594454487472 0
64.27174096340369 54.39052747974183 0
57.04309904867219 45.3032424673359 0
63.66825419128898 45.59880022422536 0
72.48175310676507 57.36723277739507 0
72.4708886522772 42.66374737679332 0
52.54136784975837 42.5622207590792 0
52.53461229179392 57.4694865413944 0
57.07163333514565 54.77356289762952 0
68.93932310003373 51.17846755723988 0
68.54270415062342 45.50507910496933 0
$EndNodes
$Elements
19 1735 1 1735
1 1 1 23
1 1 13 
2 13 14 
3 14 15 
4 15 16 
5 16 17 
6 17 18 
7 18 19 
8 19 20 
9 20 21 
10 21 22 
11 22 23 
12 23 24 
13 24 25 
14 25 26 
15 26 27 
16 27 28 
17 28 29 
18 29 30 
19 30 31 
20 31 32 
21 32 33 
22 33 34 
23 34 2 
1 2 1 13
24 3 35 
25 35 36 
26 36 37 
27 37 38 
28 38 39 
29 39 40 
30 40 41 
31 41 42 
32 42 43 
33 43 44 
34 44 45 
35 45 46 
36 46 1 
1 3 1 8
37 4 47 
38 47 48 
39 48 49 
40 49 50 
41 50 51 
42 51 52 
43 52 53 
44 53 3 
1 4 1 7
45 4 54 
46 54 55 
47 55 56 
48 56 57 
49 57 58 
50 58 59 
51 59 5 
1 5 1 5
52 5 60 
53 60 61 
54 61 62 
55 62 63 
56 63 6 
1 6 1 7
57 6 64 
58 64 65 
59 65 66 
60 66 67 
61 67 68 
62 68 69 
63 69 7 
1 7 1 10
64 8 70 
65 70 71 
66 71 72 
67 72 73 
68 73 74 
69 74 75 
70 75 76 
71 76 77 
72 77 78 
73 78 7 
1 8 1 13
74 2 79 
75 79 80 
76 80 81 
77 81 82 
78 82 83 
79 83 84 
80 84 85 
81 85 86 
82 86 87 
83 87 88 
84 88 89 
85 89 90 
86 90 8 
1 9 1 7
87 7 91 
88 91 92 
89 92 93 
90 93 94 
91 94 95 
92 95 96 
93 96 9 
1 10 1 5
94 9 97 
95 97 98 
96 98 99 
97 99 100 
98 100 10 
1 11 1 7
99 10 101 
100 101 102 
101 102 103 
102 103 104 
103 104 105 
104 105 106 
105 106 4 
1 12 1 13
106 11 107 
107 107 108 
108 108 109 
109 109 110 
110 110 111 
111 111 112 
112 112 113 
113 113 114 
114 114 115 
115 115 116 
116 116 117 
117 117 118 
118 118 3 
1 13 1 23
119 12 119 
120 119 120 
121 120 121 
122 121 122 
123 122 123 
124 123 124 
125 124 125 
126 125 126 
127 126 127 
128 127 128 
129 128 129 
130 129 130 
131 130 131 
132 131 132 
133 132 133 
134 133 134 
135 134 135 
136 135 136 
137 136 137 
138 137 138 
139 138 139 
140 139 140 
141 140 11 
1 14 1 13
142 8 141 
143 141 142 
144 142 143 
145 143 144 
146 144 145 
147 145 146 
148 146 147 
149 147 148 
150 148 149 
151 149 150 
152 150 151 
153 151 152 
154 152 12 
1 15 1 5
155 7 153 
156 153 154 
157 154 155 
158 155 156 
159 156 4 
2 1 2 692
160 187 341 287 
161 305 358 162 
162 233 405 323 
163 296 332 190 
164 291 330 230 
165 162 414 305 
166 287 413 187 
167 315 365 237 
168 237 428 315 
169 195 335 297 
170 323 397 233 
171 53 318 52 
172 230 399 291 
173 294 300 263 
174 307 445 175 
175 175 390 307 
176 335 425 297 
177 296 417 332 
178 263 435 294 
179 53 430 318 
180 278 408 308 
181 323 405 321 
182 308 426 278 
183 440 443 173 
184 292 443 440 
185 436 438 338 
186 285 438 436 
187 329 330 291 
188 410 421 259 
189 331 413 286 
190 220 376 313 
191 341 401 287 
192 306 414 361 
193 343 385 269 
194 339 421 410 
195 376 423 313 
196 190 403 296 
197 302 379 262 
198 236 379 302 
199 286 424 331 
200 161 329 328 
201 305 408 358 
202 161 328 327 
203 353 427 246 
204 42 327 41 
205 44 330 43 
206 246 422 353 
207 312 428 354 
208 161 327 42 
209 324 397 323 
210 361 429 306 
211 25 334 207 
212 275 431 348 
213 291 399 289 
214 41 327 325 
215 5 181 180 
216 269 454 343 
217 26 334 25 
218 5 180 60 
219 180 383 60 
220 255 383 180 
221 41 325 40 
222 265 377 356 
223 230 330 44 
224 251 303 77 
225 314 385 334 
226 43 330 161 
227 348 418 275 
228 301 425 160 
229 248 305 304 
230 166 323 322 
231 248 304 210 
232 166 324 323 
233 166 322 39 
234 354 428 237 
235 356 377 208 
236 262 379 260 
237 282 302 262 
238 337 339 165 
239 78 251 77 
240 258 370 367 
241 333 334 26 
242 187 413 331 
243 40 325 166 
244 210 304 227 
245 311 333 197 
246 309 310 197 
247 215 359 280 
248 17 337 165 
249 314 333 311 
250 28 309 197 
251 39 322 38 
252 76 303 190 
253 350 399 388 
254 161 330 329 
255 188 320 316 
256 200 308 202 
257 309 315 310 
258 270 282 262 
259 367 370 246 
260 181 199 198 
261 316 320 317 
262 247 306 276 
263 190 332 75 
264 160 417 301 
265 181 200 199 
266 310 312 311 
267 188 316 37 
268 187 331 31 
269 77 303 76 
270 312 313 311 
271 235 277 247 
272 310 311 197 
273 277 306 247 
274 336 338 337 
275 261 262 260 
276 159 315 309 
277 72 335 195 
278 165 340 16 
279 202 308 206 
280 316 317 252 
281 317 318 252 
282 206 308 248 
283 253 341 33 
284 196 344 48 
285 159 309 29 
286 206 248 210 
287 304 305 277 
288 302 384 236 
289 338 339 337 
290 20 173 19 
291 173 336 19 
292 235 247 238 
293 188 321 320 
294 227 304 235 
295 49 345 196 
296 317 319 318 
297 195 346 71 
298 25 207 24 
299 30 331 159 
300 36 316 252 
301 28 197 27 
302 207 343 342 
303 30 159 29 
304 76 190 75 
305 336 337 18 
306 36 252 35 
307 314 334 333 
308 227 235 234 
309 84 349 158 
310 74 332 160 
311 18 337 17 
312 197 333 27 
313 267 299 298 
314 247 276 268 
315 49 196 48 
316 48 344 47 
317 38 322 188 
318 43 161 42 
319 40 166 39 
320 160 335 73 
321 32 341 187 
322 214 360 279 
323 15 340 194 
324 223 260 205 
325 347 348 189 
326 17 165 16 
327 166 325 324 
328 72 195 71 
329 207 342 24 
330 29 309 28 
331 38 188 37 
332 260 368 205 
333 71 346 70 
334 194 350 14 
335 235 304 277 
336 32 187 31 
337 84 158 83 
338 75 332 74 
339 215 280 217 
340 82 347 189 
341 34 253 33 
342 74 160 73 
343 15 194 14 
344 322 323 321 
345 23 342 175 
346 158 347 83 
347 37 316 36 
348 31 331 30 
349 235 238 234 
350 27 333 26 
351 19 336 18 
352 256 377 265 
353 73 335 72 
354 16 340 15 
355 236 374 171 
356 325 326 324 
357 85 349 84 
358 33 341 32 
359 290 407 282 
360 258 367 267 
361 14 350 13 
362 61 185 62 
363 50 345 49 
364 256 265 264 
365 327 328 326 
366 313 423 314 
367 274 275 244 
368 202 206 204 
369 191 214 213 
370 214 279 242 
371 206 210 209 
372 313 314 311 
373 83 347 82 
374 270 290 282 
375 82 189 81 
376 168 345 50 
377 85 352 349 
378 247 268 238 
379 261 270 262 
380 24 342 23 
381 167 353 352 
382 188 322 321 
383 267 298 297 
384 189 351 81 
385 81 351 80 
386 214 242 229 
387 265 285 283 
388 359 372 280 
389 86 352 85 
390 280 354 217 
391 45 230 44 
392 241 300 294 
393 242 295 281 
394 258 267 266 
395 250 291 289 
396 51 168 50 
397 210 227 226 
398 223 261 260 
399 240 269 225 
400 325 327 326 
401 23 175 22 
402 241 294 271 
403 242 281 229 
404 167 352 86 
405 214 229 213 
406 227 234 233 
407 265 283 264 
408 176 236 171 
409 287 288 274 
410 206 209 204 
411 87 167 86 
412 273 274 244 
413 6 157 64 
414 178 215 183 
415 243 244 222 
416 265 356 285 
417 294 307 271 
418 186 376 220 
419 181 198 180 
420 210 226 209 
421 191 360 214 
422 221 222 216 
423 57 162 58 
424 88 355 87 
425 256 264 263 
426 241 271 240 
427 249 259 218 
428 212 258 254 
429 360 369 279 
430 238 245 234 
431 239 371 241 
432 58 358 59 
433 243 286 273 
434 273 287 274 
435 64 357 65 
436 215 217 216 
437 211 257 219 
438 198 256 255 
439 243 273 244 
440 227 233 226 
441 59 278 5 
442 221 243 222 
443 267 297 266 
444 229 246 213 
445 89 231 88 
446 56 361 57 
447 202 204 203 
448 217 237 221 
449 200 202 201 
450 226 228 209 
451 215 216 183 
452 65 363 66 
453 217 354 237 
454 178 359 215 
455 191 213 192 
456 200 201 199 
457 283 292 284 
458 267 367 299 
459 204 211 203 
460 225 376 186 
461 258 266 254 
462 178 183 182 
463 170 171 164 
464 55 232 56 
465 66 193 67 
466 256 263 255 
467 361 414 162 
468 87 355 167 
469 282 400 302 
470 183 360 182 
471 182 360 191 
472 169 170 164 
473 172 178 177 
474 268 364 238 
475 250 289 272 
476 217 221 216 
477 211 218 203 
478 211 366 257 
479 283 284 264 
480 175 445 382 
481 60 383 61 
482 170 359 172 
483 239 241 240 
484 213 370 192 
485 202 203 201 
486 178 182 177 
487 182 184 177 
488 157 357 64 
489 192 205 184 
490 275 380 244 
491 266 301 254 
492 219 250 249 
493 238 364 245 
494 250 272 249 
495 212 223 205 
496 182 191 184 
497 6 163 157 
498 162 358 58 
499 209 366 204 
500 163 164 157 
501 243 365 286 
502 211 219 218 
503 246 370 213 
504 241 371 300 
505 170 172 171 
506 204 366 211 
507 172 177 176 
508 163 174 169 
509 237 365 221 
510 231 355 88 
511 57 361 162 
512 221 365 243 
513 163 169 164 
514 59 358 278 
515 219 249 218 
516 228 366 209 
517 22 382 21 
518 222 369 216 
519 212 254 223 
520 212 370 258 
521 301 375 254 
522 369 380 279 
523 192 212 205 
524 172 176 171 
525 174 186 179 
526 191 192 184 
527 222 380 369 
528 357 363 65 
529 203 378 201 
530 67 362 68 
531 201 208 199 
532 186 220 179 
533 174 179 169 
534 242 381 295 
535 172 359 178 
536 183 369 360 
537 216 369 183 
538 192 370 212 
539 177 368 176 
540 232 361 56 
541 259 378 218 
542 176 379 236 
543 66 363 193 
544 261 296 270 
545 269 376 225 
546 260 379 368 
547 239 240 225 
548 201 378 208 
549 160 425 335 
550 184 368 177 
551 174 224 186 
552 169 372 170 
553 170 372 359 
554 207 385 343 
555 334 385 207 
556 171 374 164 
557 224 373 293 
558 254 375 223 
559 205 368 184 
560 198 255 180 
561 164 374 157 
562 6 373 163 
563 223 375 261 
564 275 381 380 
565 391 392 232 
566 293 371 239 
567 218 378 203 
568 193 362 67 
569 179 372 169 
570 157 374 357 
571 280 387 354 
572 224 225 186 
573 244 380 222 
574 368 379 176 
575 343 390 342 
576 208 377 199 
577 344 392 391 
578 279 381 242 
579 224 239 225 
580 224 293 239 
581 198 377 256 
582 261 375 296 
583 236 384 374 
584 199 377 198 
585 163 373 174 
586 320 396 317 
587 308 408 248 
588 175 382 22 
589 46 388 45 
590 80 389 79 
591 290 411 407 
592 380 381 279 
593 61 383 185 
594 174 373 224 
595 90 393 89 
596 357 384 363 
597 168 415 319 
598 374 384 357 
599 389 457 253 
600 339 420 165 
601 5 426 181 
602 307 435 284 
603 179 387 372 
604 372 387 280 
605 55 391 232 
606 68 386 69 
607 62 402 63 
608 332 417 160 
609 291 406 329 
610 253 457 401 
611 282 407 400 
612 297 412 195 
613 350 455 399 
614 294 435 307 
615 362 386 68 
616 208 394 356 
617 328 446 395 
618 226 397 228 
619 228 395 366 
620 307 390 271 
621 383 409 185 
622 328 395 326 
623 250 406 291 
624 305 414 277 
625 395 446 257 
626 220 387 179 
627 245 405 234 
628 342 390 175 
629 45 388 230 
630 351 389 80 
631 54 391 55 
632 378 394 208 
633 300 409 263 
634 345 398 196 
635 35 430 3 
636 364 396 245 
637 3 430 53 
638 89 393 231 
639 257 406 219 
640 402 459 371 
641 246 427 367 
642 382 440 21 
643 168 404 345 
644 249 410 259 
645 331 424 159 
646 293 402 371 
647 13 432 1 
648 70 433 8 
649 315 428 310 
650 278 426 5 
651 1 432 46 
652 296 403 270 
653 2 434 34 
654 318 430 252 
655 79 434 2 
656 8 433 90 
657 259 394 378 
658 366 395 257 
659 200 426 308 
660 354 416 312 
661 353 441 352 
662 292 440 382 
663 345 404 398 
664 273 413 287 
665 336 436 338 
666 346 452 393 
667 20 440 173 
668 384 400 363 
669 320 450 396 
670 232 429 361 
671 347 437 348 
672 302 400 384 
673 274 431 275 
674 348 451 189 
675 317 396 319 
676 229 422 246 
677 287 401 288 
678 240 454 269 
679 264 435 263 
680 315 424 365 
681 297 425 266 
682 313 416 220 
683 233 397 226 
684 7 444 78 
685 318 415 52 
686 364 456 396 
687 319 456 168 
688 253 401 341 
689 47 442 4 
690 276 398 268 
691 412 452 346 
692 185 459 402 
693 358 408 278 
694 167 448 353 
695 410 420 339 
696 248 408 305 
697 343 454 390 
698 4 442 54 
699 185 402 62 
700 344 460 392 
701 303 403 190 
702 375 417 296 
703 314 423 385 
704 263 409 255 
705 51 415 168 
706 363 400 193 
707 398 404 268 
708 63 453 6 
709 268 404 364 
710 403 458 290 
711 270 403 290 
712 234 405 233 
713 396 450 245 
714 292 445 284 
715 356 438 285 
716 69 444 7 
717 303 458 403 
718 228 449 395 
719 396 456 319 
720 196 460 344 
721 219 406 250 
722 382 445 292 
723 387 416 354 
724 400 407 193 
725 275 418 381 
726 365 424 286 
727 255 409 383 
728 272 410 249 
729 283 443 292 
730 388 399 230 
731 402 453 63 
732 193 407 362 
733 306 429 276 
734 390 454 271 
735 312 416 313 
736 419 420 272 
737 195 412 346 
738 395 449 326 
739 386 411 251 
740 52 415 51 
741 298 412 297 
742 6 453 373 
743 431 451 348 
744 407 411 362 
745 276 429 392 
746 340 420 419 
747 286 413 273 
748 277 414 306 
749 422 441 353 
750 348 437 418 
751 78 444 251 
752 194 455 350 
753 362 411 386 
754 259 421 394 
755 319 415 318 
756 340 419 194 
757 165 420 340 
758 409 459 185 
759 338 421 339 
760 392 460 276 
761 353 448 427 
762 301 417 375 
763 381 418 295 
764 251 458 303 
765 289 419 272 
766 159 424 315 
767 281 422 229 
768 344 442 47 
769 293 453 402 
770 181 426 200 
771 269 423 376 
772 437 439 295 
773 266 425 301 
774 346 433 70 
775 158 439 437 
776 329 446 328 
777 310 428 312 
778 252 430 35 
779 321 450 320 
780 389 434 79 
781 385 423 269 
782 285 443 283 
783 173 436 336 
784 350 432 13 
785 34 434 253 
786 46 432 388 
787 397 449 228 
788 349 439 158 
789 288 431 274 
790 367 427 299 
791 158 437 347 
792 168 456 404 
793 220 416 387 
794 284 445 307 
795 352 441 349 
796 284 435 264 
797 392 429 232 
798 21 440 20 
799 295 439 281 
800 90 433 393 
801 288 457 451 
802 251 444 386 
803 326 449 324 
804 299 447 298 
805 257 446 406 
806 439 441 281 
807 349 441 439 
808 245 450 405 
809 189 451 351 
810 355 448 167 
811 447 448 355 
812 276 460 398 
813 271 454 240 
814 231 447 355 
815 231 452 447 
816 299 448 447 
817 373 453 293 
818 447 452 298 
819 451 457 351 
820 272 420 410 
821 394 438 356 
822 371 459 300 
823 253 434 389 
824 388 432 350 
825 391 442 344 
826 393 433 346 
827 386 444 69 
828 54 442 391 
829 324 449 397 
830 393 452 231 
831 401 457 288 
832 351 457 389 
833 411 458 251 
834 405 450 321 
835 300 459 409 
836 399 455 289 
837 421 438 394 
838 406 446 329 
839 404 456 364 
840 398 460 196 
841 418 437 295 
842 289 455 419 
843 419 455 194 
844 298 452 412 
845 436 443 285 
846 338 438 421 
847 281 441 422 
848 288 451 431 
849 290 458 411 
850 173 443 436 
851 427 448 299 
2 2 2 692
852 591 639 491 
853 466 663 609 
854 627 710 537 
855 534 652 595 
856 609 718 466 
857 494 630 600 
858 491 717 591 
859 541 669 619 
860 619 732 541 
861 601 633 499 
862 537 700 627 
863 52 622 53 
864 595 703 534 
865 567 604 598 
866 479 750 611 
867 611 695 479 
868 601 729 633 
869 625 710 627 
870 630 721 600 
871 598 739 567 
872 622 733 53 
873 652 656 595 
874 612 713 582 
875 582 730 612 
876 477 747 745 
877 636 741 740 
878 745 747 596 
879 740 741 589 
880 590 717 629 
881 563 724 714 
882 617 680 524 
883 591 705 639 
884 573 689 641 
885 662 718 610 
886 617 727 680 
887 600 708 494 
888 629 728 590 
889 566 683 606 
890 606 683 540 
891 714 724 637 
892 550 731 655 
893 663 713 609 
894 655 726 550 
895 658 732 616 
896 610 735 662 
897 511 632 128 
898 650 736 579 
899 593 703 595 
900 484 485 10 
901 128 632 127 
902 641 758 573 
903 100 484 10 
904 627 700 628 
905 100 687 484 
906 484 687 559 
907 660 681 569 
908 632 689 618 
909 579 722 650 
910 464 729 605 
911 625 627 626 
912 114 626 470 
913 514 608 552 
914 494 607 76 
915 581 609 608 
916 608 609 552 
917 115 626 114 
918 646 648 628 
919 512 681 660 
920 564 683 566 
921 541 732 658 
922 566 606 586 
923 77 555 78 
924 626 627 470 
925 671 674 562 
926 127 632 631 
927 77 607 555 
928 629 717 491 
929 531 608 514 
930 501 631 615 
931 501 614 613 
932 551 610 581 
933 635 637 636 
934 615 631 618 
935 469 637 635 
936 501 613 125 
937 506 612 504 
938 566 586 574 
939 550 674 671 
940 502 503 485 
941 694 703 653 
942 134 634 477 
943 628 648 470 
944 470 648 113 
945 75 630 494 
946 584 664 519 
947 605 721 464 
948 48 642 500 
949 503 504 485 
950 615 616 614 
951 116 620 492 
952 620 624 492 
953 122 629 491 
954 580 610 551 
955 615 617 616 
956 551 581 539 
957 469 635 136 
958 613 619 463 
959 501 615 614 
960 640 641 511 
961 635 636 634 
962 71 647 499 
963 111 644 465 
964 564 566 565 
965 644 645 465 
966 492 626 115 
967 627 628 470 
968 499 633 72 
969 129 640 511 
970 137 638 469 
971 510 612 506 
972 556 621 620 
973 556 622 621 
974 644 648 646 
975 552 612 510 
976 120 639 557 
977 624 625 492 
978 124 613 463 
979 514 552 510 
980 540 688 606 
981 614 619 613 
982 134 477 133 
983 542 551 539 
984 47 642 48 
985 539 608 531 
986 622 623 621 
987 129 511 128 
988 463 629 123 
989 556 620 117 
990 126 501 125 
991 124 463 123 
992 75 494 76 
993 139 653 498 
994 135 635 634 
995 118 556 117 
996 631 632 618 
997 538 539 531 
998 76 607 77 
999 148 649 462 
1000 464 630 74 
1001 70 647 71 
1002 644 646 645 
1003 126 631 501 
1004 135 634 134 
1005 602 603 571 
1006 572 580 551 
1007 48 500 49 
1008 621 624 620 
1009 114 470 113 
1010 111 465 110 
1011 112 644 111 
1012 73 633 464 
1013 491 639 121 
1014 583 665 518 
1015 498 638 138 
1016 509 672 564 
1017 509 564 527 
1018 137 469 136 
1019 71 499 72 
1020 465 656 652 
1021 125 613 124 
1022 116 492 115 
1023 581 608 539 
1024 122 491 121 
1025 148 462 147 
1026 74 630 75 
1027 521 584 519 
1028 120 557 119 
1029 73 464 74 
1030 140 653 139 
1031 462 651 147 
1032 139 498 138 
1033 465 652 110 
1034 646 692 645 
1035 500 643 49 
1036 112 648 644 
1037 117 620 116 
1038 136 635 135 
1039 123 629 122 
1040 538 542 539 
1041 127 631 126 
1042 569 681 560 
1043 72 633 73 
1044 138 638 137 
1045 130 640 129 
1046 475 678 540 
1047 121 639 120 
1048 645 656 465 
1049 586 711 594 
1050 109 652 534 
1051 571 671 562 
1052 521 658 584 
1053 493 650 649 
1054 654 655 471 
1055 493 649 149 
1056 50 643 472 
1057 98 489 99 
1058 149 649 148 
1059 568 569 560 
1060 113 648 112 
1061 618 727 617 
1062 147 651 146 
1063 548 579 578 
1064 508 510 506 
1065 517 518 495 
1066 546 583 518 
1067 513 514 510 
1068 615 618 617 
1069 586 594 574 
1070 479 640 130 
1071 150 493 149 
1072 146 654 145 
1073 651 654 146 
1074 542 572 551 
1075 566 574 565 
1076 110 652 109 
1077 625 626 492 
1078 49 643 50 
1079 145 654 471 
1080 150 657 493 
1081 601 602 571 
1082 151 657 150 
1083 533 546 518 
1084 587 589 569 
1085 109 534 108 
1086 598 604 545 
1087 585 599 546 
1088 570 571 562 
1089 593 595 554 
1090 50 472 51 
1091 530 531 514 
1092 564 565 527 
1093 529 573 544 
1094 131 479 130 
1095 575 598 545 
1096 533 585 546 
1097 517 533 518 
1098 537 538 531 
1099 568 587 569 
1100 475 540 480 
1101 578 592 591 
1102 508 513 510 
1103 145 471 144 
1104 584 676 664 
1105 548 578 577 
1106 96 461 9 
1107 487 519 482 
1108 526 548 547 
1109 589 660 569 
1110 575 611 598 
1111 524 680 490 
1112 484 502 485 
1113 513 530 514 
1114 476 664 474 
1115 518 665 495 
1116 520 526 525 
1117 102 466 103 
1118 144 659 143 
1119 567 568 560 
1120 544 575 545 
1121 522 563 553 
1122 558 562 516 
1123 583 673 665 
1124 541 658 521 
1125 538 549 542 
1126 545 675 543 
1127 101 663 102 
1128 577 590 547 
1129 578 591 577 
1130 95 661 96 
1131 520 521 519 
1132 523 561 515 
1133 559 560 502 
1134 548 577 547 
1135 530 537 531 
1136 10 582 101 
1137 526 547 525 
1138 570 601 571 
1139 517 550 533 
1140 143 535 142 
1141 103 662 104 
1142 507 508 506 
1143 525 541 521 
1144 505 506 504 
1145 513 532 530 
1146 487 520 519 
1147 94 666 95 
1148 496 517 495 
1149 503 505 504 
1150 588 596 587 
1151 603 671 571 
1152 507 515 508 
1153 490 680 529 
1154 558 570 562 
1155 486 487 482 
1156 468 475 474 
1157 104 536 105 
1158 93 497 94 
1159 559 567 560 
1160 471 659 144 
1161 606 704 586 
1162 486 665 487 
1163 495 665 486 
1164 468 474 473 
1165 481 482 476 
1166 542 668 572 
1167 576 593 554 
1168 520 525 521 
1169 507 522 515 
1170 561 670 515 
1171 568 588 587 
1172 686 750 479 
1173 99 687 100 
1174 544 545 543 
1175 496 674 517 
1176 505 507 506 
1177 481 486 482 
1178 481 488 486 
1179 519 664 482 
1180 96 661 461 
1181 488 509 496 
1182 548 684 579 
1183 558 605 570 
1184 553 554 523 
1185 549 668 542 
1186 553 576 554 
1187 509 527 516 
1188 488 495 486 
1189 461 467 9 
1190 102 663 466 
1191 508 670 513 
1192 461 468 467 
1193 590 669 547 
1194 522 523 515 
1195 517 674 550 
1196 604 675 545 
1197 475 476 474 
1198 515 670 508 
1199 480 481 476 
1200 473 478 467 
1201 466 718 662 
1202 525 669 541 
1203 143 659 535 
1204 466 662 103 
1205 547 669 525 
1206 482 664 476 
1207 468 473 467 
1208 582 663 101 
1209 522 553 523 
1210 513 670 532 
1211 132 686 131 
1212 520 673 526 
1213 527 558 516 
1214 562 674 516 
1215 558 679 605 
1216 583 684 673 
1217 509 516 496 
1218 475 480 476 
1219 483 490 478 
1220 488 496 495 
1221 673 684 526 
1222 95 666 661 
1223 505 682 507 
1224 92 667 93 
1225 503 512 505 
1226 483 524 490 
1227 473 483 478 
1228 599 685 546 
1229 665 673 487 
1230 487 673 520 
1231 516 674 496 
1232 104 662 536 
1233 480 672 481 
1234 522 682 563 
1235 540 683 480 
1236 497 666 94 
1237 574 600 565 
1238 664 676 474 
1239 672 683 564 
1240 692 751 645 
1241 529 680 573 
1242 529 544 543 
1243 512 682 505 
1244 633 729 464 
1245 641 689 511 
1246 581 718 609 
1247 481 672 488 
1248 490 528 478 
1249 474 676 473 
1250 511 689 632 
1251 468 678 475 
1252 597 677 528 
1253 488 672 509 
1254 527 679 558 
1255 484 559 502 
1256 658 691 584 
1257 461 678 468 
1258 467 677 9 
1259 565 679 527 
1260 536 699 698 
1261 684 685 579 
1262 543 675 597 
1263 507 682 522 
1264 93 667 497 
1265 473 676 483 
1266 640 695 641 
1267 661 678 461 
1268 490 529 528 
1269 526 684 548 
1270 480 683 672 
1271 503 681 512 
1272 546 685 583 
1273 529 543 528 
1274 543 597 528 
1275 560 681 502 
1276 600 679 565 
1277 678 688 540 
1278 502 681 503 
1279 478 677 467 
1280 698 699 642 
1281 131 686 479 
1282 152 693 151 
1283 711 715 594 
1284 108 694 107 
1285 583 685 684 
1286 489 687 99 
1287 528 677 478 
1288 142 697 141 
1289 666 688 661 
1290 621 701 624 
1291 623 719 472 
1292 661 688 678 
1293 557 761 693 
1294 485 730 10 
1295 588 739 611 
1296 676 691 483 
1297 584 691 676 
1298 91 690 92 
1299 536 698 105 
1300 97 706 98 
1301 464 721 630 
1302 532 700 530 
1303 705 761 557 
1304 704 711 586 
1305 499 716 601 
1306 611 739 598 
1307 92 690 667 
1308 703 759 653 
1309 670 692 532 
1310 660 696 512 
1311 552 713 612 
1312 595 709 554 
1313 656 709 595 
1314 489 712 687 
1315 483 691 524 
1316 523 709 561 
1317 575 695 611 
1318 538 710 549 
1319 469 725 637 
1320 151 693 657 
1321 512 696 682 
1322 567 712 604 
1323 534 694 108 
1324 463 728 629 
1325 105 698 106 
1326 3 733 118 
1327 549 701 668 
1328 561 751 692 
1329 53 733 3 
1330 561 692 670 
1331 479 695 640 
1332 675 763 706 
1333 500 702 643 
1334 643 707 472 
1335 671 731 550 
1336 535 697 142 
1337 132 745 686 
1338 8 734 70 
1339 574 708 600 
1340 563 714 553 
1341 675 706 597 
1342 636 740 634 
1343 10 730 582 
1344 141 734 8 
1345 119 737 12 
1346 556 733 622 
1347 11 738 140 
1348 12 737 152 
1349 682 696 563 
1350 107 738 11 
1351 612 730 504 
1352 702 707 643 
1353 686 745 596 
1354 591 717 577 
1355 654 744 655 
1356 477 745 133 
1357 701 753 624 
1358 666 704 688 
1359 697 756 647 
1360 616 720 658 
1361 614 732 619 
1362 662 735 536 
1363 650 742 649 
1364 530 700 537 
1365 688 704 606 
1366 579 736 578 
1367 623 701 621 
1368 550 726 533 
1369 493 755 650 
1370 592 705 591 
1371 494 708 607 
1372 669 728 619 
1373 573 758 544 
1374 567 739 568 
1375 570 729 601 
1376 582 713 663 
1377 524 720 617 
1378 78 748 7 
1379 52 719 622 
1380 701 760 668 
1381 472 760 623 
1382 639 705 557 
1383 4 746 47 
1384 572 702 580 
1385 695 758 641 
1386 706 763 489 
1387 655 754 471 
1388 647 756 716 
1389 106 746 4 
1390 98 706 489 
1391 699 764 642 
1392 589 741 660 
1393 600 721 679 
1394 689 727 618 
1395 559 712 567 
1396 572 707 702 
1397 472 719 51 
1398 497 704 666 
1399 554 709 523 
1400 668 707 572 
1401 594 708 574 
1402 9 757 97 
1403 594 762 708 
1404 549 753 701 
1405 537 710 538 
1406 588 750 596 
1407 708 762 607 
1408 7 748 91 
1409 637 725 714 
1410 642 764 500 
1411 623 760 701 
1412 609 713 552 
1413 596 750 686 
1414 497 711 704 
1415 685 722 579 
1416 658 720 691 
1417 687 712 559 
1418 596 747 587 
1419 590 728 669 
1420 575 758 695 
1421 97 757 706 
1422 534 703 694 
1423 667 711 497 
1424 617 720 616 
1425 576 725 723 
1426 553 714 576 
1427 580 735 610 
1428 647 716 499 
1429 555 715 690 
1430 610 718 581 
1431 51 719 52 
1432 601 716 602 
1433 677 757 9 
1434 692 749 532 
1435 667 715 711 
1436 650 755 736 
1437 699 735 580 
1438 723 725 638 
1439 577 717 590 
1440 655 744 726 
1441 722 742 650 
1442 555 748 78 
1443 653 759 498 
1444 690 715 667 
1445 622 719 623 
1446 646 749 692 
1447 637 724 636 
1448 696 724 563 
1449 498 723 638 
1450 638 725 469 
1451 489 763 712 
1452 580 764 699 
1453 731 754 655 
1454 679 721 605 
1455 619 728 463 
1456 599 722 685 
1457 532 749 700 
1458 576 723 593 
1459 533 726 585 
1460 706 757 597 
1461 47 746 642 
1462 504 730 485 
1463 680 727 573 
1464 628 749 646 
1465 599 743 742 
1466 605 729 570 
1467 742 743 462 
1468 634 740 477 
1469 70 734 647 
1470 616 732 614 
1471 118 733 556 
1472 152 737 693 
1473 573 727 689 
1474 694 738 107 
1475 587 747 589 
1476 557 737 119 
1477 140 738 653 
1478 624 753 625 
1479 607 762 555 
1480 649 742 462 
1481 578 736 592 
1482 462 743 651 
1483 603 731 671 
1484 691 720 524 
1485 707 760 472 
1486 611 750 588 
1487 645 751 656 
1488 568 739 588 
1489 651 744 654 
1490 133 745 132 
1491 585 743 599 
1492 536 735 699 
1493 697 734 141 
1494 755 761 592 
1495 690 748 555 
1496 602 752 603 
1497 585 744 743 
1498 709 751 561 
1499 710 753 549 
1500 743 744 651 
1501 657 755 493 
1502 471 754 659 
1503 659 754 752 
1504 702 764 580 
1505 544 758 575 
1506 659 752 535 
1507 700 749 628 
1508 752 756 535 
1509 752 754 603 
1510 597 757 677 
1511 602 756 752 
1512 657 761 755 
1513 714 725 576 
1514 660 741 696 
1515 604 763 675 
1516 693 737 557 
1517 653 738 694 
1518 642 746 698 
1519 647 734 697 
1520 91 748 690 
1521 698 746 106 
1522 535 756 697 
1523 592 761 705 
1524 693 761 657 
1525 555 762 715 
1526 656 751 709 
1527 625 753 710 
1528 712 763 604 
1529 593 759 703 
1530 696 741 724 
1531 668 760 707 
1532 500 764 702 
1533 599 742 722 
1534 723 759 593 
1535 498 759 723 
1536 724 741 636 
1537 716 756 602 
1538 589 747 740 
1539 726 744 585 
1540 736 755 592 
1541 715 762 594 
1542 740 747 477 
1543 603 754 731 
2 3 2 96
1544 790 792 779 
1545 779 792 778 
1546 788 792 782 
1547 776 783 765 
1548 156 784 155 
1549 767 788 782 
1550 778 792 788 
1551 62 781 768 
1552 769 773 772 
1553 765 794 776 
1554 769 774 773 
1555 774 775 773 
1556 769 772 154 
1557 63 781 62 
1558 62 768 61 
1559 155 769 154 
1560 774 776 775 
1561 154 772 153 
1562 155 784 769 
1563 776 777 775 
1564 57 765 56 
1565 66 766 65 
1566 67 782 66 
1567 68 767 67 
1568 66 782 766 
1569 767 782 67 
1570 777 778 775 
1571 61 785 60 
1572 765 783 56 
1573 777 780 779 
1574 56 783 55 
1575 777 779 778 
1576 775 788 773 
1577 55 771 54 
1578 59 770 58 
1579 156 797 784 
1580 768 785 61 
1581 55 783 771 
1582 57 787 765 
1583 69 786 68 
1584 769 784 774 
1585 68 786 767 
1586 65 789 64 
1587 58 787 57 
1588 770 787 58 
1589 766 789 65 
1590 766 790 789 
1591 778 788 775 
1592 789 790 781 
1593 781 800 768 
1594 773 799 772 
1595 770 801 787 
1596 6 795 63 
1597 153 798 7 
1598 4 797 156 
1599 60 796 5 
1600 776 794 777 
1601 766 792 790 
1602 787 801 780 
1603 64 795 6 
1604 784 797 771 
1605 7 798 69 
1606 5 796 59 
1607 54 797 4 
1608 790 800 781 
1609 785 796 60 
1610 771 793 784 
1611 770 796 785 
1612 784 793 774 
1613 772 799 786 
1614 787 794 765 
1615 768 791 785 
1616 772 798 153 
1617 63 795 781 
1618 779 800 790 
1619 780 794 787 
1620 780 791 779 
1621 774 793 776 
1622 788 799 773 
1623 776 793 783 
1624 782 792 766 
1625 786 798 772 
1626 777 794 780 
1627 767 799 788 
1628 785 801 770 
1629 783 793 771 
1630 781 795 789 
1631 771 797 54 
1632 59 796 770 
1633 789 795 64 
1634 786 799 767 
1635 69 798 786 
1636 791 801 785 
1637 791 800 779 
1638 768 800 791 
1639 780 801 791 
2 4 2 96
1640 827 829 816 
1641 816 829 815 
1642 825 829 819 
1643 813 820 802 
1644 153 821 154 
1645 804 825 819 
1646 815 829 825 
1647 99 818 805 
1648 806 810 809 
1649 802 831 813 
1650 806 811 810 
1651 811 812 810 
1652 806 809 155 
1653 100 818 99 
1654 154 806 155 
1655 99 805 98 
1656 811 813 812 
1657 155 809 156 
1658 154 821 806 
1659 813 814 812 
1660 103 803 102 
1661 105 804 104 
1662 103 819 803 
1663 94 802 93 
1664 104 819 103 
1665 804 819 104 
1666 814 815 812 
1667 98 822 97 
1668 802 820 93 
1669 814 817 816 
1670 93 820 92 
1671 814 816 815 
1672 812 825 810 
1673 92 808 91 
1674 96 807 95 
1675 153 834 821 
1676 805 822 98 
1677 92 820 808 
1678 94 824 802 
1679 106 823 105 
1680 806 821 811 
1681 105 823 804 
1682 102 826 101 
1683 95 824 94 
1684 807 824 95 
1685 803 826 102 
1686 803 827 826 
1687 815 825 812 
1688 826 827 818 
1689 818 837 805 
1690 810 836 809 
1691 807 838 824 
1692 10 832 100 
1693 156 835 4 
1694 7 834 153 
1695 97 833 9 
1696 813 831 814 
1697 803 829 827 
1698 824 838 817 
1699 101 832 10 
1700 821 834 808 
1701 4 835 106 
1702 91 834 7 
1703 9 833 96 
1704 827 837 818 
1705 822 833 97 
1706 808 830 821 
1707 807 833 822 
1708 821 830 811 
1709 809 836 823 
1710 824 831 802 
1711 805 828 822 
1712 809 835 156 
1713 100 832 818 
1714 816 837 827 
1715 817 831 824 
1716 817 828 816 
1717 811 830 813 
1718 825 836 810 
1719 813 830 820 
1720 819 829 803 
1721 823 835 809 
1722 814 831 817 
1723 804 836 825 
1724 822 838 807 
1725 820 830 808 
1726 818 832 826 
1727 808 834 91 
1728 96 833 807 
1729 826 832 101 
1730 823 836 804 
1731 106 835 823 
1732 828 838 822 
1733 828 837 816 
1734 805 837 828 
1735 817 838 828 
$EndElements
