$MeshFormat
4.1 0 8
$EndMeshFormat
$PhysicalNames
8
0 8 "dirXY"
0 9 "dirY"
1 4 "left"
1 5 "right"
1 6 "bottom"
1 7 "top"
1 10 "Fault"
2 1 "layer_1"
$EndPhysicalNames
$Entities
6 5 1 0
1 0 0 0 1 8 
2 1 0 0 1 9 
3 1 1 0 0 
4 0 1 0 0 
10 0.25 0.2 0 0 
11 0.75 0.8 0 0 
1 -9.999999994736442e-08 -1e-07 -1e-07 1.0000001 1e-07 1e-07 1 6 2 1 -2 
2 0.9999999000000001 -9.999999994736442e-08 -1e-07 1.0000001 1.0000001 1e-07 1 5 2 2 -3 
3 -9.999999994736442e-08 0.9999999000000001 -1e-07 1.0000001 1.0000001 1e-07 1 7 2 3 -4 
4 -1e-07 -9.999999994736442e-08 -1e-07 1e-07 1.0000001 1e-07 1 4 2 4 -1 
10 0.2499999 0.1999999 -1e-07 0.7500000999999999 0.8000001 1e-07 1 10 2 10 -11 
1 -9.999999994736442e-08 -9.999999994736442e-08 -1e-07 1.0000001 1.0000001 1e-07 1 1 4 1 2 3 4 
$EndEntities
$Nodes
12 37 1 37
0 1 0 1
1
0 0 0
0 2 0 1
2
1 0 0
0 3 0 1
3
1 1 0
0 4 0 1
4
0 1 0
0 10 0 1
5
0.25 0.2 0
0 11 0 1
6
0.75 0.8 0
1 1 0 3
7
8
9
0.2499999999999997 0 0
0.4999999999999988 0 0
0.7499999999999989 0 0
1 2 0 3
10
11
12
1 0.2499999999999997 0
1 0.4999999999999988 0
1 0.7499999999999989 0
1 3 0 3
13
14
15
0.7500000000000003 1 0
0.5000000000000012 1 0
0.2500000000000011 1 0
1 4 0 3
16
17
18
0 0.7500000000000003 0
0 0.5000000000000012 0
0 0.2500000000000011 0
1 10 0 3
19
20
21
0.375 0.35 0
0.5 0.5 0
0.6250000000000001 0.6500000000000001 0
2 1 0 16
22
23
24
25
26
27
28
29
30
31
32
33
34
35
36
37
0.7798890838796843 0.3628102358311676 0
0.2201109161203158 0.6371897641688324 0
0.6368133787785297 0.1769091071487834 0
0.3631866212214703 0.8230908928512166 0
0.1922320570121261 0.4163477056040992 0
0.8077679429878739 0.5836522943959008 0
0.427680962904585 0.1766948629919202 0
0.5723190370954151 0.8233051370080799 0
0.1780921937355768 0.8223634672839004 0
0.8219078062644232 0.1776365327160997 0
0.4359712256788844 0.6573044684996736 0
0.6503527472975088 0.4873580544420827 0
0.539106709619986 0.340327741983345 0
0.3446628397622652 0.512168387654521 0
0.1249999999999998 0.1 0
0.8750000000000002 0.8999999999999999 0
$EndNodes
$Elements
8 78 1 78
0 1 15 1
1 1 
0 2 15 1
2 2 
1 1 1 4
3 1 7 
4 7 8 
5 8 9 
6 9 2 
1 2 1 4
7 2 10 
8 10 11 
9 11 12 
10 12 3 
1 3 1 4
11 3 13 
12 13 14 
13 14 15 
14 15 4 
1 4 1 4
15 4 16 
16 16 17 
17 17 18 
18 18 1 
1 10 1 4
19 5 19 
20 19 20 
21 20 21 
22 21 6 
2 1 2 56
23 6 27 12 
24 5 26 18 
25 7 28 5 
26 13 29 6 
27 8 28 7 
28 14 29 13 
29 19 26 5 
30 21 27 6 
31 11 22 10 
32 17 23 16 
33 18 26 17 
34 12 27 11 
35 12 37 6 
36 18 36 5 
37 33 34 22 
38 23 35 32 
39 23 32 25 
40 22 34 24 
41 13 37 3 
42 7 36 1 
43 15 25 14 
44 9 24 8 
45 4 30 15 
46 2 31 9 
47 10 31 2 
48 16 30 4 
49 17 26 23 
50 11 27 22 
51 5 28 19 
52 6 29 21 
53 23 30 16 
54 22 31 10 
55 1 36 18 
56 3 37 12 
57 25 30 23 
58 24 31 22 
59 25 29 14 
60 24 28 8 
61 20 33 21 
62 20 35 19 
63 21 32 20 
64 19 34 20 
65 29 32 21 
66 28 34 19 
67 9 31 24 
68 15 30 25 
69 21 33 27 
70 19 35 26 
71 6 37 13 
72 5 36 7 
73 20 34 33 
74 32 35 20 
75 25 32 29 
76 24 34 28 
77 27 33 22 
78 26 35 23 
$EndElements
