$MeshFormat
4.1 0 8
$EndMeshFormat
$PhysicalNames
5
1 4 "left"
1 5 "right"
1 6 "bottom"
1 7 "top"
2 1 "domain"
$EndPhysicalNames
$Entities
4 4 1 0
1 0 0 0 0 
2 1 0 0 0 
3 1 1 0 0 
4 0 1 0 0 
1 0 0 0 1 0 0 1 6 2 1 -2 
2 1 0 0 1 1 0 1 5 2 2 -3 
3 0 1 0 1 1 0 1 7 2 3 -4 
4 0 0 0 0 1 0 1 4 2 4 -1 
1 0 0 0 1 1 0 1 1 4 1 2 3 4 
$EndEntities
$Nodes
9 4 1 4
0 1 0 1
1
0 0 0
0 2 0 1
2
1 0 0
0 3 0 1
3
1 1 0
0 4 0 1
4
0 1 0
1 1 0 0
1 2 0 0
1 3 0 0
1 4 0 0
2 1 0 0
$EndNodes
$Elements
5 6 1 6
1 1 1 1
1 1 2 
1 2 1 1
2 2 3 
1 3 1 1
3 3 4 
1 4 1 1
4 4 1 
2 1 2 2
5 1 2 4 
6 4 2 3 
$EndElements
